<svg width="109" height="109" viewBox="0 0 109 109" fill="none" xmlns="http://www.w3.org/2000/svg">
<path d="M102.964 101.285C102.964 101.316 81.2642 101.341 54.5018 101.341C27.7301 101.341 6.03455 101.316 6.03455 101.285C6.03455 101.254 27.7301 101.228 54.5018 101.228C81.2642 101.228 102.964 101.254 102.964 101.285Z" fill="#263238"/>
<path d="M20.2163 92.7308C20.2163 92.7308 19.1202 85.1943 19.2115 80.8095C19.3028 76.4246 19.2061 71.4917 19.2061 71.4917H19.7112C19.7112 71.4917 19.3691 80.1951 19.7415 85.4444C20.1134 90.6896 21.0937 92.7306 21.0937 92.7306H20.2163" fill="#263238"/>
<path d="M23.4831 63.0116C23.3815 62.7541 23.2566 62.486 23.0229 62.3377C22.7025 62.1346 22.2824 62.2191 21.9247 62.3456C20.3984 62.8853 19.0455 65.7311 18.4286 67.2277L20.4549 74.055C24.1121 70.6623 24.7454 66.2112 23.4831 63.0116Z" fill="#455A64"/>
<path d="M22.9045 62.6143C22.9071 62.6154 22.8969 62.6462 22.8751 62.7035C22.8489 62.7689 22.8162 62.8513 22.7759 62.9522C22.6872 63.167 22.5625 63.4796 22.4136 63.8674C22.1149 64.6426 21.7349 65.7267 21.3951 66.9478C21.0567 68.1696 20.8235 69.2945 20.6798 70.1127C20.6077 70.5216 20.5532 70.8537 20.5187 71.0837C20.5011 71.1911 20.4869 71.2785 20.4755 71.3479C20.4649 71.4083 20.4577 71.4396 20.4548 71.4394C20.452 71.439 20.4535 71.4069 20.4588 71.3459C20.466 71.2759 20.4753 71.1876 20.4864 71.0793C20.5111 70.848 20.5566 70.514 20.6216 70.1029C20.7507 69.2806 20.9754 68.1507 21.3146 66.9253C21.6554 65.7008 22.0454 64.6169 22.3586 63.8456C22.5149 63.4598 22.6479 63.1504 22.7462 62.9394C22.7924 62.8409 22.8299 62.7604 22.8598 62.6968C22.8866 62.6416 22.9019 62.6133 22.9045 62.6143Z" fill="#263238"/>
<path d="M19.5542 75.6922C17.655 74.6428 16.5355 72.6686 16.4311 70.501C16.3581 68.9859 16.8235 67.4991 17.3511 66.0771C17.3968 65.9537 17.4511 65.8208 17.5656 65.756C17.7249 65.6658 17.9242 65.746 18.0833 65.8367C19.4635 66.6226 20.2995 68.1209 20.7445 69.6454C21.0405 70.6597 21.1938 71.7294 21.0568 72.7774C20.9202 73.8253 20.3211 74.9652 19.5542 75.6922Z" fill="#455A64"/>
<path d="M19.5538 75.6921C19.5509 75.6921 19.5483 75.6605 19.5464 75.6005C19.5451 75.5314 19.5433 75.4447 19.5414 75.3385C19.5407 75.1111 19.5315 74.782 19.513 74.376C19.4764 73.564 19.37 72.4448 19.1605 71.222C18.9497 69.999 18.6942 68.904 18.5059 68.1127C18.413 67.7255 18.3369 67.4081 18.2811 67.1755C18.2573 67.0719 18.2379 66.9874 18.2227 66.92C18.2102 66.8614 18.205 66.8302 18.2078 66.8295C18.2107 66.8289 18.2214 66.8585 18.239 66.9159C18.2584 66.9824 18.2828 67.0654 18.3127 67.1674C18.3751 67.3865 18.4614 67.7044 18.5634 68.0985C18.7666 68.887 19.0319 69.9818 19.2431 71.2081C19.4533 72.4343 19.5509 73.559 19.5723 74.3739C19.5834 74.7813 19.5836 75.1111 19.5743 75.339C19.5699 75.4451 19.5664 75.5319 19.5636 75.6012C19.5599 75.6607 19.5568 75.6921 19.5538 75.6921Z" fill="#263238"/>
<g opacity="0.3">
<path d="M19.5545 75.6921C17.6553 74.6427 16.5359 72.6685 16.4315 70.5009C16.3584 68.9858 16.8239 67.499 17.3514 66.077C17.3972 65.9536 17.4515 65.8207 17.5659 65.7559C17.7253 65.6657 17.9246 65.7459 18.0837 65.8366C19.4639 66.6225 20.2999 68.1208 20.7448 69.6453C21.0409 70.6596 21.1941 71.7293 21.0572 72.7773C20.9205 73.8252 20.3215 74.9651 19.5545 75.6921Z" fill="black"/>
</g>
<path d="M21.6962 87.2233C23.5655 87.634 25.1046 88.9525 26.9079 89.5934C28.101 90.0177 29.4502 90.1676 30.4029 91.0019C30.1742 90.4249 29.6325 90.0405 29.106 89.7116C27.6229 88.7853 26.035 88.0271 24.3821 87.4566C23.5337 87.1636 22.6133 86.9188 21.7487 87.1601" fill="#455A64"/>
<path d="M18.993 88.8891C16.6521 88.8514 14.1872 86.8584 11.8572 86.7394C14.2956 85.9522 17.7871 86.5953 18.993 88.8891Z" fill="#455A64"/>
<path d="M19.908 83.2725C21.0968 82.8442 22.4019 82.8237 23.6504 83.0179C24.8991 83.2119 26.1049 83.6124 27.3041 84.0109C27.184 83.1986 26.5263 82.588 25.9083 82.0474C25.4433 81.6406 24.9748 81.2312 24.4411 80.9197C23.9077 80.6081 23.299 80.3971 22.6816 80.4233C21.9369 80.4549 21.228 80.839 20.7397 81.4021C20.2514 81.9652 19.9889 82.5318 19.908 83.2725Z" fill="#455A64"/>
<path d="M15.1038 80.6882C13.6301 79.4301 11.3982 79.5531 9.46106 79.5967C12.4387 81.0204 15.6477 82.9724 18.2122 85.0502C18.2909 83.6807 16.9653 82.2774 15.1038 80.6882Z" fill="#455A64"/>
<g opacity="0.3">
<path d="M15.104 80.6881C13.6303 79.43 11.3984 79.5529 9.46124 79.5965C12.4389 81.0203 15.6479 82.9723 18.2124 85.05C18.2911 83.6805 16.9655 82.2773 15.104 80.6881Z" fill="black"/>
</g>
<path d="M20.5716 78.9519C21.3126 78.4579 22.0623 77.987 22.838 77.6347C23.6136 77.2822 24.3371 76.7208 25.0864 76.3154C26.0578 75.7893 26.8993 75.0584 27.7909 74.4061C28.6825 73.7541 29.662 73.1655 30.7529 72.9926C29.8632 72.809 28.9337 72.9091 28.0573 73.1485C27.181 73.3878 26.3484 73.7624 25.5202 74.1356C24.3707 74.6533 23.2011 75.1839 22.2616 76.0248C21.3218 76.8652 20.4724 77.6949 20.5716 78.9519Z" fill="#455A64"/>
<path d="M26.8657 88.8887C26.8641 88.8911 26.8389 88.8802 26.7915 88.8566C26.7362 88.8281 26.6688 88.793 26.5873 88.7509C26.4111 88.657 26.1578 88.5181 25.8391 88.3579C25.6813 88.2746 25.5064 88.1876 25.3168 88.0987C25.1291 88.0053 24.925 87.9133 24.709 87.82C24.2767 87.6354 23.794 87.4427 23.2676 87.3176C22.7429 87.1887 22.2197 87.1606 21.766 87.2798C21.5371 87.3352 21.3215 87.3897 21.1297 87.4697C20.9372 87.5478 20.7656 87.6389 20.616 87.7335C20.3161 87.9223 20.1066 88.1224 19.9705 88.2667C19.8349 88.4119 19.7689 88.5009 19.763 88.4965C19.7606 88.4948 19.7752 88.4712 19.8051 88.4276C19.8343 88.3836 19.8818 88.3217 19.9466 88.2451C20.0765 88.0928 20.2827 87.8828 20.5842 87.684C20.7344 87.5846 20.9079 87.4885 21.1035 87.4058C21.2988 87.321 21.5192 87.2626 21.7483 87.2051C22.212 87.0782 22.7557 87.1052 23.287 87.2365C23.8217 87.3636 24.3068 87.56 24.7399 87.7496C24.9564 87.8456 25.1603 87.9404 25.3473 88.0365C25.5365 88.1285 25.7103 88.2188 25.8666 88.3057C26.1827 88.4732 26.4318 88.6201 26.6032 88.7228C26.6817 88.7705 26.7466 88.81 26.7998 88.8422C26.8445 88.8701 26.8672 88.8863 26.8657 88.8887Z" fill="#263238"/>
<path d="M17.2468 87.7288C17.2487 87.7233 17.3008 87.7388 17.3935 87.7717C17.4866 87.8034 17.6176 87.8594 17.775 87.9376C18.09 88.0931 18.5044 88.3582 18.8933 88.7307C19.2813 89.1048 19.5628 89.5081 19.7306 89.8168C19.815 89.9709 19.8763 90.0995 19.9116 90.1913C19.948 90.2825 19.9656 90.3339 19.9604 90.3361C19.9469 90.342 19.8595 90.1438 19.6796 89.8465C19.5007 89.5491 19.2168 89.1587 18.8355 88.7911C18.4529 88.4249 18.0516 88.157 17.7473 87.99C17.443 87.8219 17.2413 87.7425 17.2468 87.7288Z" fill="#263238"/>
<path d="M12.0679 80.5716C12.0688 80.5687 12.1033 80.579 12.1678 80.601C12.2404 80.6267 12.3335 80.6599 12.4488 80.7011C12.5737 80.7471 12.7217 80.8018 12.8918 80.8643C13.0644 80.9284 13.2519 81.0233 13.464 81.1166C14.3068 81.4992 15.4284 82.1431 16.5117 83.0583C17.0458 83.5233 17.5289 83.9959 17.9328 84.4579C18.3352 84.9207 18.676 85.356 18.9415 85.7358C19.2088 86.1144 19.4115 86.4297 19.5504 86.6479C19.6162 86.751 19.6692 86.8343 19.7106 86.899C19.7468 86.9566 19.7649 86.9877 19.7625 86.9895C19.7601 86.9912 19.7376 86.9633 19.6969 86.9086C19.6559 86.8541 19.5966 86.7726 19.5235 86.666C19.3762 86.453 19.1665 86.1432 18.8937 85.7702C18.623 85.3959 18.279 84.9664 17.8755 84.5089C17.4704 84.0522 16.9886 83.5841 16.4576 83.122C15.3811 82.2125 14.2719 81.5648 13.439 81.17C13.2292 81.0734 13.0442 80.9755 12.8739 80.9073C12.7063 80.8397 12.5602 80.7808 12.4372 80.7311C12.3243 80.6841 12.2332 80.6461 12.1621 80.6167C12.0996 80.5899 12.0671 80.5742 12.0679 80.5716Z" fill="#263238"/>
<path d="M23.4202 81.9579C23.4187 81.9633 23.352 81.9546 23.2336 81.9339C23.1693 81.9219 23.0978 81.9088 23.0185 81.8942C22.935 81.8781 22.8371 81.8776 22.7309 81.8665C22.31 81.836 21.6967 81.8707 21.1221 82.1839C20.8321 82.3306 20.5889 82.5286 20.39 82.7272C20.1882 82.9242 20.0349 83.1296 19.9194 83.309C19.6846 83.6685 19.612 83.9281 19.5976 83.9231C19.593 83.922 19.6061 83.856 19.6451 83.7407C19.6881 83.6273 19.7546 83.4629 19.8692 83.2778C19.9802 83.091 20.1317 82.8778 20.3353 82.6731C20.5359 82.4669 20.7846 82.2613 21.0831 82.11C21.6758 81.7872 22.3102 81.7612 22.7359 81.8077C22.8436 81.8227 22.9424 81.8273 23.0261 81.848C23.1052 81.8678 23.1763 81.8859 23.2406 81.902C23.3579 81.9328 23.4218 81.9524 23.4202 81.9579Z" fill="#263238"/>
<path d="M25.773 74.6589C25.7743 74.6615 25.7437 74.6802 25.6845 74.7134C25.6171 74.75 25.5305 74.7971 25.4233 74.8553C25.1961 74.9776 24.8693 75.1581 24.4722 75.3922C24.0769 75.6294 23.6113 75.9204 23.116 76.2745C22.6222 76.6294 22.0916 77.0418 21.6017 77.543C21.3602 77.7952 21.1376 78.0583 20.9824 78.3448C20.8292 78.6393 20.6824 78.9238 20.5477 79.1972C20.277 79.7433 20.0566 80.2458 19.8974 80.6778C19.7387 81.1099 19.6397 81.4696 19.5811 81.7203C19.5212 81.9708 19.4996 82.1121 19.4913 82.1108C19.4885 82.1103 19.4917 82.0748 19.5007 82.0072C19.5092 81.9396 19.5233 81.8402 19.5493 81.7133C19.5985 81.4594 19.6895 81.0949 19.8418 80.6576C19.9949 80.2205 20.2109 79.7127 20.4786 79.1632C20.612 78.8881 20.7574 78.6023 20.9098 78.3071C21.0709 78.0076 21.297 77.7407 21.5418 77.4848C22.0375 76.9775 22.5725 76.5648 23.0715 76.2115C23.5716 75.8592 24.0423 75.5721 24.4425 75.3408C24.8445 75.1125 25.1763 74.9396 25.4082 74.8261C25.5186 74.7735 25.6075 74.731 25.6768 74.6981C25.7387 74.6698 25.7716 74.6562 25.773 74.6589Z" fill="#263238"/>
<path d="M19.2085 81.7474C19.2028 81.7483 19.1865 81.6779 19.162 81.5502C19.1348 81.4056 19.1004 81.2247 19.0596 81.0093C18.9704 80.5537 18.8342 79.9261 18.6168 79.2527C18.4017 78.5784 18.1396 77.9917 17.9482 77.5686C17.8573 77.3691 17.781 77.2013 17.72 77.0674C17.6668 76.9486 17.6398 76.8817 17.645 76.8793C17.6502 76.8767 17.6871 76.9388 17.7492 77.053C17.8113 77.1675 17.8987 77.3345 18.0016 77.5433C18.207 77.9608 18.4793 78.5474 18.6964 79.2271C18.9153 79.9056 19.043 80.5393 19.1178 80.9991C19.1544 81.2293 19.1808 81.4159 19.1943 81.5456C19.2089 81.6749 19.2144 81.7466 19.2085 81.7474Z" fill="#263238"/>
<path d="M19.0396 76.4206C18.981 75.5362 18.6928 74.6769 18.2784 73.8934C17.1421 71.7452 15.0066 70.1527 12.6237 69.6764C14.3687 72.2773 16.1138 74.8783 17.8589 77.4792L18.5349 78.8718C18.9962 78.1151 19.0985 77.3051 19.0396 76.4206Z" fill="#455A64"/>
<path d="M26.5475 91.7992H14.3742V93.9568H26.5475V91.7992Z" fill="#D66D11"/>
<path d="M15.2843 93.5288L16.6202 101.265H24.1905L25.6395 93.5288H15.2843Z" fill="#D66D11"/>
<path d="M26.5417 93.9587C26.5417 93.9825 23.7958 94.0014 20.4094 94.0014C17.0219 94.0014 14.2766 93.9823 14.2766 93.9587C14.2766 93.9352 17.0219 93.916 20.4094 93.916C23.7958 93.916 26.5417 93.9352 26.5417 93.9587Z" fill="#263238"/>
<path d="M91.6625 60.4899H90.1358V99.2242H91.6625V60.4899Z" fill="#E0E0E0"/>
<path d="M91.6623 99.2245C91.6623 99.2245 91.6597 99.1548 91.6584 99.0222C91.6575 98.8873 91.6562 98.6917 91.6545 98.436C91.6525 97.9196 91.6499 97.1627 91.6464 96.1876C91.6423 94.2351 91.6364 91.4118 91.6292 87.9156C91.6233 80.9282 91.615 71.2529 91.6059 60.4903L91.6625 60.547C91.1801 60.547 90.6602 60.547 90.1378 60.547H90.1359L90.1926 60.4903C90.1926 79.1094 90.1747 94.7725 90.1505 99.2245L90.1357 99.2097C90.6562 99.2136 91.0358 99.2164 91.288 99.2182C91.5391 99.221 91.6623 99.2245 91.6623 99.2245C91.6623 99.2245 91.5466 99.228 91.2967 99.2306C91.0425 99.2326 90.6602 99.2354 90.1357 99.2391H90.1211V99.2243C90.0969 94.7723 90.079 79.109 90.079 60.4901V60.4334H90.1357H90.1376C90.6599 60.4334 91.1799 60.4334 91.6623 60.4334H91.7192V60.4901C91.7101 71.2695 91.7018 80.9594 91.6959 87.9574C91.6887 91.448 91.6828 94.2668 91.6787 96.2161C91.6752 97.1853 91.6723 97.9379 91.6706 98.4513C91.6689 98.7037 91.6675 98.8966 91.6667 99.0298C91.6649 99.16 91.6623 99.2245 91.6623 99.2245Z" fill="#263238"/>
<path d="M88.7049 36.9775C88.7049 36.9775 86.834 38.8482 85.0033 39.3657C83.1723 39.883 81.9783 40.082 81.8189 40.8782C81.6598 41.6743 82.018 43.545 82.6151 45.0973C83.2122 46.6497 84.7643 51.1872 84.9634 52.2619C85.1624 53.3367 85.3614 54.8568 85.1225 55.649C84.8838 56.4412 83.9682 59.6983 83.8886 60.8958C83.833 61.7312 83.9327 64.406 83.9978 65.9466C84.0264 66.6211 84.4955 67.2023 85.1535 67.3538C88.9321 68.2248 93.4939 68.2622 97.363 67.3907C98.0885 67.2272 98.5945 66.5708 98.555 65.8281C98.4634 64.1039 98.2797 60.9499 98.0586 58.7758C97.7401 55.6451 97.1829 55.9335 97.4218 54.0776C97.6606 52.2218 97.8995 50.0326 98.1382 48.7988C98.3771 47.5649 100.089 42.7486 99.8497 41.077C99.8497 41.077 99.4915 40.5198 98.9343 40.3606C98.3771 40.2015 94.7947 39.6443 93.7998 37.3357L93.5608 35.5446C93.5608 35.5446 91.5308 33.6739 89.3417 34.6689C89.3417 34.6689 89.0232 34.9874 88.864 35.5047C88.7049 36.0222 88.7049 36.9775 88.7049 36.9775Z" fill="#D66D11"/>
<path d="M87.1775 54.8197C87.1736 54.8194 87.1716 54.7658 87.1712 54.6638C87.1688 54.5618 87.1775 54.4118 87.1683 54.2186C87.1631 53.8323 87.1278 53.2732 87.0214 52.5908C86.9122 51.9091 86.7339 51.1049 86.4736 50.229C86.2192 49.3513 85.888 48.4013 85.5473 47.4011C84.8713 45.4049 84.2598 43.5983 83.812 42.2759C83.6962 41.9518 83.5641 41.669 83.4089 41.4462C83.2539 41.2239 83.0787 41.0632 82.9195 40.9583C82.5967 40.7471 82.3662 40.7499 82.3717 40.7349C82.3719 40.7329 82.3854 40.7329 82.4116 40.7347C82.4379 40.7356 82.4768 40.7412 82.5273 40.7508C82.6278 40.7711 82.7756 40.818 82.9433 40.9209C83.1107 41.0231 83.2958 41.1835 83.4606 41.4094C83.6254 41.635 83.7656 41.9223 83.8874 42.248C84.3518 43.5549 84.9705 45.3639 85.6548 47.3643C85.9953 48.364 86.324 49.3169 86.5741 50.1998C86.8298 51.0807 87.0013 51.8917 87.1007 52.5788C87.1975 53.2668 87.2209 53.8302 87.2124 54.2182C87.2148 54.4122 87.1988 54.5626 87.1938 54.6647C87.1871 54.7667 87.1814 54.8199 87.1775 54.8197Z" fill="#263238"/>
<path d="M90.744 48.8856C90.7464 48.8886 90.7279 48.9072 90.69 48.9399C90.6531 48.9741 90.5934 49.0175 90.5136 49.0698C90.3538 49.1727 90.0985 49.2924 89.7611 49.3558C89.4249 49.4168 89.0059 49.4158 88.5686 49.2889C88.1309 49.1637 87.6901 48.905 87.307 48.5509C86.9247 48.195 86.6334 47.7856 86.4193 47.3908C86.2037 46.9957 86.0566 46.6184 85.9461 46.2988C85.8373 45.9783 85.764 45.715 85.7172 45.5321C85.6705 45.3492 85.6502 45.2467 85.6574 45.2445C85.6653 45.2424 85.6999 45.3409 85.7594 45.5194C85.8192 45.698 85.9038 45.957 86.0215 46.2713C86.2593 46.8911 86.6345 47.7705 87.384 48.4675C87.7559 48.8108 88.1797 49.0628 88.5982 49.1884C89.017 49.3157 89.4208 49.3255 89.7478 49.2765C90.4124 49.1727 90.7325 48.859 90.744 48.8856Z" fill="#263238"/>
<path d="M90.9681 56.507C90.9367 56.5094 90.8432 55.5848 90.7588 54.4423C90.6744 53.2993 90.6315 52.3713 90.6629 52.3689C90.694 52.3667 90.7878 53.291 90.8721 54.4338C90.9563 55.5766 90.9992 56.5048 90.9681 56.507Z" fill="#263238"/>
<path d="M94.8963 56.4648C94.8652 56.4611 94.946 55.558 95.077 54.4477C95.2081 53.337 95.3393 52.4399 95.3705 52.4436C95.4017 52.4473 95.3208 53.3503 95.1898 54.461C95.059 55.5713 94.9275 56.4686 94.8963 56.4648Z" fill="#263238"/>
<path d="M93.7372 37.5073C93.7424 37.5132 93.6866 37.5662 93.5804 37.6575C93.4782 37.7541 93.309 37.8674 93.0915 37.9937C92.654 38.2341 91.9505 38.4388 91.1809 38.3337C90.7988 38.2843 90.445 38.1801 90.1376 38.0532C89.8346 37.9169 89.5695 37.7755 89.3669 37.627C89.2616 37.5588 89.1738 37.4868 89.0973 37.4234C89.0192 37.3619 88.9551 37.3052 88.9065 37.2546C88.8067 37.1565 88.7546 37.0999 88.76 37.0942C88.7749 37.0781 88.9959 37.2945 89.4114 37.5601C89.6159 37.6976 89.8797 37.8284 90.1775 37.9564C90.4796 38.075 90.8245 38.1731 91.1949 38.221C91.9402 38.3224 92.618 38.1382 93.0549 37.9222C93.2715 37.8079 93.4446 37.7072 93.5536 37.6224C93.6663 37.5428 93.732 37.5014 93.7372 37.5073Z" fill="#263238"/>
<path d="M98.3593 46.1907C98.3743 46.2019 98.1577 46.4635 97.9639 46.9694C97.8625 47.2199 97.7655 47.5279 97.6351 47.8658C97.5039 48.2024 97.324 48.5709 97.0315 48.8835C96.8869 49.0402 96.7143 49.1667 96.5298 49.2534C96.3452 49.3411 96.1457 49.3746 95.9613 49.3775C95.5894 49.379 95.2733 49.287 95.0082 49.2384C94.7433 49.1832 94.5266 49.1638 94.3767 49.1693C94.2265 49.1721 94.1445 49.1937 94.1419 49.1821C94.141 49.1782 94.1606 49.1706 94.1996 49.1595C94.2385 49.1464 94.2969 49.1342 94.3736 49.1252C94.5269 49.1058 94.7527 49.1139 95.0224 49.1595C95.292 49.1989 95.609 49.2807 95.9591 49.273C96.3092 49.2728 96.6759 49.1052 96.9491 48.8059C97.2261 48.5103 97.4042 48.1558 97.5381 47.8275C97.6719 47.4966 97.7777 47.1887 97.8899 46.9389C98 46.6882 98.1123 46.4946 98.2026 46.3704C98.2928 46.2457 98.3545 46.1868 98.3593 46.1907Z" fill="#263238"/>
<g opacity="0.3">
<path d="M89.3386 34.6688C89.3386 34.6688 90.4233 34.0933 91.827 34.5655C92.4298 34.7683 92.7522 34.964 92.9953 35.1347C93.4056 35.4229 93.5575 35.5443 93.5575 35.5443C93.5575 35.5443 93.3463 36.6267 90.8236 36.0712C88.317 35.5197 89.3386 34.6688 89.3386 34.6688Z" fill="black"/>
</g>
<path d="M93.596 35.6927C93.6004 35.6975 93.5518 35.7553 93.4449 35.8403C93.3381 35.9242 93.17 36.0326 92.9418 36.1213C92.7142 36.2105 92.4267 36.2776 92.1034 36.2926C91.7803 36.3081 91.425 36.2726 91.0626 36.1961C90.6981 36.1259 90.3694 35.997 90.0649 35.8998C89.7668 35.8 89.4741 35.7165 89.3001 35.5137C89.1314 35.3081 89.1488 35.0747 89.1904 34.9474C89.2354 34.8135 89.2988 34.7623 89.3019 34.7662C89.3106 34.7719 89.2615 34.8318 89.2332 34.9589C89.2061 35.0803 89.2077 35.292 89.3603 35.4605C89.5129 35.6293 89.7987 35.708 90.0989 35.801C90.4014 35.8915 90.728 36.0162 91.086 36.0851C91.4415 36.1601 91.7864 36.1976 92.0992 36.1884C92.4118 36.1795 92.6904 36.1228 92.9141 36.0463C93.3647 35.8911 93.5834 35.6746 93.596 35.6927Z" fill="#263238"/>
<g opacity="0.3">
<path d="M83.2434 41.1172C83.2434 41.1172 81.829 40.0359 81.8074 40.8782C81.7865 41.6898 81.8061 42.9745 82.6036 45.0974C83.1885 46.6544 84.7528 51.1872 84.9519 52.262C85.1509 53.3367 85.3499 54.8568 85.111 55.649C84.8723 56.4412 83.9567 59.6984 83.8771 60.8959C83.8213 61.7354 83.922 64.4325 83.9872 65.9694C84.0151 66.6262 84.4757 67.1828 85.1158 67.333C85.6185 67.4509 86.1866 67.5763 86.5594 67.6334C86.5594 67.6334 85.6941 63.2431 85.9614 61.1487C86.2287 59.0544 86.5121 58.6858 86.8526 56.4644C87.1931 54.2429 87.0841 52.291 86.4794 50.0545C86.0201 48.3558 84.425 43.7844 83.738 41.9789C83.5582 41.5059 83.3018 41.2336 83.2565 41.2107" fill="black"/>
</g>
<path d="M84.353 101.197H97.2761L91.6619 98.6028H90.1353L84.353 101.197Z" fill="#E0E0E0"/>
<path d="M84.3527 101.197C84.7129 101.033 86.7222 100.113 90.1151 98.5593L90.1243 98.5552H90.1347C90.6194 98.5541 91.131 98.553 91.6614 98.5517H91.6727L91.6832 98.5565C93.2262 99.2676 94.9602 100.067 96.7881 100.91C96.9634 100.99 97.1376 101.071 97.2995 101.146L97.5334 101.254H97.2758C93.662 101.256 90.409 101.233 88.0831 101.218C85.8508 101.206 84.6442 101.199 84.3527 101.197C84.649 101.196 85.8772 101.189 88.1494 101.176C90.4864 101.161 93.6947 101.139 97.2758 101.14L97.252 101.249C97.09 101.174 96.9156 101.093 96.7406 101.012C94.9144 100.166 93.1817 99.3637 91.64 98.6498L91.6616 98.6546C91.1314 98.6533 90.6198 98.6522 90.135 98.6511L90.1546 98.647C86.7385 100.149 84.7153 101.038 84.3527 101.197Z" fill="#263238"/>
<path d="M32.4304 58.0207C32.4304 58.0207 31.1964 59.6064 31.1087 59.938C31.0213 60.2694 30.1855 62.4206 30.1855 62.4206L30.9672 63.4596C30.9672 63.4596 31.0858 64.2557 31.2068 64.5897C31.3278 64.9237 31.7285 64.9598 31.829 64.785C31.9293 64.6102 32.004 64.5496 32.004 64.5496C32.004 64.5496 32.3659 65.0555 32.771 64.783C33.1758 64.5105 33.1546 64.3268 33.1546 64.3268C33.1546 64.3268 33.7576 64.5945 33.97 64.4646C34.1823 64.3348 34.2499 64.1668 34.2499 64.1668L34.6227 62.7552C34.6227 62.7552 34.4875 63.9121 34.6255 63.9176C34.7635 63.923 35.0898 64.0944 35.2762 64.0041C35.4626 63.9139 35.6743 63.2884 35.6736 63.203C35.673 63.1175 35.782 62.0005 35.782 62.0005L35.8916 59.7374L35.7002 58.8197L32.4304 58.0207Z" fill="#FFBF9D"/>
<path d="M36.8979 46.4637C36.8979 46.4637 36.8979 46.4637 36.971 47.7895C37.025 48.7714 35.494 59.1693 35.494 59.1693L32.2578 58.2878L32.7862 48.2393L32.7355 46.5574L36.8979 46.4637Z" fill="#FFBF9D"/>
<path d="M46.9415 31.0017L47.0631 21.0277C47.1741 18.5476 45.8234 16.4157 43.341 16.3734L43.1115 16.3828C40.8007 16.4783 38.9498 18.3315 38.8592 20.6425C38.7748 22.7927 38.7094 25.1695 38.7711 26.3186C38.8988 28.6974 41.2946 28.9693 41.2946 28.9693C41.3001 28.9693 41.3095 30.4174 41.3082 31.1164L40.749 32.7494L42.7075 32.2724L46.9415 31.0017Z" fill="#FFBF9D"/>
<path d="M41.2851 28.9698C41.2851 28.9698 42.7889 28.9959 44.3462 27.9256C44.3462 27.9256 43.6746 29.7457 41.2908 29.6295L41.2851 28.9698Z" fill="#FF9A6C"/>
<path d="M40.077 22.7831C40.0781 22.9629 40.2311 23.1101 40.4188 23.1125C40.6061 23.1147 40.7576 22.9714 40.7565 22.7916C40.7554 22.6117 40.6024 22.4644 40.4151 22.462C40.2274 22.4596 40.0759 22.6032 40.077 22.7831Z" fill="#263238"/>
<path d="M39.4119 21.6691C39.4559 21.7116 39.7053 21.5104 40.0713 21.4962C40.4364 21.4768 40.7127 21.6539 40.7504 21.6074C40.7691 21.5867 40.7229 21.5084 40.6026 21.4282C40.484 21.3482 40.2843 21.2739 40.0565 21.2843C39.8287 21.295 39.6405 21.3868 39.5339 21.4773C39.4249 21.5684 39.3903 21.6501 39.4119 21.6691Z" fill="#263238"/>
<path d="M43.5388 22.6947C43.5399 22.8746 43.6929 23.0217 43.8806 23.0241C44.0681 23.0265 44.2194 22.8831 44.2183 22.7032C44.2172 22.5234 44.0641 22.376 43.8767 22.3736C43.689 22.3712 43.5377 22.5151 43.5388 22.6947Z" fill="#263238"/>
<path d="M42.9889 21.612C43.0329 21.6545 43.283 21.4536 43.6483 21.4394C44.0135 21.42 44.2897 21.5972 44.3276 21.5506C44.3461 21.5299 44.3004 21.4518 44.1796 21.3716C44.061 21.2916 43.8615 21.2172 43.6337 21.2277C43.4059 21.2384 43.2178 21.3302 43.1112 21.4204C43.0024 21.5113 42.9675 21.5931 42.9889 21.612Z" fill="#263238"/>
<path d="M41.789 24.4692C41.7899 24.4483 41.561 24.4184 41.1906 24.3866C41.0969 24.3809 41.0075 24.3659 40.9892 24.3029C40.9643 24.2364 40.9992 24.1341 41.0402 24.0234C41.1187 23.7938 41.2009 23.5529 41.287 23.3007C41.6288 22.2722 41.8721 21.4283 41.8305 21.4148C41.7888 21.4015 41.4782 22.224 41.1366 23.2525C41.0546 23.5061 40.9761 23.7476 40.9016 23.9789C40.8706 24.0866 40.8148 24.2096 40.8682 24.3476C40.8963 24.4162 40.967 24.4642 41.0273 24.4777C41.088 24.4934 41.1407 24.4923 41.1869 24.4932C41.5584 24.498 41.7886 24.4901 41.789 24.4692Z" fill="#263238"/>
<path d="M42.8315 20.4693C42.8851 20.5606 43.2358 20.4477 43.6675 20.4207C44.0987 20.3849 44.4621 20.4455 44.502 20.3474C44.5192 20.3008 44.4429 20.2197 44.2877 20.1503C44.1338 20.081 43.8994 20.0313 43.6404 20.0498C43.3819 20.069 43.1571 20.1521 43.0148 20.2432C42.8716 20.3341 42.8077 20.4254 42.8315 20.4693Z" fill="#263238"/>
<path d="M39.3483 20.5997C39.4265 20.6807 39.7221 20.5866 40.0805 20.5731C40.4383 20.5491 40.7437 20.6114 40.8113 20.5227C40.8407 20.4798 40.7908 20.3978 40.6563 20.3226C40.5235 20.2476 40.3033 20.1894 40.0574 20.202C39.8113 20.2151 39.6001 20.296 39.4778 20.3845C39.3531 20.4732 39.3136 20.56 39.3483 20.5997Z" fill="#263238"/>
<path d="M46.9379 22.799C46.9778 22.7798 48.5533 22.2477 48.5686 23.877C48.5838 25.5063 46.9449 25.1856 46.9416 25.1388C46.9384 25.0921 46.9379 22.799 46.9379 22.799Z" fill="#FFBF9D"/>
<path d="M47.4358 24.5164C47.4428 24.5112 47.4644 24.5361 47.5126 24.5576C47.5594 24.5786 47.6401 24.5925 47.7247 24.56C47.8962 24.4953 48.0386 24.2206 48.0438 23.9267C48.0467 23.7785 48.0142 23.6375 47.9605 23.5213C47.9095 23.4025 47.8319 23.3201 47.7449 23.3055C47.6584 23.2863 47.5976 23.3388 47.5782 23.3848C47.5568 23.4306 47.5675 23.4628 47.5588 23.4659C47.5544 23.47 47.5237 23.4389 47.5361 23.3715C47.5426 23.339 47.5612 23.3004 47.5993 23.2688C47.6381 23.2366 47.6955 23.2198 47.7558 23.2259C47.8816 23.2333 47.9959 23.348 48.0547 23.4757C48.1206 23.6041 48.1604 23.7624 48.1574 23.9289C48.15 24.2575 47.985 24.5661 47.75 24.6363C47.6355 24.6673 47.5396 24.6337 47.4899 24.5956C47.4391 24.5557 47.4301 24.5193 47.4358 24.5164Z" fill="#FF9A6C"/>
<path d="M42.9484 24.7006C42.8924 24.6971 42.89 25.0712 42.5685 25.3354C42.2476 25.6005 41.8488 25.5564 41.8458 25.609C41.8406 25.6325 41.9343 25.682 42.1026 25.6875C42.2676 25.6938 42.5089 25.6419 42.7058 25.4804C42.902 25.3184 42.9868 25.1015 43.0003 24.948C43.0154 24.7915 42.9742 24.6984 42.9484 24.7006Z" fill="#263238"/>
<path d="M35.5682 18.4985C35.5931 18.4024 35.6619 18.3226 35.747 18.2709C35.9325 18.1587 36.1474 18.1709 36.3552 18.1652C36.8721 18.151 37.3835 18.013 37.8417 17.7737C37.6802 17.6941 37.5289 17.5969 37.3998 17.4711C37.1334 17.2115 36.9776 16.8108 37.0942 16.4576C37.116 16.3913 37.1537 16.3216 37.2202 16.3004C37.3257 16.2666 37.4195 16.3695 37.4942 16.4513C37.7399 16.7197 37.9653 16.8334 38.327 16.7929C38.5515 16.7676 38.7687 16.7149 38.9444 16.6026C38.9513 16.5952 38.9575 16.5869 38.9646 16.5797C39.0484 16.4914 39.1301 16.4068 39.2108 16.3251C39.2108 16.3251 39.2112 16.3246 39.2114 16.3242L39.2112 16.3246C39.8172 15.7097 40.3396 15.2824 40.8798 15.0578C41.6716 14.7284 43.0005 14.5837 43.8324 14.7917C44.6643 14.9998 45.4168 15.6643 45.5417 16.5128C46.0023 16.1143 46.7008 16.1097 47.2698 16.331L47.284 16.3246C47.9175 16.5424 48.2835 17.2049 48.4769 17.8461C48.4873 17.8812 48.4967 17.9167 48.5067 17.952C48.7239 18.2877 49.0171 18.5742 49.3652 18.7717C49.4267 18.8066 49.4969 18.8491 49.5052 18.9193C49.5134 18.9888 49.4552 19.047 49.3988 19.0884C49.2488 19.1985 49.0733 19.2718 48.8906 19.3064C48.9501 19.4588 49.0195 19.6066 49.1047 19.7475C49.1773 19.8674 49.2636 20.0108 49.2028 20.137C49.1557 20.2347 49.033 20.2759 48.9257 20.2615C48.8185 20.2469 48.7228 20.1887 48.6306 20.132C48.7029 20.2996 48.7751 20.4673 48.8475 20.6351C48.6196 20.6774 48.3831 20.662 48.1608 20.5972C48.0334 21.2004 47.9454 22.3159 47.7952 22.7253C47.3629 22.7378 47.2571 22.692 47.0398 22.767C46.7588 22.8638 46.8722 23.3619 46.5033 23.2243C46.3156 23.1541 46.0207 22.4491 45.9559 22.2595C45.5264 21.0007 45.3734 19.6489 45.5084 18.3259C45.2439 18.0503 44.9259 17.8262 44.5773 17.6699L44.6058 17.695C43.937 17.4713 43.1808 17.252 42.5523 17.572C42.0648 17.8203 41.7823 18.3322 41.4204 18.7425C40.7344 19.5199 39.9526 19.9395 38.9176 19.9958C38.8323 20.716 38.8182 21.8928 38.7905 22.5644L38.2021 21.2275L38.2016 21.2329C38.1546 21.1546 38.1153 21.0757 38.0774 20.9968L38.0643 20.9728V20.9698C38.0041 20.8427 37.9468 20.7156 37.8712 20.59C37.869 20.592 37.867 20.5939 37.8648 20.5959C37.5049 20.9209 36.9634 20.4363 37.2457 20.042C37.3017 19.9637 37.3689 19.8937 37.4461 19.836C37.2817 19.994 37.0347 20.0716 36.8158 20.0071C36.5972 19.9426 36.4256 19.7239 36.442 19.4965C36.4531 19.3413 36.5623 19.2014 36.7018 19.1386C36.4084 19.1645 36.1071 19.1039 35.8494 18.9609C35.6803 18.8661 35.5137 18.7104 35.5682 18.4985Z" fill="#263238"/>
<path d="M44.7888 16.7937C44.784 16.7998 44.8893 16.8556 45.0306 17.0098C45.1703 17.1632 45.3281 17.4312 45.4055 17.7974C45.445 17.9794 45.4709 18.1833 45.4733 18.4028C45.4768 18.6223 45.4618 18.8578 45.4478 19.1058C45.4345 19.3537 45.4199 19.616 45.4389 19.888C45.4485 20.0238 45.4663 20.162 45.4973 20.2998C45.5289 20.4352 45.5662 20.5824 45.6702 20.6981C45.753 20.7923 45.8899 20.8331 46.0078 20.8073C46.1269 20.7849 46.232 20.7203 46.3087 20.6329C46.4602 20.4522 46.4957 20.2246 46.5315 20.0241L46.4816 20.0306C46.5653 20.2096 46.6514 20.3864 46.7774 20.5268C46.9012 20.668 47.0719 20.7607 47.2441 20.7742C47.33 20.781 47.4163 20.7663 47.4894 20.7284C47.5642 20.6909 47.618 20.6281 47.6546 20.5619C47.6895 20.4945 47.7074 20.4208 47.7028 20.35C47.698 20.2791 47.6697 20.2124 47.6241 20.1653L47.599 20.1882C47.7852 20.3955 47.9807 20.5058 48.1157 20.5667C48.1837 20.5972 48.2382 20.6151 48.275 20.6266C48.3121 20.6371 48.3317 20.6414 48.3322 20.6401C48.3326 20.6386 48.3141 20.6312 48.2781 20.6177C48.2423 20.6035 48.1894 20.5828 48.1233 20.5503C47.9923 20.4851 47.8031 20.3718 47.6245 20.166L47.5995 20.1889C47.6806 20.273 47.6871 20.4221 47.6193 20.5429C47.5851 20.6026 47.5358 20.6584 47.47 20.6903C47.4046 20.7232 47.3261 20.736 47.2476 20.7291C47.0893 20.7151 46.9304 20.6284 46.8142 20.4938C46.6954 20.3596 46.6121 20.1873 46.5293 20.0081L46.4942 19.9321L46.4794 20.0149C46.4436 20.2152 46.4053 20.4337 46.2673 20.5967C46.1986 20.675 46.1022 20.7334 45.998 20.7528C45.8936 20.7742 45.7831 20.7411 45.7109 20.6602C45.62 20.5601 45.5819 20.421 45.5514 20.2876C45.5211 20.1531 45.5032 20.0177 45.4934 19.8841C45.474 19.6164 45.4875 19.3561 45.4993 19.1085C45.5119 18.8606 45.5252 18.6241 45.5197 18.4017C45.5152 18.1793 45.4868 17.9729 45.4441 17.7885C45.3606 17.4176 45.1938 17.1465 45.0467 16.9952C44.8978 16.8428 44.7888 16.7937 44.7888 16.7937Z" fill="#455A64"/>
<path d="M37.4415 19.1987C37.4409 19.1993 37.4474 19.2048 37.4609 19.2148C37.477 19.2263 37.4969 19.2403 37.5209 19.2575C37.547 19.2767 37.5804 19.2992 37.6227 19.3212C37.6641 19.3443 37.7114 19.3724 37.7685 19.3959C37.9911 19.4986 38.3475 19.5991 38.7914 19.5679C39.2309 19.5381 39.7571 19.3763 40.2245 19.0201C40.6971 18.6722 41.1094 18.1627 41.4446 17.5809C41.6149 17.2903 41.7527 16.9925 41.9055 16.7174C42.0572 16.442 42.2253 16.1872 42.43 15.9853C42.6323 15.7824 42.8682 15.6313 43.1123 15.5605C43.234 15.5227 43.3569 15.5131 43.4742 15.5147C43.5919 15.5195 43.7036 15.5421 43.8067 15.5746C44.0131 15.6413 44.1801 15.7529 44.3072 15.8683C44.4347 15.9847 44.5208 16.1083 44.5804 16.2142C44.6913 16.4322 44.699 16.5728 44.7075 16.5704C44.7085 16.5702 44.7077 16.5619 44.7053 16.5454C44.702 16.5255 44.6981 16.5018 44.6933 16.4726C44.6809 16.4089 44.6523 16.3167 44.5998 16.2044C44.5424 16.095 44.4572 15.9668 44.3286 15.8456C44.2006 15.7255 44.031 15.6084 43.8191 15.5373C43.7132 15.5027 43.598 15.478 43.476 15.4719C43.3545 15.4691 43.2255 15.4783 43.0995 15.5164C42.8459 15.5879 42.6018 15.7425 42.3938 15.9491C42.183 16.1549 42.011 16.4141 41.8575 16.6912C41.703 16.9683 41.5648 17.2652 41.3962 17.5532C41.0634 18.1307 40.6572 18.6343 40.1938 18.9789C39.7351 19.3321 39.2213 19.4938 38.7883 19.5287C38.3521 19.5645 38 19.4716 37.7772 19.3761C37.5527 19.2789 37.4457 19.1919 37.4415 19.1987Z" fill="#455A64"/>
<path d="M37.2155 18.1512C37.2135 18.1545 37.2443 18.1752 37.3016 18.2098C37.3585 18.2456 37.4455 18.2892 37.5562 18.3356C37.6667 18.3829 37.8036 18.4267 37.9586 18.4627C38.1141 18.4961 38.2883 18.52 38.472 18.5248C38.656 18.5275 38.8309 18.5107 38.9878 18.4839C39.1441 18.4542 39.2828 18.4161 39.3953 18.3735C39.5078 18.3317 39.5967 18.2916 39.6549 18.2584C39.7138 18.2262 39.7452 18.207 39.7434 18.2035C39.7386 18.1941 39.6078 18.2635 39.3824 18.3363C39.2701 18.3735 39.133 18.4069 38.9791 18.4333C38.8248 18.4568 38.6534 18.4719 38.4731 18.469C38.2931 18.4642 38.1224 18.4422 37.9693 18.4124C37.8167 18.3797 37.6811 18.3406 37.5704 18.2988C37.3487 18.2166 37.2207 18.142 37.2155 18.1512Z" fill="#455A64"/>
<path d="M37.3651 94.1308L37.5415 98.8043C37.5415 98.8043 32.8503 100.553 32.7986 101.42L41.8727 101.403L41.8969 94.1103L37.3651 94.1308Z" fill="#455A64"/>
<path d="M40.3378 98.4027C40.5135 98.4505 40.6352 98.6475 40.5948 98.8252C40.5545 99.0027 40.3548 99.1282 40.1782 99.0835C40.0019 99.0391 39.8484 98.8067 39.9086 98.6347C39.9685 98.4629 40.2109 98.3284 40.3716 98.4141" fill="#E0E0E0"/>
<path d="M41.87 101.398L41.8436 100.663L33.1535 100.953C33.1535 100.953 32.75 101.13 32.796 101.415L41.87 101.398Z" fill="#263238"/>
<path d="M37.395 98.7574C37.3966 98.8016 37.6181 98.8212 37.8365 98.9634C38.0584 99.0999 38.1711 99.2915 38.2119 99.2738C38.2527 99.2651 38.1862 99.0004 37.9189 98.833C37.6531 98.6632 37.3852 98.7166 37.395 98.7574Z" fill="white"/>
<path d="M36.4403 99.1494C36.4302 99.1924 36.6223 99.2674 36.7731 99.4544C36.9295 99.6371 36.9678 99.8396 37.0119 99.8376C37.0535 99.8446 37.0836 99.585 36.8917 99.3559C36.7016 99.1252 36.4409 99.1071 36.4403 99.1494Z" fill="white"/>
<path d="M35.9074 100.291C35.9477 100.3 36.009 100.079 35.8947 99.8361C35.7823 99.5928 35.5732 99.4973 35.5544 99.5344C35.5294 99.5708 35.6641 99.7007 35.7548 99.9013C35.8505 100.099 35.8634 100.286 35.9074 100.291Z" fill="white"/>
<path d="M37.4646 97.687C37.4834 97.7273 37.6866 97.6658 37.9371 97.6824C38.1878 97.6937 38.3829 97.7775 38.406 97.7395C38.4315 97.7075 38.2409 97.5438 37.9458 97.5285C37.6504 97.5108 37.4428 97.6523 37.4646 97.687Z" fill="white"/>
<path d="M48.2524 94.417L48.5044 100.07L47.4147 104.598C47.3362 104.925 47.5505 105.249 47.8814 105.305C48.0667 105.337 48.2544 105.278 48.3872 105.145C49.2326 104.298 52.2427 101.126 52.2556 100.824C52.2758 100.344 52.4152 94.7752 52.4152 94.7752L48.2524 94.417Z" fill="#455A64"/>
<path d="M47.8808 105.303L52.2763 100.371L52.2816 100.611C52.2657 100.856 52.2179 101.021 52.0869 101.181C51.7368 101.611 50.7444 102.777 48.4038 105.142C48.2675 105.28 48.0707 105.34 47.8808 105.303Z" fill="#263238"/>
<g opacity="0.6">
<path d="M51.0705 98.5742C50.9308 98.6753 50.8894 98.8907 50.9844 99.0341C51.0797 99.1778 51.2984 99.2221 51.4398 99.1233C51.5811 99.0248 51.6391 98.7678 51.5283 98.6357C51.4176 98.5035 51.158 98.4656 51.0444 98.5953" fill="white"/>
</g>
<path d="M49.1142 102.805C49.0825 102.822 48.9485 102.528 48.6086 102.376C48.2733 102.214 47.9625 102.3 47.9546 102.266C47.9494 102.252 48.0202 102.206 48.1521 102.185C48.2829 102.162 48.4748 102.177 48.6612 102.263C48.8473 102.35 48.9818 102.488 49.0492 102.602C49.1174 102.717 49.1281 102.801 49.1142 102.805Z" fill="white"/>
<path d="M48.7276 103.575C48.7012 103.6 48.5157 103.42 48.2211 103.342C47.9284 103.258 47.677 103.318 47.6672 103.283C47.6502 103.254 47.9201 103.128 48.2543 103.222C48.5893 103.313 48.7566 103.559 48.7276 103.575Z" fill="white"/>
<path d="M49.8443 101.819C49.8184 101.847 49.5345 101.568 49.0872 101.408C48.6423 101.24 48.2457 101.268 48.2438 101.23C48.234 101.2 48.6525 101.113 49.1299 101.291C49.6093 101.465 49.8713 101.803 49.8443 101.819Z" fill="white"/>
<path d="M49.9113 100.094C49.8969 100.128 49.5817 100.004 49.1747 99.9981C48.7677 99.9868 48.4475 100.097 48.4346 100.062C48.4185 100.035 48.74 99.8627 49.1773 99.8738C49.6146 99.8812 49.9286 100.067 49.9113 100.094Z" fill="white"/>
<path d="M49.8848 98.4331C49.868 98.4662 49.5495 98.2844 49.1205 98.3134C48.6908 98.3328 48.395 98.5491 48.3745 98.5181C48.3649 98.5065 48.4253 98.4342 48.5539 98.3559C48.6816 98.2776 48.8822 98.2029 49.1135 98.1894C49.3448 98.1769 49.5525 98.2286 49.6881 98.292C49.825 98.3555 49.8928 98.4204 49.8848 98.4331Z" fill="white"/>
<path d="M49.111 97.9972C49.1039 97.9974 49.0895 97.9218 49.0986 97.7833C49.1082 97.646 49.1435 97.4435 49.2565 97.2194C49.3153 97.113 49.3761 96.9765 49.5324 96.8985C49.61 96.8592 49.7276 96.8712 49.796 96.9447C49.8642 97.0162 49.8871 97.1084 49.891 97.1982C49.893 97.5573 49.5922 97.9115 49.1895 97.9717C48.7849 98.0251 48.4126 97.8014 48.2454 97.4949C48.2085 97.4153 48.1821 97.3175 48.2238 97.2209C48.2648 97.1234 48.379 97.0827 48.4603 97.0947C48.6288 97.1162 48.737 97.2106 48.8372 97.2804C49.0356 97.4328 49.1599 97.5952 49.2329 97.7116C49.3062 97.8289 49.3306 97.9019 49.324 97.9052C49.3046 97.9204 49.1749 97.6305 48.7854 97.3515C48.6873 97.2876 48.5741 97.2063 48.4529 97.1978C48.3938 97.1932 48.3437 97.2176 48.3236 97.2658C48.3029 97.312 48.3164 97.3826 48.3483 97.445C48.4895 97.6957 48.8305 97.8993 49.1717 97.8489C49.5115 97.8016 49.7755 97.4899 49.7766 97.2008C49.7759 97.1313 49.7559 97.0617 49.7177 97.0212C49.6802 96.9813 49.6242 96.9713 49.5726 96.9937C49.4633 97.0404 49.3923 97.1609 49.3341 97.261C49.1047 97.6813 49.1363 98.0024 49.111 97.9972Z" fill="white"/>
<path d="M34.5694 55.0325C34.5694 55.0325 33.7691 57.6649 33.881 60.9177C33.9243 62.1762 36.686 97.0645 36.686 97.0645L42.4024 97.3069L42.1789 64.6176L42.6426 64.739C42.6426 64.739 45.1729 78.7843 45.3321 81.0478C45.4751 83.0822 47.4828 97.9033 47.4828 97.9033L52.6885 97.7601L51.8627 78.6576L50.7119 59.9061L50.2116 54.4407L34.5694 55.0325Z" fill="#263238"/>
<path d="M43.2142 61.3314C43.2173 61.3389 43.1312 61.3844 42.97 61.4557C42.8083 61.5237 42.5707 61.6279 42.2515 61.6735C42.0924 61.6955 41.9121 61.6964 41.7246 61.655C41.5384 61.6138 41.3412 61.5255 41.1851 61.3672C41.029 61.2087 40.9333 60.9922 40.8759 60.7692C40.818 60.5442 40.7892 60.3116 40.7519 60.0751C40.6095 59.1259 40.5226 58.2609 40.477 57.6339C40.4541 57.3205 40.441 57.0665 40.4354 56.8908C40.4301 56.7151 40.4317 56.6176 40.4397 56.6172C40.4482 56.6168 40.4626 56.7129 40.4822 56.8875C40.5038 57.0874 40.5306 57.3344 40.5622 57.6265C40.6294 58.2502 40.7297 59.1111 40.8716 60.0574C40.9442 60.5253 40.9869 61.0007 41.2651 61.2898C41.5432 61.5739 41.945 61.6194 42.2411 61.5887C42.5469 61.5562 42.7867 61.4664 42.9524 61.4121C43.1183 61.3543 43.2109 61.3234 43.2142 61.3314Z" fill="#455A64"/>
<path d="M41.6834 56.8325C41.6819 56.8273 41.7218 56.8044 41.8024 56.8026C41.8822 56.8 42.0021 56.8295 42.1179 56.9191C42.2286 57.008 42.3437 57.1643 42.34 57.3708C42.3407 57.58 42.1689 57.7786 41.9531 57.846C41.739 57.9192 41.4831 57.8608 41.3597 57.6917C41.2345 57.5275 41.2348 57.3333 41.2716 57.1959C41.3117 57.0553 41.3913 56.9607 41.4571 56.9156C41.5232 56.8691 41.5687 56.8639 41.5707 56.8694C41.5857 56.8857 41.4057 56.9585 41.3549 57.2158C41.3322 57.337 41.3453 57.5 41.4464 57.6217C41.5435 57.7459 41.7379 57.7895 41.9151 57.7311C42.0926 57.6733 42.2236 57.5231 42.2284 57.3657C42.238 57.2079 42.1521 57.0688 42.0623 56.9845C41.8691 56.8068 41.681 56.8545 41.6834 56.8325Z" fill="#455A64"/>
<path d="M50.6446 59.571C50.6448 59.5795 50.5753 59.587 50.4486 59.5933C50.3222 59.6018 50.1382 59.5972 49.9121 59.5767C49.4604 59.5373 48.838 59.401 48.2078 59.105C47.5784 58.8065 47.0775 58.4124 46.7601 58.0889C46.6007 57.9273 46.4804 57.7882 46.4065 57.6851C46.3308 57.5833 46.2925 57.5249 46.299 57.5199C46.3158 57.5064 46.4904 57.7244 46.8194 58.027C47.147 58.3298 47.6441 58.7034 48.2595 58.9955C48.8758 59.285 49.4803 59.4313 49.9222 59.4919C50.3649 59.5534 50.6444 59.5497 50.6446 59.571Z" fill="#455A64"/>
<path d="M36.8414 56.7354C36.8534 56.7422 36.7466 56.9696 36.5201 57.3057C36.2945 57.6417 35.9385 58.0799 35.4763 58.4934C35.0131 58.9061 34.5376 59.2104 34.1784 59.3968C33.8187 59.5841 33.5808 59.6647 33.5756 59.6519C33.5675 59.634 33.7923 59.5261 34.1367 59.322C34.4812 59.1186 34.9403 58.8086 35.3957 58.4029C35.8498 57.9964 36.2097 57.575 36.4506 57.2556C36.6919 56.9364 36.8247 56.7254 36.8414 56.7354Z" fill="#455A64"/>
<path d="M38.089 31.9101L36.6422 32.2247C35.5912 32.4531 34.7349 33.2399 34.4665 34.2815C34.4626 34.297 34.4587 34.3127 34.4548 34.3284C33.4467 38.4752 32.2578 47.811 32.2578 47.811L37.4895 48.7957L38.4764 38.4191L38.089 31.9101Z" fill="#D66D11"/>
<path d="M48.1605 54.4437C48.1618 54.4472 48.1221 54.4659 48.0454 54.4982C47.9571 54.5339 47.845 54.5791 47.707 54.6349C47.4132 54.7535 46.9813 54.9087 46.4426 55.085C45.9044 55.2631 45.2554 55.4502 44.5282 55.6327C43.7996 55.8095 42.9924 55.9786 42.1378 56.1149C41.2824 56.247 40.4618 56.3333 39.7138 56.388C38.9657 56.4371 38.2905 56.4578 37.7237 56.4532C37.1569 56.4504 36.6985 56.4349 36.3824 56.412C36.2339 56.4013 36.1136 56.3924 36.0185 56.3856C35.9355 56.3784 35.8919 56.3728 35.8921 56.3691C35.8923 56.3654 35.9361 56.3634 36.0196 56.3636C36.1149 56.3651 36.2354 56.3671 36.3841 56.3695C36.7002 56.3791 37.1582 56.3828 37.7233 56.3758C38.2886 56.3706 38.9613 56.3418 39.7067 56.2873C40.4513 56.2271 41.2684 56.1382 42.1208 56.0065C42.9723 55.8707 43.7772 55.7052 44.5044 55.5346C45.2303 55.3582 45.8795 55.1794 46.4193 55.0114C46.9595 54.845 47.3942 54.7011 47.6922 54.5952C47.8328 54.5475 47.9473 54.5086 48.0373 54.4781C48.1169 54.452 48.1592 54.4402 48.1605 54.4437Z" fill="#263238"/>
<path d="M36.4875 32.2262L41.1719 30.686C41.1719 30.686 41.1479 31.9463 42.9697 31.9862C45.0684 32.0322 46.8296 30.187 46.8296 30.187C46.8296 30.187 51.1925 31.5465 52.1085 32.2853C53.0245 33.0241 50.0312 48.4591 50.0312 48.4591L49.7595 53.0561C49.7595 53.0561 50.2095 53.7999 50.2095 54.5978C50.2095 55.3957 50.2389 55.9276 50.2389 55.9276C44.6453 57.6149 39.0945 59.076 33.9872 57.4427C33.9872 57.4427 34.1146 54.7308 34.4099 53.992C34.7056 53.2532 34.6506 53.1852 34.6506 53.1852L35.1372 44.6973L35.2259 38.3139L36.4875 32.2262Z" fill="#D66D11"/>
<path d="M52.1521 32.2784C52.1521 32.2784 53.5314 33.2173 53.9155 35.1368C54.2994 37.0565 55.1383 48.1743 55.1383 48.1743L49.8017 47.9818C49.8017 47.9818 48.7304 38.7859 48.7304 38.5764C48.7304 38.3672 49.886 33.7955 49.9558 33.6906C50.0258 33.5862 52.1521 32.2784 52.1521 32.2784Z" fill="#D66D11"/>
<path d="M51.1323 32.3877C51.1489 32.418 50.6551 32.6676 50.1764 33.1385C49.6931 33.6048 49.4306 34.092 49.4007 34.0746C49.3754 34.0663 49.6013 33.5415 50.0996 33.0598C50.5943 32.5741 51.1249 32.3622 51.1323 32.3877Z" fill="#263238"/>
<path d="M54.613 48.1673C54.613 48.1673 54.613 48.1673 54.6082 49.4953C54.6047 50.4787 52.4659 60.7688 52.4659 60.7688L49.287 59.6986L50.4045 49.6985L50.4525 48.0166L54.613 48.1673Z" fill="#FFBF9D"/>
<path d="M49.2279 60.4109C49.2279 60.4109 47.9572 61.3694 47.6788 61.7479C47.4004 62.1263 46.7115 63.477 46.1977 63.8707C46.1977 63.8707 46.3036 64.3974 46.8116 64.1341C47.3195 63.8708 47.9341 63.2992 48.151 62.97C48.3679 62.6408 48.5937 62.8339 48.6066 63.1215C48.6195 63.409 48.3727 65.3545 48.3727 65.3545C48.3727 65.3545 47.7647 67.5179 47.929 67.7603C48.0934 68.0027 48.4318 67.946 48.5469 67.7889C48.6297 67.6755 49.3142 65.8676 49.3142 65.8676L49.4904 64.8845C49.4904 64.8845 49.1372 67.9988 49.3347 68.2427C49.5322 68.4867 49.7452 68.3923 49.8815 68.268C50.0177 68.1438 50.1596 66.7678 50.1596 66.7678L50.4796 64.9302L50.4217 68.4328C50.4217 68.4328 50.4585 68.7644 50.7188 68.7766C50.9791 68.7886 51.1535 68.4054 51.1535 68.4054L51.5295 64.7964C51.5295 64.7964 51.4085 66.8028 51.5431 66.9077C51.7231 67.0481 51.8879 67.0019 51.9472 66.848C52.068 66.5349 52.2439 64.7308 52.2439 64.7308L52.4094 61.2953L52.586 59.6398L49.3716 59.4297L49.2279 60.4109Z" fill="#FFBF9D"/>
<path d="M40.9428 31.0889C40.9428 31.008 41.2886 29.9298 41.2886 29.9298L42.4206 31.79L43.6927 30.6642L46.7928 29.3368L47.7512 30.5635L44.3471 32.3849L42.9024 32.9981L41.5362 32.7483L40.9428 31.0889Z" fill="#D66D11"/>
<path d="M48.7476 38.0672C48.7788 38.0642 48.9735 39.7792 49.1823 41.8975C49.3912 44.0164 49.5353 45.7362 49.5041 45.7393C49.4729 45.7423 49.2783 44.0275 49.0694 41.9086C48.8606 39.7903 48.7165 38.0703 48.7476 38.0672Z" fill="#263238"/>
<path d="M55.1374 48.1748C55.1374 48.1787 55.0925 48.1828 55.0071 48.1872C54.9214 48.1922 54.795 48.1948 54.6321 48.1966C54.3064 48.1992 53.8353 48.1883 53.2541 48.1652C52.6729 48.1436 51.9814 48.1055 51.2145 48.0967C51.0227 48.0932 50.828 48.1009 50.6224 48.0943C50.4193 48.0856 50.1991 48.056 50.0051 47.9413C49.8102 47.829 49.6687 47.6396 49.5771 47.4371C49.4843 47.2328 49.4341 47.0133 49.394 46.7931C49.3521 46.5753 49.3308 46.3451 49.3502 46.1249C49.3598 46.014 49.3774 45.903 49.4184 45.7951C49.4393 45.7415 49.4664 45.6878 49.5098 45.6416C49.5514 45.5932 49.6129 45.561 49.6672 45.5457C49.7814 45.5126 49.8867 45.5154 49.9885 45.508C50.0912 45.5027 50.193 45.4975 50.2937 45.4925C50.4951 45.4855 50.6922 45.4788 50.8849 45.4722C51.6549 45.4535 52.3477 45.4605 52.9293 45.4672C53.4994 45.477 53.9661 45.4851 54.3064 45.4908C54.459 45.4949 54.5828 45.4982 54.6807 45.5008C54.7664 45.5041 54.8113 45.5078 54.8113 45.5117C54.8113 45.5156 54.7664 45.5195 54.6807 45.5237C54.5828 45.5267 54.4588 45.5304 54.3062 45.535C53.9659 45.5381 53.4992 45.5424 52.9289 45.5474C52.3475 45.5509 51.6553 45.552 50.888 45.5767C50.6961 45.5845 50.4995 45.5926 50.2989 45.6008C50.1986 45.6065 50.0973 45.6122 49.995 45.6179C49.8928 45.625 49.7875 45.6253 49.7001 45.6521C49.5255 45.6968 49.4814 45.9348 49.4627 46.1343C49.4452 46.3455 49.4642 46.5557 49.5058 46.7735C49.5449 46.9889 49.5937 47.2005 49.68 47.3904C49.7655 47.5794 49.8915 47.7466 50.0617 47.8456C50.409 48.0446 50.8354 47.9736 51.2158 47.9923C51.9865 48.0069 52.6775 48.0536 53.258 48.0852C53.8384 48.1185 54.3079 48.1416 54.6328 48.1525C54.7851 48.1573 54.909 48.1613 55.0068 48.1643C55.0925 48.1674 55.1374 48.1709 55.1374 48.1748Z" fill="#263238"/>
<path d="M32.5714 46.2974C32.3407 46.1646 31.6501 46.3094 31.4572 46.6246C31.3181 46.8515 31.1949 47.2928 31.2433 47.5544C31.2943 47.8297 31.4703 48.0795 31.7122 48.2201C31.8906 48.3237 32.0959 48.3682 32.2976 48.4111C32.9583 48.5517 33.6191 48.6923 34.2796 48.8329C34.8382 48.9518 35.398 49.071 35.9654 49.1344C36.2432 49.1656 36.5283 49.1828 36.7988 49.1122C37.0694 49.0418 37.3262 48.8702 37.4371 48.6136C37.5873 48.2659 37.4315 47.8456 37.1579 47.5838C36.8841 47.322 36.5159 47.1866 36.1551 47.0715C34.8859 46.6665 33.9018 46.3654 32.5714 46.2974Z" fill="#D66D11"/>
<path d="M35.1223 36.8174C35.1262 36.8177 35.1273 36.8693 35.126 36.9674C35.1229 37.0771 35.1192 37.2192 35.1144 37.396C35.1007 37.7814 35.0813 38.3164 35.0577 38.9715C35.0093 40.3017 34.95 42.1395 34.911 44.1697C34.8726 46.2008 34.8622 48.0396 34.86 49.3708C34.8587 50.0263 34.8576 50.5615 34.8567 50.9471C34.8548 51.1239 34.8532 51.2663 34.8519 51.3759C34.8495 51.474 34.8465 51.5255 34.8426 51.5255C34.8386 51.5255 34.8341 51.4742 34.829 51.3761C34.8249 51.2667 34.8195 51.1243 34.8125 50.9478C34.8001 50.5756 34.7887 50.037 34.7798 49.3712C34.7615 48.0399 34.7593 46.1997 34.7974 44.1675C34.8365 42.1362 34.9084 40.2978 34.9775 38.968C35.0119 38.3031 35.0438 37.7653 35.0702 37.3938C35.0837 37.2175 35.0946 37.0756 35.1029 36.9661C35.1118 36.8685 35.1183 36.8172 35.1223 36.8174Z" fill="#263238"/>
<path d="M42.3418 32.5472C42.3344 32.5402 42.4489 32.4059 42.6558 32.176C42.8814 31.9309 43.1766 31.6098 43.5254 31.2307L43.577 31.1747L43.6054 31.2466C43.7111 31.5163 43.826 31.8088 43.9476 32.1191C44.0089 32.2727 44.0697 32.4417 44.1358 32.5952C44.1708 32.6684 44.2212 32.7319 44.2814 32.7386C44.3411 32.7491 44.4124 32.7018 44.4802 32.6447C45.2833 31.9843 46.0145 31.3914 46.5473 30.9667C46.8017 30.7668 47.0147 30.5996 47.1819 30.4684C47.3334 30.3526 47.4195 30.2916 47.4245 30.2974C47.4295 30.3036 47.3528 30.3761 47.21 30.5024C47.0487 30.641 46.8435 30.8176 46.5983 31.0286C46.0786 31.4692 45.3555 32.072 44.5524 32.7323C44.4822 32.7879 44.3921 32.8657 44.2652 32.8507C44.139 32.8302 44.0741 32.7247 44.0346 32.6442C43.9616 32.4729 43.9075 32.3161 43.8458 32.1581C43.7283 31.8461 43.6176 31.552 43.5155 31.2811L43.5953 31.297C43.2348 31.665 42.9296 31.9765 42.6965 32.2143C42.4774 32.433 42.3492 32.5542 42.3418 32.5472Z" fill="#263238"/>
<path d="M42.3416 32.1292C42.3294 32.1388 42.1742 31.945 41.9355 31.6289C41.9215 31.6108 41.91 31.6075 41.911 31.6099C41.9117 31.6082 41.8986 31.6204 41.8912 31.642C41.8738 31.6936 41.8561 31.7464 41.8378 31.8007C41.7992 31.914 41.7589 32.0324 41.7168 32.156C41.6281 32.4098 41.5324 32.6829 41.4321 32.9698L41.368 33.1531L41.3235 32.9637C41.3194 32.9463 41.315 32.9271 41.3105 32.9081C41.1674 32.2988 41.0441 31.746 40.9603 31.3444C40.8766 30.9428 40.8324 30.6928 40.8476 30.6893C40.8629 30.6858 40.9346 30.9293 41.0384 31.3261C41.1422 31.7228 41.2778 32.2729 41.4208 32.8822C41.4251 32.9011 41.4297 32.9201 41.4338 32.9378L41.3251 32.9317C41.4286 32.6459 41.5274 32.3738 41.6189 32.1211C41.6645 31.9988 41.7081 31.8815 41.7499 31.7695C41.7709 31.7146 41.7914 31.6607 41.8114 31.6084C41.8247 31.5818 41.8422 31.5406 41.8964 31.5282C41.9522 31.5208 41.9836 31.5607 41.9982 31.5805C42.2239 31.9132 42.3538 32.1198 42.3416 32.1292Z" fill="#263238"/>
<path d="M40.4352 58.0213C40.4352 58.0213 40.2778 57.6995 40.0969 57.0795C39.9238 56.4593 39.7466 55.533 39.7283 54.3781C39.6984 53.2233 39.8224 51.8521 40.0075 50.342C40.1906 48.8304 40.3916 47.1703 40.6029 45.4272C41.0347 41.944 41.4254 38.7915 41.7094 36.5003C41.8557 35.3648 41.9743 34.4431 42.0576 33.7967C42.1003 33.4839 42.1339 33.2382 42.1579 33.0623C42.1698 32.9836 42.1792 32.9208 42.1869 32.8717C42.194 32.8288 42.1986 32.807 42.2006 32.8072C42.2025 32.8074 42.2017 32.8296 42.1984 32.873C42.1938 32.9225 42.1879 32.9857 42.1808 33.0651C42.1618 33.2414 42.1352 33.4882 42.1016 33.8019C42.0268 34.4494 41.9205 35.3726 41.7892 36.5099C41.5137 38.8022 41.1346 41.9562 40.7158 45.4409C40.5015 47.1834 40.2974 48.8435 40.1115 50.3547C39.9207 51.8634 39.7893 53.2279 39.8087 54.3768C39.8168 55.5258 39.9807 56.4471 40.1396 57.0682C40.2264 57.3771 40.2964 57.6169 40.3563 57.7752C40.3816 57.8506 40.4019 57.9108 40.4178 57.9578C40.4311 57.9991 40.4372 58.0206 40.4352 58.0213Z" fill="#263238"/>
<path d="M44.7232 50.6123C44.7258 50.6197 44.6133 50.6679 44.4075 50.7486C44.1819 50.8342 43.8874 50.9459 43.5325 51.0806C42.7919 51.3564 41.7663 51.7298 40.6311 52.1357C39.2741 52.621 38.0674 53.0428 37.3247 53.2935L37.3014 53.2303C37.5118 53.1564 37.6862 53.0951 37.8294 53.045L37.8466 53.082C37.6685 53.1727 37.5741 53.2168 37.5706 53.2104C37.5671 53.2041 37.655 53.1479 37.8268 53.0461L37.844 53.0831C37.7034 53.14 37.532 53.2094 37.3254 53.2931L37.302 53.2298C38.0354 52.9528 39.2357 52.5139 40.593 52.0287C41.7281 51.6228 42.7579 51.2613 43.5055 51.0049C43.8654 50.884 44.164 50.7837 44.3927 50.7069C44.6031 50.6391 44.7206 50.6049 44.7232 50.6123Z" fill="#263238"/>
<path d="M64.4397 32.3865L57.8332 29.4527L56.699 32.915L58.2435 33.5847L64.1236 37.518L64.1356 37.7166L66.1349 33.9304L64.4397 32.3865Z" fill="#E0E0E0"/>
<path d="M57.2263 29.1702C57.2263 29.1702 53.2275 28.4966 52.8146 28.7139C52.4017 28.9313 51.1194 30.4743 51.0542 30.7568C50.9891 31.0393 51.0542 32.3868 51.0542 32.3868L51.5975 33.1838C51.5975 33.1838 52.1593 33.5849 52.1501 32.8337C52.141 32.0825 51.9888 31.5828 51.9888 31.5828L52.5103 30.7352L53.2491 30.6049L53.575 31.4743L52.8796 32.4304L51.8582 33.5605C51.8582 33.5605 52.0322 34.0386 52.4667 33.9082C52.9014 33.7779 53.6835 32.9303 53.9661 32.6695C54.2486 32.4088 54.9874 32.2567 55.0962 32.2349C55.205 32.2131 56.3567 31.9959 56.5304 31.5394L56.9777 32.0677L57.7992 29.5602L57.2263 29.1702Z" fill="#C17560"/>
<path d="M70.201 93.2238L70.3636 101.209L60.1416 101.456C60.1771 100.506 65.4165 98.4726 65.4165 98.4726L65.0963 93.361L70.201 93.2238Z" fill="#455A64"/>
<g opacity="0.6">
<path d="M68.5751 97.9617C68.7741 98.0097 68.9165 98.2224 68.8755 98.4178C68.8345 98.6131 68.6132 98.7554 68.4131 98.7112C68.2132 98.6669 68.0342 98.4162 68.0975 98.2268C68.1607 98.0371 68.4301 97.8837 68.6135 97.9735" fill="white"/>
</g>
<g opacity="0.6">
<path d="M70.3714 101.211L70.3226 100.407L60.5403 100.945C60.5403 100.945 60.0901 101.149 60.1494 101.459L70.3714 101.211Z" fill="#263238"/>
</g>
<path d="M65.2601 98.4234C65.2629 98.4718 65.5132 98.4877 65.7628 98.6379C66.0166 98.7816 66.1485 98.9887 66.1938 98.9682C66.2396 98.9577 66.1576 98.6695 65.8522 98.4929C65.5483 98.314 65.2481 98.3791 65.2601 98.4234Z" fill="#263238"/>
<path d="M64.1942 98.8843C64.1839 98.9316 64.4024 99.0088 64.577 99.21C64.7579 99.406 64.8063 99.6268 64.856 99.6235C64.9031 99.6301 64.9304 99.3451 64.7082 99.0992C64.4883 98.8511 64.194 98.8378 64.1942 98.8843Z" fill="#263238"/>
<path d="M63.6164 100.144C63.6619 100.153 63.7251 99.9088 63.5902 99.6463C63.457 99.3827 63.2192 99.2838 63.1989 99.3248C63.1716 99.3653 63.3269 99.5042 63.4343 99.7213C63.547 99.9358 63.5664 100.14 63.6164 100.144Z" fill="#263238"/>
<path d="M65.3082 97.2541C65.3302 97.2979 65.5576 97.2253 65.8401 97.2371C66.1231 97.2434 66.345 97.3302 66.3699 97.2879C66.3978 97.2521 66.1789 97.0777 65.8458 97.0684C65.5129 97.0566 65.2827 97.2166 65.3082 97.2541Z" fill="#263238"/>
<path d="M65.5322 96.0644C65.5322 96.0845 65.7302 96.1098 66.0441 96.0494C66.2002 96.0193 66.3837 95.9648 66.5756 95.8765C66.6713 95.8323 66.7692 95.7797 66.8657 95.7178C66.912 95.6873 66.9671 95.6563 67.0172 95.5971C67.0713 95.5452 67.0994 95.4157 67.0336 95.3385C66.9793 95.2633 66.886 95.2328 66.8121 95.2328C66.7367 95.2321 66.6761 95.2485 66.6207 95.2633C66.5076 95.2927 66.4018 95.3322 66.3053 95.3771C66.1121 95.4682 65.9562 95.5811 65.8409 95.6897C65.6092 95.9088 65.5329 96.0919 65.5503 96.1009C65.5734 96.1163 65.6848 95.9618 65.9216 95.7797C66.0397 95.6893 66.191 95.5949 66.3717 95.5186C66.4622 95.4811 66.5599 95.4482 66.6634 95.4235C66.7709 95.3932 66.8631 95.3904 66.8919 95.4364C66.9026 95.454 66.9039 95.461 66.8821 95.4922C66.8594 95.5212 66.8163 95.55 66.7707 95.5805C66.6817 95.64 66.5919 95.6919 66.5041 95.7372C66.3279 95.8275 66.159 95.8903 66.0138 95.9334C65.723 96.0202 65.5307 96.0381 65.5322 96.0644Z" fill="#263238"/>
<path d="M65.5938 96.1338C65.6116 96.1408 65.7062 95.9646 65.7165 95.65C65.7208 95.494 65.6995 95.3056 65.6326 95.107C65.5985 95.008 65.5532 94.9069 65.4943 94.8081C65.432 94.7113 65.3555 94.5818 65.1612 94.5648C65.0601 94.5635 64.9779 94.6424 64.9511 94.7087C64.919 94.7767 64.9138 94.8345 64.9031 94.8923C64.8874 95.0087 64.8924 95.1225 64.9114 95.2273C64.9489 95.4379 65.0426 95.6117 65.1431 95.7359C65.3494 95.9886 65.5593 96.0414 65.563 96.0248C65.5791 95.9999 65.4026 95.9105 65.2434 95.667C65.1649 95.5469 65.0939 95.3878 65.0695 95.2036C65.057 95.1118 65.0559 95.0144 65.0714 94.9158C65.0847 94.8099 65.1233 94.7238 65.1643 94.7336C65.2151 94.7316 65.3036 94.809 65.3476 94.8923C65.4023 94.9801 65.4466 95.0702 65.4815 95.1589C65.5501 95.3368 65.5826 95.5081 65.5933 95.6529C65.6151 95.9441 65.5665 96.127 65.5938 96.1338Z" fill="#263238"/>
<path d="M79.7836 89.9413L83.9616 95.5925L76.7408 101.267C76.283 100.565 79.0145 96.2862 79.0145 96.2862L76.1844 92.7845L79.7836 89.9413Z" fill="#455A64"/>
<g opacity="0.6">
<path d="M81.0215 94.226C81.189 94.1534 81.3996 94.2297 81.4695 94.3921C81.5395 94.5545 81.4528 94.776 81.2864 94.8517C81.1201 94.9273 80.8641 94.8434 80.8131 94.6731C80.7621 94.5029 80.8779 94.2476 81.0551 94.2136" fill="white"/>
</g>
<g opacity="0.6">
<path d="M83.9592 95.587L83.5151 95.0352L76.758 100.682C76.758 100.682 76.5378 101.07 76.7384 101.261L83.9592 95.587Z" fill="#263238"/>
</g>
<path d="M78.8629 96.3411C78.8895 96.3743 79.0775 96.2513 79.3332 96.2249C79.5884 96.1918 79.7886 96.2696 79.811 96.2306C79.8385 96.1983 79.6331 96.0353 79.324 96.0728C79.0144 96.1074 78.8318 96.3158 78.8629 96.3411Z" fill="#263238"/>
<path d="M78.3366 97.2437C78.3534 97.2832 78.5496 97.2213 78.7774 97.2719C79.0069 97.3155 79.1541 97.448 79.1881 97.419C79.2254 97.3983 79.1 97.179 78.8151 97.1217C78.531 97.0619 78.313 97.2106 78.3366 97.2437Z" fill="#263238"/>
<path d="M78.5602 98.4574C78.5977 98.4395 78.519 98.23 78.2886 98.114C78.0588 97.9961 77.8374 98.053 77.8439 98.0931C77.845 98.1369 78.0272 98.1533 78.2149 98.2516C78.4048 98.3453 78.5227 98.4816 78.5602 98.4574Z" fill="#263238"/>
<path d="M78.3085 95.4679C78.3467 95.4875 78.4731 95.3131 78.6822 95.1697C78.8886 95.0221 79.0922 94.9652 79.0887 94.9214C79.0907 94.8806 78.8446 94.873 78.6004 95.0454C78.3552 95.2159 78.2712 95.4548 78.3085 95.4679Z" fill="#263238"/>
<path d="M77.8665 94.5008C77.8767 94.5152 78.0319 94.4269 78.2268 94.2148C78.3238 94.1093 78.428 93.9715 78.5209 93.8048C78.5673 93.7215 78.6107 93.631 78.6486 93.5347C78.6663 93.4878 78.6903 93.4359 78.6962 93.3664C78.7086 93.2999 78.663 93.192 78.5763 93.1719C78.4991 93.1471 78.4162 93.1752 78.3633 93.2151C78.3088 93.2552 78.2735 93.2994 78.2412 93.3398C78.1749 93.4217 78.1189 93.507 78.0722 93.5911C77.9798 93.7605 77.9253 93.9255 77.8974 94.0655C77.8423 94.3476 77.8806 94.5202 77.8976 94.5174C77.922 94.5161 77.9236 94.345 78.0012 94.0868C78.04 93.9582 78.1008 93.8089 78.1919 93.6572C78.2379 93.5815 78.2913 93.5054 78.3532 93.432C78.4152 93.3524 78.4799 93.3007 78.5242 93.3184C78.5407 93.3254 78.5453 93.3295 78.5455 93.364C78.544 93.3969 78.5276 93.4409 78.5102 93.4873C78.4764 93.5778 78.4385 93.6635 78.3984 93.7433C78.3177 93.9029 78.2281 94.0389 78.1459 94.1479C77.9811 94.3663 77.8521 94.4827 77.8665 94.5008Z" fill="#263238"/>
<path d="M77.944 94.5128C77.9604 94.5082 77.9388 94.3307 77.7862 94.099C77.7101 93.9846 77.5987 93.8605 77.4498 93.7539C77.375 93.7012 77.2911 93.6528 77.1984 93.6133C77.1045 93.5773 76.9835 93.5252 76.8355 93.6174C76.762 93.6709 76.7433 93.7718 76.7577 93.8339C76.7692 93.9 76.7947 93.9444 76.8167 93.9917C76.8647 94.084 76.9262 94.1629 76.9931 94.2281C77.1272 94.3593 77.2828 94.4339 77.4184 94.4689C77.6951 94.5396 77.8729 94.4648 77.8671 94.4509C77.866 94.4245 77.6937 94.455 77.4555 94.3656C77.338 94.3214 77.2059 94.2453 77.0947 94.126C77.0391 94.0667 76.9887 93.9972 76.9497 93.9183C76.9055 93.835 76.8893 93.7524 76.9238 93.7373C76.9593 93.7086 77.0622 93.7166 77.1361 93.7528C77.22 93.7864 77.2976 93.8274 77.3678 93.8725C77.5078 93.9634 77.6181 94.0691 77.6994 94.1675C77.8627 94.365 77.9209 94.5226 77.944 94.5128Z" fill="#263238"/>
<path d="M77.9034 55.19L78.3257 58.3623C78.5958 61.3866 76.4291 64.5786 75.6561 65.3638C74.8547 66.1783 73.9114 67.1442 73.7575 67.3343L69.9848 79.9201L70.8625 96.702L64.3626 97.155C64.3626 97.155 62.4782 80.8508 62.8909 78.2001C63.3033 75.5495 65.6163 58.625 65.6163 58.625L65.445 56.1952L77.9034 55.19Z" fill="#263238"/>
<path d="M73.1471 67.7858L73.8062 80.1499L82.4516 92.2332L77.0326 96.0331L65.3702 82.034L65.2549 65.8358L73.1471 67.7858Z" fill="#263238"/>
<path d="M73.7562 67.3347C73.7544 67.334 73.7464 67.3537 73.732 67.3927C73.7163 67.4376 73.6962 67.4949 73.6714 67.5664C73.6177 67.7275 73.5427 67.9532 73.447 68.2409C73.2537 68.8374 72.977 69.6904 72.6335 70.7505C71.9498 72.8926 70.9996 75.8692 69.9226 79.2432L69.9194 79.2536L69.92 79.265C69.9564 79.9874 69.9944 80.7443 70.0332 81.5149C70.2462 85.5926 70.4391 89.2836 70.579 91.9643C70.6543 93.295 70.7153 94.3746 70.758 95.1301C70.7813 95.4975 70.7997 95.7859 70.8127 95.9906C70.8199 96.0835 70.8256 96.1574 70.83 96.2143C70.8345 96.2646 70.8378 96.2903 70.84 96.2901C70.8419 96.2899 70.8428 96.264 70.8422 96.2136C70.8409 96.1565 70.8389 96.0826 70.8367 95.9893C70.8291 95.7844 70.8182 95.4957 70.8042 95.1277C70.7704 94.3717 70.7223 93.2915 70.663 91.96C70.5317 89.2788 70.3512 85.5872 70.1518 81.5088C70.1125 80.7382 70.0739 79.9813 70.0373 79.2591L70.0345 79.2809C71.0966 75.9019 72.0335 72.9207 72.7076 70.7756C73.037 69.7107 73.3023 68.8537 73.4876 68.2547C73.575 67.9641 73.6435 67.7365 73.6925 67.5739C73.7134 67.5008 73.73 67.4424 73.7431 67.3966C73.7533 67.3558 73.7579 67.3351 73.7562 67.3347Z" fill="#455A64"/>
<path d="M61.932 22.035C61.4267 22.1445 60.8647 21.8216 60.7047 21.3298C60.5449 20.838 60.8096 20.2463 61.2828 20.0379C60.9323 19.7441 60.7991 19.2176 60.9676 18.7921C61.1361 18.3668 61.5939 18.0744 62.0506 18.1006C62.0242 17.6495 62.2497 17.1919 62.6231 16.9378C62.9965 16.6836 63.5049 16.6419 63.9147 16.8318C64.3684 16.3564 65.1674 16.2602 65.7211 16.6142C66.1497 16.4898 66.6489 16.6746 66.8933 17.0479C67.1377 17.4211 67.1071 17.9528 66.8218 18.2955" fill="#263238"/>
<path d="M61.7953 22.1983C61.7475 19.8653 63.4996 17.8869 65.8211 17.6519L66.0517 17.6286C68.5539 17.522 70.0424 19.5876 70.0797 22.0917L70.5584 30.4115L70.5776 30.8159L64.9541 32.5479L64.7483 30.4357C64.7483 30.4357 62.3193 30.306 62.0477 27.918C61.9167 26.7652 61.8397 24.3683 61.7953 22.1983Z" fill="#C17560"/>
<path d="M64.7256 30.4323C64.7256 30.4323 66.2616 30.3695 67.7656 29.1982C67.7656 29.1982 67.2029 30.9934 64.7956 31.0198L64.7256 30.4323Z" fill="#7C4236"/>
<path d="M62.7527 24.5081C62.7645 24.689 62.9276 24.8281 63.1168 24.8192C63.3056 24.8102 63.4494 24.6568 63.4375 24.4756C63.4257 24.2947 63.2626 24.1554 63.0738 24.1641C62.8846 24.1732 62.7407 24.3271 62.7527 24.5081Z" fill="#263238"/>
<path d="M62.4234 23.3178C62.4702 23.3582 62.7094 23.1404 63.0769 23.1042C63.4436 23.0628 63.7322 23.2245 63.7675 23.1755C63.7852 23.1535 63.7338 23.0774 63.6078 23.0039C63.4835 22.9305 63.2779 22.8677 63.0492 22.8919C62.8206 22.9163 62.6366 23.0201 62.5345 23.1175C62.4306 23.2156 62.4005 23.3002 62.4234 23.3178Z" fill="#263238"/>
<path d="M65.9575 24.1801C65.9693 24.3611 66.1324 24.5002 66.3216 24.4912C66.5104 24.4823 66.6543 24.3288 66.6425 24.1476C66.6305 23.9667 66.4675 23.8274 66.2787 23.8363C66.0894 23.8453 65.9456 23.9992 65.9575 24.1801Z" fill="#263238"/>
<path d="M66.0498 23.0155C66.0967 23.0558 66.3363 22.8381 66.7036 22.8019C67.0701 22.7605 67.3589 22.9222 67.3942 22.8732C67.4117 22.8514 67.3609 22.7753 67.2345 22.7018C67.1102 22.6283 66.9048 22.5656 66.6762 22.5895C66.4475 22.614 66.2635 22.7177 66.1615 22.8152C66.0575 22.9133 66.0269 22.9976 66.0498 23.0155Z" fill="#263238"/>
<path d="M64.9942 25.8779C64.9938 25.8568 64.7614 25.8404 64.3866 25.8306C64.2918 25.8304 64.2011 25.8208 64.1789 25.7582C64.1499 25.6928 64.1789 25.5875 64.2133 25.4737C64.2785 25.2379 64.3467 24.9904 64.4185 24.7312C64.7008 23.675 64.895 22.8104 64.8523 22.7995C64.8095 22.7886 64.5462 23.6358 64.2639 24.692C64.1965 24.9523 64.132 25.2004 64.071 25.4376C64.0463 25.5479 63.9975 25.675 64.0596 25.8108C64.0919 25.8784 64.166 25.9224 64.2277 25.9324C64.2898 25.9446 64.3426 25.9403 64.3892 25.9383C64.7638 25.9204 64.9948 25.8988 64.9942 25.8779Z" fill="#263238"/>
<path d="M65.8425 22.1972C65.9003 22.2855 66.205 22.1525 66.5915 22.1008C66.9767 22.0402 67.3107 22.0803 67.3364 21.9798C67.3471 21.9323 67.2697 21.8556 67.1224 21.795C66.9763 21.7344 66.7596 21.6982 66.5283 21.7315C66.297 21.7655 66.1032 21.8614 65.9844 21.9606C65.8645 22.0598 65.8163 22.1549 65.8425 22.1972Z" fill="#263238"/>
<path d="M62.2571 21.8019C62.343 21.8775 62.6373 21.7603 63.0016 21.7191C63.3645 21.6674 63.6806 21.7069 63.7428 21.6125C63.7696 21.5669 63.7127 21.4882 63.5697 21.423C63.4288 21.3578 63.1997 21.316 62.9499 21.3476C62.7001 21.3796 62.4906 21.4773 62.3722 21.5756C62.2523 21.6744 62.2187 21.7646 62.2571 21.8019Z" fill="#263238"/>
<path d="M61.9134 21.0785C61.9134 21.0785 62.3923 19.5174 63.079 19.095C63.9103 18.5835 64.3838 19.5048 65.193 19.1876C66.0024 18.8704 66.7957 18.3801 67.7122 18.9378C68.7154 19.5482 68.3289 20.0869 68.4937 21.1418C69.1628 25.4191 70.0712 26.556 70.0895 24.5075C70.0915 24.2829 70.6896 24.0442 70.6859 23.0972C70.6811 21.8692 70.5785 20.3881 70.2196 19.5528C69.9173 18.8486 69.4516 18.388 68.652 17.9093C67.3896 17.1537 65.775 17.2982 64.6914 17.5193C63.6073 17.7399 61.6237 19.2138 61.9134 21.0785Z" fill="#263238"/>
<path d="M69.9308 24.4552C69.9086 24.0846 70.197 23.7611 70.5683 23.7589C71.0184 23.756 71.5403 23.959 71.6042 24.8835C71.7176 26.5233 70.0477 26.299 70.0418 26.2521C70.0374 26.2201 69.972 25.1419 69.9308 24.4552Z" fill="#C17560"/>
<path d="M70.3567 25.6106C70.3634 25.6049 70.3867 25.6287 70.4364 25.6474C70.4851 25.6658 70.567 25.6749 70.6503 25.637C70.8192 25.5613 70.9461 25.2764 70.9335 24.9801C70.9274 24.8306 70.8862 24.6906 70.8251 24.5766C70.7667 24.46 70.6834 24.3817 70.5951 24.3721C70.5069 24.358 70.4489 24.4144 70.4319 24.4622C70.4131 24.5095 70.4258 24.5415 70.4173 24.545C70.4129 24.5494 70.3802 24.5199 70.3887 24.4513C70.3933 24.4181 70.4098 24.3782 70.446 24.344C70.4831 24.3094 70.54 24.2889 70.601 24.2913C70.7281 24.2913 70.85 24.3998 70.9169 24.5247C70.991 24.6501 71.0407 24.8071 71.0475 24.9749C71.0599 25.3061 70.9121 25.627 70.6797 25.712C70.5664 25.7499 70.4678 25.7218 70.4155 25.6867C70.3623 25.6501 70.3512 25.6139 70.3567 25.6106Z" fill="#7C4236"/>
<path d="M69.5821 21.2932C69.3843 21.4595 69.1753 21.6317 68.9222 21.683C68.6691 21.7342 68.3615 21.6169 68.2928 21.3679C68.2618 21.2561 68.2762 21.1214 68.1927 21.0409C68.0929 20.945 67.9314 20.9945 67.796 21.0231C67.3258 21.1216 66.8052 20.8347 66.6373 20.3848C66.5346 20.5786 66.2508 20.5993 66.0555 20.4996C65.8601 20.4 65.7224 20.2184 65.5621 20.0687C65.4019 19.9189 65.1856 19.7922 64.9727 19.8448C64.8536 19.8742 64.7477 19.9577 64.6252 19.959C64.4085 19.9616 64.2783 19.721 64.2243 19.5112C64.1702 19.3015 64.1198 19.0554 63.9263 18.9582C63.7468 18.8679 63.5347 18.9521 63.3403 19.0011C63.1456 19.0504 62.8857 19.0297 62.8155 18.8415C62.7787 18.7428 62.8114 18.6318 62.8587 18.5376C63.0726 18.1112 63.6097 17.8769 64.0677 18.0103C64.173 17.454 64.6356 16.9824 65.1898 16.8667C65.7439 16.7509 66.3567 16.9977 66.6759 17.4653C66.9896 17.1169 67.4784 16.9345 67.9436 16.9922C68.409 17.05 68.8382 17.3461 69.0573 17.7607C69.4443 17.6157 69.9132 17.7236 70.1979 18.0232C70.4826 18.3227 70.567 18.7962 70.4028 19.1755C70.7137 19.3135 70.9947 19.5801 71.035 19.9178C71.0754 20.2555 70.78 20.6261 70.4445 20.5701C70.6032 20.8201 70.5319 21.1885 70.2916 21.3616C70.0512 21.5347 69.6793 21.4852 69.4924 21.2555" fill="#263238"/>
<path d="M63.9912 18.5043C63.9899 18.5045 63.991 18.5148 63.9947 18.5342C63.9988 18.5536 64.003 18.5832 64.0139 18.6205C64.0365 18.6944 64.0782 18.8032 64.1645 18.9235C64.2511 19.0419 64.3801 19.1755 64.5661 19.2732C64.7485 19.3726 64.9918 19.4375 65.2549 19.3963L65.2235 19.363C65.1869 19.508 65.2179 19.6743 65.302 19.811C65.3827 19.9505 65.4998 20.0695 65.6225 20.1846C65.6848 20.2396 65.7411 20.3058 65.8244 20.3538C65.9055 20.3996 65.9992 20.4214 66.0932 20.4238C66.2798 20.4286 66.4821 20.3505 66.6002 20.182L66.5372 20.1707C66.6118 20.4914 66.8293 20.7979 67.143 20.9664C67.3098 21.063 67.5091 21.112 67.6976 21.0878C67.8866 21.0669 68.0569 20.9934 68.2147 20.9182L68.1692 20.9034C68.2775 21.0976 68.4301 21.2574 68.6071 21.3688C68.7809 21.4802 69.003 21.5336 69.1922 21.4663C69.5698 21.3455 69.7933 20.9989 69.8142 20.6915L69.7789 20.7124C69.981 20.7974 70.1874 20.7865 70.3489 20.7381C70.5129 20.6906 70.6367 20.6047 70.723 20.5238C70.8094 20.4414 70.8573 20.3608 70.8854 20.3056C70.9105 20.2487 70.9201 20.2175 70.9184 20.2169C70.9094 20.211 70.8767 20.3466 70.7043 20.5036C70.618 20.5788 70.4963 20.6581 70.338 20.7C70.1822 20.7431 69.9862 20.7488 69.7992 20.6666L69.7667 20.6525L69.7638 20.6878C69.7405 20.9749 69.5243 21.2993 69.1739 21.4072C69.0024 21.4663 68.807 21.4183 68.6422 21.3128C68.4768 21.2077 68.3311 21.0536 68.2302 20.8709L68.2143 20.8419L68.1846 20.8561C68.029 20.9298 67.8646 20.9991 67.6898 21.0178C67.5152 21.0392 67.3366 20.9958 67.1775 20.9042C66.8812 20.7449 66.6767 20.4582 66.6048 20.1548L66.5867 20.0785L66.5418 20.1434C66.4424 20.2875 66.2619 20.361 66.094 20.3569C66.0099 20.3553 65.9266 20.3364 65.856 20.2969C65.7871 20.2592 65.7291 20.194 65.6656 20.1386C65.5434 20.0257 65.4298 19.9113 65.353 19.7815C65.2733 19.6538 65.2456 19.5075 65.2761 19.3767L65.2855 19.3364L65.2447 19.3434C64.9973 19.3854 64.7634 19.3279 64.5855 19.2355C64.4043 19.1448 64.2761 19.0185 64.1883 18.9063C64.0152 18.673 64.0025 18.4993 63.9912 18.5043Z" fill="#455A64"/>
<path d="M64.752 27.1347C64.7483 27.1511 64.8462 27.1934 65.016 27.2049C65.1849 27.2173 65.4254 27.1868 65.663 27.0767C65.9002 26.9658 66.0785 26.8014 66.1777 26.6643C66.2782 26.5267 66.309 26.4247 66.2941 26.4171C66.2599 26.3939 66.0476 26.7508 65.6044 26.9507C65.1662 27.1611 64.7564 27.0937 64.752 27.1347Z" fill="#263238"/>
<path d="M51.5957 33.1839L53.5134 60.9163L54.7901 60.7271L52.8448 33.1839H51.5957Z" fill="#263238"/>
<path d="M54.0361 49.885C54.0376 49.8974 53.8549 49.9301 53.6282 49.958C53.4013 49.9859 53.2162 49.9986 53.2147 49.9861C53.2131 49.9737 53.3958 49.941 53.6225 49.9131C53.8495 49.885 54.0346 49.8725 54.0361 49.885Z" fill="#263238"/>
<path d="M53.9813 48.9063C53.9824 48.9187 53.7799 48.9455 53.5292 48.966C53.2785 48.9865 53.0742 48.9931 53.0734 48.9804C53.0723 48.968 53.2748 48.9412 53.5255 48.9207C53.7762 48.9002 53.9802 48.8936 53.9813 48.9063Z" fill="#263238"/>
<path d="M53.8898 48.0734C53.8909 48.0858 53.6884 48.1127 53.4377 48.1331C53.187 48.1536 52.9827 48.1602 52.9818 48.1475C52.9807 48.1351 53.1832 48.1083 53.4339 48.0878C53.6846 48.0675 53.8887 48.061 53.8898 48.0734Z" fill="#263238"/>
<path d="M53.8483 47.1835C53.8494 47.196 53.6468 47.2228 53.3961 47.2433C53.1454 47.2638 52.9412 47.2703 52.9403 47.2577C52.9394 47.245 53.1417 47.2184 53.3924 47.1979C53.6431 47.1774 53.8472 47.1711 53.8483 47.1835Z" fill="#263238"/>
<path d="M53.7661 46.2353C53.7672 46.2478 53.5646 46.2746 53.3139 46.2951C53.063 46.3156 52.859 46.3221 52.8581 46.3095C52.857 46.297 53.0595 46.2702 53.3102 46.2497C53.5609 46.2295 53.765 46.2229 53.7661 46.2353Z" fill="#263238"/>
<path d="M53.6745 45.4013C53.6755 45.4137 53.473 45.4405 53.2223 45.461C52.9716 45.4815 52.7676 45.4881 52.7665 45.4754C52.7654 45.463 52.9679 45.4362 53.2186 45.4157C53.4693 45.3952 53.6734 45.3886 53.6745 45.4013Z" fill="#263238"/>
<path d="M53.6359 44.513C53.637 44.5254 53.4344 44.5522 53.1837 44.5727C52.9328 44.5932 52.7288 44.5997 52.7279 44.5871C52.7268 44.5747 52.9293 44.5479 53.18 44.5274C53.4307 44.5069 53.6348 44.5003 53.6359 44.513Z" fill="#263238"/>
<path d="M53.5684 43.648C53.5695 43.6605 53.375 43.6866 53.1343 43.7062C52.8935 43.7259 52.6977 43.7317 52.6966 43.7191C52.6955 43.7067 52.89 43.6805 53.1306 43.6609C53.3713 43.6413 53.5673 43.6356 53.5684 43.648Z" fill="#263238"/>
<path d="M53.5159 42.8128C53.517 42.8253 53.3145 42.8521 53.0638 42.8726C52.8131 42.8931 52.6091 42.8996 52.608 42.887C52.6069 42.8745 52.8094 42.8477 53.0601 42.8272C53.3108 42.8067 53.5149 42.8004 53.5159 42.8128Z" fill="#263238"/>
<path d="M53.4744 41.9233C53.4755 41.9358 53.273 41.9626 53.0223 41.9831C52.7716 42.0036 52.5673 42.0101 52.5665 41.9975C52.5654 41.985 52.7679 41.9582 53.0186 41.9377C53.2693 41.9172 53.4736 41.9109 53.4744 41.9233Z" fill="#263238"/>
<path d="M53.3892 40.9749C53.3903 40.9873 53.1878 41.0141 52.9371 41.0346C52.6864 41.0551 52.4821 41.0617 52.4813 41.049C52.4802 41.0366 52.6827 41.0098 52.9334 40.9893C53.1841 40.969 53.3881 40.9625 53.3892 40.9749Z" fill="#263238"/>
<path d="M53.3006 40.1408C53.3017 40.1532 53.0992 40.1801 52.8485 40.2006C52.5978 40.221 52.3935 40.2276 52.3926 40.2149C52.3916 40.2025 52.5941 40.1757 52.8448 40.1552C53.0955 40.1347 53.2995 40.1282 53.3006 40.1408Z" fill="#263238"/>
<path d="M53.2596 39.2504C53.2607 39.2629 53.0582 39.2897 52.8075 39.3102C52.5568 39.3307 52.3525 39.3372 52.3516 39.3246C52.3505 39.3121 52.5531 39.2853 52.8038 39.2648C53.0545 39.2443 53.2585 39.2378 53.2596 39.2504Z" fill="#263238"/>
<path d="M53.1943 38.3527C53.1954 38.3652 52.9929 38.392 52.7422 38.4125C52.4915 38.433 52.2873 38.4395 52.2864 38.4269C52.2853 38.4144 52.4878 38.3876 52.7385 38.3671C52.9894 38.3466 53.1935 38.3401 53.1943 38.3527Z" fill="#263238"/>
<path d="M53.1028 37.5196C53.1039 37.5321 52.9014 37.5589 52.6507 37.5794C52.3997 37.5999 52.1957 37.6064 52.1948 37.5937C52.1937 37.5813 52.3963 37.5545 52.647 37.534C52.8977 37.5135 53.1017 37.5072 53.1028 37.5196Z" fill="#263238"/>
<path d="M53.0642 36.63C53.0653 36.6424 52.8628 36.6692 52.6121 36.6897C52.3614 36.7102 52.1571 36.7167 52.1563 36.7041C52.1552 36.6917 52.3577 36.6649 52.6084 36.6444C52.8591 36.6239 53.0631 36.6176 53.0642 36.63Z" fill="#263238"/>
<path d="M52.979 35.6818C52.9801 35.6942 52.7776 35.7211 52.5269 35.7415C52.2762 35.762 52.0719 35.7686 52.071 35.7559C52.07 35.7435 52.2725 35.7167 52.5232 35.6962C52.7739 35.6759 52.9779 35.6694 52.979 35.6818Z" fill="#263238"/>
<path d="M52.89 34.8483C52.8911 34.8607 52.6886 34.8875 52.4379 34.908C52.1872 34.9285 51.9829 34.935 51.9821 34.9224C51.981 34.91 52.1835 34.8832 52.4342 34.8627C52.6849 34.8422 52.8889 34.8356 52.89 34.8483Z" fill="#263238"/>
<path d="M52.8489 33.9581C52.85 33.9705 52.6475 33.9973 52.3968 34.0178C52.1461 34.0383 51.9418 34.0448 51.9409 34.0322C51.9398 34.0198 52.1424 33.993 52.3931 33.9725C52.6438 33.952 52.8478 33.9454 52.8489 33.9581Z" fill="#263238"/>
<path d="M54.4046 55.2794C54.4062 55.2918 54.2235 55.3245 53.9967 55.3524C53.7698 55.3803 53.5847 55.393 53.5832 55.3805C53.5817 55.3681 53.7644 55.3354 53.9911 55.3075C54.2178 55.2794 54.4031 55.267 54.4046 55.2794Z" fill="#263238"/>
<path d="M54.2578 54.3086C54.2589 54.321 54.0764 54.3461 53.8506 54.3646C53.6247 54.3832 53.4407 54.388 53.4396 54.3753C53.4386 54.3629 53.6208 54.3378 53.8469 54.3193C54.0727 54.3008 54.2567 54.296 54.2578 54.3086Z" fill="#263238"/>
<path d="M54.2614 53.4684C54.2625 53.4808 54.06 53.5076 53.8093 53.5281C53.5586 53.5486 53.3543 53.5551 53.3535 53.5425C53.3524 53.5301 53.5549 53.5032 53.8056 53.4828C54.0563 53.4625 54.2603 53.4559 54.2614 53.4684Z" fill="#263238"/>
<path d="M54.2179 52.5783C54.2189 52.5907 54.0164 52.6175 53.7657 52.638C53.515 52.6585 53.3108 52.665 53.3099 52.6524C53.3088 52.64 53.5113 52.6131 53.762 52.5927C54.0127 52.5724 54.2168 52.5658 54.2179 52.5783Z" fill="#263238"/>
<path d="M54.1347 51.6294C54.1358 51.6418 53.9333 51.6686 53.6826 51.6891C53.4319 51.7096 53.2276 51.7161 53.2267 51.7035C53.2257 51.6911 53.4282 51.6643 53.6789 51.6438C53.9296 51.6235 54.1336 51.617 54.1347 51.6294Z" fill="#263238"/>
<path d="M54.0461 50.7964C54.0472 50.8088 53.8447 50.8357 53.594 50.8562C53.3433 50.8766 53.139 50.8832 53.1381 50.8705C53.137 50.8581 53.3396 50.8313 53.5903 50.8108C53.841 50.7903 54.045 50.784 54.0461 50.7964Z" fill="#263238"/>
<path d="M54.5948 57.9619C54.5959 57.9743 54.4043 58.0002 54.1671 58.0196C53.9299 58.039 53.7368 58.0447 53.7357 58.032C53.7346 58.0196 53.926 57.9937 54.1634 57.9743C54.4006 57.9549 54.5937 57.9494 54.5948 57.9619Z" fill="#263238"/>
<path d="M54.5274 57.0111C54.5285 57.0235 54.3333 57.0496 54.0918 57.0695C53.8503 57.0893 53.6536 57.0952 53.6525 57.0826C53.6514 57.0701 53.8466 57.044 54.0881 57.0241C54.3296 57.0045 54.5263 56.9986 54.5274 57.0111Z" fill="#263238"/>
<path d="M54.4719 56.1744C54.473 56.1869 54.2704 56.2137 54.0197 56.2342C53.769 56.2547 53.5648 56.2612 53.5639 56.2485C53.5628 56.2361 53.7653 56.2093 54.016 56.1888C54.2667 56.1685 54.4708 56.162 54.4719 56.1744Z" fill="#263238"/>
<path d="M52.5476 34.2196L52.5892 34.6718L52.5251 34.6777L52.4887 34.2818L52.3867 34.2911L52.3817 34.2349L52.5476 34.2196Z" fill="white"/>
<path d="M52.7981 35.4773L52.8033 35.5336L52.4783 35.5634L52.4741 35.5196L52.642 35.3249C52.6856 35.2741 52.6919 35.2447 52.6893 35.2162C52.6849 35.1697 52.6496 35.1444 52.5862 35.1503C52.5378 35.1547 52.4998 35.1739 52.4752 35.2101L52.4277 35.176C52.4586 35.1296 52.5164 35.0989 52.5866 35.0923C52.681 35.0836 52.7462 35.1263 52.7534 35.2042C52.7573 35.248 52.7481 35.2885 52.6921 35.3531L52.5661 35.4989L52.7981 35.4773Z" fill="white"/>
<path d="M52.8497 36.2979C52.8567 36.3742 52.8064 36.4412 52.6915 36.4519C52.6267 36.4577 52.5616 36.4431 52.5201 36.4122L52.5452 36.3585C52.5781 36.3843 52.6304 36.3995 52.686 36.3943C52.7538 36.3882 52.7898 36.3535 52.7852 36.3045C52.7809 36.2567 52.7436 36.2288 52.6662 36.236L52.63 36.2393L52.6259 36.194L52.7266 36.044L52.509 36.064L52.5038 36.0078L52.8022 35.9803L52.8061 36.0241L52.7015 36.1811C52.7929 36.1813 52.8432 36.228 52.8497 36.2979Z" fill="white"/>
<path d="M52.9577 37.2057L52.8718 37.2135L52.882 37.3247L52.8192 37.3304L52.809 37.2192L52.5579 37.2423L52.5537 37.1972L52.7578 36.88L52.8275 36.8737L52.6322 37.1795L52.8059 37.1636L52.797 37.0655L52.8578 37.0598L52.8668 37.1579L52.9527 37.1501L52.9577 37.2057Z" fill="white"/>
<path d="M52.9635 38.0465C52.9707 38.1247 52.9208 38.1925 52.8052 38.2032C52.7411 38.2091 52.676 38.1943 52.6341 38.1635L52.6592 38.1099C52.6921 38.1354 52.7444 38.1509 52.7993 38.1459C52.8678 38.1395 52.9038 38.1042 52.8992 38.055C52.8946 38.0042 52.8591 37.9754 52.7544 37.985L52.6518 37.9946L52.6539 37.7561L52.909 37.7328L52.9142 37.789L52.7134 37.8075L52.7126 37.9324L52.7629 37.9279C52.8981 37.915 52.9561 37.9665 52.9635 38.0465Z" fill="white"/>
<path d="M53.0825 38.8711C53.0906 38.9581 53.0252 39.0202 52.9356 39.0285C52.8139 39.0396 52.7381 38.9646 52.7248 38.8208C52.7106 38.6664 52.7904 38.5757 52.917 38.5639C52.9596 38.56 53.001 38.5646 53.0317 38.5803L53.0117 38.6328C52.987 38.6193 52.9554 38.6165 52.9234 38.6195C52.8314 38.628 52.778 38.6908 52.7884 38.8038C52.7889 38.809 52.7893 38.8142 52.7906 38.8199C52.8128 38.7787 52.8588 38.7536 52.9149 38.7486C53.0047 38.7403 53.0749 38.7881 53.0825 38.8711ZM53.0202 38.8796C53.0154 38.8266 52.972 38.7963 52.9088 38.802C52.8475 38.8077 52.8083 38.8497 52.8128 38.8992C52.8172 38.9459 52.8584 38.9832 52.9282 38.9766C52.9868 38.9712 53.025 38.9332 53.0202 38.8796Z" fill="white"/>
<path d="M53.114 39.5097L53.1181 39.5538L52.9729 39.9787L52.9045 39.985L53.0471 39.5725L52.8404 39.5915L52.8478 39.6724L52.7859 39.678L52.7733 39.5409L53.114 39.5097Z" fill="white"/>
<path d="M53.1726 40.6775C53.1803 40.7597 53.1151 40.817 53.0046 40.827C52.8949 40.8371 52.821 40.7926 52.8136 40.7104C52.809 40.6587 52.8336 40.618 52.8829 40.594C52.8398 40.5783 52.8147 40.5469 52.8105 40.5022C52.8036 40.4266 52.8646 40.3736 52.962 40.3646C53.0604 40.3557 53.1303 40.3967 53.1375 40.4723C53.1417 40.517 53.1221 40.5526 53.0826 40.5759C53.136 40.5907 53.1681 40.6256 53.1726 40.6775ZM52.8751 40.4989C52.8792 40.5436 52.9184 40.5678 52.9804 40.5622C53.0431 40.5565 53.0787 40.5253 53.0745 40.4804C53.0704 40.4353 53.0279 40.4113 52.9671 40.417C52.9065 40.4226 52.8709 40.4538 52.8751 40.4989ZM53.1081 40.6814C53.1035 40.6315 53.0567 40.6047 52.9849 40.6114C52.9132 40.618 52.8735 40.6528 52.8781 40.7025C52.8827 40.7533 52.9283 40.7815 53 40.7749C53.0717 40.7682 53.1127 40.7322 53.1081 40.6814Z" fill="white"/>
<path d="M53.2091 41.4913C53.2233 41.6456 53.1437 41.7365 53.0171 41.7481C52.9746 41.752 52.9332 41.7474 52.9024 41.7319L52.9223 41.6794C52.9475 41.6929 52.9783 41.6957 53.0114 41.6927C53.1032 41.6842 53.156 41.6214 53.1455 41.5085L53.144 41.4923C53.1213 41.5344 53.0753 41.5586 53.019 41.5636C52.9292 41.5719 52.8599 41.5242 52.8521 41.4409C52.844 41.3539 52.9087 41.2918 52.9983 41.2835C53.1198 41.2722 53.1958 41.3472 53.2091 41.4913ZM53.1217 41.4126C53.1174 41.3661 53.0762 41.3291 53.0057 41.3354C52.9471 41.3406 52.9096 41.3785 52.9144 41.4322C52.9192 41.4851 52.9619 41.5157 53.0252 41.5098C53.0873 41.5043 53.1263 41.4625 53.1217 41.4126Z" fill="white"/>
<path d="M52.7978 42.2023L52.8392 42.6544L52.7753 42.6603L52.7389 42.2644L52.6369 42.2738L52.6319 42.2176L52.7978 42.2023Z" fill="white"/>
<path d="M52.918 42.4192C52.9045 42.2718 52.9755 42.1804 53.0813 42.1706C53.1865 42.161 53.2731 42.2378 53.2866 42.3851C53.3001 42.5323 53.2291 42.6234 53.1235 42.633C53.0178 42.643 52.9315 42.5663 52.918 42.4192ZM53.2221 42.3912C53.2114 42.2755 53.1571 42.2219 53.0865 42.2282C53.0154 42.2347 52.9718 42.2973 52.9823 42.4133C52.993 42.5286 53.0472 42.5822 53.1183 42.5757C53.1889 42.5691 53.2328 42.5066 53.2221 42.3912Z" fill="white"/>
<path d="M53.05 43.0257L53.0916 43.478L53.0278 43.4839L52.9914 43.0878L52.8893 43.0972L52.8841 43.041L53.05 43.0257Z" fill="white"/>
<path d="M53.2885 43.004L53.3302 43.4563L53.2663 43.4622L53.2299 43.0661L53.1279 43.0755L53.1226 43.0193L53.2885 43.004Z" fill="white"/>
<path d="M53.0109 43.9165L53.0523 44.3686L52.9884 44.3745L52.952 43.9786L52.85 43.988L52.8448 43.9317L53.0109 43.9165Z" fill="white"/>
<path d="M53.463 44.2745L53.468 44.3307L53.143 44.3606L53.1388 44.3168L53.3067 44.1223C53.3503 44.0713 53.3566 44.0419 53.354 44.0136C53.3499 43.9669 53.3143 43.9416 53.2509 43.9475C53.2025 43.9521 53.1646 43.971 53.1399 44.0072L53.0924 43.9732C53.1234 43.9268 53.1811 43.8958 53.2515 43.8895C53.3459 43.8808 53.4109 43.9235 53.4181 44.0013C53.422 44.0452 53.4129 44.0857 53.3568 44.1502L53.2308 44.2959L53.463 44.2745Z" fill="white"/>
<path d="M53.0872 44.7931L53.1175 45.2463L53.0534 45.2507L53.0268 44.8539L52.9245 44.8609L52.9208 44.8044L53.0872 44.7931Z" fill="white"/>
<path d="M53.5177 45.0856C53.5227 45.1621 53.4706 45.228 53.3555 45.2358C53.2907 45.2402 53.2258 45.2238 53.1854 45.1918L53.2118 45.1388C53.2441 45.1652 53.296 45.1818 53.3518 45.1781C53.4196 45.1737 53.4564 45.1399 53.4531 45.0906C53.4499 45.0427 53.4135 45.0143 53.3358 45.0193L53.2997 45.0217L53.2966 44.9762L53.401 44.829L53.183 44.8436L53.1793 44.7872L53.4782 44.7671L53.481 44.8112L53.3727 44.9653C53.4638 44.9677 53.5131 45.0156 53.5177 45.0856Z" fill="white"/>
<path d="M53.1502 45.6904L53.1807 46.1434L53.1166 46.1478L53.09 45.751L52.9878 45.7578L52.9838 45.7015L53.1502 45.6904Z" fill="white"/>
<path d="M53.6671 45.9991L53.581 46.0048L53.5884 46.1162L53.5256 46.1203L53.5182 46.0089L53.2664 46.0259L53.2634 45.9808L53.4753 45.6686L53.545 45.664L53.3423 45.9651L53.5162 45.9533L53.5097 45.855L53.5705 45.8509L53.5771 45.9492L53.6632 45.9435L53.6671 45.9991Z" fill="white"/>
<path d="M53.2132 46.6027L53.2437 47.0557L53.1796 47.06L53.153 46.6635L53.0508 46.6702L53.0469 46.6138L53.2132 46.6027Z" fill="white"/>
<path d="M53.652 46.8924C53.6572 46.9706 53.6058 47.0369 53.4898 47.0447C53.4257 47.0491 53.361 47.0327 53.3198 47.0009L53.3461 46.9479C53.3784 46.9743 53.4303 46.9909 53.4854 46.9872C53.5541 46.9826 53.5907 46.9484 53.5875 46.8991C53.584 46.8481 53.5495 46.8185 53.4447 46.8254L53.3418 46.8324L53.3498 46.5939L53.6053 46.5767L53.6093 46.6332L53.4081 46.6467L53.4041 46.7716L53.4545 46.7683C53.5899 46.7592 53.6468 46.8121 53.652 46.8924Z" fill="white"/>
<path d="M53.2589 47.5164L53.2892 47.9695L53.2251 47.9738L53.1985 47.5771L53.0963 47.584L53.0926 47.5278L53.2589 47.5164Z" fill="white"/>
<path d="M53.7301 47.8016C53.7359 47.8888 53.6692 47.9494 53.5792 47.9555C53.4573 47.9635 53.3834 47.8868 53.3738 47.7423C53.3636 47.5877 53.4454 47.499 53.5722 47.4905C53.615 47.4876 53.6562 47.4933 53.6867 47.5094L53.6653 47.5615C53.6411 47.5476 53.6095 47.5439 53.5772 47.5461C53.4852 47.5522 53.4303 47.6136 53.4377 47.727C53.4382 47.7322 53.4384 47.7375 53.4395 47.7431C53.4628 47.7028 53.5092 47.6788 53.5657 47.6749C53.6555 47.6688 53.7244 47.7183 53.7301 47.8016ZM53.6675 47.8083C53.664 47.7553 53.6213 47.7237 53.5581 47.7279C53.4966 47.732 53.4565 47.7732 53.4597 47.8229C53.4628 47.8698 53.5031 47.9079 53.5731 47.9032C53.632 47.8992 53.671 47.8622 53.6675 47.8083Z" fill="white"/>
<path d="M53.3436 48.3531L53.3739 48.8062L53.3098 48.8105L53.2832 48.4138L53.181 48.4205L53.1772 48.3643L53.3436 48.3531Z" fill="white"/>
<path d="M53.7722 48.3241L53.7753 48.3679L53.6196 48.7896L53.551 48.7941L53.7038 48.3854L53.4967 48.3991L53.5021 48.48L53.44 48.4844L53.4308 48.3472L53.7722 48.3241Z" fill="white"/>
<path d="M53.3434 49.2584L53.3737 49.7114L53.3096 49.7158L53.283 49.3192L53.1808 49.3262L53.1771 49.2697L53.3434 49.2584Z" fill="white"/>
<path d="M53.8218 49.5531C53.8273 49.6353 53.7608 49.6909 53.6503 49.6983C53.5402 49.7057 53.4676 49.6595 53.4619 49.5773C53.4584 49.5254 53.4846 49.4853 53.5343 49.4627C53.4916 49.4459 53.4672 49.4138 53.4643 49.3691C53.4593 49.2933 53.5214 49.2416 53.6191 49.2351C53.7174 49.2285 53.7867 49.2712 53.7918 49.3471C53.7948 49.3918 53.7743 49.4269 53.7342 49.4491C53.7874 49.4657 53.8183 49.5012 53.8218 49.5531ZM53.7569 49.5557C53.7536 49.5058 53.7074 49.4779 53.6357 49.4827C53.5639 49.4875 53.5232 49.5213 53.5264 49.5712C53.5299 49.622 53.5748 49.6512 53.6466 49.6464C53.7185 49.6414 53.7604 49.6065 53.7569 49.5557ZM53.5284 49.3674C53.5315 49.4121 53.5703 49.4374 53.6324 49.4332C53.6952 49.4289 53.7314 49.3988 53.7283 49.3541C53.7253 49.3087 53.6834 49.2839 53.6226 49.2878C53.5618 49.2917 53.5256 49.322 53.5284 49.3674Z" fill="white"/>
<path d="M53.452 50.2248L53.4826 50.6778L53.4185 50.6822L53.3919 50.2854L53.2896 50.2922L53.2857 50.2359L53.452 50.2248Z" fill="white"/>
<path d="M53.9028 50.4166C53.9133 50.5712 53.8315 50.6599 53.7046 50.6684C53.6619 50.6712 53.6207 50.6658 53.5902 50.6494L53.6115 50.5976C53.6364 50.6115 53.6671 50.615 53.7003 50.613C53.7923 50.6069 53.8466 50.5452 53.8389 50.4321L53.8378 50.416C53.8139 50.4572 53.7674 50.4803 53.711 50.4842C53.6211 50.4903 53.5529 50.441 53.5472 50.3575C53.5414 50.2703 53.6074 50.2097 53.6974 50.2039C53.8191 50.1954 53.8932 50.2723 53.9028 50.4166ZM53.8176 50.336C53.8145 50.2893 53.7742 50.2512 53.7035 50.256C53.6447 50.2601 53.6063 50.2967 53.6098 50.3506C53.6133 50.4035 53.6551 50.4351 53.7186 50.431C53.7809 50.4266 53.8208 50.3857 53.8176 50.336Z" fill="white"/>
<path d="M53.5751 51.4774L53.5788 51.5336L53.2531 51.5556L53.2502 51.5118L53.4227 51.3213C53.4674 51.2714 53.4746 51.2422 53.4726 51.2138C53.4696 51.1672 53.4347 51.141 53.3712 51.1452C53.3226 51.1484 53.2843 51.1667 53.2587 51.2023L53.2121 51.167C53.2439 51.1214 53.3028 51.092 53.3732 51.0874C53.4678 51.0811 53.5319 51.1255 53.5369 51.2031C53.54 51.247 53.5295 51.2875 53.4722 51.3503L53.3427 51.4931L53.5751 51.4774Z" fill="white"/>
<path d="M53.6145 51.3037C53.6047 51.1559 53.6777 51.0665 53.7839 51.0596C53.8894 51.0524 53.974 51.1313 53.9838 51.2789C53.9936 51.4262 53.9203 51.5156 53.8148 51.5228C53.7089 51.5298 53.6243 51.4511 53.6145 51.3037ZM53.9192 51.2832C53.9114 51.1673 53.8584 51.1121 53.7878 51.1169C53.7165 51.1217 53.6711 51.1832 53.6792 51.2991C53.6868 51.4147 53.74 51.4698 53.8111 51.465C53.8815 51.4605 53.9269 51.3988 53.9192 51.2832Z" fill="white"/>
<path d="M53.7574 52.312L53.7611 52.3683L53.4354 52.3901L53.4323 52.3463L53.6048 52.156C53.6497 52.106 53.6567 52.0768 53.6549 52.0485C53.6519 52.0018 53.617 51.9759 53.5536 51.98C53.5049 51.9833 53.4666 52.0012 53.4411 52.0369L53.3944 52.0016C53.4262 51.9561 53.4849 51.9266 53.5555 51.922C53.6501 51.9157 53.714 51.9602 53.7192 52.0378C53.7223 52.0816 53.712 52.1222 53.6543 52.185L53.5248 52.3277L53.7574 52.312Z" fill="white"/>
<path d="M53.924 51.9019L53.9543 52.3549L53.8902 52.3593L53.8636 51.9627L53.7614 51.9697L53.7577 51.9133L53.924 51.9019Z" fill="white"/>
<path d="M53.6987 53.2529L53.7024 53.3091L53.3767 53.3311L53.3736 53.2873L53.5463 53.0968C53.5912 53.0469 53.5982 53.0179 53.5962 52.9893C53.5932 52.9427 53.5583 52.9165 53.4948 52.9209C53.4462 52.9241 53.4081 52.9424 53.3823 52.9778L53.3357 52.9427C53.3675 52.8969 53.4262 52.8675 53.4966 52.8627C53.5912 52.8563 53.6553 52.9008 53.6605 52.9786C53.6636 53.0227 53.6531 53.063 53.5958 53.1258L53.4663 53.2686L53.6987 53.2529Z" fill="white"/>
<path d="M54.0704 53.2279L54.0741 53.2842L53.7484 53.306L53.7455 53.2621L53.918 53.0718C53.9629 53.0219 53.9699 52.9929 53.9679 52.9643C53.9649 52.9177 53.93 52.8918 53.8665 52.8959C53.8179 52.8992 53.7796 52.9175 53.754 52.9528L53.7074 52.9177C53.7392 52.8719 53.7979 52.8425 53.8683 52.8377C53.9629 52.8314 54.027 52.8758 54.0322 52.9535C54.0353 52.9975 54.0248 53.0378 53.9675 53.1006L53.838 53.2434L54.0704 53.2279Z" fill="white"/>
<path d="M53.7574 54.1027L53.7613 54.1589L53.4356 54.1807L53.4326 54.1369L53.6052 53.9466C53.6501 53.8967 53.6571 53.8677 53.6551 53.8391C53.6519 53.7925 53.6172 53.7665 53.5536 53.7707C53.5049 53.774 53.4668 53.792 53.4411 53.8276L53.3944 53.7925C53.4265 53.7467 53.4849 53.7173 53.5555 53.7125C53.6501 53.7062 53.7142 53.7506 53.7194 53.8282C53.7223 53.8723 53.712 53.9126 53.6545 53.9756L53.5248 54.1182L53.7574 54.1027Z" fill="white"/>
<path d="M54.1141 54.0018C54.1191 54.0781 54.067 54.1439 53.9519 54.1517C53.8872 54.1561 53.8222 54.14 53.7817 54.1079L53.8081 54.0549C53.8403 54.0813 53.8924 54.0979 53.948 54.0942C54.0158 54.0896 54.0527 54.056 54.0492 54.0068C54.0459 53.9588 54.0097 53.9303 53.9319 53.9355L53.8957 53.9379L53.8926 53.8923L53.9973 53.7452L53.7791 53.7598L53.7751 53.7033L54.0742 53.6833L54.0773 53.7273L53.9687 53.8814C54.0603 53.884 54.1096 53.932 54.1141 54.0018Z" fill="white"/>
<path d="M53.7877 55.0373L53.7914 55.094L53.466 55.1158L53.4629 55.0717L53.6356 54.8814C53.6803 54.8315 53.6875 54.8025 53.6855 54.7739C53.6824 54.7275 53.6476 54.7014 53.5841 54.7055C53.5355 54.7088 53.4974 54.7269 53.4716 54.7624L53.425 54.7273C53.457 54.6815 53.5155 54.6521 53.5861 54.6473C53.6807 54.641 53.7448 54.6854 53.7498 54.763C53.7529 54.8071 53.7424 54.8474 53.6848 54.9106L53.5554 55.0532L53.7877 55.0373Z" fill="white"/>
<path d="M54.2191 54.9535L54.133 54.9594L54.1404 55.0708L54.0776 55.0749L54.0702 54.9635L53.8187 54.9805L53.8156 54.9352L54.0273 54.623L54.0971 54.6184L53.8943 54.9195L54.0683 54.9077L54.0617 54.8094L54.1226 54.805L54.1291 54.9036L54.2152 54.8977L54.2191 54.9535Z" fill="white"/>
<path d="M53.9289 55.98L53.9326 56.0365L53.6069 56.0585L53.6041 56.0145L53.7768 55.8239C53.8214 55.774 53.8284 55.7452 53.8267 55.7167C53.8236 55.6702 53.7887 55.6439 53.7253 55.6482C53.6767 55.6515 53.6385 55.6698 53.6128 55.7051L53.5662 55.67C53.5982 55.6242 53.6569 55.5948 53.7273 55.5902C53.8219 55.5839 53.8858 55.6284 53.891 55.706C53.894 55.75 53.8836 55.7903 53.8262 55.8536L53.6965 55.9959L53.9289 55.98Z" fill="white"/>
<path d="M54.2951 55.8756C54.3003 55.9538 54.2488 56.0205 54.1329 56.0282C54.0688 56.0325 54.004 56.016 53.9628 55.9843L53.9892 55.9314C54.0215 55.9577 54.0734 55.9743 54.1283 55.9706C54.197 55.966 54.2336 55.932 54.2303 55.8828C54.2268 55.832 54.1924 55.8021 54.0875 55.8091L53.9846 55.8158L53.9929 55.5773L54.2484 55.5601L54.2521 55.6166L54.0509 55.6303L54.047 55.7552L54.0973 55.752C54.2327 55.7428 54.2896 55.7953 54.2951 55.8756Z" fill="white"/>
<path d="M53.9832 56.8158L53.9869 56.8723L53.6612 56.8941L53.6582 56.85L53.8308 56.6597C53.8757 56.61 53.8827 56.5808 53.8808 56.5523C53.8777 56.5058 53.8428 56.4797 53.7794 56.484C53.7308 56.4873 53.6924 56.5054 53.6669 56.5411L53.6202 56.5058C53.6521 56.46 53.7107 56.4308 53.7811 56.4263C53.8757 56.4199 53.9398 56.4642 53.9451 56.5418C53.9481 56.5858 53.9376 56.6262 53.8803 56.6892L53.7508 56.8317L53.9832 56.8158Z" fill="white"/>
<path d="M54.3798 56.7073C54.3857 56.7945 54.319 56.8551 54.2289 56.8612C54.1071 56.8692 54.0334 56.7925 54.0236 56.648C54.0133 56.4934 54.0949 56.4047 54.2217 56.3962C54.2645 56.3933 54.3059 56.399 54.3362 56.4151L54.3148 56.4672C54.2906 56.4533 54.259 56.4496 54.2267 56.4518C54.1348 56.4579 54.0798 56.5193 54.0874 56.6325C54.0877 56.6377 54.0881 56.643 54.0892 56.6486C54.1125 56.6083 54.1592 56.5843 54.2154 56.5804C54.3054 56.5747 54.3743 56.624 54.3798 56.7073ZM54.3172 56.7142C54.3135 56.6613 54.2712 56.6296 54.208 56.634C54.1465 56.6382 54.1064 56.6791 54.1097 56.7288C54.113 56.7757 54.1531 56.8141 54.223 56.8093C54.2817 56.8051 54.3209 56.7681 54.3172 56.7142Z" fill="white"/>
<path d="M54.007 57.7516L54.0107 57.8078L53.6853 57.8298L53.6822 57.7858L53.8549 57.5955C53.8996 57.5456 53.9068 57.5166 53.9048 57.488C53.9017 57.4416 53.8669 57.4152 53.8034 57.4196C53.7548 57.4228 53.7167 57.4412 53.6909 57.4767L53.6443 57.4414C53.6763 57.3958 53.735 57.3664 53.8054 57.3618C53.9 57.3555 53.9641 57.3997 53.9691 57.4773C53.9722 57.5214 53.9617 57.5619 53.9041 57.6249L53.7746 57.7675L54.007 57.7516Z" fill="white"/>
<path d="M54.3617 57.3296L54.3648 57.3734L54.2091 57.7951L54.1407 57.7996L54.2933 57.3909L54.0862 57.4046L54.0914 57.4855L54.0295 57.4899L54.0203 57.3527L54.3617 57.3296Z" fill="white"/>
<path d="M54.0829 58.6947L54.0868 58.7509L53.7611 58.7729L53.7581 58.7289L53.9307 58.5386C53.9757 58.4889 53.9826 58.4597 53.9807 58.4311C53.9776 58.3847 53.9427 58.3583 53.8793 58.3627C53.8307 58.3659 53.7925 58.3842 53.7668 58.4198L53.7202 58.3845C53.7524 58.3389 53.8108 58.3095 53.8813 58.3049C53.9759 58.2986 54.04 58.3428 54.0452 58.4206C54.048 58.4645 54.0378 58.505 53.9802 58.568L53.8507 58.7106L54.0829 58.6947Z" fill="white"/>
<path d="M54.4886 58.595C54.494 58.6774 54.4275 58.733 54.3168 58.7404C54.2069 58.7476 54.1341 58.7014 54.1287 58.6189C54.1252 58.5673 54.1511 58.5269 54.201 58.5045C54.1583 58.4877 54.1341 58.4554 54.1311 58.411C54.1261 58.3349 54.1882 58.2834 54.2858 58.2771C54.3842 58.2706 54.4535 58.3131 54.4585 58.3892C54.4616 58.4336 54.4411 58.4687 54.4009 58.4912C54.4541 58.5073 54.4851 58.5431 54.4886 58.595ZM54.4238 58.5971C54.4203 58.5472 54.3744 58.5191 54.3024 58.5241C54.2307 58.5289 54.1899 58.5629 54.1934 58.6126C54.1969 58.6636 54.2416 58.6926 54.3133 58.688C54.3853 58.6833 54.4273 58.6484 54.4238 58.5971ZM54.1954 58.4092C54.1984 58.4537 54.2372 58.479 54.2994 58.4751C54.3621 58.4707 54.3986 58.4404 54.3955 58.3959C54.3924 58.3506 54.3504 58.3255 54.2896 58.3294C54.2285 58.3334 54.1923 58.3639 54.1954 58.4092Z" fill="white"/>
<path d="M70.9299 30.4572C70.9299 30.4572 74.2336 32.9888 74.9238 35.9218C75.2724 37.4027 77.5993 51.3174 77.5993 51.3174L78.317 54.0263C78.5274 54.8207 78.1018 55.6223 77.3548 55.8385L65.2945 57.7425C64.6859 57.8709 64.1511 56.8816 64.0796 56.2311L64.1067 51.7081L63.2595 35.7171L64.9556 32.4192L70.9299 30.4572Z" fill="#E0E0E0"/>
<path d="M64.8601 33.7908L65.7271 51.9611C65.7271 51.9611 64.4186 53.8553 64.4219 53.8841C64.4252 53.9128 63.5172 51.8283 63.5172 51.8283C63.5172 51.8283 63.4876 39.1896 63.779 36.5997C64.0705 34.0099 64.4202 33.5848 64.4202 33.5848L64.8601 33.7908Z" fill="#D66D11"/>
<path d="M71.0462 30.6438C70.9303 30.4566 70.8217 29.5207 70.8217 29.5207L64.8579 31.5415L64.6233 33.289L71.0462 30.6438Z" fill="#E0E0E0"/>
<g opacity="0.3">
<path d="M70.6494 30.8311L65.0466 34.3826L65.0098 32.0042L65.4449 33.3283L70.6494 30.8311Z" fill="black"/>
</g>
<path d="M65.341 33.1776L64.8296 33.8259L64.3469 33.834L64.5793 32.1016C64.5957 32.0111 64.6552 31.9374 64.7376 31.9054L64.9259 31.8323L65.341 33.1776Z" fill="#D66D11"/>
<g opacity="0.3">
<path d="M64.6694 57.5009C64.6694 57.5009 71.1778 52.1625 72.0847 50.4399C72.9914 48.7171 73.3585 47.6133 73.5926 46.376C74.0683 43.8615 73.5926 36.4683 73.5926 36.4683C73.5926 36.4683 70.2712 38.9943 69.9537 39.0499C69.6363 39.1054 68.0149 47.0498 68.0149 47.0498L66.3149 53.0241L63.887 56.2119C63.887 56.2119 64.2943 57.2679 64.6694 57.5009Z" fill="black"/>
</g>
<path d="M64.4227 32.3631C64.4303 32.3668 64.3928 32.4586 64.3254 32.6241C64.2581 32.7895 64.1602 33.0287 64.0499 33.328C63.9389 33.6271 63.816 33.9866 63.686 34.3886C63.6213 34.5922 63.5439 34.796 63.5149 35.0199C63.4783 35.2436 63.4578 35.4801 63.4425 35.7223C63.3874 36.6933 63.4035 37.5775 63.4124 38.216C63.419 38.5177 63.4244 38.771 63.4288 38.9727C63.4325 39.1514 63.4338 39.2504 63.4255 39.2511C63.4183 39.2517 63.402 39.1536 63.3848 38.9753C63.3667 38.797 63.3486 38.5384 63.3322 38.2186C63.3028 37.579 63.2736 36.6939 63.3292 35.7149C63.3447 35.4703 63.3658 35.2314 63.4053 35.0011C63.4223 34.8863 63.4515 34.7725 63.4835 34.6637C63.5186 34.5588 63.5533 34.4561 63.5868 34.3556C63.7227 33.9547 63.8539 33.5959 63.9751 33.299C64.0954 33.0016 64.2051 32.7662 64.2851 32.6058C64.3653 32.4453 64.4161 32.3599 64.4227 32.3631Z" fill="#263238"/>
<path d="M64.8879 33.8803C64.8644 33.9026 64.7667 33.8343 64.6335 33.7929C64.501 33.7487 64.3819 33.7469 64.3758 33.7151C64.3671 33.6859 64.5042 33.6314 64.6684 33.6848C64.8325 33.7373 64.9121 33.8618 64.8879 33.8803Z" fill="#263238"/>
<path d="M64.7845 31.6669C65.0895 32.2239 65.321 32.8207 65.4713 33.4377C67.4119 32.7054 69.2719 31.7591 71.0063 30.6213" fill="#E0E0E0"/>
<path d="M71.007 30.6208C71.0113 30.6273 70.9198 30.6953 70.7506 30.8126C70.581 30.9292 70.3318 31.0927 70.0188 31.2867C69.3918 31.6728 68.5043 32.1744 67.4849 32.6492C66.7631 32.9882 66.0725 33.2662 65.4889 33.482L65.4377 33.501L65.4253 33.4484C65.2949 32.8936 65.1244 32.4491 64.9941 32.1448C64.8628 31.84 64.7754 31.6717 64.7854 31.6663C64.7898 31.6639 64.8168 31.7031 64.8626 31.7799C64.908 31.8568 64.9714 31.9715 65.0447 32.1217C65.1909 32.4217 65.3767 32.8659 65.5186 33.4258L65.4549 33.3922C66.0324 33.1668 66.7178 32.8843 67.4368 32.5466C68.452 32.0737 69.3419 31.5854 69.9776 31.2181C70.2799 31.0395 70.5317 30.8909 70.7268 30.7758C70.903 30.6698 71.0026 30.6142 71.007 30.6208Z" fill="#263238"/>
<path d="M73.5744 36.249C73.5744 36.249 74.0023 47.0603 70.9433 50.2991C67.8846 53.538 60.9502 60.3439 60.9502 60.3439L57.6418 57.3383L58.8999 56.0844L66.3392 47.1224C66.3392 47.1224 66.9513 38.0142 67.3346 36.1976C67.5105 35.3633 68.093 34.6487 68.8396 34.1876" fill="#E0E0E0"/>
<path d="M69.2311 34.4932C69.2311 34.4932 69.2149 34.5067 69.1809 34.5301C69.1471 34.5536 69.0955 34.5867 69.0309 34.6358C68.9006 34.7313 68.7105 34.8806 68.4955 35.1093C68.2852 35.3397 68.0443 35.6521 67.8777 36.0763C67.7916 36.2871 67.7402 36.5263 67.7007 36.7857C67.6562 37.0438 67.6235 37.3213 67.5865 37.6139C67.3172 39.96 67.058 43.3394 66.7779 47.4311L66.7768 47.4463L66.767 47.4581C64.5968 50.0765 62.0641 53.1324 59.3345 56.4256L59.3328 56.4275L59.3308 56.4295C58.9343 56.8249 58.5057 57.2524 58.0729 57.6836L58.071 57.6019C58.8037 58.2674 59.5811 58.9735 60.3676 59.6879C60.7142 60.0029 61.0589 60.316 61.3793 60.6072L61.3015 60.6088C64.1521 57.8042 66.8448 55.1306 69.259 52.6779C69.8609 52.0632 70.4475 51.4643 71.0086 50.8751C71.2925 50.5814 71.5621 50.2919 71.7753 49.9621C71.8863 49.8012 71.9785 49.6294 72.0764 49.4635C72.1603 49.2898 72.2549 49.1232 72.3284 48.9479C72.6384 48.2545 72.8581 47.5508 73.0354 46.868C73.2113 46.1843 73.3436 45.519 73.447 44.8809C73.6556 43.6045 73.7665 42.4395 73.8389 41.4167C73.9122 40.3936 73.9403 39.5112 73.9569 38.7904C73.9723 38.0697 73.9706 37.5106 73.9684 37.1317C73.9667 36.9449 73.9654 36.8014 73.9645 36.7009C73.9636 36.6039 73.9654 36.5542 73.9654 36.5542C73.9654 36.5542 73.971 36.6037 73.9758 36.7007C73.9793 36.8014 73.9843 36.9446 73.9906 37.1315C74 37.5103 74.0087 38.07 73.9998 38.7913C73.9898 39.5127 73.968 40.396 73.9006 41.421C73.8339 42.4456 73.7284 43.613 73.5243 44.8936C73.4232 45.5338 73.2928 46.2018 73.1182 46.8891C72.9425 47.5758 72.7236 48.2841 72.4125 48.9856C72.3386 49.1627 72.2436 49.3321 72.159 49.5078C72.0603 49.6763 71.9672 49.8507 71.8547 50.0146C71.6395 50.3499 71.3605 50.6509 71.0797 50.9424C70.5192 51.5336 69.9337 52.1338 69.3326 52.7499C66.922 55.2076 64.2319 57.8838 61.3811 60.6894L61.3429 60.7269L61.3035 60.6914C60.983 60.4003 60.6384 60.0871 60.2917 59.7723C59.5052 59.0575 58.728 58.3516 57.9953 57.6858L57.9513 57.6459L57.9934 57.6041C58.4261 57.1729 58.8549 56.7458 59.2517 56.3506L59.2482 56.3545C61.9828 53.0653 64.5201 50.0131 66.694 47.398L66.6833 47.425C66.9737 43.3327 67.2468 39.9546 67.5322 37.6074C67.5714 37.3144 67.6061 37.0371 67.653 36.7776C67.6946 36.5182 67.7493 36.2741 67.8387 36.0609C68.012 35.6316 68.2592 35.3188 68.4746 35.0897C68.6946 34.8621 68.8888 34.716 69.0224 34.6238C69.1563 34.5316 69.2311 34.4932 69.2311 34.4932Z" fill="#263238"/>
<path d="M69.7185 47.3435C69.7083 47.3799 68.9751 47.0917 68.0227 47.0806C67.07 47.0592 66.3277 47.3223 66.3188 47.2857C66.3142 47.2733 66.4926 47.1913 66.7986 47.1104C67.1041 47.0291 67.5401 46.9594 68.0247 46.967C68.5091 46.9759 68.9424 47.0603 69.2448 47.1519C69.5478 47.2434 69.7233 47.3313 69.7185 47.3435Z" fill="#263238"/>
<path d="M57.7895 58.0981C57.7895 58.0981 55.8005 58.0892 55.6326 58.0992C55.4646 58.1092 53.3644 59.5557 53.2584 59.8136C53.1525 60.0715 52.8699 60.5977 53.4199 60.8767L53.5163 60.9169C53.5163 60.9169 53.4542 61.5061 53.7103 61.8032C53.9663 62.1004 54.2856 62.1638 54.2856 62.1638C54.2856 62.1638 54.3338 62.6111 54.5195 62.8795C54.7053 63.1479 55.1075 63.1921 55.1075 63.1921C55.1075 63.1921 55.2126 63.7099 55.4367 63.8407C55.6608 63.9713 55.9156 63.9128 55.9328 63.8971C55.9503 63.8812 56.4373 63.5305 56.5626 63.4457C56.6882 63.3606 57.2415 63.0129 57.3184 62.9552C57.3954 62.8974 58.1516 62.4378 58.6923 61.5009C59.2327 60.5641 60.1971 59.7523 60.1971 59.7523L58.1399 57.826L57.7895 58.0981Z" fill="#C17560"/>
<path d="M54.2761 60.2161C54.2966 60.2396 54.1401 60.4099 53.9263 60.596C53.7124 60.7822 53.5223 60.9141 53.5018 60.8906C53.4813 60.867 53.6378 60.6968 53.8517 60.5106C54.0656 60.3244 54.2556 60.1925 54.2761 60.2161Z" fill="#7C4236"/>
<path d="M54.9942 61.3873C55.0149 61.4108 54.8584 61.5811 54.6445 61.7674C54.4309 61.9538 54.2408 62.0857 54.2203 62.0622C54.1998 62.0386 54.3561 61.8684 54.57 61.682C54.7836 61.4956 54.9737 61.3635 54.9942 61.3873Z" fill="#7C4236"/>
<path d="M55.6999 62.692C55.7217 62.7147 55.6052 62.8618 55.4398 63.0205C55.2745 63.1795 55.1228 63.29 55.101 63.2673C55.0792 63.2446 55.1956 63.0977 55.3611 62.9388C55.5265 62.7799 55.6781 62.6693 55.6999 62.692Z" fill="#7C4236"/>
</svg>
