<svg width="26" height="26" viewBox="0 0 26 26" fill="none" xmlns="http://www.w3.org/2000/svg">
<path d="M25.4998 5.28616L24.9176 4.956C24.9859 4.60076 24.9859 4.23609 24.9176 3.88085L25.4998 3.5507C25.7295 3.42049 25.8971 3.20601 25.9657 2.95443C26.0344 2.70286 25.9985 2.43479 25.8659 2.20921C25.7334 1.98363 25.515 1.81902 25.2589 1.75158C25.0028 1.68414 24.7299 1.7194 24.5003 1.8496L23.9168 2.18098C23.6376 1.94565 23.3165 1.76299 22.9697 1.64218V0.981873C22.9697 0.721464 22.8644 0.471721 22.677 0.287584C22.4895 0.103447 22.2353 0 21.9702 0C21.7051 0 21.4508 0.103447 21.2634 0.287584C21.0759 0.471721 20.9706 0.721464 20.9706 0.981873V1.64218C20.6238 1.76299 20.3028 1.94565 20.0235 2.18098L19.44 1.8496C19.3263 1.78513 19.2008 1.74329 19.0707 1.72647C18.9405 1.70965 18.8082 1.71818 18.6814 1.75158C18.5546 1.78497 18.4357 1.84257 18.3316 1.92109C18.2274 1.99961 18.14 2.09752 18.0744 2.20921C18.0088 2.32091 17.9662 2.44421 17.9491 2.57207C17.9319 2.69994 17.9406 2.82986 17.9746 2.95443C18.0086 3.079 18.0673 3.19577 18.1472 3.29808C18.2271 3.40039 18.3268 3.48623 18.4405 3.5507L19.0227 3.88085C18.9544 4.23609 18.9544 4.60076 19.0227 4.956L18.4405 5.28616C18.2498 5.39418 18.1008 5.561 18.0165 5.76074C17.9322 5.96048 17.9174 6.18195 17.9744 6.3908C18.0313 6.59965 18.1569 6.78419 18.3315 6.91578C18.5062 7.04737 18.7202 7.11866 18.9403 7.11858C19.1158 7.11911 19.2883 7.07379 19.44 6.98725L20.0235 6.65587C20.3028 6.8912 20.6238 7.07387 20.9706 7.19467V7.85498C20.9706 8.11539 21.0759 8.36513 21.2634 8.54927C21.4508 8.73341 21.7051 8.83685 21.9702 8.83685C22.2353 8.83685 22.4895 8.73341 22.677 8.54927C22.8644 8.36513 22.9697 8.11539 22.9697 7.85498V7.19467C23.3165 7.07387 23.6376 6.8912 23.9168 6.65587L24.5003 6.98725C24.6521 7.07379 24.8246 7.11911 25.0001 7.11858C25.2202 7.11866 25.4341 7.04737 25.6088 6.91578C25.7834 6.78419 25.909 6.59965 25.9659 6.3908C26.0229 6.18195 26.0081 5.96048 25.9238 5.76074C25.8395 5.561 25.6905 5.39418 25.4998 5.28616ZM20.9706 4.41843C20.9706 4.22423 21.0292 4.0344 21.1391 3.87293C21.2489 3.71146 21.405 3.58561 21.5877 3.51129C21.7703 3.43698 21.9713 3.41753 22.1652 3.45542C22.3591 3.49331 22.5372 3.58682 22.677 3.72414C22.8167 3.86146 22.9119 4.03641 22.9505 4.22687C22.9891 4.41734 22.9693 4.61476 22.8936 4.79417C22.818 4.97359 22.6899 5.12693 22.5255 5.23482C22.3611 5.34271 22.1679 5.4003 21.9702 5.4003C21.7051 5.4003 21.4508 5.29685 21.2634 5.11272C21.0759 4.92858 20.9706 4.67884 20.9706 4.41843ZM24.6377 10.3232C24.3763 10.3661 24.1429 10.5094 23.989 10.7214C23.835 10.9333 23.7731 11.1967 23.8168 11.4535C23.9183 12.0489 23.9693 12.6516 23.9693 13.2553C23.9716 15.8992 22.9824 18.4513 21.1905 20.4242C20.0757 18.8373 18.5082 17.6097 16.685 16.8956C17.6644 16.1379 18.379 15.0992 18.7295 13.9241C19.0801 12.7489 19.0491 11.4956 18.6409 10.3386C18.2327 9.18149 17.4677 8.17812 16.4521 7.46799C15.4365 6.75785 14.2208 6.37625 12.9742 6.37625C11.7276 6.37625 10.5119 6.75785 9.49634 7.46799C8.48073 8.17812 7.71564 9.18149 7.30747 10.3386C6.8993 11.4956 6.86833 12.7489 7.21887 13.9241C7.56941 15.0992 8.28403 16.1379 9.26336 16.8956C7.4402 17.6097 5.87267 18.8373 4.75788 20.4242C3.35191 18.8679 2.43351 16.9457 2.11312 14.8889C1.79273 12.8321 2.08398 10.7282 2.95186 8.83006C3.81974 6.93197 5.22729 5.32054 7.00527 4.18953C8.78326 3.05853 10.856 2.4561 12.9742 2.45468C13.5888 2.45458 14.2023 2.50467 14.8084 2.60442C15.0686 2.64476 15.3346 2.58251 15.5484 2.43123C15.7622 2.27994 15.9065 2.05184 15.95 1.79656C15.9935 1.54128 15.9326 1.27945 15.7806 1.06805C15.6285 0.856638 15.3977 0.712747 15.1382 0.667673C12.4237 0.219099 9.63437 0.629546 7.17284 1.83975C4.71131 3.04996 2.705 4.9973 1.4436 7.40061C0.182188 9.80393 -0.269048 12.5389 0.155039 15.2105C0.579127 17.8822 1.85659 20.3523 3.80299 22.2643C5.74939 24.1762 8.26401 25.4311 10.9838 25.8477C13.7035 26.2643 16.4877 25.821 18.9343 24.5819C21.3809 23.3428 23.3633 21.372 24.5953 18.954C25.8273 16.536 26.2451 13.796 25.7885 11.1295C25.7447 10.8727 25.5989 10.6435 25.3831 10.4922C25.1673 10.341 24.8992 10.2802 24.6377 10.3232ZM8.97599 12.2734C8.97599 11.4966 9.21048 10.7373 9.64981 10.0914C10.0891 9.44554 10.7136 8.94214 11.4441 8.64488C12.1747 8.34762 12.9786 8.26984 13.7542 8.42138C14.5298 8.57293 15.2422 8.94698 15.8014 9.49625C16.3605 10.0455 16.7413 10.7453 16.8956 11.5072C17.0499 12.2691 16.9707 13.0587 16.6681 13.7764C16.3654 14.494 15.853 15.1074 15.1955 15.539C14.538 15.9706 13.765 16.2009 12.9742 16.2009C11.9138 16.2009 10.8968 15.7871 10.147 15.0506C9.39723 14.314 8.97599 13.315 8.97599 12.2734ZM6.23722 21.7853C6.96031 20.6744 7.95645 19.7602 9.13382 19.1269C10.3112 18.4937 11.6319 18.1618 12.9742 18.1618C14.3165 18.1618 15.6372 18.4937 16.8146 19.1269C17.9919 19.7602 18.9881 20.6744 19.7112 21.7853C17.785 23.2569 15.4144 24.0558 12.9742 24.0558C10.534 24.0558 8.16343 23.2569 6.23722 21.7853Z" fill="black"/>
</svg>
