<svg width="79" height="79" viewBox="0 0 79 79" fill="none" xmlns="http://www.w3.org/2000/svg">
<path d="M44.9895 49.2158H31.9258V52.3975H44.9895V49.2158Z" fill="#D66D11"/>
<path d="M32.9422 52.3974L26.2916 78.5258H27.7253L35.0176 52.3974H32.9422Z" fill="#D66D11"/>
<path d="M43.6185 52.3974L50.3188 78.5258H48.885L41.543 52.3974H43.6185Z" fill="#D66D11"/>
<path d="M41.5635 52.4778C41.5847 52.5023 39.6549 54.2567 37.2535 56.396C34.8514 58.5362 32.8874 60.2506 32.8662 60.2261C32.845 60.2017 34.7746 58.4477 37.1766 56.3075C39.5779 54.1682 41.5423 52.4534 41.5635 52.4778Z" fill="#D66D11"/>
<path d="M44.8101 60.3126C44.7903 60.3381 42.5289 58.5788 39.7598 56.3833C36.9897 54.1871 34.7609 52.3865 34.7807 52.3608C34.9966 52.0812 36.9595 54.0135 39.8316 56.2904C42.6005 58.4859 44.8298 60.2869 44.8101 60.3126Z" fill="#D66D11"/>
<path d="M44.9274 52.3977C44.9274 52.4302 42.0745 52.4565 38.5562 52.4565C35.0366 52.4565 32.1843 52.4302 32.1843 52.3977C32.1843 52.3653 35.0366 52.339 38.5562 52.339C42.0747 52.339 44.9274 52.3653 44.9274 52.3977Z" fill="#263238"/>
<path d="M39.3539 69.2126L36.6853 73.5533L44.8445 78.7581C45.2878 77.9382 42.0521 73.6608 42.0521 73.6608L43.3477 71.7342L39.3539 69.2126Z" fill="#455A64"/>
<g opacity="0.3">
<path d="M39.3383 69.2126L36.6697 73.5533L44.8289 78.7581C45.2721 77.9382 42.0365 73.6608 42.0365 73.6608L43.3321 71.7342L39.3383 69.2126Z" fill="black"/>
</g>
<path d="M39.7354 71.6947C39.5503 71.6376 39.3294 71.748 39.2655 71.9329C39.2017 72.1179 39.3103 72.3465 39.4945 72.4067C39.6786 72.467 39.948 72.3429 39.9908 72.1518C40.0339 71.9607 39.8916 71.6995 39.6988 71.6858" fill="white"/>
<path d="M36.6853 73.526L37.0959 72.8512L44.7534 78.1594C44.7534 78.1594 45.0147 78.5529 44.8108 78.7844L36.6853 73.526Z" fill="white"/>
<path d="M42.2008 73.7028C42.1744 73.7424 41.9639 73.6337 41.6871 73.6384C41.4102 73.6358 41.2005 73.746 41.1737 73.7066C41.1419 73.6754 41.3511 73.4719 41.6864 73.4724C42.0215 73.4694 42.2324 73.6712 42.2008 73.7028Z" fill="#263238"/>
<path d="M42.8409 74.6053C42.8258 74.6501 42.6105 74.6088 42.3692 74.6931C42.1252 74.7702 41.9763 74.9331 41.9378 74.9059C41.8964 74.8884 42.0158 74.6343 42.318 74.5353C42.619 74.4338 42.8638 74.5665 42.8409 74.6053Z" fill="#263238"/>
<path d="M42.674 75.9534C42.6324 75.9388 42.7023 75.7018 42.9421 75.5461C43.1809 75.3886 43.423 75.4214 43.4189 75.4657C43.4207 75.5133 43.226 75.5546 43.0311 75.6856C42.8333 75.8116 42.716 75.9746 42.674 75.9534Z" fill="#263238"/>
<path d="M42.7348 72.6818C42.6953 72.7079 42.547 72.5356 42.3124 72.4075C42.08 72.2746 41.8573 72.2394 41.8581 72.1914C41.8533 72.1475 42.1171 72.1073 42.3916 72.2621C42.667 72.4149 42.7741 72.6626 42.7348 72.6818Z" fill="#263238"/>
<path d="M39.9777 69.2622L42.6368 73.4539L34.5512 78.7751C34.0965 77.9617 37.2721 73.6382 37.2721 73.6382L36.0224 71.8355L39.9777 69.2622Z" fill="#455A64"/>
<g opacity="0.6">
<path d="M39.5575 71.6371C39.7418 71.5775 39.9641 71.6845 40.0307 71.8686C40.0971 72.0527 39.9916 72.2826 39.8084 72.3456C39.6253 72.4086 39.3543 72.2883 39.3085 72.0978C39.2628 71.9074 39.4013 71.644 39.5941 71.6276" fill="white"/>
</g>
<g opacity="0.6">
<path d="M42.6343 73.4263L42.2142 72.7574L34.6317 78.1749C34.6317 78.1749 34.3761 78.5722 34.5831 78.8008L42.6343 73.4263Z" fill="white"/>
</g>
<path d="M37.1218 73.6851C37.1488 73.7243 37.3577 73.6124 37.6345 73.6132C37.9114 73.6067 38.1225 73.7139 38.1487 73.6741C38.1801 73.6425 37.968 73.442 37.6329 73.4472C37.2978 73.4491 37.0896 73.6539 37.1218 73.6851Z" fill="#263238"/>
<path d="M36.4936 74.5956C36.5094 74.6402 36.7241 74.5958 36.9666 74.6767C37.2116 74.7502 37.3626 74.9109 37.4009 74.8833C37.4421 74.8652 37.3192 74.613 37.0155 74.5182C36.713 74.4209 36.4699 74.557 36.4936 74.5956Z" fill="#263238"/>
<path d="M36.6733 75.9404C36.7147 75.9253 36.6414 75.6893 36.3995 75.5372C36.1587 75.383 35.917 75.4192 35.9218 75.4635C35.9205 75.5111 36.1158 75.5496 36.3126 75.6777C36.5121 75.8012 36.6317 75.9623 36.6733 75.9404Z" fill="#263238"/>
<path d="M36.5813 72.6733C36.6212 72.6988 36.767 72.5243 37 72.3929C37.2305 72.2566 37.4528 72.2182 37.4514 72.1704C37.4557 72.1264 37.1912 72.09 36.9189 72.2488C36.6454 72.4053 36.5418 72.6545 36.5813 72.6733Z" fill="#263238"/>
<path d="M30.5094 40.1787C30.5094 40.1787 22.0825 46.6177 23.5766 51.6939C24.757 55.7046 35.021 72.5274 35.021 72.5274L41.1859 68.4442L33.165 53.3133C33.165 53.3133 33.0083 51.9571 32.7109 51.1283L33.165 50.5256C33.165 50.5256 35.8228 49.2498 38.0546 49.4006L38.2545 39.6L30.5094 40.1787Z" fill="#263238"/>
<path d="M38.0515 49.4004C38.0515 49.4004 42.2048 50.4367 43.0674 50.4495C43.6165 50.4577 43.3158 52.1123 43.6134 52.7904L43.6032 52.9379L37.7767 68.574L43.7902 72.1657C43.7902 72.1657 48.3336 60.5826 49.3006 58.6236C50.2678 56.6646 51.8261 52.1113 52.4214 50.755C53.0165 49.3987 52.1992 47.0595 51.1576 45.0251C50.1161 42.9907 44.8891 40.1199 44.8891 40.1199L38.2514 39.6L38.0515 49.4004Z" fill="#263238"/>
<path d="M50.0688 46.7724C50.0605 46.797 49.6605 46.5971 48.9637 46.4952C48.2754 46.3894 47.2664 46.428 46.2961 46.894C45.3264 47.3621 44.66 48.1308 44.3066 48.7381C43.9448 49.3501 43.8456 49.7902 43.8215 49.7813C43.8153 49.7797 43.8359 49.6699 43.8951 49.4776C43.954 49.285 44.0611 49.012 44.2356 48.6962C44.5768 48.0676 45.2496 47.2687 46.2462 46.7878C47.2431 46.3089 48.2796 46.2843 48.9764 46.4132C49.3283 46.4756 49.6052 46.5634 49.7897 46.6388C49.9744 46.7134 50.0713 46.7665 50.0688 46.7724Z" fill="#39444A"/>
<path d="M46.618 50.4502C46.6255 50.4668 46.4248 50.5692 46.112 50.7521C45.7989 50.9345 45.3771 51.2052 44.9442 51.5494C44.512 51.8947 44.153 52.2461 43.9042 52.5113C43.6551 52.7764 43.5097 52.9497 43.4955 52.9386C43.4843 52.9299 43.6072 52.7378 43.8433 52.4555C44.0788 52.1734 44.434 51.8069 44.8725 51.4567C45.3114 51.1077 45.7467 50.8441 46.0728 50.6787C46.3992 50.5129 46.6124 50.4371 46.618 50.4502Z" fill="#39444A"/>
<path d="M33.1782 50.5193C33.158 50.5332 32.9613 50.2103 32.5494 49.7719C32.3447 49.5517 32.0783 49.3122 31.7611 49.0756C31.4399 48.8449 31.0668 48.6195 30.6512 48.4327C30.2335 48.25 29.8163 48.1263 29.4313 48.0419C29.0448 47.9631 28.6904 47.9249 28.3919 47.9153C27.7945 47.895 27.4247 47.9532 27.422 47.9294C27.421 47.9214 27.5123 47.9037 27.6795 47.8786C27.7631 47.8651 27.8655 47.8506 27.9857 47.8462C28.1055 47.8409 28.2424 47.8249 28.3938 47.832C28.6966 47.8312 29.0577 47.8611 29.4523 47.9355C29.8454 48.0153 30.272 48.1384 30.6978 48.3248C31.1217 48.5152 31.5009 48.7482 31.8247 48.9882C32.1444 49.234 32.4098 49.4845 32.6099 49.7152C32.7162 49.8247 32.7946 49.9393 32.8699 50.0341C32.9461 50.1283 33.0029 50.2162 33.0474 50.289C33.1381 50.4336 33.1851 50.5151 33.1782 50.5193Z" fill="#39444A"/>
<path d="M33.1816 50.5191C33.1627 50.5209 33.1369 50.3151 33.0579 49.993C32.9805 49.6705 32.8378 49.234 32.6211 48.7775C32.188 47.8602 31.6331 47.2415 31.6628 47.2175C31.6732 47.2078 31.8247 47.3496 32.0339 47.6121C32.2431 47.8739 32.504 48.2613 32.7259 48.7263C32.947 49.1914 33.0804 49.6427 33.1384 49.9753C33.1979 50.3082 33.1947 50.5184 33.1816 50.5191Z" fill="#39444A"/>
<path d="M35.017 72.5273C35.0164 72.5262 35.0251 72.5186 35.0432 72.5051C35.0655 72.4891 35.0921 72.4699 35.1249 72.4461C35.2038 72.3918 35.3111 72.3176 35.448 72.223C35.7392 72.0263 36.1554 71.7448 36.6822 71.3888C37.7553 70.6719 39.2777 69.655 41.1014 68.4367L41.0844 68.5031C40.0945 66.606 38.9278 64.3698 37.6829 61.9836C35.9106 58.5647 34.2975 55.4531 33.098 53.1394L33.0953 53.1339L33.094 53.1282C32.9401 52.3903 32.8032 51.734 32.6832 51.1593L32.6847 51.1642C32.3854 50.3413 31.862 49.846 31.4781 49.592C31.2844 49.4616 31.122 49.3838 31.0134 49.3303C30.9622 49.3074 30.9211 49.289 30.888 49.2741C30.8599 49.261 30.846 49.2536 30.8464 49.2522C30.8464 49.2522 31.0958 49.3116 31.4976 49.5612C31.8918 49.8081 32.4338 50.3049 32.7477 51.14L32.7485 51.1423L32.7492 51.1448C32.8742 51.7184 33.0171 52.3734 33.1776 53.1099L33.1737 53.0989C34.3803 55.4089 36.0029 58.5154 37.7859 61.9286C39.0258 64.3176 40.1877 66.5561 41.1734 68.4555L41.1948 68.4968L41.1563 68.5221C39.323 69.7258 37.793 70.7305 36.7143 71.4387C36.181 71.7849 35.7596 72.0581 35.4648 72.2494C35.3244 72.3385 35.2142 72.4084 35.1335 72.4596C35.0987 72.4807 35.0709 72.4978 35.0474 72.5119C35.028 72.5232 35.0178 72.5285 35.017 72.5273Z" fill="#39444A"/>
<path d="M37.9303 46.8862C37.9287 46.9066 37.6081 46.8822 37.0923 46.9138C36.5767 46.9422 35.8665 47.0393 35.1057 47.2464C34.3452 47.456 33.6853 47.7396 33.2378 47.9991C32.7875 48.2545 32.5431 48.4672 32.5292 48.4502C32.524 48.4441 32.582 48.3876 32.6923 48.2905C32.7459 48.2399 32.8177 48.186 32.9023 48.1251C32.9853 48.0617 33.0833 47.9943 33.196 47.9273C33.6393 47.6454 34.3051 47.3448 35.0751 47.1327C35.8455 46.9231 36.5669 46.8377 37.089 46.8306C37.3498 46.8232 37.5613 46.8352 37.7063 46.85C37.8515 46.8658 37.9309 46.8782 37.9303 46.8862Z" fill="#39444A"/>
<path d="M37.8444 45.6317C37.8369 45.6349 37.7966 45.5588 37.7296 45.4187C37.6526 45.255 37.5597 45.0566 37.4505 44.8242C37.2119 44.3264 36.8785 43.6314 36.3533 42.979C35.8277 42.3276 35.182 41.8985 34.6733 41.7118C34.1632 41.518 33.8148 41.5273 33.818 41.5024C33.818 41.4959 33.9037 41.4885 34.0582 41.4986C34.2129 41.5077 34.4363 41.5452 34.7009 41.6337C35.2307 41.8047 35.9048 42.2366 36.4431 42.9044C36.98 43.572 37.3049 44.2815 37.5253 44.7899C37.6348 45.0458 37.7169 45.2552 37.7712 45.4008C37.8255 45.5464 37.8517 45.6285 37.8444 45.6317Z" fill="#39444A"/>
<path d="M43.0658 42.1308C43.0679 42.1544 42.7399 42.1719 42.2344 42.3099C41.9813 42.3764 41.6884 42.4858 41.3754 42.6322C41.0655 42.7855 40.7372 42.9804 40.4196 43.2239C40.1051 43.4717 39.8341 43.7424 39.6076 44.0059C39.3867 44.2743 39.2068 44.5326 39.0776 44.7631C38.8151 45.2217 38.7134 45.5381 38.6916 45.5299C38.6841 45.5274 38.7059 45.4477 38.7527 45.3049C38.7748 45.2331 38.8051 45.1463 38.8503 45.0496C38.8942 44.9525 38.938 44.8385 39.0059 44.7224C39.128 44.4829 39.3043 44.2143 39.5254 43.9364C39.7522 43.6634 40.0271 43.384 40.3487 43.1308C40.6734 42.8818 41.011 42.6853 41.33 42.5342C41.6522 42.3899 41.954 42.2869 42.2143 42.2294C42.3424 42.1932 42.4626 42.1797 42.5666 42.162C42.6704 42.1428 42.7611 42.1356 42.8353 42.1327C42.9836 42.1236 43.0654 42.1226 43.0658 42.1308Z" fill="#39444A"/>
<path d="M44.0563 48.8287C44.0397 48.8449 43.8205 48.5978 43.3806 48.3104C42.9431 48.0216 42.2906 47.6944 41.53 47.444C40.772 47.1842 40.0565 47.0477 39.5369 46.9906C39.4107 46.9817 39.2933 46.9735 39.185 46.9659C39.0878 46.9657 38.9997 46.9657 38.9187 46.9655C38.774 46.9782 38.6918 46.9815 38.6902 46.9735C38.6885 46.9655 38.7677 46.9468 38.915 46.9198C38.9888 46.9118 39.0795 46.907 39.1852 46.9C39.2904 46.8994 39.4109 46.9015 39.5434 46.9074C40.0723 46.9438 40.7997 47.0692 41.5664 47.3321C42.3356 47.5853 42.9935 47.9295 43.4265 48.2413C43.5376 48.3153 43.6301 48.3932 43.7098 48.4636C43.7913 48.5314 43.8592 48.5923 43.9078 48.65C44.0095 48.7602 44.0622 48.8232 44.0563 48.8287Z" fill="#39444A"/>
<path d="M44.2313 50.6858C44.222 50.6963 44.151 50.6546 44.0705 50.5501C43.99 50.4469 43.9095 50.2756 43.8881 50.0734C43.8675 49.8707 43.9112 49.6864 43.9686 49.5684C44.026 49.4494 44.0868 49.3936 44.098 49.402C44.1277 49.4186 43.9603 49.691 44.0036 50.0612C44.0375 50.4319 44.2569 50.6635 44.2313 50.6858Z" fill="#39444A"/>
<path d="M43.9433 51.9576C43.9308 51.9648 43.88 51.9081 43.8349 51.795C43.7896 51.6827 43.7582 51.5118 43.7815 51.3256C43.8054 51.1394 43.8786 50.982 43.9506 50.8851C44.0225 50.7871 44.0858 50.7454 44.0959 50.7555C44.1222 50.7777 43.936 51.0005 43.8969 51.3406C43.8497 51.6795 43.9743 51.9431 43.9433 51.9576Z" fill="#39444A"/>
<path d="M38.1 45.5295C38.132 45.5299 38.1466 46.3998 38.1322 47.4721C38.1179 48.5448 38.0805 49.4138 38.0482 49.4134C38.0162 49.4129 38.0016 48.5433 38.016 47.4706C38.0303 46.3983 38.068 45.5291 38.1 45.5295Z" fill="#39444A"/>
<path d="M34.9574 17.9793C34.9574 17.9793 29.3914 19.9516 29.1414 20.2253C28.4735 20.9565 31.716 37.5678 31.716 37.422C31.716 37.2764 44.7087 38.5423 44.7087 38.5423L46.4921 21.3749C46.5757 20.5659 46.0825 19.8098 45.3148 19.5705L40.405 18.0404L34.9574 17.9793Z" fill="#F5F5F5"/>
<path d="M30.0701 9.98964C29.7897 9.92897 29.6855 9.49373 29.9072 9.30961C29.7017 9.19543 29.76 8.86658 29.9207 8.69404C30.0817 8.5215 30.3114 8.41554 30.4366 8.21477C30.1753 8.28345 29.8796 8.06668 29.8621 7.79386C29.6892 7.80924 29.5135 7.6938 29.4567 7.52779C29.4001 7.36178 29.4681 7.16081 29.6135 7.06517C29.3941 7.04621 29.4126 6.6788 29.596 6.55514C29.7795 6.43148 30.0212 6.44054 30.2205 6.34553C30.5791 5.93536 31.0685 5.64464 31.597 5.52751C31.2975 5.30167 30.998 5.07563 30.6987 4.84979C30.6275 4.79607 30.5535 4.73877 30.5177 4.6564C30.4395 4.47565 30.5793 4.27615 30.7274 4.14785C31.0404 3.8763 31.4344 3.70187 31.8439 3.65342C31.9754 3.63783 32.1434 3.65805 32.1852 3.7853C32.4644 3.65194 32.7872 3.66585 33.0954 3.68249C33.2681 3.69197 33.4574 3.7084 33.5807 3.83143C33.515 3.67006 33.3781 3.55209 33.2604 3.42484C33.1427 3.2976 33.0349 3.13708 33.0522 2.96349C33.0694 2.7899 33.2766 2.63948 33.4191 2.73765C33.2596 2.6616 33.2806 2.40206 33.4164 2.28809C33.5522 2.17412 33.7432 2.16464 33.9195 2.16063C34.0425 2.1579 34.1991 2.17854 34.2326 2.2982C34.2885 2.01949 34.7586 1.98073 34.8584 2.24659C35.0242 2.08164 35.3333 2.10628 35.4716 2.29525C35.7414 2.12566 36.1512 2.27987 36.246 2.58681C36.0869 2.31632 35.9276 2.04603 35.7684 1.77554C35.6784 1.62238 35.6628 1.33545 35.8377 1.35378C35.5864 1.35483 35.4427 1.00681 35.5652 0.78456C35.6877 0.562307 35.9721 0.478251 36.2217 0.509219C36.2945 0.615816 36.3673 0.722413 36.4399 0.829011C36.6084 0.709773 36.8515 0.712091 37.0177 0.834699C37.1839 0.957307 37.2606 1.19094 37.2001 1.39002C37.3012 1.28047 37.4978 1.3403 37.5776 1.46628C37.6577 1.59247 37.6552 1.75278 37.65 1.90278C37.894 1.69464 38.3437 1.93691 38.3096 2.25817C38.5309 2.14294 38.7832 2.09006 39.0313 2.10691C38.9194 1.9249 38.9429 1.66873 39.086 1.51052C39.2292 1.35252 39.479 1.30659 39.6678 1.4035C39.6913 1.11678 40.0247 0.903798 40.2904 1.00639C40.3682 0.710827 40.7507 0.492366 40.9834 0.687233C41.2241 0.88863 41.0945 1.27921 40.947 1.55771C40.7871 1.8598 40.6273 2.1619 40.4674 2.46399C40.9878 2.18128 41.5084 1.89878 42.0288 1.61606C42.0775 1.58973 42.1303 1.56234 42.185 1.56908C42.2605 1.57856 42.3132 1.64808 42.3812 1.68242C42.4754 1.73003 42.59 1.70644 42.6909 1.73762C42.9665 1.82315 42.9619 2.24933 42.7731 2.46989C42.5842 2.69046 42.2955 2.79601 42.0819 2.99193C42.3132 3.03616 42.5445 3.08041 42.776 3.12465C42.8627 2.73807 43.328 2.49096 43.6914 2.63864C43.7858 2.3791 44.129 2.34602 44.4019 2.35761C44.6463 2.36793 44.9152 2.38858 45.0883 2.56364C45.3096 2.78737 45.2678 3.18047 45.0816 3.43496C44.8953 3.68944 44.6039 3.83838 44.3235 3.97827C44.3701 4.18851 44.6396 4.2534 44.8504 4.2218C45.0608 4.19041 45.2799 4.10698 45.4791 4.18282C45.7497 4.28584 45.8644 4.64018 46.136 4.74025C46.2182 4.77058 46.3107 4.77522 46.3839 4.82367C46.4881 4.89256 46.5235 5.0276 46.551 5.15063C46.5849 5.30273 46.6188 5.45504 46.6525 5.60714C46.6693 5.68256 46.6862 5.76051 46.671 5.83635C46.6215 6.08451 46.2797 6.13823 46.0484 6.04259C45.8171 5.94695 45.6189 5.76198 45.3718 5.72491C45.6977 5.88965 46.0418 6.07124 46.224 6.39061C46.4062 6.70998 46.3313 7.2061 45.9885 7.33061C45.6416 7.45658 45.2998 7.15259 45.0473 6.88083C44.7946 6.60907 44.4319 6.3194 44.0968 6.47467" fill="#263238"/>
<path d="M30.5696 9.77099C30.3069 9.57212 29.8591 9.8344 29.8982 10.1643C29.575 10.2564 29.3123 10.5391 29.2411 10.8713C29.17 11.2037 29.2936 11.5711 29.5502 11.7904C29.7553 11.9655 30.1624 11.972 30.2056 11.7041C30.288 11.9282 30.4881 12.1041 30.7188 12.1555C30.4966 12.4835 30.6418 13.0009 31.0014 13.1615C30.584 13.4522 30.663 14.2182 31.1308 14.4151C31.0079 14.6922 31.1454 15.0577 31.4193 15.1815C31.6933 15.3054 32.0537 15.1653 32.1754 14.8877C32.265 15.1047 32.3641 15.3339 32.5562 15.4662C32.7484 15.5982 33.0623 15.5751 33.1594 15.3615C33.2655 15.827 33.8748 16.0872 34.2781 15.839C34.2496 16.0963 34.4434 16.3585 34.6951 16.4034C34.9468 16.4483 35.2174 16.2686 35.2773 16.017C35.7135 16.0508 36.1497 16.0845 36.5858 16.1184C36.8754 16.1409 37.167 16.1633 37.4555 16.1308C37.8241 16.0897 38.1824 15.9581 38.4915 15.7506C38.5909 15.6838 38.691 15.6069 38.8091 15.5909C38.945 15.5725 39.0762 15.6374 39.2035 15.6882C39.8766 15.9564 40.6861 15.8355 41.2542 15.3823C41.3438 15.3109 41.4301 15.2304 41.5375 15.1912C41.661 15.1462 41.7968 15.1615 41.9279 15.1708C42.2492 15.1933 42.5733 15.1746 42.8901 15.1152C43.1617 15.0642 43.4521 14.9656 43.5983 14.7282C43.7446 14.4906 43.6302 14.0943 43.3544 14.0747C43.3479 13.8929 43.4039 13.6991 43.543 13.5845C43.6822 13.4697 43.9137 13.4657 44.0276 13.6062C44.1414 13.7469 44.0534 14.0105 43.8742 14.0187C44.1525 14.251 44.6363 14.0012 44.6747 13.638C44.7132 13.2748 44.3819 12.9417 44.0229 12.908C44.1167 12.6546 44.1475 12.3774 44.1115 12.109C44.2737 12.3607 44.6498 12.4374 44.8956 12.2691C45.0263 12.5143 45.237 12.7306 45.504 12.7978C45.7711 12.8651 46.0914 12.746 46.1981 12.489C46.3048 12.2322 46.1104 11.8806 45.8354 11.8892C46.0542 11.5949 45.8044 11.0906 45.4406 11.0923C45.528 10.7424 45.3443 10.3427 45.0236 10.1854C45.2236 10.3373 45.5567 10.2393 45.6453 10.0025C45.7892 10.2829 46.2 10.2532 46.4816 10.1173C46.7027 10.0107 46.9195 9.84999 46.8847 9.52578C46.8685 9.37431 46.7941 9.23295 46.6846 9.12825C46.4259 8.88072 46.0656 8.83521 45.7235 8.79645C45.5544 8.36479 45.456 7.90491 45.4337 7.44102C45.8154 7.48694 46.2287 7.23288 46.3086 6.85241L44.4137 5.65941C44.4137 5.65941 40.0272 4.97348 39.8697 4.97348C39.7123 4.97348 30.5447 9.75561 30.5447 9.75561C30.3327 9.98018 29.9184 9.87885 29.7626 9.61109C29.607 9.34334 29.6694 8.98984 29.8364 8.72925C30.0035 8.46865 30.258 8.28053 30.5068 8.09851C30.2133 8.07786 29.9003 8.05027 29.6829 7.83433C29.5473 7.69951 29.4839 7.49811 29.5573 7.32073C29.6632 7.06477 29.9554 7.08225 30.1428 6.93668C30.2526 6.85136 30.3148 6.7197 30.3839 6.59814" fill="#263238"/>
<path d="M35.2369 6.69441L40.1037 5.41272C41.6639 5.2347 42.7149 7.17474 42.8245 8.76106C42.946 10.5235 43.0259 12.6799 42.8285 13.997C42.4316 16.645 40.4321 16.9956 40.4321 16.9956C40.4319 16.9922 40.4321 17.34 40.4323 17.826C40.4327 19.29 39.3353 20.5148 37.8968 20.6563C36.291 20.8141 34.8848 19.5716 34.8213 17.9387L34.4215 7.6441C34.4086 7.16083 34.7629 6.74834 35.2369 6.69441Z" fill="#8E6865"/>
<path d="M41.9521 10.6881C41.9596 10.8672 41.8159 11.0214 41.6314 11.0325C41.4473 11.0439 41.2915 10.9082 41.284 10.7289C41.2765 10.5499 41.4203 10.3955 41.6044 10.3843C41.7891 10.3729 41.9446 10.5088 41.9521 10.6881Z" fill="#263238"/>
<path d="M42.3701 9.88651C42.3289 9.93096 42.0739 9.74262 41.7134 9.74599C41.3534 9.74431 41.0901 9.93391 41.0507 9.88946C41.0314 9.86986 41.0732 9.7896 41.1878 9.70386C41.3006 9.61854 41.4936 9.5349 41.718 9.53427C41.9424 9.53406 42.1319 9.61643 42.2411 9.70133C42.3524 9.78665 42.3905 9.86649 42.3701 9.88651Z" fill="#263238"/>
<path d="M38.4848 10.8148C38.4923 10.9939 38.3488 11.1481 38.1641 11.1593C37.98 11.1706 37.8242 11.035 37.8167 10.8559C37.8093 10.6768 37.953 10.5224 38.1371 10.5113C38.3218 10.4999 38.4776 10.6358 38.4848 10.8148Z" fill="#263238"/>
<path d="M38.8281 9.97895C38.7867 10.0234 38.5315 9.83506 38.1712 9.83864C37.8112 9.83675 37.5478 10.0263 37.5085 9.98211C37.4892 9.96231 37.5306 9.88225 37.6456 9.79651C37.7583 9.71119 37.9512 9.62756 38.1758 9.62692C38.4002 9.62671 38.5897 9.70908 38.6989 9.79398C38.81 9.8793 38.8483 9.95893 38.8281 9.97895Z" fill="#263238"/>
<path d="M40.1526 12.6766C40.1509 12.6559 40.3745 12.6151 40.7373 12.5655C40.8292 12.5552 40.9164 12.5363 40.9314 12.4724C40.9526 12.4048 40.9135 12.3047 40.8681 12.1965C40.7801 11.9715 40.6878 11.7357 40.5911 11.4884C40.2063 10.4804 39.9271 9.65119 39.9673 9.63581C40.0074 9.62043 40.3521 10.4252 40.7369 11.4332C40.8294 11.6818 40.9183 11.9188 41.0025 12.1455C41.0381 12.2512 41.0988 12.3709 41.0526 12.511C41.0283 12.5807 40.9611 12.6319 40.9022 12.6483C40.8434 12.6671 40.7916 12.6684 40.746 12.6713C40.3808 12.6943 40.1541 12.6974 40.1526 12.6766Z" fill="#263238"/>
<path d="M40.4289 16.995C40.4289 16.995 38.6726 17.1218 36.9247 16.0742C36.9247 16.0742 37.8167 17.9017 40.4289 17.6363V16.995Z" fill="#684544"/>
<path d="M40.1988 13.4994C40.0178 13.2431 39.7258 13.0861 39.45 13.0971C39.2586 13.1046 39.0724 13.1952 38.9703 13.3661C38.8682 13.5367 38.8653 13.791 38.9867 13.9722C39.1234 14.1763 39.3784 14.242 39.5852 14.1906C39.7919 14.1392 39.9612 13.9939 40.1214 13.8485C40.1657 13.8083 40.2108 13.7661 40.2358 13.708C40.2607 13.6501 40.2603 13.5711 40.2189 13.5178" fill="#684544"/>
<path d="M39.0957 12.9364C39.1544 12.9326 39.1577 13.3289 39.4945 13.6078C39.8306 13.8878 40.2474 13.8404 40.2508 13.8956C40.2564 13.9204 40.1584 13.9731 39.9824 13.9792C39.8098 13.9864 39.5573 13.932 39.3512 13.7614C39.1457 13.5903 39.0562 13.3607 39.0419 13.1983C39.0258 13.0327 39.0689 12.9343 39.0957 12.9364Z" fill="#263238"/>
<path d="M38.9822 9.13609C38.9475 9.23553 38.5872 9.19107 38.1648 9.24564C37.7411 9.29156 37.401 9.41923 37.3442 9.33054C37.3188 9.28819 37.3777 9.19445 37.515 9.09733C37.651 9.00042 37.8684 8.90773 38.1221 8.87739C38.3759 8.84748 38.6084 8.88666 38.763 8.94923C38.9185 9.01159 38.9972 9.0889 38.9822 9.13609Z" fill="#263238"/>
<path d="M42.2317 8.83077C42.1689 8.91398 41.9199 8.82971 41.6214 8.82782C41.323 8.81518 41.0705 8.88744 41.0116 8.80106C40.9858 8.75914 41.0251 8.67593 41.1349 8.5965C41.2433 8.5175 41.4249 8.45241 41.6302 8.45725C41.8353 8.46252 42.0137 8.53626 42.1179 8.62052C42.2242 8.70479 42.2594 8.79011 42.2317 8.83077Z" fill="#263238"/>
<path d="M34.5596 10.3564C34.4866 10.5296 34.5446 10.7656 34.684 10.8631C34.8235 10.9608 35.0228 10.905 35.112 10.743C35.2258 10.8987 35.4879 10.7407 35.4521 10.538C35.5933 10.6183 35.7789 10.4264 35.7335 10.2465C35.8974 10.3107 35.9954 10.0423 36.0817 9.86285C36.1289 9.76468 36.1936 9.68063 36.2502 9.58983C36.428 9.3048 36.5252 8.94835 36.5218 8.59211C36.7359 8.34647 36.7906 7.96706 36.8343 7.61525C36.8613 7.39574 36.8885 7.17601 36.9156 6.9565C36.9561 6.90572 36.9967 6.85474 37.0373 6.80397C37.0287 6.96303 37.1433 7.10101 37.2706 7.14652C37.3977 7.19202 37.534 7.16695 37.6648 7.14167C37.7944 7.1166 37.924 7.09153 38.0536 7.06646C38.1343 7.09048 38.215 7.1147 38.2957 7.13872C38.2237 7.34307 38.2946 7.57543 38.3651 7.78041C38.4138 7.92198 38.4723 8.07619 38.5885 8.13897C38.7046 8.20195 38.8793 8.08841 38.8454 7.94073C38.9307 8.04037 39.0842 8.00098 39.1609 7.89164C39.2377 7.78231 39.2539 7.62915 39.2502 7.48611C39.2412 7.13788 39.1306 6.7947 38.9421 6.53011C39.1664 6.74478 39.3904 6.95923 39.6146 7.1739C39.6639 7.22109 39.7169 7.26996 39.7795 7.27713C39.7608 7.39236 39.8715 7.48927 39.9688 7.47747C40.066 7.46589 40.1462 7.38457 40.2197 7.30705C40.3848 7.13261 40.5602 6.83578 40.4146 6.63797C40.4913 6.62343 40.5312 6.49218 40.4803 6.4214C40.7349 6.61943 40.9895 6.81745 41.2443 7.01527C41.1679 6.96998 41.0829 7.09006 41.0993 7.19034C41.1157 7.29061 41.1894 7.36055 41.258 7.42102C41.1917 7.52466 41.159 7.65843 41.1681 7.78884C41.0309 7.66265 40.8229 7.89438 40.8663 8.09515C40.9098 8.29612 41.0978 8.40356 41.2701 8.41726C41.4123 8.42863 41.5864 8.36101 41.6126 8.19247C41.7807 8.22934 41.9438 7.9955 41.8845 7.80295C42.0058 7.88595 42.1135 7.66497 42.121 7.49749C42.1347 7.19012 42.09 6.87918 41.9912 6.5952C41.9864 6.63818 42.0336 6.67462 42.064 6.65124C42.0944 6.62785 42.0869 6.56107 42.0524 6.54822C42.195 6.90467 42.3379 7.26091 42.4808 7.61736C42.594 7.89965 42.7094 8.19311 42.714 8.50637C42.7159 8.63361 42.7296 8.80847 42.8351 8.82026C42.8636 8.82342 42.8916 8.81141 42.9183 8.79856C43.2232 8.64878 43.4593 8.33805 43.6126 7.9875C43.6639 7.86995 43.7078 7.74481 43.7199 7.61272C43.7449 7.33949 43.6334 7.07552 43.6151 6.80166C43.6069 6.68094 43.6171 6.5577 43.593 6.44015C43.5543 6.25076 43.4335 6.10372 43.3176 5.96699C42.9064 5.48141 42.4719 4.97897 41.9194 4.78178C41.5819 4.66128 41.2208 4.66381 40.8824 4.54689C40.6731 4.47463 40.4768 4.35792 40.2744 4.26122C39.4399 3.86243 38.5176 3.80829 37.6217 3.88329C37.1211 3.92521 36.6169 4.00737 36.1501 4.22878C35.6376 4.47189 35.1888 4.87405 34.7663 5.29939C34.1359 5.93434 33.541 6.64429 33.1381 7.50654C32.8286 8.16888 32.6374 8.94203 32.7452 9.69053C32.8529 10.439 33.3093 11.142 33.9277 11.2981C34.009 11.204 34.0903 11.11 34.1717 11.0158" fill="#263238"/>
<path d="M35.125 10.8637C35.089 10.8469 33.6708 10.3908 33.6837 11.8673C33.6966 13.3439 35.1576 13.0262 35.1599 12.9839C35.162 12.9415 35.125 10.8637 35.125 10.8637Z" fill="#8E6865"/>
<path d="M34.7096 12.4286C34.7031 12.424 34.6842 12.4469 34.6416 12.4672C34.6 12.487 34.528 12.5011 34.4519 12.4729C34.2973 12.417 34.1655 12.1706 34.1561 11.9045C34.1513 11.7701 34.1779 11.642 34.2239 11.5356C34.2674 11.4271 34.3358 11.3511 34.4132 11.3365C34.4901 11.3178 34.5455 11.3643 34.5638 11.4056C34.5837 11.4467 34.5746 11.4764 34.5825 11.4787C34.5867 11.4823 34.6135 11.4537 34.6012 11.3928C34.595 11.3635 34.5775 11.3287 34.5432 11.3007C34.5078 11.2723 34.4562 11.2579 34.4024 11.2643C34.29 11.2731 34.1898 11.3789 34.139 11.4956C34.0823 11.6129 34.0492 11.757 34.0546 11.9079C34.0664 12.2053 34.2193 12.4823 34.4307 12.5422C34.5334 12.5683 34.6187 12.5363 34.6626 12.5011C34.7071 12.4642 34.7146 12.4311 34.7096 12.4286Z" fill="#684544"/>
<path d="M45.2841 6.91305C45.2762 6.91685 45.3005 6.82415 45.1996 6.73146C45.1511 6.68722 45.0761 6.65014 44.9825 6.65225C44.8889 6.6514 44.7847 6.68448 44.6707 6.72682L44.6345 6.74031L44.6395 6.70112C44.6547 6.58336 44.5479 6.4578 44.4098 6.42262C44.2684 6.38639 44.1072 6.43716 43.946 6.49804L43.7422 6.57472L43.9169 6.44327C44.0121 6.37164 43.9938 6.19552 43.8992 6.10536C43.7998 6.01119 43.6415 5.99349 43.4919 6.00761L43.4722 6.0095L43.3434 6.02151L43.4507 5.94841C43.582 5.85888 43.5506 5.62483 43.4231 5.54962C43.2927 5.46556 43.1146 5.50222 43.0038 5.5907L42.8694 5.69793L42.959 5.55025C43.0743 5.36065 43.051 5.12428 42.9576 4.96923C42.8638 4.8087 42.7017 4.73623 42.5709 4.71938C42.4372 4.70126 42.3298 4.7316 42.2629 4.75962C42.1951 4.78869 42.163 4.81418 42.1603 4.81039C42.1593 4.80912 42.1666 4.80196 42.1817 4.78911C42.1967 4.77605 42.2211 4.75941 42.2547 4.74171C42.3217 4.70695 42.4326 4.66882 42.5753 4.68251C42.714 4.69473 42.8937 4.76783 43.0008 4.94248C43.1061 5.11038 43.1377 5.36676 43.0106 5.5829L42.9659 5.54267C43.0928 5.44028 43.2933 5.39267 43.4578 5.49463C43.5396 5.54583 43.5903 5.63999 43.5993 5.73669C43.6099 5.83191 43.5768 5.94441 43.4869 6.00445L43.4655 5.94336L43.4863 5.94146C43.6431 5.92755 43.8204 5.94188 43.9443 6.05838C44.0042 6.11779 44.0373 6.19679 44.0431 6.27705C44.0498 6.35647 44.0205 6.44453 43.9545 6.49383L43.9252 6.43926C44.0876 6.38049 44.2605 6.32445 44.4244 6.36848C44.5825 6.41167 44.7071 6.55787 44.6863 6.70786L44.6551 6.68216C44.7705 6.64256 44.8814 6.61032 44.9829 6.61496C45.0846 6.61643 45.1686 6.66215 45.2173 6.71292C45.2682 6.7639 45.2868 6.82057 45.2899 6.85744C45.2928 6.89451 45.2853 6.91326 45.2841 6.91305Z" fill="#D66D11"/>
<path d="M43.4415 3.52725C43.4426 3.52977 43.4139 3.54642 43.355 3.55863C43.2963 3.57191 43.2081 3.57549 43.0998 3.57212C42.9935 3.57085 42.8581 3.56327 42.7329 3.62773C42.6709 3.65997 42.6199 3.71432 42.6045 3.78931C42.5864 3.86094 42.6062 3.95005 42.6715 3.98418L42.6266 4.01641C42.6131 3.93109 42.5088 3.87695 42.4146 3.82049C42.3189 3.76446 42.2172 3.71095 42.1072 3.68651C41.9957 3.66018 41.8832 3.67534 41.7948 3.73517C41.7062 3.79142 41.6479 3.8877 41.6596 3.9806L41.6698 4.06234L41.6084 4.00778C41.4803 3.89381 41.3218 3.8384 41.1797 3.82871C41.0368 3.81586 40.91 3.84409 40.8124 3.88222C40.615 3.96164 40.5385 4.07393 40.5308 4.06445C40.5285 4.06276 40.5462 4.03558 40.5867 3.99176C40.6281 3.949 40.6972 3.89275 40.7978 3.84683C40.8981 3.80174 41.0308 3.76656 41.1833 3.77604C41.3345 3.78215 41.5069 3.83735 41.6494 3.9608L41.5982 3.98797C41.5814 3.86537 41.6569 3.74465 41.7592 3.67977C41.8605 3.60898 41.9988 3.59087 42.1209 3.62099C42.243 3.64838 42.3497 3.70589 42.4471 3.76361C42.4953 3.79332 42.5436 3.82007 42.5896 3.85673C42.6343 3.89191 42.6782 3.94268 42.6873 4.00714L42.6963 4.06992L42.6422 4.03938C42.5426 3.98313 42.5249 3.86073 42.5482 3.77583C42.5677 3.68419 42.6376 3.61404 42.7085 3.58097C42.8546 3.51187 42.9945 3.52809 43.101 3.53378C43.2092 3.54262 43.2936 3.54494 43.3515 3.53841C43.4097 3.53272 43.4401 3.52303 43.4415 3.52725Z" fill="#D66D11"/>
<path d="M40.1846 2.25034C40.184 2.25898 40.1174 2.23939 40.0124 2.27457C39.9612 2.2929 39.9003 2.3245 39.8478 2.38011C39.7948 2.43383 39.7505 2.51262 39.7428 2.60384L39.7399 2.63986L39.7062 2.62828C39.6213 2.59878 39.5115 2.66472 39.4659 2.765C39.4196 2.86823 39.4329 2.99947 39.4533 3.13219L39.4732 3.2626L39.3931 3.15558C39.3892 3.15031 39.3848 3.14462 39.3807 3.13872C39.327 3.07194 39.2378 3.04076 39.155 3.04392C39.0707 3.04582 38.9948 3.08226 38.9399 3.13851C38.8284 3.25206 38.7979 3.41006 38.8078 3.53141C38.8172 3.65591 38.8551 3.75345 38.8813 3.81918C38.9083 3.88512 38.926 3.92093 38.9216 3.92346C38.9181 3.92556 38.8929 3.89417 38.858 3.83034C38.8241 3.76651 38.7775 3.66876 38.7612 3.53583C38.7448 3.40543 38.7702 3.22973 38.8967 3.0949C39.016 2.95713 39.2823 2.92132 39.4316 3.09638C39.4372 3.10375 39.4426 3.11134 39.4478 3.11829L39.3877 3.14167C39.3682 3.00853 39.3505 2.86401 39.4087 2.73719C39.4664 2.61543 39.6022 2.532 39.7239 2.57456L39.6873 2.59878C39.6995 2.4905 39.7546 2.4035 39.8162 2.34683C39.8774 2.28826 39.9462 2.25793 40.0032 2.24297C40.061 2.22843 40.1082 2.23033 40.139 2.23517C40.1698 2.24149 40.1852 2.24781 40.1846 2.25034Z" fill="#D66D11"/>
<path d="M31.64 8.8562C31.6381 8.85725 31.6266 8.84293 31.6069 8.81386C31.5875 8.78458 31.5588 8.74118 31.5295 8.67987C31.5018 8.61878 31.4692 8.53767 31.4771 8.43571C31.4815 8.38578 31.4966 8.33248 31.527 8.28298C31.5572 8.2341 31.6061 8.18797 31.6714 8.1709L31.6576 8.20672C31.5982 8.11908 31.5834 7.98762 31.6449 7.87639C31.7065 7.76558 31.8473 7.69669 31.9859 7.72934L31.9555 7.77632C31.8906 7.68995 31.902 7.56566 31.9655 7.4797C32.0314 7.39165 32.1408 7.35141 32.2463 7.3472C32.3008 7.34446 32.3517 7.35457 32.3933 7.34677C32.4345 7.34045 32.4618 7.31159 32.4844 7.26693C32.5079 7.22459 32.525 7.1675 32.5695 7.12305C32.6101 7.07797 32.6677 7.04742 32.7247 7.03646C32.8489 7.01055 32.9653 7.02782 33.0756 7.02782C33.185 7.02972 33.2927 7.01392 33.3595 6.9444C33.3924 6.91027 33.4159 6.86224 33.45 6.81695C33.4847 6.77039 33.5323 6.73479 33.5831 6.71309C33.685 6.66948 33.8017 6.67643 33.8911 6.73015L33.8525 6.77144C33.7865 6.66527 33.826 6.53971 33.8884 6.4645C33.954 6.38297 34.0511 6.35158 34.1349 6.34084C34.3071 6.32441 34.45 6.36423 34.5655 6.39519C34.6805 6.42974 34.7666 6.46977 34.8234 6.49969C34.8802 6.53002 34.9083 6.55003 34.9068 6.55256C34.9031 6.56057 34.7847 6.48831 34.5565 6.42827C34.4434 6.40236 34.299 6.36886 34.1414 6.38845C34.0644 6.40004 33.9814 6.43058 33.9296 6.49842C33.8774 6.5633 33.8518 6.66611 33.9007 6.73921L33.9706 6.8437L33.862 6.7805C33.7896 6.73837 33.6915 6.73289 33.6074 6.77018C33.5654 6.78893 33.5282 6.81737 33.5001 6.8555C33.4708 6.89405 33.4477 6.9444 33.4059 6.98927C33.3626 7.03246 33.3073 7.06237 33.2495 7.07733C33.1914 7.09123 33.1332 7.09376 33.0756 7.09418C32.9614 7.09397 32.8455 7.07881 32.7399 7.10156C32.6908 7.11104 32.649 7.13463 32.6182 7.16834C32.5849 7.19952 32.5691 7.2486 32.5427 7.29811C32.5202 7.3472 32.4686 7.40386 32.4052 7.41145C32.3451 7.42114 32.2947 7.40892 32.2492 7.41208C32.1568 7.41503 32.0657 7.45063 32.0154 7.51741C31.9651 7.58314 31.9578 7.6811 32.0025 7.74009L32.0545 7.80834L31.9721 7.78707C31.8623 7.75884 31.7419 7.81445 31.6915 7.90336C31.6389 7.9931 31.6487 8.10644 31.6965 8.18038L31.7146 8.2084L31.6828 8.2164C31.5771 8.24295 31.5241 8.35313 31.5139 8.43971C31.5031 8.52946 31.5295 8.60909 31.5532 8.66934C31.605 8.79047 31.6456 8.85304 31.64 8.8562Z" fill="#D66D11"/>
<path d="M31.7516 12.9153C31.7508 12.9174 31.7277 12.9134 31.6875 12.8942C31.6482 12.8749 31.5912 12.8395 31.5374 12.7742C31.4839 12.7101 31.4323 12.6132 31.4265 12.4917C31.42 12.3722 31.4585 12.2302 31.5617 12.1194L31.5588 12.155C31.4949 12.0632 31.4175 11.9599 31.3876 11.8232C31.3726 11.7549 31.3768 11.6795 31.403 11.6098C31.4284 11.5409 31.4814 11.4729 31.559 11.4446L31.5525 11.5034C31.4392 11.432 31.3814 11.2902 31.3882 11.1554C31.392 11.0781 31.4142 11.002 31.456 10.9378C31.4951 10.8731 31.5656 10.824 31.6266 10.8C31.6894 10.772 31.7183 10.7423 31.7202 10.6778C31.7231 10.6136 31.737 10.5417 31.7645 10.4825C31.8177 10.358 31.9228 10.2797 32.0099 10.2165C32.0987 10.1516 32.1803 10.0903 32.2579 10.0368C32.412 9.92868 32.5551 9.864 32.6599 9.84547C32.7119 9.83472 32.7535 9.83451 32.7812 9.83536C32.8089 9.83767 32.8232 9.83999 32.8232 9.84231C32.8232 9.84905 32.7648 9.84336 32.666 9.87075C32.5667 9.89624 32.4332 9.96407 32.2849 10.0753C32.2098 10.1328 32.1289 10.1948 32.0428 10.2607C31.9556 10.3268 31.8652 10.3985 31.8204 10.5072C31.7967 10.5617 31.7861 10.6171 31.7834 10.6831C31.7809 10.7162 31.7747 10.7591 31.7468 10.793C31.7202 10.8263 31.6852 10.8438 31.6549 10.859C31.5324 10.9032 31.4608 11.0239 31.4546 11.1579C31.4487 11.2744 31.4985 11.3911 31.5877 11.4476L31.6438 11.4832L31.5812 11.5066C31.4677 11.5489 31.4234 11.6985 31.4481 11.8106C31.472 11.9294 31.5423 12.0299 31.6045 12.1226L31.6174 12.1419L31.6016 12.1582C31.5084 12.2536 31.4693 12.3813 31.4718 12.4898C31.4733 12.5997 31.5161 12.6907 31.5627 12.7537C31.6594 12.882 31.757 12.9073 31.7516 12.9153Z" fill="#D66D11"/>
<path d="M33.8132 11.1801C33.8126 11.1824 33.7803 11.1793 33.7229 11.1607C33.6657 11.142 33.5831 11.1064 33.4918 11.039C33.4011 10.972 33.3017 10.8704 33.2293 10.7276C33.1948 10.6577 33.1586 10.5696 33.1848 10.4708C33.1973 10.4215 33.2374 10.377 33.2857 10.357C33.3319 10.3353 33.4024 10.3347 33.4461 10.3844L33.3966 10.4148C33.3691 10.3419 33.3323 10.257 33.3516 10.1582C33.3624 10.1103 33.388 10.0646 33.4305 10.0324C33.4735 9.99764 33.539 9.99827 33.5815 10.0107C33.6256 10.0208 33.6713 10.0358 33.695 10.0263C33.7187 10.0189 33.724 9.98795 33.7212 9.93823C33.7188 9.83479 33.7626 9.73199 33.8327 9.65594C33.9457 9.53291 34.1244 9.47203 34.2799 9.52659L34.2379 9.56577C34.2069 9.44338 34.2092 9.29485 34.3064 9.19816C34.3567 9.15118 34.4232 9.13454 34.4848 9.14128C34.546 9.14655 34.6111 9.18615 34.6315 9.24998L34.5757 9.26157C34.5664 9.07492 34.6156 8.90554 34.6882 8.77535C34.7585 8.64284 34.8515 8.54825 34.9343 8.48231C35.0181 8.4168 35.0943 8.38077 35.1469 8.36097C35.2003 8.34264 35.2297 8.33674 35.2305 8.33927C35.2349 8.34875 35.113 8.3753 34.9557 8.50886C34.8792 8.57606 34.7935 8.66981 34.73 8.79768C34.6645 8.92345 34.6221 9.08398 34.6333 9.25736L34.6491 9.49941L34.5774 9.26894C34.5526 9.18952 34.4151 9.1773 34.3494 9.24345C34.2787 9.31318 34.2716 9.43853 34.3009 9.54934L34.3168 9.60875L34.2589 9.58853C34.1331 9.54429 33.979 9.59484 33.8814 9.70144C33.8211 9.76738 33.7853 9.85186 33.787 9.93718C33.7872 9.95993 33.7891 9.98605 33.7814 10.016C33.7739 10.0467 33.7497 10.0766 33.7175 10.088C33.6522 10.1063 33.6087 10.0809 33.5673 10.0739C33.5253 10.0634 33.4947 10.064 33.4671 10.0842C33.4398 10.104 33.4194 10.1375 33.4117 10.1721C33.3959 10.2429 33.424 10.3206 33.4513 10.3931L33.5122 10.5553L33.4018 10.4232C33.3581 10.3712 33.2501 10.4179 33.2364 10.4864C33.2146 10.5586 33.241 10.6391 33.2726 10.7053C33.3373 10.8418 33.4286 10.9418 33.5128 11.0105C33.6851 11.1481 33.8173 11.1704 33.8132 11.1801Z" fill="#D66D11"/>
<path d="M37.1134 7.06876C37.1099 7.0755 37.0333 7.05381 36.9185 6.98955C36.8621 6.95606 36.7954 6.90971 36.7417 6.83387C36.6908 6.75929 36.6523 6.65523 36.6776 6.5442C36.6831 6.51913 36.6935 6.49575 36.7045 6.47447L36.7184 6.52061C36.6273 6.47279 36.5724 6.38452 36.5564 6.30025C36.5391 6.2143 36.5647 6.1353 36.5986 6.08369C36.6706 5.9773 36.7559 5.96677 36.755 5.9733C36.7604 5.98257 36.6885 6.00911 36.6371 6.10644C36.6125 6.15426 36.5969 6.21914 36.614 6.2874C36.6298 6.35481 36.677 6.42497 36.748 6.46099L36.7771 6.47573L36.7617 6.50692C36.7538 6.52293 36.7457 6.54041 36.7417 6.55979C36.7217 6.64406 36.7504 6.73359 36.792 6.79932C36.8349 6.86547 36.8933 6.91329 36.9437 6.94953C37.0468 7.02115 37.1184 7.05928 37.1134 7.06876Z" fill="#D66D11"/>
<path d="M38.6435 6.34924C38.6329 6.34586 38.7138 6.26539 38.6899 6.10549C38.6772 6.02965 38.63 5.93822 38.5349 5.89651C38.4434 5.85396 38.3084 5.86175 38.2202 5.94602L38.179 5.98541L38.1682 5.92874C38.1553 5.86154 38.1322 5.79223 38.0933 5.73219C38.0559 5.67299 37.9952 5.6218 37.9288 5.61317C37.8238 5.59863 37.7056 5.69743 37.7343 5.7857L37.6721 5.79834C37.6568 5.6593 37.5819 5.53986 37.4918 5.46591C37.4013 5.39049 37.2963 5.36142 37.2098 5.35636C37.0328 5.34878 36.9375 5.41746 36.9337 5.4065C36.9321 5.40376 36.9527 5.38501 36.9984 5.36247C37.044 5.34056 37.1164 5.3157 37.2108 5.31528C37.304 5.31486 37.4219 5.3412 37.5257 5.4223C37.6285 5.5013 37.7156 5.63213 37.7354 5.79097L37.6732 5.80361C37.6511 5.73304 37.6853 5.65361 37.7387 5.61001C37.7913 5.56408 37.8625 5.5388 37.9365 5.5466C38.0332 5.5605 38.1027 5.62623 38.1476 5.69596C38.1926 5.76674 38.2165 5.84363 38.2294 5.91737L38.1774 5.90009C38.2916 5.79623 38.4497 5.79434 38.5572 5.84806C38.6701 5.90283 38.7198 6.01512 38.728 6.10002C38.7373 6.18786 38.7126 6.25591 38.6897 6.29573C38.6662 6.33596 38.6454 6.35113 38.6435 6.34924Z" fill="#D66D11"/>
<path d="M42.7416 8.74436C42.7403 8.74731 42.7611 8.76121 42.8033 8.77596C42.8456 8.79028 42.9101 8.80503 42.991 8.80124C43.1524 8.80019 43.3762 8.69527 43.5176 8.48882C43.663 8.28426 43.699 8.05316 43.7086 7.8958C43.7167 7.73569 43.7023 7.63773 43.6963 7.63794C43.688 7.63815 43.6888 7.73653 43.6715 7.89242C43.6528 8.04621 43.6116 8.26572 43.4748 8.45764C43.3408 8.65209 43.1391 8.75279 42.988 8.76374C42.836 8.77891 42.7441 8.73488 42.7416 8.74436Z" fill="#D66D11"/>
<path d="M38.6712 4.19709C38.6745 4.19961 38.6982 4.16359 38.7556 4.11113C38.8128 4.05994 38.9083 3.9919 39.0464 3.95924C39.1818 3.9268 39.3659 3.93333 39.525 4.04541C39.6817 4.15306 39.8098 4.36119 39.799 4.59546L39.7967 4.64707L39.8381 4.61652C39.9481 4.53563 40.0977 4.49897 40.2441 4.52278C40.3912 4.54405 40.5305 4.63485 40.6096 4.77263C40.6896 4.9083 40.7096 5.07472 40.667 5.21608L40.6503 5.27127L40.7023 5.24768C40.8483 5.18132 41.0314 5.23904 41.1127 5.36165C41.1961 5.4851 41.1847 5.65448 41.1069 5.75939L41.0607 5.82174L41.1325 5.79331C41.2868 5.73221 41.4499 5.75581 41.5713 5.81311C41.6964 5.86788 41.7839 5.95531 41.8411 6.0341C41.9549 6.19842 41.942 6.32461 41.9516 6.32145C41.9532 6.32145 41.9545 6.29259 41.9484 6.23845C41.9397 6.18494 41.9181 6.10572 41.8617 6.01977C41.8053 5.93551 41.7163 5.84134 41.5861 5.78067C41.4597 5.71747 41.286 5.68776 41.1162 5.75223L41.1418 5.78614C41.2323 5.66627 41.2477 5.47815 41.1531 5.33384C41.058 5.19059 40.8533 5.12402 40.6811 5.20007L40.7165 5.23167C40.7643 5.07472 40.7425 4.89355 40.6551 4.74524C40.569 4.5944 40.4128 4.49307 40.2526 4.47095C40.0927 4.44567 39.93 4.48612 39.8096 4.57628L39.8485 4.59756C39.8576 4.34202 39.7174 4.12293 39.5488 4.01022C39.3763 3.89288 39.1798 3.89078 39.0398 3.92912C38.8965 3.96767 38.8006 4.04246 38.7452 4.0987C38.6891 4.15706 38.6712 4.19709 38.6712 4.19709Z" fill="#D66D11"/>
<path d="M34.7917 17.19C34.7917 17.19 33.9478 18.0401 33.8355 18.3217C33.5543 19.0266 33.7816 27.6844 34.1425 31.287C34.5034 34.8896 34.9672 36.5294 34.9672 36.5294H36.0497C36.0497 36.5294 35.0186 32.7246 34.7609 28.3771C34.5666 25.0991 34.7742 20.3142 34.8431 18.2027L34.7917 17.19Z" fill="#455A64"/>
<path d="M34.5896 22.381C34.5912 22.4114 34.4017 22.4466 34.1665 22.4596C33.931 22.4727 33.739 22.459 33.7374 22.4286C33.7357 22.3985 33.9252 22.3633 34.1607 22.3501C34.3957 22.337 34.5879 22.3507 34.5896 22.381Z" fill="#263238"/>
<path d="M34.5485 20.9914C34.5501 21.0217 34.3606 21.0569 34.1254 21.0699C33.8899 21.083 33.698 21.0691 33.6963 21.039C33.6946 21.0088 33.8841 20.9734 34.1196 20.9604C34.3546 20.9471 34.5468 20.961 34.5485 20.9914Z" fill="#263238"/>
<path d="M34.6082 19.5584C34.6098 19.5887 34.4203 19.6239 34.1851 19.637C33.9496 19.65 33.7577 19.6361 33.756 19.606C33.7543 19.5759 33.9438 19.5405 34.1793 19.5274C34.4145 19.5144 34.6067 19.5281 34.6082 19.5584Z" fill="#263238"/>
<path d="M34.5896 23.7897C34.5912 23.82 34.4017 23.8552 34.1665 23.8683C33.931 23.8813 33.739 23.8674 33.7374 23.8373C33.7357 23.807 33.9252 23.7718 34.1607 23.7587C34.3957 23.7457 34.5879 23.7594 34.5896 23.7897Z" fill="#263238"/>
<path d="M34.5888 25.1526C34.5904 25.183 34.4132 25.2173 34.1932 25.2297C33.9729 25.242 33.7932 25.2274 33.7915 25.1973C33.7899 25.167 33.9669 25.1326 34.1871 25.1202C34.4072 25.1078 34.5871 25.1223 34.5888 25.1526Z" fill="#263238"/>
<path d="M34.5872 26.5149C34.5889 26.5452 34.4233 26.5789 34.2174 26.5905C34.0115 26.6021 33.8432 26.5867 33.8416 26.5566C33.8399 26.5265 34.0055 26.4926 34.2114 26.481C34.4173 26.4694 34.5856 26.4846 34.5872 26.5149Z" fill="#263238"/>
<path d="M34.5863 27.8775C34.588 27.9078 34.4365 27.9409 34.2481 27.9512C34.0597 27.9617 33.9057 27.9457 33.9041 27.9154C33.9024 27.8853 34.0538 27.8522 34.2423 27.8416C34.4305 27.8311 34.5846 27.8471 34.5863 27.8775Z" fill="#263238"/>
<path d="M34.6474 29.236C34.649 29.2664 34.5014 29.299 34.3177 29.3093C34.134 29.3197 33.9839 29.3034 33.9822 29.2731C33.9805 29.2428 34.128 29.2101 34.3119 29.1998C34.4955 29.1895 34.6457 29.2057 34.6474 29.236Z" fill="#263238"/>
<path d="M34.7194 30.6149C34.7211 30.6452 34.5836 30.6774 34.4124 30.6869C34.241 30.6964 34.101 30.6798 34.0994 30.6494C34.0977 30.6193 34.2352 30.5869 34.4066 30.5774C34.5776 30.5679 34.7178 30.5848 34.7194 30.6149Z" fill="#263238"/>
<path d="M34.1603 23.1144C34.162 23.1448 34.0682 23.1745 33.9509 23.181C33.8336 23.1875 33.737 23.1684 33.7354 23.138C33.7337 23.1077 33.8275 23.078 33.9448 23.0715C34.0621 23.0649 34.1587 23.0841 34.1603 23.1144Z" fill="#263238"/>
<path d="M34.1681 21.6988C34.1698 21.7292 34.076 21.7589 33.9587 21.7654C33.8414 21.7719 33.7448 21.7528 33.7432 21.7224C33.7415 21.6921 33.8353 21.6624 33.9526 21.6558C34.07 21.6493 34.1665 21.6685 34.1681 21.6988Z" fill="#263238"/>
<path d="M34.1884 20.3297C34.1901 20.36 34.0963 20.3897 33.9789 20.3962C33.8616 20.4028 33.7651 20.3836 33.7634 20.3533C33.7618 20.3229 33.8556 20.2932 33.9729 20.2867C34.0902 20.2802 34.1867 20.2995 34.1884 20.3297Z" fill="#263238"/>
<path d="M34.2165 18.8473C34.2181 18.8776 34.1243 18.9073 34.007 18.9138C33.8897 18.9204 33.7932 18.9012 33.7915 18.8709C33.7899 18.8407 33.8837 18.8108 34.001 18.8043C34.1185 18.7978 34.215 18.8169 34.2165 18.8473Z" fill="#263238"/>
<path d="M34.1849 24.5175C34.1865 24.5479 34.0927 24.5776 33.9754 24.5841C33.8581 24.5906 33.7616 24.5715 33.7599 24.5411C33.7582 24.511 33.8521 24.4811 33.9694 24.4745C34.0869 24.468 34.1834 24.4872 34.1849 24.5175Z" fill="#263238"/>
<path d="M34.2353 25.8101C34.2369 25.8404 34.1431 25.8701 34.0258 25.8767C33.9085 25.8832 33.812 25.864 33.8103 25.8337C33.8087 25.8035 33.9025 25.7736 34.0198 25.7671C34.1371 25.7608 34.2336 25.78 34.2353 25.8101Z" fill="#263238"/>
<path d="M34.2946 27.2125C34.2963 27.2428 34.2024 27.2725 34.0851 27.2791C33.9678 27.2856 33.8713 27.2664 33.8697 27.2361C33.868 27.2057 33.9618 27.176 34.0791 27.1695C34.1964 27.163 34.2929 27.1824 34.2946 27.2125Z" fill="#263238"/>
<path d="M34.388 28.5762C34.3896 28.6066 34.2958 28.6363 34.1785 28.6428C34.0612 28.6493 33.9647 28.6302 33.963 28.5998C33.9614 28.5695 34.0552 28.5398 34.1725 28.5332C34.29 28.5267 34.3865 28.5461 34.388 28.5762Z" fill="#263238"/>
<path d="M34.4806 29.941C34.4823 29.9713 34.3885 30.0011 34.2712 30.0076C34.1539 30.0141 34.0573 29.9949 34.0557 29.9646C34.054 29.9343 34.1478 29.9046 34.2651 29.898C34.3827 29.8915 34.4792 29.9107 34.4806 29.941Z" fill="#263238"/>
<path d="M40.4294 17.403C40.4294 17.403 40.1716 19.3831 40.1716 21.3149C40.1716 23.2467 39.3469 36.1481 39.3469 36.1481L40.1716 36.1974C40.1716 36.1974 41.2976 18.7991 41.1628 18.2767C41.028 17.7542 40.4294 17.403 40.4294 17.403Z" fill="#455A64"/>
<g opacity="0.3">
<path d="M40.4294 17.403C40.4294 17.403 40.1716 19.3831 40.1716 21.3149C40.1716 23.2467 39.3469 36.1481 39.3469 36.1481L40.1716 36.1974C40.1716 36.1974 41.2976 18.7991 41.1628 18.2767C41.028 17.7542 40.4294 17.403 40.4294 17.403Z" fill="black"/>
</g>
<path d="M40.0384 27.2717C40.0392 27.2413 40.1919 27.2207 40.3797 27.2257C40.5675 27.2306 40.719 27.259 40.7183 27.2894C40.7175 27.3197 40.5648 27.3401 40.377 27.3353C40.1892 27.3304 40.0376 27.3018 40.0384 27.2717Z" fill="#263238"/>
<path d="M39.9368 28.6582C39.9377 28.6278 40.0966 28.6074 40.2921 28.6125C40.4876 28.6175 40.6453 28.6462 40.6444 28.6765C40.6436 28.7068 40.4847 28.7273 40.2892 28.7222C40.0939 28.7172 39.9362 28.6885 39.9368 28.6582Z" fill="#263238"/>
<path d="M40.0071 30.0787C40.008 30.0484 40.1359 30.0271 40.2929 30.0313C40.45 30.0353 40.5769 30.0633 40.576 30.0934C40.5752 30.1238 40.4473 30.1451 40.2902 30.1408C40.1332 30.1368 40.0065 30.109 40.0071 30.0787Z" fill="#263238"/>
<path d="M40.1524 25.8674C40.1532 25.837 40.3057 25.8164 40.4933 25.8214C40.6807 25.8263 40.8321 25.8547 40.8313 25.8851C40.8305 25.9154 40.678 25.936 40.4904 25.931C40.303 25.9261 40.1518 25.8977 40.1524 25.8674Z" fill="#263238"/>
<path d="M40.1946 24.5079C40.1955 24.4776 40.3504 24.4572 40.541 24.462C40.7315 24.4669 40.8852 24.4955 40.8844 24.5258C40.8835 24.5562 40.7286 24.5766 40.5381 24.5718C40.3477 24.5667 40.194 24.5383 40.1946 24.5079Z" fill="#263238"/>
<path d="M40.1946 23.1482C40.1955 23.1178 40.3631 23.0976 40.5692 23.1031C40.7754 23.1083 40.942 23.1374 40.9412 23.1677C40.9403 23.1981 40.7727 23.2183 40.5665 23.2128C40.3604 23.2073 40.194 23.1785 40.1946 23.1482Z" fill="#263238"/>
<path d="M40.2994 21.7892C40.3002 21.7589 40.4537 21.7383 40.6422 21.7433C40.8308 21.7482 40.9831 21.7768 40.9822 21.8071C40.9814 21.8375 40.8279 21.8579 40.6393 21.8531C40.4508 21.848 40.2985 21.8194 40.2994 21.7892Z" fill="#263238"/>
<path d="M40.3509 20.4303C40.3517 20.3999 40.5013 20.3793 40.6851 20.3841C40.869 20.389 41.0175 20.4174 41.0167 20.4475C41.0159 20.4779 40.8663 20.4985 40.6822 20.4937C40.4986 20.489 40.3503 20.4606 40.3509 20.4303Z" fill="#263238"/>
<path d="M40.39 19.0497C40.3908 19.0193 40.5304 18.9985 40.7018 19.0029C40.8731 19.0073 41.0117 19.0356 41.0108 19.0659C41.01 19.0962 40.8704 19.1171 40.699 19.1127C40.5277 19.108 40.3893 19.0798 40.39 19.0497Z" fill="#263238"/>
<path d="M40.3463 26.5714C40.3471 26.5411 40.443 26.519 40.5603 26.5222C40.6778 26.5251 40.7725 26.5523 40.7716 26.5826C40.7708 26.6129 40.6749 26.6351 40.5574 26.6319C40.4401 26.6288 40.3454 26.6018 40.3463 26.5714Z" fill="#263238"/>
<path d="M40.2259 27.9818C40.2267 27.9515 40.3226 27.9294 40.4401 27.9326C40.5577 27.9355 40.6523 27.9627 40.6515 27.993C40.6506 28.0233 40.555 28.0455 40.4372 28.0423C40.3197 28.0391 40.2251 28.0122 40.2259 27.9818Z" fill="#263238"/>
<path d="M40.1524 29.3499C40.1532 29.3196 40.2491 29.2974 40.3666 29.3006C40.4842 29.3035 40.5788 29.3307 40.578 29.3611C40.5771 29.3914 40.4813 29.4133 40.3637 29.4104C40.2462 29.4072 40.1516 29.38 40.1524 29.3499Z" fill="#263238"/>
<path d="M40.0775 30.8258C40.0783 30.7954 40.1742 30.7735 40.2917 30.7765C40.4092 30.7796 40.5039 30.8066 40.503 30.8369C40.5022 30.8673 40.4063 30.8892 40.2888 30.8862C40.1713 30.8831 40.0766 30.8561 40.0775 30.8258Z" fill="#263238"/>
<path d="M40.4368 25.1711C40.4377 25.1407 40.5336 25.1186 40.6509 25.1218C40.7684 25.1249 40.863 25.1519 40.8622 25.1822C40.8614 25.2126 40.7655 25.2347 40.648 25.2315C40.5306 25.2284 40.436 25.2014 40.4368 25.1711Z" fill="#263238"/>
<path d="M40.4869 23.8783C40.4877 23.848 40.5836 23.8259 40.7009 23.829C40.8184 23.832 40.9131 23.8592 40.9122 23.8895C40.9114 23.9198 40.8157 23.942 40.698 23.9388C40.5807 23.9356 40.4861 23.9087 40.4869 23.8783Z" fill="#263238"/>
<path d="M40.5416 22.4753C40.5424 22.4449 40.6383 22.4228 40.7558 22.426C40.8733 22.4289 40.968 22.4561 40.9671 22.4864C40.9663 22.5168 40.8704 22.5389 40.7529 22.5357C40.6354 22.5326 40.5407 22.5056 40.5416 22.4753Z" fill="#263238"/>
<path d="M40.5587 21.1077C40.5595 21.0774 40.6554 21.0552 40.7727 21.0584C40.8902 21.0614 40.9848 21.0885 40.984 21.1189C40.9832 21.1492 40.8873 21.1713 40.7698 21.1682C40.6525 21.165 40.5578 21.1378 40.5587 21.1077Z" fill="#263238"/>
<path d="M40.5743 19.7405C40.5751 19.7102 40.671 19.6881 40.7885 19.6912C40.906 19.6942 41.0007 19.7213 40.9998 19.7517C40.999 19.782 40.9031 19.8041 40.7856 19.801C40.6683 19.7978 40.5737 19.7708 40.5743 19.7405Z" fill="#263238"/>
<path d="M42.513 18.456L42.0931 36.1381L45.4976 36.1979L46.6368 19.9827L42.513 18.456Z" fill="#D66D11"/>
<path d="M46.6367 19.9824C46.6367 19.9824 48.7471 21.7457 48.9405 23.4295C49.1338 25.1134 50.3711 32.8668 50.3711 32.8668C50.3711 32.8668 51.2604 34.0025 50.9124 35.2163C50.5644 36.4302 49.7526 36.5296 49.7526 36.5296L45.0696 35.1293V24.6434L46.6367 19.9824Z" fill="#D66D11"/>
<path d="M45.0682 23.6415C45.0981 23.6409 45.1645 25.5594 45.2167 27.9263C45.2687 30.2939 45.2868 32.2131 45.2568 32.214C45.2269 32.2146 45.1605 30.2965 45.1083 27.9288C45.0561 25.562 45.0382 23.6424 45.0682 23.6415Z" fill="#263238"/>
<path d="M50.576 33.1604C50.5665 33.1734 50.3485 33.0224 49.9901 32.7887C49.6317 32.5555 49.1304 32.2423 48.558 31.9328C48.2739 31.7796 47.9885 31.6535 47.721 31.6082C47.4548 31.5804 47.2006 31.6389 47.0022 31.6985C46.8014 31.7609 46.65 31.842 46.5548 31.9098C46.4597 31.9787 46.4185 32.0314 46.4106 32.0253C46.4063 32.0228 46.437 31.9593 46.5286 31.8763C46.6203 31.7946 46.773 31.6992 46.9778 31.625C47.1829 31.5542 47.4359 31.4837 47.7339 31.5079C48.0262 31.5519 48.3186 31.6802 48.6086 31.8357C49.186 32.1479 49.6835 32.4736 50.0327 32.7243C50.382 32.9756 50.5843 33.149 50.576 33.1604Z" fill="#263238"/>
<path d="M49.274 30.8054C49.2663 30.8219 49.1311 30.7622 48.904 30.7047C48.6775 30.6464 48.3549 30.6021 48.0007 30.6352C47.6464 30.6698 47.3376 30.7742 47.1258 30.8743C46.9134 30.9737 46.7916 31.0578 46.7809 31.0431C46.7735 31.0338 46.8804 30.9261 47.0911 30.805C47.3005 30.6837 47.6204 30.5617 47.9905 30.5257C48.3605 30.4911 48.6973 30.5503 48.9254 30.6299C49.1549 30.7094 49.2797 30.7949 49.274 30.8054Z" fill="#263238"/>
<path d="M32.9827 30.3247C32.9311 29.0435 33.2804 23.8918 33.2804 23.8918L33.589 18.4562C31.5558 18.9355 29.0498 20.1563 29.0498 20.1563L30.2442 35.6708L28.253 42.1181L35.1528 42.1967C35.1528 42.1967 33.0343 31.6058 32.9827 30.3247Z" fill="#D66D11"/>
<path d="M29.192 20.0871C29.192 20.0871 27.9245 20.5834 27.4122 22.0819C27.2298 22.6153 24.7053 30.1715 24.5769 30.4312C24.5081 30.5707 23.7094 31.3436 23.19 32.4595C22.5127 33.9142 23.1806 35.6505 24.6252 36.3185L24.9434 36.4658C25.9368 36.9252 27.0883 36.8696 28.0341 36.3164C28.7428 35.902 29.2638 35.2241 29.4866 34.4267L30.5309 30.6889L29.192 20.0871Z" fill="#D66D11"/>
<path d="M29.4522 22.1036C29.4819 22.1011 29.6885 24.2164 29.9133 26.828C30.1382 29.4405 30.2965 31.5596 30.2667 31.5624C30.237 31.5651 30.0304 29.45 29.8056 26.8375C29.5807 24.2261 29.4225 22.1064 29.4522 22.1036Z" fill="#263238"/>
<path d="M78.2799 42.2661H0.71875V44.4042H78.2799V42.2661Z" fill="#D66D11"/>
<path d="M78.29 43.7007C78.29 43.7007 78.155 43.7435 77.8977 43.7993C77.6408 43.8553 77.2594 43.92 76.7785 43.9623C76.2976 44.0043 75.7185 44.0207 75.0781 44.0049C74.4372 43.9906 73.7363 43.944 73.001 43.9025C72.2657 43.8614 71.5625 43.8353 70.9241 43.8551C70.286 43.8734 69.7156 43.9358 69.2516 44.0217C68.7875 44.1085 68.4304 44.2145 68.1943 44.2992C68.0766 44.342 67.9861 44.3763 67.9268 44.4018C67.8665 44.4262 67.8334 44.4378 67.8334 44.4378C67.8334 44.4378 67.9505 44.3767 68.1854 44.2889C68.4196 44.2008 68.7767 44.091 69.2422 44.0011C69.7077 43.9122 70.281 43.8471 70.922 43.8271C71.5633 43.8056 72.2688 43.8311 73.0049 43.8722C73.7411 43.9135 74.4408 43.9609 75.0795 43.9769C75.7181 43.9941 76.2947 43.98 76.7739 43.9411C77.2533 43.9014 77.6342 43.8406 77.8919 43.7881C78.0207 43.7616 78.1203 43.7399 78.1866 43.7234C78.2538 43.7074 78.29 43.7007 78.29 43.7007Z" fill="#263238"/>
<path d="M64.7817 43.7631C64.7817 43.7631 65.1869 43.6916 65.9338 43.6067C66.6804 43.5233 67.773 43.4302 69.1304 43.43H69.2254L69.1362 43.4515C67.9566 43.7346 66.5198 44.0049 64.8909 44.1682C64.4839 44.2084 64.0654 44.2432 63.6371 44.2703C63.4229 44.2834 63.2061 44.2954 62.9871 44.3045C62.7735 44.3123 62.5328 44.3348 62.3248 44.2554C62.2264 44.2158 62.1445 44.1513 62.126 44.0727C62.1058 43.9929 62.1757 43.9145 62.2697 43.8695C62.4634 43.7776 62.6969 43.7551 62.9137 43.7079C63.3546 43.6209 63.8066 43.5427 64.2661 43.4704C66.1622 43.1707 68.0165 43.0219 69.7057 42.9842C71.3963 42.9442 72.9193 43.0213 74.1873 43.1182C75.4559 43.2134 76.4886 43.2604 77.2027 43.2404C77.5594 43.2337 77.8356 43.216 78.0222 43.2023C78.2085 43.1865 78.3067 43.1795 78.3067 43.1795C78.3067 43.1795 78.2094 43.1905 78.0232 43.2084C77.8366 43.224 77.5604 43.2438 77.2031 43.2524C76.4882 43.276 75.4528 43.2324 74.1835 43.1397C72.9152 43.0455 71.3953 42.9707 69.7072 43.0122C68.0207 43.0514 66.1697 43.2006 64.2771 43.4999C63.8183 43.572 63.3671 43.6501 62.927 43.7367C62.7103 43.7833 62.4748 43.8081 62.2984 43.8928C62.2125 43.9345 62.1553 44.0009 62.172 44.0683C62.1871 44.1349 62.2597 44.1939 62.3492 44.2297C62.5357 44.3022 62.7689 44.2832 62.984 44.2746C63.2026 44.2655 63.4189 44.2537 63.6327 44.2409C64.0604 44.2139 64.478 44.1798 64.8843 44.1399C66.5102 43.9784 67.9454 43.7106 69.1244 43.4304L69.1302 43.4517C67.7755 43.449 66.6837 43.5387 65.937 43.6183C65.5632 43.6584 65.2749 43.6965 65.0796 43.7224C64.8847 43.75 64.7817 43.7631 64.7817 43.7631Z" fill="#263238"/>
<path d="M48.5131 42.3062C48.5131 42.3062 48.5668 42.3142 48.6679 42.3318C48.7781 42.3517 48.925 42.378 49.1095 42.4111C49.4953 42.4709 50.0534 42.5621 50.7529 42.6297C51.4513 42.7005 52.2883 42.7578 53.22 42.785C54.1516 42.8115 55.1772 42.8103 56.253 42.7911C58.4052 42.7445 60.3548 42.702 61.76 42.6106C62.4629 42.5661 63.0294 42.5145 63.4201 42.4741C63.6077 42.4536 63.7574 42.4374 63.8696 42.4254C63.9723 42.414 64.0266 42.4094 64.0266 42.4094C64.0266 42.4094 63.1692 42.5379 61.7627 42.6321C60.3564 42.7292 58.4069 42.7751 56.2541 42.8214C55.1777 42.8406 54.1512 42.841 53.2185 42.8128C52.2858 42.7839 51.448 42.7245 50.7491 42.6508C50.0492 42.5802 49.4913 42.4856 49.1061 42.4222C48.9225 42.3868 48.776 42.3586 48.6662 42.3373C48.5653 42.3182 48.5131 42.3062 48.5131 42.3062Z" fill="#263238"/>
<path d="M45.1549 43.7605C45.1549 43.7605 45.1045 43.7533 45.0097 43.7367C44.9055 43.718 44.7678 43.6933 44.5956 43.6623C44.4163 43.6284 44.1962 43.5892 43.9381 43.5524C43.6803 43.5142 43.3889 43.4637 43.0618 43.4272C42.7358 43.3855 42.3787 43.3411 41.9922 43.3084C41.6074 43.2667 41.1931 43.2431 40.7577 43.2136C39.8858 43.1683 38.9242 43.1485 37.916 43.1772C36.9077 43.2111 35.9515 43.2907 35.0877 43.3899C34.6571 43.4464 34.2469 43.4957 33.8682 43.561C33.4867 43.6177 33.1358 43.684 32.8159 43.746C32.4939 43.8026 32.2092 43.8711 31.9568 43.925C31.7037 43.9777 31.4891 44.0306 31.3141 44.0755C31.1461 44.117 31.0117 44.15 30.91 44.1753C30.8174 44.1979 30.7681 44.2082 30.7681 44.2082C30.7681 44.2082 30.8155 44.1939 30.9073 44.1696C31.0086 44.1431 31.1421 44.1081 31.3091 44.0643C31.4832 44.0177 31.6977 43.9632 31.9502 43.9088C32.2023 43.8534 32.4868 43.7833 32.8086 43.7251C33.1285 43.6619 33.4796 43.5941 33.8613 43.5364C34.2405 43.4698 34.6511 43.4194 35.082 43.3623C35.9469 43.2612 36.9047 43.1808 37.9148 43.1468C38.9248 43.118 39.8881 43.1386 40.7613 43.1856C41.197 43.2159 41.612 43.2404 41.9972 43.2833C42.3839 43.3173 42.7414 43.363 43.0674 43.406C43.3946 43.4439 43.686 43.4959 43.9435 43.5357C44.2014 43.5743 44.421 43.6151 44.5999 43.6508C44.7713 43.684 44.9084 43.7106 45.0124 43.7306C45.1062 43.7491 45.1549 43.7605 45.1549 43.7605Z" fill="#D66D11"/>
<path d="M52.8717 43.9561C52.8719 43.9572 52.8557 43.9606 52.8243 43.9658C52.7816 43.9726 52.7363 43.9797 52.6866 43.9877C52.567 44.0067 52.3925 44.0292 52.1759 44.0522C51.7431 44.0988 51.1389 44.1377 50.4706 44.128C49.802 44.1173 49.2005 44.0598 48.7706 44C48.5555 43.9702 48.3824 43.9424 48.2639 43.9199C48.2146 43.9104 48.1697 43.902 48.1274 43.8938C48.0964 43.8875 48.0802 43.8837 48.0806 43.8826C48.0811 43.8816 48.0977 43.8835 48.1295 43.8877C48.1722 43.894 48.2175 43.9007 48.2674 43.9081C48.3868 43.9271 48.5605 43.9517 48.7756 43.9785C49.2057 44.0328 49.8054 44.0865 50.4714 44.0973C51.1372 44.107 51.7394 44.0716 52.172 44.0305C52.3885 44.0103 52.5632 43.9909 52.6837 43.9757C52.734 43.9698 52.7798 43.9646 52.8226 43.9595C52.8544 43.9563 52.8713 43.9551 52.8717 43.9561Z" fill="#D66D11"/>
<path d="M48.4442 42.7793C48.4442 42.7793 48.3739 42.801 48.2381 42.8394C48.1042 42.8815 47.898 42.9264 47.6297 42.974C47.3595 43.014 47.0251 43.0578 46.6324 43.0633C46.2405 43.0728 45.7933 43.0585 45.3034 43.0159C44.8132 42.974 44.2807 42.9049 43.7108 42.828C43.1404 42.7528 42.5325 42.6633 41.885 42.6159C40.5912 42.5061 39.1516 42.5407 37.6624 42.6826C36.1708 42.8234 34.7678 43.0448 33.4913 43.238C32.215 43.4335 31.0627 43.6018 30.0864 43.7054C29.8432 43.7353 29.6101 43.7564 29.3894 43.7754C29.1689 43.7943 28.9613 43.8152 28.7664 43.8293C28.3758 43.8506 28.0401 43.8754 27.7647 43.8839C27.4949 43.8893 27.2827 43.8936 27.1301 43.8967C26.9851 43.8992 26.9088 43.899 26.9088 43.899C26.9088 43.899 26.9849 43.895 27.1299 43.8906C27.2823 43.8862 27.4945 43.8801 27.7638 43.8721C28.0388 43.8617 28.3743 43.8352 28.7641 43.8124C28.9588 43.7977 29.166 43.776 29.3862 43.7562C29.6065 43.7366 29.8393 43.7147 30.082 43.6842C31.0569 43.578 32.208 43.4075 33.4836 43.2106C34.7597 43.0161 36.1633 42.7935 37.6572 42.6527C39.1487 42.5103 40.5922 42.4766 41.8893 42.5883C42.5387 42.6365 43.1471 42.7273 43.717 42.8036C44.2867 42.8817 44.8182 42.9519 45.307 42.9951C45.7958 43.0389 46.2413 43.0545 46.6319 43.0469C47.0232 43.0431 47.3568 43.0012 47.6266 42.963C47.8945 42.9173 48.1008 42.8743 48.2354 42.8343C48.3716 42.797 48.4442 42.7793 48.4442 42.7793Z" fill="#D66D11"/>
<path d="M22.0912 43.2244C22.0912 43.2244 21.9814 43.2246 21.7726 43.2218C21.5575 43.2187 21.2509 43.2143 20.8588 43.2084C20.4601 43.202 19.975 43.1942 19.4132 43.1852C19.1312 43.1805 18.8298 43.1755 18.5107 43.1702C18.3493 43.1664 18.1817 43.1401 18.034 43.0767C17.9639 43.044 17.8892 42.9989 17.8728 42.933C17.8555 42.8685 17.8963 42.8001 17.9708 42.7601C18.1243 42.68 18.3204 42.6842 18.5009 42.6688C18.6861 42.6572 18.8751 42.6455 19.0682 42.6334C19.4546 42.613 19.8571 42.5968 20.2744 42.5867C21.1086 42.5688 22.0018 42.5736 22.9386 42.6176C23.407 42.6393 23.8863 42.6701 24.3742 42.7108C24.6159 42.7257 24.8749 42.7569 25.091 42.8557C25.1967 42.9033 25.3017 42.9713 25.3281 43.067C25.3537 43.1624 25.2807 43.2593 25.1721 43.3124C25.0644 43.3672 24.9392 43.3975 24.8171 43.4243C24.6941 43.4519 24.5708 43.4795 24.447 43.5073C24.1981 43.5593 23.9435 43.605 23.6862 43.6455C23.1703 43.7262 22.6385 43.7761 22.0989 43.8128C21.0173 43.8736 19.9559 43.8564 18.9375 43.8018C17.9183 43.7493 16.9399 43.6661 16.0083 43.5899C14.1469 43.4304 12.4575 43.339 11.0398 43.3906C9.62184 43.4378 8.49427 43.6236 7.7461 43.805C7.37336 43.8991 7.08674 43.9788 6.89954 44.0439C6.71005 44.1052 6.60938 44.1361 6.60938 44.1361C6.60938 44.1361 6.70734 44.1016 6.89579 44.0384C7.08195 43.9714 7.36795 43.8901 7.74048 43.7938C8.48824 43.6084 9.61768 43.419 11.0381 43.3691C12.4581 43.3147 14.1506 43.4038 16.0128 43.5621C16.9449 43.6377 17.9227 43.7203 18.9407 43.7721C19.9578 43.8262 21.0169 43.8431 22.0952 43.7824C22.6329 43.7458 23.1631 43.6963 23.6768 43.6158C23.9333 43.5755 24.1866 43.53 24.4348 43.4784C24.5581 43.4508 24.681 43.4232 24.8033 43.3958C24.9259 43.3693 25.0471 43.3392 25.1468 43.2884C25.2466 43.2397 25.3082 43.1542 25.2865 43.0723C25.2647 42.9901 25.1696 42.9261 25.0683 42.8806C24.8597 42.7855 24.6139 42.755 24.3697 42.7398C23.8825 42.6987 23.4041 42.6678 22.9363 42.6457C22.001 42.601 21.1091 42.5953 20.2758 42.612C19.8592 42.6214 19.4571 42.637 19.0711 42.657C18.8783 42.6688 18.6894 42.6802 18.5045 42.6914C18.3229 42.7059 18.1292 42.704 17.9903 42.7771C17.9233 42.8125 17.8878 42.874 17.9025 42.9294C17.9156 42.9861 17.9828 43.0287 18.0498 43.0596C18.1902 43.1205 18.3551 43.147 18.5116 43.1511C18.8308 43.1572 19.132 43.1628 19.4141 43.1683C19.9759 43.1793 20.4607 43.189 20.8595 43.1968C21.2513 43.205 21.5579 43.2113 21.773 43.2159C21.9816 43.2204 22.0912 43.2244 22.0912 43.2244Z" fill="#263238"/>
<path d="M10.7519 42.364C10.7519 42.364 10.7205 42.3683 10.6606 42.3735C10.5878 42.3794 10.5013 42.3862 10.3979 42.3946C10.1697 42.411 9.84004 42.4407 9.43444 42.4837C8.62324 42.5688 7.50919 42.7243 6.31069 42.9783C5.11241 43.2339 4.06263 43.5383 3.32049 43.7831C2.94921 43.9053 2.65156 44.0089 2.44876 44.0839C2.35641 44.1172 2.27903 44.1452 2.21372 44.1686C2.15964 44.1878 2.13031 44.1964 2.13031 44.1964C2.13031 44.1964 2.15693 44.1842 2.20956 44.1633C2.27362 44.1385 2.34996 44.1088 2.44085 44.0734C2.64137 43.995 2.93714 43.8882 3.30738 43.7635C4.04703 43.5132 5.09722 43.205 6.29801 42.9491C7.499 42.6946 8.61637 42.5421 9.42986 42.4624C9.8365 42.4222 10.167 42.3956 10.396 42.3828C10.4996 42.3767 10.5866 42.3718 10.6596 42.3676C10.7201 42.364 10.7519 42.364 10.7519 42.364Z" fill="#263238"/>
<path d="M13.3321 41.6743C13.3321 40.1573 14.5462 38.9274 16.044 38.9274C17.5418 38.9274 18.7559 40.1573 18.7559 41.6743" fill="#455A64"/>
<path d="M19.0926 41.6744H12.8516V42.2925H19.0926V41.6744Z" fill="#263238"/>
<path d="M14.3703 40.2907C14.3454 40.3074 14.0527 39.9014 13.7166 39.3842C13.3805 38.8668 13.1284 38.4339 13.1533 38.4173C13.1783 38.4006 13.4709 38.8064 13.8071 39.324C14.143 39.8412 14.3953 40.2741 14.3703 40.2907Z" fill="#263238"/>
<path d="M14.9747 39.6331C14.9464 39.6428 14.7742 39.1991 14.5903 38.6425C14.4064 38.0857 14.2804 37.6267 14.3087 37.617C14.3369 37.6073 14.5092 38.051 14.693 38.6078C14.8769 39.1641 15.0032 39.6234 14.9747 39.6331Z" fill="#263238"/>
<path d="M15.9386 39.619C15.9087 39.6194 15.8787 39.1646 15.8719 38.6035C15.8648 38.0421 15.8835 37.5869 15.9135 37.5865C15.9434 37.586 15.9732 38.0407 15.9802 38.6021C15.9871 39.1633 15.9686 39.6185 15.9386 39.619Z" fill="#263238"/>
<path d="M17.2592 37.6083C17.2881 37.6159 17.197 38.0682 17.0558 38.6182C16.9144 39.1685 16.7765 39.6083 16.7475 39.6008C16.7186 39.5932 16.8097 39.1411 16.951 38.5906C17.0924 38.0406 17.2303 37.6007 17.2592 37.6083Z" fill="#263238"/>
<path d="M18.4195 38.7557C18.4424 38.7751 18.2408 39.0587 17.9661 39.3863C17.6919 39.7126 17.444 39.9645 17.4145 39.9294C17.4093 39.9254 17.4565 39.8533 17.5413 39.7417C17.6258 39.63 17.7462 39.4787 17.8835 39.3153C18.1578 38.9881 18.3964 38.7361 18.4195 38.7557Z" fill="#263238"/>
<path d="M13.4169 38.407C13.4169 38.565 13.2904 38.6933 13.1342 38.6933C12.9782 38.6933 12.8516 38.5653 12.8516 38.407C12.8516 38.249 12.978 38.1208 13.1342 38.1208C13.2904 38.1208 13.4169 38.2488 13.4169 38.407Z" fill="#E0E0E0"/>
<path d="M14.5693 37.6072C14.5693 37.7652 14.4428 37.8935 14.2866 37.8935C14.1306 37.8935 14.004 37.7654 14.004 37.6072C14.004 37.449 14.1304 37.3209 14.2866 37.3209C14.4428 37.3211 14.5693 37.4492 14.5693 37.6072Z" fill="#E0E0E0"/>
<path d="M16.2412 37.5819C16.2412 37.7399 16.1147 37.8682 15.9585 37.8682C15.8023 37.8682 15.6758 37.7401 15.6758 37.5819C15.6758 37.4239 15.8023 37.2956 15.9585 37.2956C16.1145 37.2958 16.2412 37.4239 16.2412 37.5819Z" fill="#E0E0E0"/>
<path d="M17.5771 37.5301C17.5771 37.6883 17.4507 37.8164 17.2945 37.8164C17.1385 37.8164 17.0118 37.6883 17.0118 37.5301C17.0118 37.3721 17.1382 37.2438 17.2945 37.2438C17.4505 37.2438 17.5771 37.3721 17.5771 37.5301Z" fill="#E0E0E0"/>
<path d="M18.7489 38.6863C18.7489 38.8443 18.6224 38.9726 18.4662 38.9726C18.31 38.9726 18.1835 38.8446 18.1835 38.6863C18.1835 38.5283 18.31 38.4001 18.4662 38.4001C18.6224 38.4001 18.7489 38.5281 18.7489 38.6863Z" fill="#E0E0E0"/>
<path d="M1.69135 78.3649H3.4113L9.49821 44.069H7.77805L1.69135 78.3649Z" fill="#D66D11"/>
<path d="M72.6272 78.3649H70.907L64.8203 44.069H66.5405L72.6272 78.3649Z" fill="#D66D11"/>
<path d="M68.8988 26.4064C68.9348 26.1588 69.1337 25.9686 69.3797 25.9461C69.7252 25.9145 70.0083 26.2195 69.9561 26.5669L67.613 41.0511H66.543L68.8988 26.4064Z" fill="#263238"/>
<path d="M69.731 26.5831L60.0723 15.8362L60.002 15.9541L59.5338 16.7393L68.9389 27.3099C69.171 27.5709 69.5835 27.5423 69.7782 27.2515C69.9167 27.0445 69.8971 26.7681 69.731 26.5831Z" fill="#263238"/>
<path d="M69.0258 26.8625C69.0192 26.8628 69.0094 26.8396 69.0134 26.7949C69.0171 26.7513 69.0392 26.6839 69.1024 26.6283C69.1633 26.5729 69.2721 26.5371 69.3815 26.5748C69.4899 26.6087 69.5866 26.7252 69.5852 26.8625C69.5866 27.0001 69.4899 27.1166 69.3815 27.1505C69.2719 27.1882 69.1633 27.1524 69.1024 27.0968C69.0392 27.0414 69.0171 26.9738 69.0134 26.9302C69.0096 26.8857 69.0194 26.8623 69.0258 26.8625C69.0431 26.8588 69.0433 26.9628 69.1488 27.0351C69.1991 27.0692 69.2761 27.0848 69.3474 27.0553C69.4183 27.0277 69.4776 26.951 69.4768 26.8625C69.4774 26.7741 69.4183 26.6972 69.3474 26.6698C69.2761 26.6403 69.1989 26.6559 69.1488 26.69C69.0433 26.7623 69.0431 26.8663 69.0258 26.8625Z" fill="#D66D11"/>
<path d="M69.171 25.959C69.1823 25.9489 69.2925 26.0528 69.462 26.2289C69.5452 26.3184 69.6496 26.4179 69.7516 26.5523C69.8497 26.6839 69.945 26.8733 69.9036 27.0863C69.8566 27.301 69.6752 27.4331 69.5107 27.4771C69.3403 27.527 69.1742 27.4802 69.0668 27.4145C68.8499 27.277 68.774 27.1366 68.781 27.1314C68.7943 27.1158 68.8958 27.2384 69.1026 27.3458C69.2058 27.3966 69.342 27.4263 69.4832 27.38C69.6213 27.3383 69.764 27.2243 69.7979 27.0635C69.8306 26.9005 69.7584 26.736 69.6709 26.6115C69.5816 26.4846 69.4809 26.3764 69.4052 26.2807C69.2503 26.0913 69.16 25.9691 69.171 25.959Z" fill="#D66D11"/>
<path d="M62.3 42.3279H71.0939C71.0939 42.3279 69.9715 40.9105 67.0437 40.9105C64.3164 40.9105 62.6921 41.7229 62.3 42.3279Z" fill="#263238"/>
<path d="M60.1312 14.132L60.5782 13.4528L60.026 13.0237L59.5515 13.7071L60.1312 14.132Z" fill="#263238"/>
<path d="M60.8871 14.5427L58.9622 13.1294L57.1139 15.3803C53.9095 15.9038 52.6172 17.9454 52.6172 17.9454L58.3542 22.3951C60.3184 20.1966 59.388 17.0556 59.388 17.0556L60.8871 14.5427Z" fill="#D66D11"/>
<path d="M59.3866 17.0559C59.3689 17.0804 58.8456 16.7252 58.2176 16.2628C57.5895 15.8001 57.0949 15.4054 57.1123 15.3807C57.13 15.3563 57.6531 15.7112 58.2813 16.1739C58.9092 16.6365 59.4041 17.0313 59.3866 17.0559Z" fill="#263238"/>
<path d="M34.666 13.0397C34.6356 12.9198 34.5969 12.7907 34.4969 12.7197C34.3968 12.6487 34.2202 12.6879 34.2063 12.8109L34.2123 12.7886C33.9709 13.3871 33.9711 13.9797 34.131 14.6058C34.1531 14.6921 34.1843 14.7848 34.2585 14.8329C34.3386 14.8845 34.4486 14.8661 34.5256 14.8099C34.6026 14.7536 34.6516 14.6664 34.6887 14.578C34.8902 14.0972 34.7945 13.5457 34.666 13.0397Z" fill="#F5F5F5"/>
<path d="M32.8375 36.5993C32.435 36.621 31.8354 37.0112 31.7031 37.3967C31.5708 37.7824 31.1548 38.259 31.1552 38.6672C31.1556 39.0755 31.1336 39.5017 30.9364 39.8577C30.7115 40.2637 30.2595 40.5295 29.8003 40.526C29.4421 40.5234 29.0421 40.3808 28.7515 40.5929C28.4489 40.8141 28.4346 41.32 28.1045 41.4967C27.8199 41.649 27.4836 41.468 27.1772 41.368C26.6709 41.2026 26.1133 41.2688 25.612 41.4487C25.1107 41.6286 24.0718 42.0061 23.6206 42.2915C26.7003 42.3381 30.3633 42.2947 33.443 42.3413L32.8375 36.5993Z" fill="#E0E0E0"/>
<path d="M39.6368 36.3191C39.6069 36.3191 39.5828 35.9652 39.5828 35.5289C39.5828 35.0924 39.6071 34.7386 39.6368 34.7386C39.6668 34.7386 39.6909 35.0924 39.6909 35.5289C39.6909 35.9652 39.6668 36.3191 39.6368 36.3191Z" fill="#263238"/>
<path d="M34.98 26.2354C34.9769 27.7105 34.9278 29.9159 34.8889 31.4517C34.8644 32.4184 35.6315 33.215 36.5862 33.215H40.4467L41.2849 31.4091V30.9052H47.4482C47.4482 30.9052 47.8792 31.2448 47.8792 32.1178C47.8792 32.9908 47.8792 36.577 47.8792 36.577H32.8624C32.6427 36.577 32.4649 36.7573 32.4649 36.9796V41.8982C32.4649 42.1207 32.643 42.3008 32.8624 42.3008H58.2228V39.5208C58.2228 39.3919 58.1194 39.2872 57.9921 39.2872H57.3922V31.7782H58.2228V26.8796H57.4087V25.7156L56.403 25.2791H51.1354V24.0181H50.3213V25.182L36.1186 25.0923C35.4923 25.0885 34.9813 25.6006 34.98 26.2354Z" fill="#455A64"/>
<path d="M32.4656 39.318C32.4656 39.2876 38.1629 39.2632 45.1891 39.2632C52.2179 39.2632 57.914 39.2878 57.914 39.318C57.914 39.3481 52.2179 39.3727 45.1891 39.3727C38.1629 39.3727 32.4656 39.3483 32.4656 39.318Z" fill="#263238"/>
<path d="M39.9298 33.2144H39.3359V34.7465H39.9298V33.2144Z" fill="#455A64"/>
<path d="M57.3252 29.6587C57.3252 29.689 52.3261 29.7134 46.1608 29.7134C39.9934 29.7134 34.9954 29.6888 34.9954 29.6587C34.9954 29.6283 39.9934 29.6039 46.1608 29.6039C52.3261 29.6039 57.3252 29.6283 57.3252 29.6587Z" fill="#263238"/>
<path d="M57.39 39.2874C57.3601 39.2874 57.3359 36.2795 57.3359 32.5701C57.3359 28.8594 57.3603 25.8522 57.39 25.8522C57.4198 25.8522 57.4441 28.8594 57.4441 32.5701C57.4441 36.2797 57.42 39.2874 57.39 39.2874Z" fill="#263238"/>
<path d="M58.2094 27.4163C58.2094 27.4467 58.0245 27.4711 57.7961 27.4711C57.5679 27.4711 57.3828 27.4464 57.3828 27.4163C57.3828 27.3862 57.5677 27.3615 57.7961 27.3615C58.0245 27.3613 58.2094 27.386 58.2094 27.4163Z" fill="#263238"/>
<path d="M58.2094 27.9358C58.2094 27.9662 58.0245 27.9906 57.7961 27.9906C57.5679 27.9906 57.3828 27.966 57.3828 27.9358C57.3828 27.9057 57.5677 27.8811 57.7961 27.8811C58.0245 27.8809 58.2094 27.9055 58.2094 27.9358Z" fill="#263238"/>
<path d="M58.2094 28.456C58.2094 28.4864 58.0245 28.5108 57.7961 28.5108C57.5679 28.5108 57.3828 28.4861 57.3828 28.456C57.3828 28.4259 57.5677 28.4012 57.7961 28.4012C58.0245 28.401 58.2094 28.4257 58.2094 28.456Z" fill="#263238"/>
<path d="M58.2094 28.9751C58.2094 29.0054 58.0245 29.0301 57.7961 29.0301C57.5679 29.0301 57.3828 29.0054 57.3828 28.9751C57.3828 28.9448 57.5677 28.9203 57.7961 28.9203C58.0245 28.9201 58.2094 28.9448 58.2094 28.9751Z" fill="#263238"/>
<path d="M58.2094 29.4944C58.2094 29.5248 58.0245 29.5492 57.7961 29.5492C57.5679 29.5492 57.3828 29.5246 57.3828 29.4944C57.3828 29.4641 57.5677 29.4397 57.7961 29.4397C58.0245 29.4397 58.2094 29.4641 58.2094 29.4944Z" fill="#263238"/>
<path d="M58.2094 30.014C58.2094 30.0443 58.0245 30.0687 57.7961 30.0687C57.5679 30.0687 57.3828 30.0441 57.3828 30.014C57.3828 29.9836 57.5677 29.9592 57.7961 29.9592C58.0245 29.9592 58.2094 29.9836 58.2094 30.014Z" fill="#263238"/>
<path d="M58.2094 30.5338C58.2094 30.5641 58.0245 30.5888 57.7961 30.5888C57.5679 30.5888 57.3828 30.5641 57.3828 30.5338C57.3828 30.5034 57.5677 30.479 57.7961 30.479C58.0245 30.479 58.2094 30.5034 58.2094 30.5338Z" fill="#263238"/>
<path d="M58.2094 31.0529C58.2094 31.0832 58.0245 31.1076 57.7961 31.1076C57.5679 31.1076 57.3828 31.083 57.3828 31.0529C57.3828 31.0225 57.5677 30.9981 57.7961 30.9981C58.0245 30.9981 58.2094 31.0225 58.2094 31.0529Z" fill="#263238"/>
<path d="M58.2094 31.5726C58.2094 31.6029 58.0245 31.6273 57.7961 31.6273C57.5679 31.6273 57.3828 31.6027 57.3828 31.5726C57.3828 31.5422 57.5677 31.5178 57.7961 31.5178C58.0245 31.5178 58.2094 31.5424 58.2094 31.5726Z" fill="#263238"/>
<path d="M40.4466 33.2155C40.4466 33.2459 39.5824 33.2703 38.5164 33.2703C37.4502 33.2703 36.5859 33.2457 36.5859 33.2155C36.5859 33.1854 37.45 33.1608 38.5164 33.1608C39.5824 33.1606 40.4466 33.1852 40.4466 33.2155Z" fill="#263238"/>
<path d="M41.3009 29.6586C41.3309 29.6586 41.355 30.0456 41.355 30.5227C41.355 31.0001 41.3307 31.3869 41.3009 31.3869C41.271 31.3869 41.2468 31.0001 41.2468 30.5227C41.2468 30.0456 41.271 29.6586 41.3009 29.6586Z" fill="#263238"/>
<g opacity="0.3">
<path d="M47.8753 36.5767C48.4243 36.7591 49.1077 36.3304 49.3927 35.8212C49.6777 35.312 49.7072 34.6998 49.6966 34.1146C49.682 33.3231 49.6065 32.5319 49.4505 31.756C49.3561 31.2854 49.2065 30.7819 48.8195 30.5046C48.4829 30.2634 48.0428 30.2485 47.6305 30.2421C45.6556 30.2122 43.6808 30.1823 41.7059 30.1524C41.4692 30.1488 41.3444 30.0888 41.2957 30.3235C41.2643 30.4749 41.2811 30.9049 41.2811 30.9049C41.2811 30.9049 41.6491 30.9053 41.802 30.9049C43.3622 30.9011 44.9215 30.9087 46.4817 30.9049C46.8025 30.9041 47.4446 30.9049 47.4446 30.9049C47.9043 31.3787 47.8718 31.9797 47.8639 32.5203C47.8441 33.8363 47.8947 35.2609 47.8753 36.5767C47.9627 36.6074 47.788 36.5459 47.8753 36.5767Z" fill="black"/>
</g>
<path d="M55.3317 31.3354H51.2618V32.2373H55.3317V31.3354Z" fill="#E0E0E0"/>
<path d="M39.9271 35.269H39.4335V35.4487H39.9271V35.269Z" fill="#263238"/>
<path d="M55.2164 24.5641C55.2164 24.5944 54.2854 24.6188 53.1372 24.6188C51.9887 24.6188 51.0579 24.5942 51.0579 24.5641C51.0579 24.5339 51.9887 24.5093 53.1372 24.5093C54.2854 24.5093 55.2164 24.5337 55.2164 24.5641Z" fill="#263238"/>
<path d="M55.331 24.564H54.7422V25.2794H55.331V24.564Z" fill="#263238"/>
<path d="M39.9307 30.1099C39.9354 30.105 39.94 30.1842 39.9448 30.334C39.949 30.5057 39.9539 30.7219 39.9602 30.9814C39.9708 31.5357 39.982 32.3208 39.9841 33.2145L39.9843 33.2684H39.9309C39.7256 33.2686 39.5119 33.269 39.2938 33.2692C39.1852 33.1597 39.2636 33.2383 39.2395 33.2136V33.2128V33.2109V33.2071V33.1995V33.1844V33.1542V33.094V32.9743C39.2397 32.8949 39.2397 32.8161 39.2399 32.7379C39.2403 32.5821 39.2407 32.4289 39.2411 32.2793C39.2428 31.9814 39.2445 31.6975 39.2459 31.4305C39.2528 30.9125 39.2586 30.4638 39.2632 30.1099L39.2636 30.0785L39.2935 30.0791C39.5018 30.0835 39.6642 30.0909 39.7722 30.0962C39.8799 30.1019 39.9346 30.1059 39.9307 30.1099C39.9267 30.1139 39.8641 30.1179 39.7541 30.1236C39.6293 30.1282 39.4764 30.1339 39.2933 30.1406L39.3237 30.1099C39.3283 30.4638 39.3343 30.9125 39.341 31.4305C39.3424 31.6973 39.3441 31.9814 39.3458 32.2793C39.3462 32.4291 39.3466 32.5821 39.347 32.7379C39.3472 32.8161 39.3472 32.8949 39.3472 32.9743V33.094V33.1542V33.1844V33.1995V33.2071V33.2109V33.2128V33.2136C39.3231 33.1894 39.4011 33.2692 39.2931 33.1595C39.5113 33.1597 39.7249 33.1601 39.9302 33.1603L39.877 33.2143C39.8791 32.3432 39.8901 31.5761 39.9009 31.0193C39.9071 30.7549 39.9121 30.5346 39.9163 30.3595C39.9215 30.203 39.9261 30.1147 39.9307 30.1099Z" fill="#263238"/>
<path d="M60.0939 43.6799C60.0764 43.5023 59.9071 43.3846 59.7494 43.3051C57.6511 42.2472 55.0858 43.5225 52.8033 42.9828C51.2075 42.6053 49.869 41.2751 49.4665 39.6663C49.319 39.0766 49.2893 38.4625 49.1529 37.8704C49.0164 37.278 48.7493 36.6813 48.2528 36.339C47.6858 35.948 46.9464 35.9645 46.261 35.9958C42.849 36.1513 38.5001 36.1646 35.0881 36.3201C34.6093 37.7926 36.0474 39.6566 35.3747 41.0493C35.1199 41.577 34.5987 41.9206 34.279 42.4108C33.9593 42.9011 33.9718 43.7309 34.5242 43.9095C35.1156 44.1008 35.6173 43.3702 36.2336 43.2954C36.9403 43.2095 37.4986 43.9967 38.2102 44.0176C38.8993 44.0378 39.584 43.3361 40.192 43.6654C40.5111 43.8381 40.6436 44.2325 40.9167 44.4726C41.3063 44.8154 41.9034 44.7773 42.3837 44.586C42.864 44.3947 43.2875 44.0757 43.7709 43.8931C44.639 43.5649 45.6017 43.706 46.5208 43.8263C49.7856 44.2536 53.082 44.3606 56.3721 44.467C57.4731 44.5026 58.6046 44.5335 59.6417 44.1579C59.8634 44.0772 60.1174 43.9171 60.0939 43.6799Z" fill="#E0E0E0"/>
<path d="M44.7095 41.2714C44.6991 41.2811 44.5451 41.1318 44.3159 40.8722C44.0865 40.6127 43.7845 40.2405 43.4783 39.8084C43.1726 39.3759 42.9213 38.9665 42.7524 38.6632C42.5833 38.3598 42.4932 38.1645 42.5055 38.1576C42.5192 38.1498 42.6328 38.3314 42.8179 38.6232C43.0028 38.9149 43.2626 39.3148 43.5665 39.7445C43.8706 40.1739 44.1612 40.5512 44.3746 40.8223C44.5876 41.0934 44.7211 41.2607 44.7095 41.2714Z" fill="#263238"/>
<path d="M48.0322 41.9681C48.0301 41.9752 47.9432 41.9542 47.7874 41.9097C47.631 41.8672 47.409 41.7898 47.1401 41.6805C46.6022 41.4633 45.8844 41.0856 45.1826 40.5359C44.4821 39.984 43.9421 39.3739 43.6003 38.9005C43.4287 38.664 43.2996 38.4655 43.2201 38.3227C43.1388 38.1809 43.097 38.1009 43.1034 38.0971C43.1203 38.0865 43.3058 38.3962 43.6613 38.8534C44.0155 39.3107 44.5571 39.9042 45.249 40.4494C45.9422 40.992 46.6444 41.3757 47.17 41.6093C47.6957 41.8442 48.038 41.9489 48.0322 41.9681Z" fill="#263238"/>
<path d="M37.2939 41.933C37.2825 41.9151 37.4739 41.8216 37.68 41.5637C37.8874 41.3109 38.0829 40.8799 38.122 40.3758C38.1598 39.8702 38.0721 39.4101 38.0105 39.081C37.9456 38.7509 37.904 38.5457 37.9194 38.5419C37.9329 38.5385 38.0007 38.7359 38.0852 39.0639C38.1661 39.3907 38.2688 39.8582 38.2299 40.3846C38.1894 40.9121 37.9712 41.3623 37.738 41.6143C37.6226 41.7417 37.5113 41.8266 37.4287 41.8738C37.3466 41.9214 37.2969 41.9387 37.2939 41.933Z" fill="#263238"/>
<path d="M37.7499 42.8792C37.7198 42.8628 38.0598 42.2569 38.2938 41.4391C38.5339 40.6228 38.5715 39.927 38.6054 39.9297C38.6189 39.9303 38.6269 40.1052 38.6029 40.3866C38.5794 40.6679 38.5177 41.0553 38.3978 41.4701C38.2772 41.8845 38.1222 42.2441 37.9918 42.4935C37.8616 42.7434 37.7616 42.8862 37.7499 42.8792Z" fill="#263238"/>
<path d="M41.9658 35.5891C41.9658 35.5891 43.8411 33.8284 44.1927 33.3734C44.5442 32.9183 45.2474 31.85 46.068 32.0082C46.8883 32.1665 48.1255 33.0607 48.0344 33.7907C47.9433 34.5207 47.826 34.9942 47.4741 35.6703C47.244 36.112 46.9728 36.5331 46.64 36.5298C46.379 36.527 46.3026 36.4306 46.3808 36.1978C46.459 35.9652 46.7519 35.3884 46.7519 35.3884C46.7519 35.3884 45.7379 36.9193 45.0729 36.7786C44.4079 36.6378 44.6424 36.53 44.6424 36.53C44.6424 36.53 44.4666 36.9941 43.8805 36.8753C43.2945 36.7565 43.4703 36.198 43.4703 36.198C43.4703 36.198 43.1751 36.6593 42.7837 36.53C42.3735 36.3943 42.474 36.0444 42.474 36.0444L42.4935 35.8268C42.4935 35.8268 42.1749 35.9525 41.9658 35.5891Z" fill="#8E6865"/>
<path d="M43.8908 34.1208C43.9143 34.1381 43.6495 34.5483 43.2672 35.0109C42.8853 35.4744 42.534 35.811 42.513 35.7906C42.4908 35.7691 42.8048 35.4009 43.184 34.9405C43.5638 34.4811 43.8661 34.1025 43.8908 34.1208Z" fill="#684544"/>
<path d="M44.3565 34.6536C44.3669 34.6447 44.4349 34.7505 44.3956 34.9293C44.3631 35.112 44.193 35.2957 44.0459 35.488C43.8966 35.6877 43.7685 35.8792 43.6611 36.0077C43.5553 36.1373 43.4772 36.2064 43.4662 36.1969C43.4544 36.1868 43.5109 36.1008 43.5993 35.9618C43.6892 35.8238 43.8061 35.627 43.9596 35.4214C44.1183 35.2156 44.2772 35.0604 44.3217 34.9083C44.3744 34.7597 44.3407 34.6582 44.3565 34.6536Z" fill="#684544"/>
<path d="M45.8461 34.5349C45.8586 34.5252 45.9195 34.6792 45.8253 34.8937C45.7325 35.1016 45.5651 35.3478 45.3777 35.6242C44.9972 36.1718 44.6305 36.5687 44.6085 36.5495C44.585 36.5293 44.9118 36.1037 45.2891 35.561C45.474 35.2891 45.6545 35.0432 45.7558 34.8608C45.859 34.6743 45.8301 34.5374 45.8461 34.5349Z" fill="#684544"/>
<path d="M47.3163 34.4394C47.3504 34.4485 47.2691 34.7468 47.0704 35.0586C46.8768 35.3754 46.6422 35.572 46.6224 35.5484C46.6022 35.5263 46.7915 35.3065 46.9789 34.9998C47.1721 34.6964 47.2922 34.4329 47.3163 34.4394Z" fill="#684544"/>
<path d="M46.931 34.3877C46.921 34.4172 46.8074 34.4024 46.672 34.4079C46.5364 34.4113 46.4243 34.4336 46.4124 34.4048C46.3997 34.3784 46.5102 34.303 46.6687 34.2982C46.8268 34.2925 46.942 34.3605 46.931 34.3877Z" fill="#684544"/>
<path d="M45.498 34.4655C45.4763 34.4882 45.3422 34.3814 45.1442 34.3604C44.9468 34.3336 44.7916 34.4054 44.7758 34.3781C44.7548 34.3566 44.9177 34.2211 45.1569 34.2514C45.3965 34.279 45.5234 34.4495 45.498 34.4655Z" fill="#684544"/>
<path d="M44.5403 34.1168C44.522 34.1415 44.4604 34.1276 44.3905 34.1332C44.3204 34.1358 44.2609 34.1571 44.2399 34.1347C44.2172 34.1151 44.273 34.0302 44.3843 34.0237C44.4953 34.017 44.5604 34.0945 44.5403 34.1168Z" fill="#684544"/>
<path d="M48.0696 33.2135C48.0817 33.2112 48.1289 33.3886 48.1258 33.6831C48.125 33.9767 48.0576 34.3829 47.9022 34.8017C47.7472 35.2207 47.5519 35.5734 47.4059 35.8226C47.2584 36.0716 47.158 36.2195 47.1453 36.2123C47.132 36.2047 47.2091 36.0427 47.3389 35.7853C47.4673 35.5275 47.6493 35.1733 47.8007 34.7636C47.9523 34.3543 48.0289 33.9645 48.0493 33.6795C48.0717 33.3942 48.0522 33.2156 48.0696 33.2135Z" fill="#684544"/>
<path d="M24.6424 32.6516C24.6424 32.6516 32.5154 31.0099 33.1715 30.8451C33.8273 30.6804 32.6411 33.5996 32.6411 33.5996C32.6411 33.5996 29.3819 35.2133 28.5526 35.6403C27.7233 36.0673 26.019 37.0819 25.1524 36.3777C24.2857 35.6734 23.9614 33.5056 24.6424 32.6516Z" fill="#8E6865"/>
<path d="M33.1695 30.8453C33.1695 30.8453 33.8322 30.7551 34.2944 31.0193C34.7565 31.2835 40.0337 36.1931 40.0337 36.1931C40.0337 36.1931 39.8234 36.4412 39.4328 36.378C39.4328 36.378 39.1322 36.9253 38.321 36.6201C38.321 36.6201 37.9003 36.9887 37.2993 36.7128C36.6984 36.4366 35.0157 34.9149 35.0157 34.9149L36.3378 36.6201C36.3378 36.6201 35.7368 36.8621 35.4063 36.6201C35.0758 36.378 33.6664 35.0367 33.6664 35.0367C33.6664 35.0367 32.7005 34.5796 32.5817 34.1237C32.4629 33.6678 32.0409 33.0906 32.0409 33.0906L33.1695 30.8453Z" fill="#8E6865"/>
<path d="M38.3988 36.6043C38.3906 36.6157 38.2057 36.5015 37.9239 36.2917C37.6421 36.0821 37.2658 35.7735 36.8774 35.4018C36.4895 35.0296 36.1644 34.6662 35.9423 34.3925C35.7199 34.1191 35.5972 33.9383 35.608 33.9295C35.6205 33.9194 35.7642 34.0824 35.9999 34.3413C36.2356 34.6005 36.5669 34.9527 36.9517 35.322C37.3369 35.6907 37.7024 36.0062 37.9707 36.2304C38.2392 36.4548 38.4081 36.5913 38.3988 36.6043Z" fill="#684544"/>
<path d="M36.425 33.6006C36.4363 33.5898 36.6014 33.7493 36.8664 34.0078C37.1312 34.2665 37.4979 34.6225 37.9116 35.0064C38.3257 35.39 38.7083 35.7285 38.9861 35.9729C39.2638 36.2173 39.4352 36.3698 39.4257 36.3822C39.4167 36.3936 39.2285 36.2626 38.9375 36.0327C38.6465 35.8031 38.2542 35.4723 37.8386 35.0872C37.4232 34.7019 37.0636 34.3356 36.8119 34.0624C36.56 33.7891 36.4144 33.6107 36.425 33.6006Z" fill="#684544"/>
</svg>
