<svg width="25" height="45" viewBox="0 0 25 45" fill="none" xmlns="http://www.w3.org/2000/svg">
<path d="M16.3458 1C16.3458 1 17.4868 5.99205 21.4804 8.27413C26.8291 11.412 20.3394 16.8319 20.1254 22.6084C19.9115 26.7447 25.5454 35.0886 19.5549 35.0886H5.07799C-0.912474 35.0886 4.72141 26.7447 4.50747 22.6084C4.22221 16.8319 -2.26746 11.3407 3.15248 8.27413C7.14612 5.99205 8.28716 1 8.28716 1H16.3458Z" stroke="#FF0006" stroke-width="1.5" stroke-linecap="round" stroke-linejoin="round"/>
<path d="M19.2699 43.3616H5.29211V42.0067C5.29211 40.7943 6.29052 39.7959 7.50288 39.7959H17.0591C18.2714 39.7959 19.2699 40.7943 19.2699 42.0067V43.3616Z" stroke="#FF0006" stroke-width="1.5" stroke-linecap="round" stroke-linejoin="round"/>
<path d="M13.636 35.0884H10.8547V39.7239H13.636V35.0884Z" stroke="#FF0006" stroke-width="1.5" stroke-linecap="round" stroke-linejoin="round"/>
<path d="M4.5788 12.4092C4.5788 12.4092 9.85611 20.8244 5.71984 30.9511" stroke="#FF0006" stroke-width="1.5" stroke-linecap="round" stroke-linejoin="round"/>
</svg>
