<svg width="28" height="21" viewBox="0 0 28 21" fill="none" xmlns="http://www.w3.org/2000/svg">
<path d="M28 12.4106C28 12.6637 27.9017 12.9064 27.7266 13.0854C27.5516 13.2644 27.3142 13.3649 27.0667 13.3649H25.2V15.2735C25.2 15.5266 25.1016 15.7693 24.9266 15.9483C24.7516 16.1272 24.5142 16.2278 24.2666 16.2278C24.0191 16.2278 23.7817 16.1272 23.6067 15.9483C23.4316 15.7693 23.3333 15.5266 23.3333 15.2735V13.3649H21.4666C21.2191 13.3649 20.9817 13.2644 20.8066 13.0854C20.6316 12.9064 20.5333 12.6637 20.5333 12.4106C20.5333 12.1575 20.6316 11.9148 20.8066 11.7358C20.9817 11.5568 21.2191 11.4563 21.4666 11.4563H23.3333V9.54772C23.3333 9.29462 23.4316 9.0519 23.6067 8.87293C23.7817 8.69397 24.0191 8.59342 24.2666 8.59342C24.5142 8.59342 24.7516 8.69397 24.9266 8.87293C25.1016 9.0519 25.2 9.29462 25.2 9.54772V11.4563H27.0667C27.3142 11.4563 27.5516 11.5568 27.7266 11.7358C27.9017 11.9148 28 12.1575 28 12.4106ZM21.2484 19.4306C21.4078 19.6246 21.4853 19.8753 21.4638 20.1276C21.4424 20.38 21.3238 20.6133 21.1341 20.7762C20.9444 20.9391 20.6992 21.0183 20.4524 20.9964C20.2056 20.9745 19.9774 20.8532 19.8181 20.6593C17.4707 17.8012 14.2437 16.2278 10.7331 16.2278C7.22261 16.2278 3.99557 17.8012 1.64821 20.6593C1.48886 20.8531 1.26075 20.9742 1.01406 20.996C0.767367 21.0178 0.522305 20.9385 0.332784 20.7756C0.143263 20.6127 0.0248062 20.3794 0.00347375 20.1272C-0.0178587 19.875 0.05968 19.6244 0.219033 19.4306C1.96205 17.3097 4.12974 15.8031 6.53893 14.9967C5.07581 14.065 3.94928 12.6714 3.32979 11.0267C2.7103 9.38207 2.63155 7.57587 3.10546 5.88138C3.57936 4.18689 4.58014 2.69632 5.95638 1.63516C7.33261 0.573999 9.00943 0 10.7331 0C12.4569 0 14.1337 0.573999 15.5099 1.63516C16.8862 2.69632 17.8869 4.18689 18.3608 5.88138C18.8347 7.57587 18.756 9.38207 18.1365 11.0267C17.517 12.6714 16.3905 14.065 14.9274 14.9967C17.3366 15.8031 19.5042 17.3097 21.2484 19.4306ZM10.7331 14.3192C11.933 14.3192 13.106 13.9554 14.1036 13.2738C15.1013 12.5922 15.8789 11.6235 16.3381 10.49C16.7973 9.3566 16.9174 8.1094 16.6833 6.90615C16.4492 5.7029 15.8714 4.59765 15.023 3.73015C14.1745 2.86266 13.0935 2.27189 11.9167 2.03255C10.7399 1.79321 9.52006 1.91604 8.41151 2.38553C7.30296 2.85501 6.35546 3.65006 5.68884 4.67012C5.02222 5.69019 4.66641 6.88946 4.66641 8.11628C4.66827 9.76081 5.30803 11.3374 6.44536 12.5003C7.5827 13.6632 9.12472 14.3173 10.7331 14.3192Z" fill="black"/>
</svg>
