<svg width="39" height="37" viewBox="0 0 39 37" fill="none" xmlns="http://www.w3.org/2000/svg">
<path fill-rule="evenodd" clip-rule="evenodd" d="M14.3457 0.111748C11.1748 0.630944 8.46307 3.0172 7.45704 6.1738C7.24354 6.84368 7.21504 7.13057 7.21483 8.60421C7.21463 10.2313 7.22345 10.3003 7.55199 11.2372C8.80495 14.8103 12.0174 17.1242 15.7286 17.1269C18.3027 17.1286 20.3498 16.2688 22.0967 14.4523C23.3323 13.1673 24.121 11.5797 24.3982 9.81942C24.5418 8.90812 24.4667 7.39276 24.2326 6.4776C23.984 5.50503 23.1532 3.88921 22.5058 3.11888C20.5489 0.790136 17.3659 -0.382841 14.3457 0.111748ZM14.3581 2.17041C11.6548 2.77791 9.51884 5.13176 9.22188 7.83043C8.82279 11.4567 11.3691 14.6286 15.0506 15.0911C17.7452 15.4295 20.5103 13.9413 21.7309 11.4954C23.5697 7.81068 21.6374 3.47513 17.6222 2.27674C16.8362 2.0422 15.1701 1.98792 14.3581 2.17041ZM8.10992 17.1606C4.70625 18.0293 1.83642 20.535 0.638632 23.6841C0.0599899 25.2055 -0.0276832 26.0058 0.0063606 29.4541L0.0363027 32.4938L0.446469 32.9123C1.31684 33.8003 3.00345 34.7735 4.85576 35.4563C9.21644 37.0638 16.8038 37.3189 23.6583 36.0885L25.1313 35.824L25.9142 36.1845C27.3514 36.8461 28.1361 37.0076 29.8759 36.9997C31.244 36.9935 31.5154 36.9624 32.3306 36.7176C35.5232 35.7593 37.9017 33.3563 38.7574 30.2248C39.0796 29.0452 39.0811 26.9213 38.7604 25.7184C37.913 22.5399 35.3456 19.9853 32.1318 19.123C31.0775 18.8401 28.7977 18.8037 27.7884 19.0538L27.1364 19.2152L26.4873 18.7671C25.2111 17.8861 22.6547 16.9081 21.6278 16.9081C21.4766 16.9081 21.0788 17.0719 20.7437 17.2721C19.2757 18.1493 18.196 18.5388 16.702 18.7306C14.6729 18.9911 12.5635 18.5138 10.715 17.376C9.81139 16.8198 9.53473 16.7969 8.10992 17.1606ZM8.54726 19.1305C5.74756 19.957 3.68309 21.7113 2.66803 24.1264C2.12825 25.4107 2.03566 26.1305 2.0374 29.0306L2.03884 31.6425L2.62702 32.0725C5.99715 34.5365 12.9861 35.4304 20.9922 34.4214C23.2968 34.1309 23.1449 34.2294 22.5235 33.4302C21.8747 32.5959 21.181 31.1937 20.8876 30.1235C20.5736 28.978 20.5749 26.8311 20.8901 25.6677C21.1689 24.6391 21.8643 23.215 22.4814 22.4093C22.9983 21.7343 23.8972 20.8801 24.5167 20.4753C24.7289 20.3365 24.9026 20.1843 24.9026 20.1369C24.9026 20.0013 23.9617 19.5652 22.9394 19.2269L22.0042 18.9175L20.7617 19.5351C19.0289 20.3964 17.9873 20.6582 16.0328 20.7243C14.7211 20.7686 14.3381 20.7443 13.4309 20.5592C12.2475 20.3179 10.9187 19.8245 10.0062 19.2877C9.3196 18.8837 9.36646 18.8887 8.54726 19.1305ZM28.5429 21.0009C25.1063 21.7867 22.8518 24.5381 22.8518 27.9462C22.8518 29.8868 23.5453 31.5592 24.9075 32.9039C25.8059 33.7908 26.6729 34.3245 27.8251 34.6997C28.5391 34.9324 28.8182 34.9673 29.9785 34.9697C31.1537 34.9723 31.4086 34.9406 32.1318 34.7026C33.2643 34.3297 34.1491 33.7935 35.0089 32.959C36.6117 31.4031 37.37 29.2957 37.1004 27.1467C36.8854 25.4326 36.2916 24.2233 35.0543 22.9788C33.7262 21.6432 32.1642 20.9692 30.2348 20.8993C29.5428 20.8742 28.9384 20.9105 28.5429 21.0009ZM29.6308 23.7331C29.1893 23.9747 29.1143 24.2569 29.1104 25.693L29.1069 27.0348H27.7123H26.3177L25.9691 27.3791C25.5855 27.758 25.5285 28.0844 25.7666 28.5392C25.9955 28.9764 26.319 29.0602 27.7786 29.0602H29.1069V30.4374V31.8146L29.4555 32.159C29.8285 32.5274 30.139 32.5881 30.5966 32.3822C31.0625 32.1726 31.1577 31.8335 31.1577 30.3817V29.0602H32.4959C33.9659 29.0602 34.3093 28.9662 34.5216 28.506C34.73 28.0542 34.6685 27.7476 34.2955 27.3791L33.9468 27.0348H32.5523H31.1577V25.6576V24.2804L30.809 23.9361C30.4297 23.5615 30.0605 23.4979 29.6308 23.7331Z" fill="#FF0006"/>
</svg>
