<svg width="14" height="15" viewBox="0 0 14 15" fill="none" xmlns="http://www.w3.org/2000/svg">
<path d="M9.91604 14.4231C9.91604 14.5761 9.85457 14.7228 9.74517 14.831C9.63576 14.9392 9.48737 15 9.33265 15H4.66554C4.51081 15 4.36243 14.9392 4.25302 14.831C4.14361 14.7228 4.08215 14.5761 4.08215 14.4231C4.08215 14.2701 4.14361 14.1233 4.25302 14.0151C4.36243 13.9069 4.51081 13.8462 4.66554 13.8462H9.33265C9.48737 13.8462 9.63576 13.9069 9.74517 14.0151C9.85457 14.1233 9.91604 14.2701 9.91604 14.4231ZM13.843 12.1154C13.7418 12.2917 13.5948 12.4382 13.4173 12.5396C13.2397 12.641 13.038 12.6937 12.833 12.6923H1.1652C0.960096 12.692 0.758686 12.6383 0.581272 12.5365C0.403859 12.4347 0.256713 12.2885 0.154664 12.1125C0.0526157 11.9366 -0.000728755 11.7372 7.51964e-06 11.5343C0.000743794 11.3315 0.0555348 11.1324 0.158858 10.9572C0.563584 10.2678 1.1652 8.31779 1.1652 5.76923C1.1652 4.23914 1.77984 2.77171 2.87391 1.68977C3.96798 0.607828 5.45185 0 6.99909 0C8.54634 0 10.0302 0.607828 11.1243 1.68977C12.2183 2.77171 12.833 4.23914 12.833 5.76923C12.833 8.31707 13.4353 10.2678 13.8401 10.9572C13.9444 11.1327 13.9996 11.3324 14 11.536C14.0004 11.7396 13.9459 11.9395 13.8422 12.1154H13.843ZM12.833 11.5385C12.2693 10.5815 11.6662 8.36899 11.6662 5.76923C11.6662 4.54515 11.1745 3.37121 10.2992 2.50566C9.42399 1.64011 8.23689 1.15385 6.99909 1.15385C5.7613 1.15385 4.5742 1.64011 3.69895 2.50566C2.82369 3.37121 2.33198 4.54515 2.33198 5.76923C2.33198 8.36971 1.72817 10.5822 1.1652 11.5385H12.833Z" fill="black"/>
</svg>
