<svg width="22" height="24" viewBox="0 0 22 24" fill="none" xmlns="http://www.w3.org/2000/svg">
<path d="M19.75 2.5H17.125V1.625C17.125 1.39294 17.0328 1.17038 16.8687 1.00628C16.7046 0.842187 16.4821 0.75 16.25 0.75C16.0179 0.75 15.7954 0.842187 15.6313 1.00628C15.4672 1.17038 15.375 1.39294 15.375 1.625V2.5H6.625V1.625C6.625 1.39294 6.53281 1.17038 6.36872 1.00628C6.20462 0.842187 5.98206 0.75 5.75 0.75C5.51794 0.75 5.29538 0.842187 5.13128 1.00628C4.96719 1.17038 4.875 1.39294 4.875 1.625V2.5H2.25C1.78587 2.5 1.34075 2.68437 1.01256 3.01256C0.684374 3.34075 0.5 3.78587 0.5 4.25V21.75C0.5 22.2141 0.684374 22.6592 1.01256 22.9874C1.34075 23.3156 1.78587 23.5 2.25 23.5H19.75C20.2141 23.5 20.6592 23.3156 20.9874 22.9874C21.3156 22.6592 21.5 22.2141 21.5 21.75V4.25C21.5 3.78587 21.3156 3.34075 20.9874 3.01256C20.6592 2.68437 20.2141 2.5 19.75 2.5ZM4.875 4.25V5.125C4.875 5.35706 4.96719 5.57962 5.13128 5.74372C5.29538 5.90781 5.51794 6 5.75 6C5.98206 6 6.20462 5.90781 6.36872 5.74372C6.53281 5.57962 6.625 5.35706 6.625 5.125V4.25H15.375V5.125C15.375 5.35706 15.4672 5.57962 15.6313 5.74372C15.7954 5.90781 16.0179 6 16.25 6C16.4821 6 16.7046 5.90781 16.8687 5.74372C17.0328 5.57962 17.125 5.35706 17.125 5.125V4.25H19.75V7.75H2.25V4.25H4.875ZM19.75 21.75H2.25V9.5H19.75V21.75ZM12.3125 13.4375C12.3125 13.6971 12.2355 13.9508 12.0913 14.1667C11.9471 14.3825 11.7421 14.5508 11.5023 14.6501C11.2624 14.7494 10.9985 14.7754 10.7439 14.7248C10.4893 14.6741 10.2555 14.5491 10.0719 14.3656C9.88837 14.182 9.76336 13.9482 9.71272 13.6936C9.66208 13.439 9.68807 13.1751 9.78741 12.9352C9.88675 12.6954 10.055 12.4904 10.2708 12.3462C10.4867 12.202 10.7404 12.125 11 12.125C11.3481 12.125 11.6819 12.2633 11.9281 12.5094C12.1742 12.7556 12.3125 13.0894 12.3125 13.4375ZM17.125 13.4375C17.125 13.6971 17.048 13.9508 16.9038 14.1667C16.7596 14.3825 16.5546 14.5508 16.3148 14.6501C16.0749 14.7494 15.811 14.7754 15.5564 14.7248C15.3018 14.6741 15.068 14.5491 14.8844 14.3656C14.7009 14.182 14.5759 13.9482 14.5252 13.6936C14.4746 13.439 14.5006 13.1751 14.5999 12.9352C14.6992 12.6954 14.8675 12.4904 15.0833 12.3462C15.2992 12.202 15.5529 12.125 15.8125 12.125C16.1606 12.125 16.4944 12.2633 16.7406 12.5094C16.9867 12.7556 17.125 13.0894 17.125 13.4375ZM7.5 17.8125C7.5 18.0721 7.42302 18.3258 7.2788 18.5417C7.13458 18.7575 6.9296 18.9258 6.68977 19.0251C6.44994 19.1244 6.18604 19.1504 5.93144 19.0998C5.67684 19.0491 5.44298 18.9241 5.25942 18.7406C5.07587 18.557 4.95086 18.3232 4.90022 18.0686C4.84958 17.814 4.87557 17.5501 4.97491 17.3102C5.07425 17.0704 5.24248 16.8654 5.45831 16.7212C5.67415 16.577 5.92791 16.5 6.1875 16.5C6.5356 16.5 6.86944 16.6383 7.11558 16.8844C7.36172 17.1306 7.5 17.4644 7.5 17.8125ZM12.3125 17.8125C12.3125 18.0721 12.2355 18.3258 12.0913 18.5417C11.9471 18.7575 11.7421 18.9258 11.5023 19.0251C11.2624 19.1244 10.9985 19.1504 10.7439 19.0998C10.4893 19.0491 10.2555 18.9241 10.0719 18.7406C9.88837 18.557 9.76336 18.3232 9.71272 18.0686C9.66208 17.814 9.68807 17.5501 9.78741 17.3102C9.88675 17.0704 10.055 16.8654 10.2708 16.7212C10.4867 16.577 10.7404 16.5 11 16.5C11.3481 16.5 11.6819 16.6383 11.9281 16.8844C12.1742 17.1306 12.3125 17.4644 12.3125 17.8125ZM17.125 17.8125C17.125 18.0721 17.048 18.3258 16.9038 18.5417C16.7596 18.7575 16.5546 18.9258 16.3148 19.0251C16.0749 19.1244 15.811 19.1504 15.5564 19.0998C15.3018 19.0491 15.068 18.9241 14.8844 18.7406C14.7009 18.557 14.5759 18.3232 14.5252 18.0686C14.4746 17.814 14.5006 17.5501 14.5999 17.3102C14.6992 17.0704 14.8675 16.8654 15.0833 16.7212C15.2992 16.577 15.5529 16.5 15.8125 16.5C16.1606 16.5 16.4944 16.6383 16.7406 16.8844C16.9867 17.1306 17.125 17.4644 17.125 17.8125Z" fill="#7A7A7A"/>
</svg>
