<svg width="52" height="52" viewBox="0 0 52 52" fill="none" xmlns="http://www.w3.org/2000/svg">
<g filter="url(#filter0_d_2879_402)">
<circle cx="26" cy="24" r="14" fill="white"/>
<circle cx="26" cy="24" r="14.75" stroke="black" stroke-width="1.5"/>
</g>
<path d="M36.562 19.3782L31.6223 14.4395C31.483 14.3001 31.3176 14.1896 31.1356 14.1142C30.9536 14.0388 30.7585 14 30.5615 14C30.3645 14 30.1694 14.0388 29.9874 14.1142C29.8054 14.1896 29.64 14.3001 29.5007 14.4395L16.4395 27.4998C16.3001 27.6391 16.1896 27.8044 16.1142 27.9865C16.0388 28.1685 16 28.3635 16 28.5606C16 28.7576 16.0388 28.9526 16.1142 29.1347C16.1896 29.3167 16.3001 29.482 16.4395 29.6213L21.3791 34.5601C21.5184 34.6994 21.6838 34.8099 21.8658 34.8853C22.0478 34.9607 22.2429 34.9995 22.4399 34.9995C22.6369 34.9995 22.832 34.9607 23.014 34.8853C23.196 34.8099 23.3614 34.6994 23.5007 34.5601L36.562 21.4998C36.7013 21.3605 36.8118 21.1951 36.8872 21.0131C36.9626 20.8311 37.0014 20.636 37.0014 20.439C37.0014 20.242 36.9626 20.0469 36.8872 19.8649C36.8118 19.6829 36.7013 19.5175 36.562 19.3782ZM22.4395 33.4998L17.5007 28.5601L20.5007 25.5601L22.9701 28.0304C23.0398 28.1001 23.1225 28.1554 23.2135 28.1931C23.3046 28.2308 23.4022 28.2502 23.5007 28.2502C23.5993 28.2502 23.6968 28.2308 23.7879 28.1931C23.8789 28.1554 23.9617 28.1001 24.0313 28.0304C24.101 27.9607 24.1563 27.878 24.194 27.7869C24.2317 27.6959 24.2511 27.5983 24.2511 27.4998C24.2511 27.4012 24.2317 27.3036 24.194 27.2126C24.1563 27.1216 24.101 27.0388 24.0313 26.9691L21.561 24.4998L23.5007 22.5601L25.9701 25.0304C26.1108 25.1711 26.3017 25.2502 26.5007 25.2502C26.6997 25.2502 26.8906 25.1711 27.0313 25.0304C27.1721 24.8897 27.2511 24.6988 27.2511 24.4998C27.2511 24.3008 27.1721 24.1099 27.0313 23.9691L24.561 21.4998L26.5007 19.5601L28.9701 22.0304C29.0398 22.1001 29.1225 22.1554 29.2135 22.1931C29.3046 22.2308 29.4022 22.2502 29.5007 22.2502C29.5993 22.2502 29.6968 22.2308 29.7879 22.1931C29.8789 22.1554 29.9617 22.1001 30.0313 22.0304C30.101 21.9607 30.1563 21.878 30.194 21.7869C30.2317 21.6959 30.2511 21.5983 30.2511 21.4998C30.2511 21.4012 30.2317 21.3036 30.194 21.2126C30.1563 21.1216 30.101 21.0388 30.0313 20.9691L27.561 18.4998L30.561 15.4998L35.5007 20.4395L22.4395 33.4998Z" fill="black"/>
<defs>
<filter id="filter0_d_2879_402" x="0.5" y="0.5" width="51" height="51" filterUnits="userSpaceOnUse" color-interpolation-filters="sRGB">
<feFlood flood-opacity="0" result="BackgroundImageFix"/>
<feColorMatrix in="SourceAlpha" type="matrix" values="0 0 0 0 0 0 0 0 0 0 0 0 0 0 0 0 0 0 127 0" result="hardAlpha"/>
<feOffset dy="2"/>
<feGaussianBlur stdDeviation="5"/>
<feComposite in2="hardAlpha" operator="out"/>
<feColorMatrix type="matrix" values="0 0 0 0 0 0 0 0 0 0 0 0 0 0 0 0 0 0 0.45 0"/>
<feBlend mode="normal" in2="BackgroundImageFix" result="effect1_dropShadow_2879_402"/>
<feBlend mode="normal" in="SourceGraphic" in2="effect1_dropShadow_2879_402" result="shape"/>
</filter>
</defs>
</svg>
