<svg width="86" height="86" viewBox="0 0 86 86" fill="none" xmlns="http://www.w3.org/2000/svg">
<path d="M34.873 62.0616H31.796V80.9274H34.873V62.0616Z" fill="#EBEBEB"/>
<path d="M73.8418 62.1057H70.7647V80.9715H73.8418V62.1057Z" fill="#EBEBEB"/>
<path d="M80.4172 73.5662H77.3401V80.972H80.4172V73.5662Z" fill="#EBEBEB"/>
<path d="M9.17112 63.2543H6.09387V80.9276H9.17112V63.2543Z" fill="#EBEBEB"/>
<path d="M15.5973 49.7336H12.5203V80.9277H15.5973V49.7336Z" fill="#EBEBEB"/>
<path d="M22.0234 69.896H18.9464V80.9279H22.0234V69.896Z" fill="#EBEBEB"/>
<path d="M28.4498 48.2964H25.3727V80.9277H28.4498V48.2964Z" fill="#EBEBEB"/>
<path d="M41.2994 51.1169H38.2224V80.927H41.2994V51.1169Z" fill="#EBEBEB"/>
<path d="M47.7258 58.8652H44.6487V80.9288H47.7258V58.8652Z" fill="#EBEBEB"/>
<path d="M54.1519 48.0725H51.0748V80.9269H54.1519V48.0725Z" fill="#EBEBEB"/>
<path d="M60.5783 42.4451H57.5012V80.9271H60.5783V42.4451Z" fill="#EBEBEB"/>
<path d="M67.0047 53.6668H63.9276V80.9285H67.0047V53.6668Z" fill="#EBEBEB"/>
<path d="M80.2029 80.966C80.2029 80.9908 63.1603 81.0107 42.1422 81.0107C21.1168 81.0107 4.07776 80.9906 4.07776 80.966C4.07776 80.9414 21.1166 80.9213 42.1422 80.9213C63.1603 80.9211 80.2029 80.9412 80.2029 80.966Z" fill="#263238"/>
<path d="M67.3167 70.8974C64.7444 69.8055 61.7662 67.6578 60.4377 65.0239C63.2124 66.1387 65.6591 68.2278 67.3167 70.8974Z" fill="#263238"/>
<path d="M66.7692 66.8089C64.1969 65.7171 61.2187 63.5691 59.8902 60.9355C62.6649 62.0502 65.1116 64.1393 66.7692 66.8089Z" fill="#263238"/>
<path d="M66.0205 62.8349C63.4482 61.743 60.47 59.5953 59.1415 56.9614C61.9162 58.0762 64.3629 60.1653 66.0205 62.8349Z" fill="#263238"/>
<path d="M65.0854 58.6725C62.6586 57.2326 59.9538 54.6907 58.9457 51.8985C61.5707 53.3896 63.7546 55.7989 65.0854 58.6725Z" fill="#263238"/>
<path d="M64.0889 55.4882C62.3204 53.1752 60.6721 49.7336 60.6938 46.7512C62.6297 49.1918 63.8373 52.2995 64.0889 55.4882Z" fill="#263238"/>
<path d="M64.5876 57.0008C64.9448 53.8737 66.1614 49.9412 68.2266 47.596C67.8986 50.9471 66.6043 54.2921 64.5876 57.0008Z" fill="#263238"/>
<path d="M65.4153 60.4223C66.0449 57.1978 67.6362 53.2098 69.9813 50.948C69.3638 54.4081 67.7398 57.7779 65.4153 60.4223Z" fill="#263238"/>
<path d="M66.3727 64.5938C67.0023 61.3694 68.5936 57.3814 70.9387 55.1196C70.321 58.5797 68.697 61.9497 66.3727 64.5938Z" fill="#263238"/>
<path d="M67.1357 69.7153C67.7653 66.4908 69.3566 62.5028 71.7017 60.241C71.084 63.7012 69.46 67.071 67.1357 69.7153Z" fill="#263238"/>
<path d="M63.9692 54.8751C63.9709 54.8746 63.9776 54.891 63.9891 54.9233C64.002 54.9613 64.018 55.0088 64.038 55.0676C64.0812 55.2024 64.1407 55.3889 64.2162 55.6254C64.3708 56.1099 64.58 56.8158 64.8247 57.6916C65.0712 58.5671 65.3421 59.616 65.6218 60.7856C65.8963 61.9564 66.1759 63.249 66.4341 64.6127C66.689 65.9776 66.8971 67.2839 67.0666 68.4747C67.2312 69.6661 67.359 70.742 67.4477 71.647C67.5378 72.5521 67.5994 73.2855 67.6316 73.7931C67.6472 74.0407 67.6594 74.2361 67.6684 74.3775C67.6711 74.4396 67.6735 74.4895 67.6754 74.5297C67.6765 74.564 67.6761 74.5817 67.6744 74.5819C67.6727 74.582 67.6696 74.5647 67.6651 74.5306C67.6606 74.4907 67.6551 74.441 67.6481 74.3792C67.6347 74.2384 67.6161 74.0435 67.5925 73.7965C67.5485 73.2901 67.4761 72.5581 67.377 71.6548C67.2793 70.7513 67.1443 69.6775 66.9749 68.4879C66.8006 67.299 66.5898 65.9948 66.3354 64.6315C66.0776 63.2692 65.801 61.9777 65.5316 60.8069C65.2573 59.6373 64.9938 58.5878 64.7563 57.7106C64.5204 56.833 64.3218 56.1245 64.1788 55.6367C64.1109 55.398 64.0574 55.2097 64.0187 55.0736C64.0027 55.0136 63.9898 54.9653 63.9795 54.9264C63.9709 54.8929 63.9675 54.8756 63.9692 54.8751Z" fill="#263238"/>
<path d="M68.5681 72.5992C67.4775 70.3147 66.6839 67.1031 67.2195 64.5958C68.4295 67.0196 68.909 69.8663 68.5681 72.5992Z" fill="#455A64"/>
<path d="M70.3762 69.6404C69.2855 67.3559 68.4919 64.1443 69.0275 61.6371C70.2375 64.0607 70.7172 66.9075 70.3762 69.6404Z" fill="#455A64"/>
<path d="M72.0083 66.6326C70.9176 64.3481 70.124 61.1365 70.6596 58.6293C71.8695 61.0531 72.3492 63.8997 72.0083 66.6326Z" fill="#455A64"/>
<path d="M73.6078 63.3905C72.7965 60.9724 72.3895 57.6763 73.2173 55.2649C74.1303 57.838 74.2691 60.7281 73.6078 63.3905Z" fill="#455A64"/>
<path d="M74.6509 60.7324C74.7306 58.1598 75.4872 54.9377 77.0847 53.0381C77.046 55.7958 76.1804 58.5327 74.6509 60.7324Z" fill="#455A64"/>
<path d="M74.1688 62.0094C76.0608 60.2238 78.9384 58.4512 81.5246 58.2192C79.5326 60.1662 76.9162 61.5142 74.1688 62.0094Z" fill="#455A64"/>
<path d="M72.8936 64.7146C75.0141 63.0345 78.1645 61.4571 80.8879 61.4509C78.6501 63.2894 75.8065 64.4502 72.8936 64.7146Z" fill="#455A64"/>
<path d="M71.3005 67.9783C73.4211 66.2982 76.5714 64.7208 79.2949 64.7146C77.057 66.5531 74.2135 67.7139 71.3005 67.9783Z" fill="#455A64"/>
<path d="M69.0793 71.734C71.1999 70.0539 74.3503 68.4765 77.0737 68.4703C74.8358 70.3088 71.9923 71.4696 69.0793 71.734Z" fill="#455A64"/>
<path d="M74.899 60.2675C74.9005 60.268 74.8964 60.2825 74.8871 60.31C74.8752 60.3427 74.8608 60.3824 74.8432 60.4311C74.7997 60.5443 74.7406 60.6987 74.6657 60.8936C74.5113 61.2951 74.2751 61.8713 73.9722 62.5784C73.3668 63.9925 72.4703 65.922 71.3563 67.9893C70.7976 69.0222 70.2386 69.9916 69.7145 70.8636C69.1858 71.7329 68.6961 72.5072 68.2691 73.1471C67.8439 73.7881 67.4909 74.301 67.2395 74.6498C67.1172 74.8191 67.0205 74.9531 66.9495 75.0513C66.9183 75.0927 66.8931 75.1264 66.8721 75.1543C66.8542 75.1772 66.8444 75.1885 66.843 75.1875C66.8416 75.1865 66.8488 75.1734 66.864 75.1486C66.8827 75.1194 66.9056 75.0838 66.9336 75.0401C67.0011 74.9393 67.0927 74.8021 67.2088 74.6285C67.4509 74.2732 67.795 73.7549 68.2125 73.1097C68.6318 72.4658 69.1151 71.6885 69.639 70.8178C70.1583 69.9444 70.714 68.9752 71.2722 67.9436C72.3847 65.8792 73.2896 63.9569 73.9103 62.551C74.2209 61.848 74.4664 61.2763 74.6313 60.8793C74.713 60.6874 74.7779 60.5353 74.8253 60.4237C74.8465 60.3764 74.8639 60.3379 74.8782 60.3061C74.8904 60.2801 74.8974 60.267 74.899 60.2675Z" fill="#263238"/>
<path d="M73.7629 72.8759H62.9248V74.9648H64.0385L64.9764 80.9222H71.6758L72.6404 74.9648H73.7629V72.8759Z" fill="#D66D11"/>
<path d="M73.7597 74.9211C73.7597 74.8933 71.3509 74.8707 68.3801 74.8707C65.4083 74.8707 62.9999 74.8933 62.9999 74.9211C62.9999 74.949 65.4083 74.9715 68.3801 74.9715C71.3509 74.9715 73.7597 74.949 73.7597 74.9211Z" fill="#263238"/>
<path d="M74.0187 9.95902V43.9706C74.0187 45.0677 73.1293 45.9571 72.0323 45.9571H21.4937C20.3967 45.9571 19.5073 45.0677 19.5073 43.9706V9.95902C19.5073 8.86184 20.3967 7.9726 21.4937 7.9726H72.0319C73.1293 7.97242 74.0187 8.86201 74.0187 9.95902Z" fill="#E0E0E0"/>
<path d="M74.0178 9.95914C74.0178 9.95914 74.0142 9.91941 74.0096 9.84132C74.007 9.76323 73.9924 9.64627 73.9566 9.49612C73.9239 9.34493 73.8541 9.16347 73.7413 8.96481C73.6264 8.7677 73.4559 8.55717 73.2141 8.37709C73.0957 8.28352 72.9537 8.20887 72.8013 8.13835C72.6442 8.07953 72.4753 8.02139 72.2901 8.00264C72.1064 7.97856 71.9105 7.98475 71.7065 7.98475C71.5025 7.9851 71.2899 7.98544 71.0689 7.98579C70.1845 7.98699 69.1643 7.98837 68.0157 7.98991C63.4206 7.99335 56.7728 7.99817 48.5586 8.00419C44.4512 8.00591 39.952 8.00763 35.1223 8.00969C32.7074 8.01038 30.2098 8.01107 27.637 8.01193C26.3506 8.01227 25.0455 8.01262 23.7226 8.01296C23.0611 8.01313 22.3951 8.01331 21.725 8.01348C21.5565 8.01348 21.3903 8.01004 21.2281 8.03377C21.064 8.05166 20.9056 8.10223 20.7517 8.16071C20.4479 8.28885 20.1729 8.49233 19.9679 8.75411C19.7628 9.01538 19.6206 9.32876 19.5733 9.66021C19.5439 9.82481 19.5492 9.9932 19.548 10.1655L19.5482 10.6802C19.5484 11.3673 19.5485 12.0586 19.5485 12.7538C19.5487 14.1442 19.549 15.5505 19.5492 16.9719C19.5496 19.8146 19.5499 22.7171 19.5502 25.6719C19.5506 31.5814 19.5508 37.7 19.5511 43.9666C19.5556 44.1582 19.5793 44.3492 19.6344 44.5327C19.6925 44.7148 19.773 44.8894 19.8781 45.049C19.9864 45.2064 20.1154 45.3487 20.2611 45.4718C20.4099 45.5913 20.5749 45.689 20.7494 45.7645C20.9259 45.837 21.1122 45.8803 21.3009 45.9028C21.4887 45.9166 21.6853 45.9116 21.879 45.9125C22.2672 45.9125 22.6547 45.9125 23.0417 45.9125C24.5893 45.9125 26.1268 45.9126 27.6532 45.9126C30.7057 45.9128 33.7136 45.9132 36.6691 45.9133C42.58 45.9142 48.2815 45.9151 53.7129 45.9159C59.1443 45.9173 64.3053 45.9188 69.1356 45.92C69.7393 45.9202 70.3381 45.9204 70.9313 45.9207C71.228 45.9209 71.5233 45.9209 71.8173 45.9211C71.9652 45.9226 72.1105 45.9216 72.2526 45.9078C72.395 45.8891 72.5361 45.8605 72.6707 45.8119C73.2122 45.6258 73.6573 45.1937 73.8525 44.6658C73.9556 44.4027 73.9874 44.1235 73.9826 43.8414C73.9827 43.5583 73.9827 43.2767 73.9829 42.9964C73.984 40.7544 73.985 38.6028 73.9858 36.5491C73.9919 28.3349 73.9967 21.6876 74.0001 17.093C74.0037 14.7966 74.0067 13.0133 74.0085 11.8033C74.0104 11.1993 74.012 10.7385 74.013 10.4277C74.0147 10.1179 74.0178 9.95914 74.0178 9.95914C74.0178 9.95914 74.0209 10.1179 74.0225 10.4278C74.0235 10.7385 74.0249 11.1994 74.027 11.8035C74.0288 13.0135 74.0318 14.7968 74.0354 17.0932C74.0388 21.6878 74.0436 28.3349 74.0497 36.5493C74.0505 38.603 74.0515 40.7547 74.0526 42.9966C74.0528 43.2767 74.0527 43.5585 74.0529 43.8416C74.0583 44.1245 74.0254 44.4202 73.9188 44.6911C73.7167 45.2381 73.2562 45.6863 72.6946 45.8798C72.5551 45.9304 72.4088 45.9601 72.261 45.9795C72.1121 45.994 71.9635 45.995 71.8174 45.9937C71.5235 45.9938 71.2282 45.9938 70.9315 45.994C70.3382 45.9942 69.7395 45.9943 69.1358 45.9947C64.3055 45.9961 59.1445 45.9974 53.7131 45.9988C48.2816 45.9997 42.5802 46.0005 36.6692 46.0014C33.7138 46.0016 30.706 46.0019 27.6533 46.0021C26.127 46.0021 24.5895 46.0023 23.0419 46.0023C22.6549 46.0023 22.2673 46.0023 21.8791 46.0023C21.6846 46.0012 21.4925 46.0067 21.2923 45.9921C21.095 45.9687 20.8998 45.9231 20.7154 45.8475C20.5325 45.7685 20.36 45.6662 20.2044 45.5411C20.052 45.4125 19.9171 45.2637 19.8038 45.0989C19.6937 44.9319 19.6092 44.7492 19.5487 44.5585C19.4911 44.3665 19.4661 44.1665 19.4617 43.9665C19.462 37.6998 19.4624 31.5813 19.4625 25.6717C19.4629 22.7169 19.4632 19.8144 19.4636 16.9718C19.4637 15.5505 19.4641 14.1441 19.4642 12.7536C19.4644 12.0584 19.4644 11.3671 19.4646 10.68L19.4648 10.1654C19.466 9.99595 19.4606 9.81965 19.4913 9.64748C19.5408 9.30176 19.6892 8.97496 19.903 8.70268C20.1168 8.43006 20.4035 8.21799 20.7202 8.08469C20.8807 8.02345 21.046 7.97117 21.2169 7.95242C21.3876 7.92782 21.5589 7.93161 21.7248 7.93161C22.3951 7.93178 23.0611 7.93195 23.7225 7.93212C25.0453 7.93247 26.3504 7.93281 27.6368 7.93315C30.2096 7.93401 32.7072 7.9347 35.1221 7.93539C39.9519 7.93745 44.4509 7.93917 48.5584 7.94089C56.7726 7.94691 63.4204 7.95173 68.0156 7.95517C69.164 7.95672 70.1843 7.95809 71.0687 7.9593C71.2897 7.95964 71.5023 7.95999 71.7063 7.96033C71.9098 7.96102 72.1062 7.95534 72.2928 7.98045C72.4802 8.00023 72.6508 8.05975 72.809 8.11977C72.9626 8.1915 73.1057 8.26769 73.2247 8.36264C73.4678 8.54547 73.6384 8.75858 73.7528 8.95793C73.8651 9.15865 73.9339 9.34183 73.9652 9.49405C73.9996 9.64524 74.0127 9.76272 74.0139 9.84115C74.0173 9.91958 74.0178 9.95914 74.0178 9.95914Z" fill="#263238"/>
<path d="M23.4012 9.31026L23.4012 44.8993H68.9247V9.31026H23.4012Z" fill="#455A64"/>
<path d="M71.2841 28.2658C72.089 28.2658 72.7416 27.6132 72.7416 26.8082C72.7416 26.0033 72.089 25.3507 71.2841 25.3507C70.4791 25.3507 69.8265 26.0033 69.8265 26.8082C69.8265 27.6132 70.4791 28.2658 71.2841 28.2658Z" fill="#263238"/>
<path d="M21.6795 21.4519V32.4743C21.6795 32.5898 21.5859 32.6833 21.4705 32.6833H21.2865C21.1711 32.6833 21.0775 32.5898 21.0775 32.4743V21.4519C21.0775 21.3365 21.1711 21.2429 21.2865 21.2429H21.4705C21.5859 21.2429 21.6795 21.3365 21.6795 21.4519Z" fill="#263238"/>
<path d="M27.664 9.18591H23.4003V44.8976H27.664V9.18591Z" fill="#64818E"/>
<path d="M27.8496 28.275H23.8075C23.5826 28.275 23.4003 28.0926 23.4003 27.8678V25.1315C23.4003 24.9067 23.5826 24.7244 23.8075 24.7244H27.8496V28.275Z" fill="white"/>
<path d="M25.5296 14.3245C25.1003 14.3245 24.7521 13.9752 24.7521 13.5444C24.7521 13.1135 25.1003 12.7642 25.5296 12.7642C25.9589 12.7642 26.307 13.1135 26.307 13.5444C26.307 13.9752 25.9589 14.3245 25.5296 14.3245Z" fill="white"/>
<path d="M26.1764 17.1229C26.1764 17.1477 25.8625 17.1677 25.4754 17.1677C25.088 17.1677 24.7743 17.1475 24.7743 17.1229C24.7743 17.0982 25.0882 17.0782 25.4754 17.0782C25.8624 17.0782 26.1764 17.0982 26.1764 17.1229Z" fill="white"/>
<path d="M26.3011 21.0754C26.3011 21.1002 25.9872 21.1201 25.6 21.1201C25.2127 21.1201 24.8989 21.1 24.8989 21.0754C24.8989 21.0508 25.2128 21.0307 25.6 21.0307C25.9872 21.0307 26.3011 21.0506 26.3011 21.0754Z" fill="white"/>
<path d="M26.3011 31.1272C26.3011 31.152 25.9872 31.1719 25.6 31.1719C25.2127 31.1719 24.8989 31.1518 24.8989 31.1272C24.8989 31.1024 25.2128 31.0825 25.6 31.0825C25.9872 31.0825 26.3011 31.1024 26.3011 31.1272Z" fill="white"/>
<path d="M26.3006 36.3111C26.3006 36.3359 25.9867 36.3559 25.5995 36.3559C25.2122 36.3559 24.8984 36.3357 24.8984 36.3111C24.8984 36.2864 25.2123 36.2664 25.5995 36.2664C25.9867 36.2664 26.3006 36.2865 26.3006 36.3111Z" fill="white"/>
<path d="M26.3006 26.5511C26.3006 26.5758 25.9867 26.596 25.5995 26.596C25.2122 26.596 24.8984 26.5758 24.8984 26.5511C24.8984 26.5263 25.2123 26.5063 25.5995 26.5063C25.9867 26.5063 26.3006 26.5265 26.3006 26.5511Z" fill="#263238"/>
<path d="M68.921 44.8974C68.9207 44.5888 68.9062 30.7282 68.8839 9.18568L68.921 9.22283C55.9421 9.22507 40.2718 9.22765 23.4014 9.23057H23.3974L23.4422 9.18585C23.4404 22.0656 23.4389 34.2442 23.4375 44.8974L23.3973 44.8573C50.4267 44.881 68.5683 44.897 68.921 44.8974C68.5686 44.8977 50.4269 44.9137 23.3976 44.9376H23.3574V44.8974C23.356 34.2442 23.3544 22.0656 23.3527 9.18585V9.14096H23.3974H23.4014C40.2718 9.14388 55.9421 9.14646 68.921 9.1487H68.9582V9.18585C68.9356 30.7282 68.9214 44.589 68.921 44.8974Z" fill="#263238"/>
<path d="M55.0701 38.5812H54.4568V40.6354H55.0701V38.5812Z" fill="#D66D11"/>
<path d="M49.9471 38.2845H49.3337V40.6365H49.9471V38.2845Z" fill="#D66D11"/>
<path d="M51.2286 37.7936H50.6152V40.6357H51.2286V37.7936Z" fill="#D66D11"/>
<path d="M52.5071 37.9493H51.8938V40.6356H52.5071V37.9493Z" fill="#D66D11"/>
<path d="M53.7886 37.0404H53.1753V40.6354H53.7886V37.0404Z" fill="#D66D11"/>
<path d="M56.3487 37.058H55.7354V40.6354H56.3487V37.058Z" fill="#D66D11"/>
<path d="M57.63 38.233H57.0168V40.6355H57.63V38.233Z" fill="#D66D11"/>
<path d="M58.9117 37.2159H58.2983V40.6358H58.9117V37.2159Z" fill="#D66D11"/>
<path d="M60.1905 36.4457H59.5771V40.6359H60.1905V36.4457Z" fill="#D66D11"/>
<path d="M61.4718 37.1976H60.8584V40.6351H61.4718V37.1976Z" fill="#D66D11"/>
<path d="M62.7486 43.1832H47.6639C46.9772 43.1832 46.4186 42.6246 46.4186 41.9379V32.9193C46.4186 32.2327 46.9772 31.674 47.6639 31.674H62.7486C63.4352 31.674 63.9939 32.2327 63.9939 32.9193V41.9379C63.9941 42.6246 63.4352 43.1832 62.7486 43.1832ZM47.6639 31.797C47.045 31.797 46.5416 32.3004 46.5416 32.9193V41.9379C46.5416 42.5568 47.045 43.0602 47.6639 43.0602H62.7486C63.3675 43.0602 63.8709 42.5568 63.8709 41.9379V32.9193C63.8709 32.3004 63.3675 31.797 62.7486 31.797H47.6639Z" fill="#E0E0E0"/>
<path d="M56.2508 34.6725C56.2508 34.6902 54.5059 34.7045 52.3538 34.7045C50.2011 34.7045 48.4565 34.6902 48.4565 34.6725C48.4565 34.6548 50.2011 34.6405 52.3538 34.6405C54.5059 34.6403 56.2508 34.6548 56.2508 34.6725Z" fill="#E0E0E0"/>
<path d="M31.115 31.775V42.9135H32.4626H34.318H42.9673V31.775H31.115Z" fill="#39444A"/>
<path d="M36.9947 33.0374C34.9749 33.0374 33.3376 34.6747 33.3376 36.6945C33.3376 38.7141 34.9749 40.3516 36.9947 40.3516C39.0143 40.3516 40.6518 38.7143 40.6518 36.6945C40.6518 34.6747 39.0143 33.0374 36.9947 33.0374ZM37.0499 38.8858C35.8093 38.8858 34.8034 37.8799 34.8034 36.6393C34.8034 35.3987 35.8093 34.3928 37.0499 34.3928C38.2906 34.3928 39.2964 35.3987 39.2964 36.6393C39.2964 37.8799 38.2906 38.8858 37.0499 38.8858Z" fill="white"/>
<path d="M37.05 33.0398C37.05 33.4289 37.0499 33.9536 37.0497 34.3938C38.2901 34.3941 39.2957 35.3998 39.2957 36.6403C39.2957 36.8778 39.2585 37.1066 39.1902 37.3214L40.5157 37.6809C40.6032 37.3673 40.651 37.0371 40.651 36.6955C40.651 34.6944 39.0437 33.0699 37.05 33.0398Z" fill="#D66D11"/>
<path d="M34.8042 36.6389C34.8042 35.724 35.3514 34.9376 36.1359 34.5873L35.5734 33.3239C34.2602 33.8788 33.3386 35.1788 33.3386 36.6941C33.3386 36.7455 33.3403 36.7966 33.3426 36.8475H34.8144C34.8078 36.7787 34.8042 36.7092 34.8042 36.6389Z" fill="#68828E"/>
<path d="M37.0454 38.8863C36.8824 38.8863 36.7234 38.8684 36.5702 38.8354C36.5138 39.1613 36.4069 39.7929 36.3232 40.2902C36.5396 40.3301 36.7623 40.3519 36.9904 40.3519C38.6684 40.3519 40.0816 39.2212 40.5119 37.6804L39.1865 37.3209C38.8978 38.2286 38.0485 38.8863 37.0454 38.8863Z" fill="#D66D11"/>
<g opacity="0.3">
<path d="M37.0454 38.8863C36.8824 38.8863 36.7234 38.8684 36.5702 38.8354C36.5138 39.1613 36.4069 39.7929 36.3232 40.2902C36.5396 40.3301 36.7623 40.3519 36.9904 40.3519C38.6684 40.3519 40.0816 39.2212 40.5119 37.6804L39.1865 37.3209C38.8978 38.2286 38.0485 38.8863 37.0454 38.8863Z" fill="black" fill-opacity="0.66"/>
</g>
<path d="M36.5563 36.8211H36.4209V36.9957H36.2334V36.8211H35.7859V36.6917L36.1777 36.1646H36.3796L36.0164 36.6644H36.2396V36.5089H36.4213V36.6644H36.5566V36.8211H36.5563Z" fill="white"/>
<path d="M36.6154 36.5805C36.6154 36.3063 36.7674 36.1506 36.9716 36.1506C37.1769 36.1506 37.3278 36.3061 37.3278 36.5805C37.3278 36.8548 37.1769 37.0103 36.9716 37.0103C36.7674 37.0103 36.6154 36.8546 36.6154 36.5805ZM37.1343 36.5805C37.1343 36.3918 37.0677 36.3133 36.9716 36.3133C36.8766 36.3133 36.8101 36.3918 36.8101 36.5805C36.8101 36.7693 36.8766 36.8476 36.9716 36.8476C37.0677 36.8476 37.1343 36.7691 37.1343 36.5805Z" fill="white"/>
<path d="M37.4062 36.3841C37.4062 36.2441 37.4917 36.155 37.6128 36.155C37.7339 36.155 37.8182 36.2429 37.8182 36.3841C37.8182 36.5255 37.7339 36.6132 37.6128 36.6132C37.4917 36.6132 37.4062 36.5243 37.4062 36.3841ZM37.6997 36.3841C37.6997 36.295 37.6651 36.2524 37.613 36.2524C37.5619 36.2524 37.5263 36.2962 37.5263 36.3841C37.5263 36.472 37.5619 36.5159 37.613 36.5159C37.6651 36.5159 37.6997 36.4732 37.6997 36.3841ZM38.108 36.1645H38.2492L37.6818 36.9956H37.5404L38.108 36.1645ZM37.9714 36.7759C37.9714 36.6358 38.0569 36.5468 38.1768 36.5468C38.2979 36.5468 38.3834 36.6358 38.3834 36.7759C38.3834 36.916 38.2979 37.0051 38.1768 37.0051C38.0569 37.0051 37.9714 36.916 37.9714 36.7759ZM38.2635 36.7759C38.2635 36.6881 38.2291 36.6442 38.1768 36.6442C38.1257 36.6442 38.0901 36.687 38.0901 36.7759C38.0901 36.865 38.1257 36.9077 38.1768 36.9077C38.2291 36.9077 38.2635 36.8638 38.2635 36.7759Z" fill="white"/>
<path d="M40.0094 41.2728C40.0094 41.2919 38.6545 41.3076 36.9834 41.3076C35.3119 41.3076 33.9572 41.2921 33.9572 41.2728C33.9572 41.2537 35.3119 41.2381 36.9834 41.2381C38.6545 41.2381 40.0094 41.2537 40.0094 41.2728Z" fill="white"/>
<path d="M38.6642 41.8306C38.6642 41.8497 37.9127 41.8653 36.9858 41.8653C36.0587 41.8653 35.3074 41.8498 35.3074 41.8306C35.3074 41.8113 36.0587 41.7958 36.9858 41.7958C37.9127 41.7958 38.6642 41.8113 38.6642 41.8306Z" fill="white"/>
<path d="M66.4048 15.4496C66.4048 15.4496 66.3452 15.4523 66.228 15.4537C66.1078 15.4545 65.9346 15.4559 65.7077 15.4576C65.2464 15.4594 64.5706 15.4619 63.697 15.4652C61.9425 15.4683 59.3967 15.4729 56.2178 15.4786C49.8533 15.4826 40.9554 15.4879 30.8093 15.4943L30.8715 15.4496C30.8719 17.4463 30.8724 19.517 30.8727 21.6362C30.8722 23.8199 30.8719 25.952 30.8715 28.0107L30.8094 27.966C40.8916 27.9722 49.7251 27.9777 56.0413 27.9816C59.196 27.9873 61.7215 27.9918 63.4619 27.9951C64.3285 27.9983 64.9987 28.0009 65.4563 28.0026C65.6811 28.0044 65.8531 28.0057 65.9723 28.0066C66.0882 28.008 66.1475 28.0107 66.1475 28.0107C66.1475 28.0107 66.0882 28.0135 65.9723 28.0148C65.8531 28.0157 65.6812 28.0171 65.4563 28.0188C64.9987 28.0205 64.3285 28.0231 63.4619 28.0264C61.7215 28.0295 59.196 28.0339 56.0413 28.0396C49.7251 28.0436 40.8916 28.0491 30.8094 28.0553H30.7472V28.0105C30.7468 25.9517 30.7463 23.8196 30.746 21.6361C30.7463 19.5168 30.7468 17.4461 30.7472 15.4494V15.4047H30.8094C40.9555 15.4109 49.8535 15.4164 56.218 15.4203C59.3969 15.426 61.9425 15.4305 63.6972 15.4337C64.5708 15.437 65.2466 15.4396 65.7079 15.4413C65.9346 15.443 66.108 15.4444 66.2282 15.4453C66.3452 15.4468 66.4048 15.4496 66.4048 15.4496Z" fill="#E0E0E0"/>
<path d="M66.4037 17.5642C66.4037 17.5893 58.4348 17.6098 48.6068 17.6098C38.7755 17.6098 30.8083 17.5893 30.8083 17.5642C30.8083 17.5391 38.7755 17.5186 48.6068 17.5186C58.4348 17.5186 66.4037 17.5389 66.4037 17.5642Z" fill="#E0E0E0"/>
<path d="M66.4037 19.2951C66.4037 19.3202 58.4348 19.3407 48.6068 19.3407C38.7755 19.3407 30.8083 19.3202 30.8083 19.2951C30.8083 19.27 38.7755 19.2495 48.6068 19.2495C58.4348 19.2495 66.4037 19.27 66.4037 19.2951Z" fill="#E0E0E0"/>
<path d="M66.4037 21.0244C66.4037 21.0495 58.4348 21.07 48.6068 21.07C38.7755 21.07 30.8083 21.0495 30.8083 21.0244C30.8083 20.9993 38.7755 20.9788 48.6068 20.9788C58.4348 20.9788 66.4037 20.9993 66.4037 21.0244Z" fill="#E0E0E0"/>
<path d="M66.4037 22.7554C66.4037 22.7805 58.4348 22.8009 48.6068 22.8009C38.7755 22.8009 30.8083 22.7805 30.8083 22.7554C30.8083 22.7302 38.7755 22.7098 48.6068 22.7098C58.4348 22.7098 66.4037 22.7302 66.4037 22.7554Z" fill="#E0E0E0"/>
<path d="M66.4037 24.4853C66.4037 24.5104 58.4348 24.5309 48.6068 24.5309C38.7755 24.5309 30.8083 24.5104 30.8083 24.4853C30.8083 24.4602 38.7755 24.4397 48.6068 24.4397C58.4348 24.4397 66.4037 24.4602 66.4037 24.4853Z" fill="#E0E0E0"/>
<path d="M30.8083 26.2152C30.8083 26.1901 38.7772 26.1696 48.6051 26.1696C58.4365 26.1696 66.4037 26.1901 66.4037 26.2152C66.4037 26.2403 58.4365 26.2608 48.6051 26.2608C38.7772 26.2608 30.8083 26.2403 30.8083 26.2152Z" fill="#E0E0E0"/>
<path d="M35.8548 28.2023C35.8297 28.2023 35.8092 25.3475 35.8092 21.8265C35.8092 18.3043 35.8297 15.4499 35.8548 15.4499C35.8799 15.4499 35.9004 18.3043 35.9004 21.8265C35.9004 25.3475 35.8801 28.2023 35.8548 28.2023Z" fill="#E0E0E0"/>
<path d="M40.9791 28.2023C40.954 28.2023 40.9335 25.3475 40.9335 21.8265C40.9335 18.3043 40.954 15.4499 40.9791 15.4499C41.0042 15.4499 41.0247 18.3043 41.0247 21.8265C41.0247 25.3475 41.0042 28.2023 40.9791 28.2023Z" fill="#E0E0E0"/>
<path d="M46.1047 28.2023C46.0795 28.2023 46.0591 25.3475 46.0591 21.8265C46.0591 18.3043 46.0795 15.4499 46.1047 15.4499C46.1298 15.4499 46.1502 18.3043 46.1502 21.8265C46.1502 25.3475 46.1298 28.2023 46.1047 28.2023Z" fill="#E0E0E0"/>
<path d="M51.233 28.202C51.2078 28.202 51.1874 25.3472 51.1874 21.8262C51.1874 18.304 51.2078 15.4496 51.233 15.4496C51.2581 15.4496 51.2785 18.304 51.2785 21.8262C51.2785 25.3472 51.2582 28.202 51.233 28.202Z" fill="#E0E0E0"/>
<path d="M56.3582 28.202C56.3329 28.202 56.3126 25.3472 56.3126 21.8262C56.3126 18.304 56.3331 15.4496 56.3582 15.4496C56.3833 15.4496 56.4038 18.304 56.4038 21.8262C56.4038 25.3472 56.3833 28.202 56.3582 28.202Z" fill="#E0E0E0"/>
<path d="M61.3237 28.2023C61.2986 28.2023 61.2781 25.3475 61.2781 21.8265C61.2781 18.3043 61.2986 15.4499 61.3237 15.4499C61.3488 15.4499 61.3693 18.3043 61.3693 21.8265C61.3693 25.3475 61.3488 28.2023 61.3237 28.2023Z" fill="#E0E0E0"/>
<path d="M66.4479 28.2023C66.4228 28.2023 66.4023 25.3475 66.4023 21.8265C66.4023 18.3043 66.4228 15.4499 66.4479 15.4499C66.473 15.4499 66.4934 18.3043 66.4934 21.8265C66.4936 25.3475 66.4731 28.2023 66.4479 28.2023Z" fill="#E0E0E0"/>
<path d="M36.1639 26.2154C36.1639 26.3878 36.0243 26.5275 35.8519 26.5275C35.6796 26.5275 35.5399 26.3878 35.5399 26.2154C35.5399 26.0431 35.6796 25.9034 35.8519 25.9034C36.0241 25.9033 36.1639 26.0431 36.1639 26.2154Z" fill="#D66D11"/>
<path d="M41.2917 22.7547C41.2917 22.927 41.1521 23.0667 40.9797 23.0667C40.8074 23.0667 40.6677 22.927 40.6677 22.7547C40.6677 22.5824 40.8074 22.4427 40.9797 22.4427C41.1521 22.4427 41.2917 22.5824 41.2917 22.7547Z" fill="#D66D11"/>
<path d="M46.4171 24.4554C46.4171 24.6277 46.2774 24.7674 46.1051 24.7674C45.9328 24.7674 45.7931 24.6277 45.7931 24.4554C45.7931 24.283 45.9328 24.1434 46.1051 24.1434C46.2774 24.1432 46.4171 24.283 46.4171 24.4554Z" fill="#D66D11"/>
<path d="M51.512 20.811C51.7666 21.145 51.3888 21.5227 51.0548 21.2681C50.8006 20.9343 51.178 20.5568 51.512 20.811Z" fill="#D66D11"/>
<path d="M56.6975 20.811C56.9521 21.145 56.5743 21.5227 56.2403 21.2681C55.9859 20.9343 56.3635 20.5568 56.6975 20.811Z" fill="#D66D11"/>
<path d="M61.5494 24.2081C61.8039 24.5421 61.4262 24.9199 61.0922 24.6653C60.838 24.3314 61.2153 23.9539 61.5494 24.2081Z" fill="#D66D11"/>
<path d="M41.2917 19.2951C41.2917 19.4674 41.1521 19.6071 40.9797 19.6071C40.8074 19.6071 40.6677 19.4674 40.6677 19.2951C40.6677 19.1228 40.8074 18.9831 40.9797 18.9831C41.1521 18.9831 41.2917 19.1228 41.2917 19.2951Z" fill="#455A64"/>
<path d="M36.1639 24.4853C36.1639 24.6577 36.0243 24.7974 35.8519 24.7974C35.6796 24.7974 35.5399 24.6577 35.5399 24.4853C35.5399 24.313 35.6796 24.1733 35.8519 24.1733C36.0241 24.1733 36.1639 24.313 36.1639 24.4853Z" fill="#455A64"/>
<path d="M61.5495 25.987C61.8039 26.321 61.4265 26.6985 61.0923 26.4443C60.8378 26.1101 61.2155 25.7324 61.5495 25.987Z" fill="#455A64"/>
<path d="M56.6726 22.7547C56.6726 22.927 56.5329 23.0667 56.3606 23.0667C56.1883 23.0667 56.0486 22.927 56.0486 22.7547C56.0486 22.5824 56.1883 22.4427 56.3606 22.4427C56.5329 22.4427 56.6726 22.5824 56.6726 22.7547Z" fill="#455A64"/>
<path d="M51.5954 22.7097C51.5954 22.8821 51.4558 23.0217 51.2834 23.0217C51.1111 23.0217 50.9714 22.8821 50.9714 22.7097C50.9714 22.5374 51.1111 22.3977 51.2834 22.3977C51.4556 22.3977 51.5954 22.5374 51.5954 22.7097Z" fill="#455A64"/>
<path d="M33.7118 29.4426C33.7118 29.4677 33.4908 29.4881 33.2182 29.4881C32.9456 29.4881 32.7245 29.4677 32.7245 29.4426C32.7245 29.4174 32.9456 29.397 33.2182 29.397C33.4908 29.397 33.7118 29.4174 33.7118 29.4426Z" fill="#E0E0E0"/>
<path d="M38.9534 29.4426C38.9534 29.4677 38.7324 29.4881 38.4598 29.4881C38.1871 29.4881 37.9661 29.4677 37.9661 29.4426C37.9661 29.4174 38.1871 29.397 38.4598 29.397C38.7324 29.397 38.9534 29.4174 38.9534 29.4426Z" fill="#E0E0E0"/>
<path d="M44.1909 29.4426C44.1909 29.4677 43.9699 29.4881 43.6973 29.4881C43.4246 29.4881 43.2036 29.4677 43.2036 29.4426C43.2036 29.4174 43.4246 29.397 43.6973 29.397C43.9699 29.397 44.1909 29.4174 44.1909 29.4426Z" fill="#E0E0E0"/>
<path d="M49.4323 29.4426C49.4323 29.4677 49.2113 29.4881 48.9386 29.4881C48.666 29.4881 48.445 29.4677 48.445 29.4426C48.445 29.4174 48.666 29.397 48.9386 29.397C49.2113 29.397 49.4323 29.4174 49.4323 29.4426Z" fill="#E0E0E0"/>
<path d="M54.6725 29.4426C54.6725 29.4677 54.4514 29.4881 54.1788 29.4881C53.9062 29.4881 53.6852 29.4677 53.6852 29.4426C53.6852 29.4174 53.9062 29.397 54.1788 29.397C54.4516 29.397 54.6725 29.4174 54.6725 29.4426Z" fill="#E0E0E0"/>
<path d="M59.3564 29.443C59.3564 29.4682 59.1354 29.4886 58.8628 29.4886C58.5902 29.4886 58.3691 29.4682 58.3691 29.443C58.3691 29.4179 58.5902 29.3975 58.8628 29.3975C59.1356 29.3975 59.3564 29.4179 59.3564 29.443Z" fill="#E0E0E0"/>
<path d="M64.0431 29.4426C64.0431 29.4677 63.822 29.4881 63.5494 29.4881C63.2768 29.4881 63.0558 29.4677 63.0558 29.4426C63.0558 29.4174 63.2768 29.397 63.5494 29.397C63.822 29.397 64.0431 29.4174 64.0431 29.4426Z" fill="#E0E0E0"/>
<path d="M30.0672 27.9411C30.0672 27.9662 29.8886 27.9866 29.6685 27.9866C29.4483 27.9866 29.2698 27.9662 29.2698 27.9411C29.2698 27.9159 29.4483 27.8955 29.6685 27.8955C29.8886 27.8955 30.0672 27.9159 30.0672 27.9411Z" fill="#E0E0E0"/>
<path d="M30.0672 25.9287C30.0672 25.9538 29.8886 25.9742 29.6685 25.9742C29.4483 25.9742 29.2698 25.9538 29.2698 25.9287C29.2698 25.9036 29.4483 25.8831 29.6685 25.8831C29.8886 25.8831 30.0672 25.9036 30.0672 25.9287Z" fill="#E0E0E0"/>
<path d="M30.0672 23.9162C30.0672 23.9414 29.8886 23.9618 29.6685 23.9618C29.4483 23.9618 29.2698 23.9414 29.2698 23.9162C29.2698 23.8911 29.4483 23.8707 29.6685 23.8707C29.8886 23.8707 30.0672 23.891 30.0672 23.9162Z" fill="#E0E0E0"/>
<path d="M30.0672 21.9039C30.0672 21.929 29.8886 21.9494 29.6685 21.9494C29.4483 21.9494 29.2698 21.929 29.2698 21.9039C29.2698 21.8787 29.4483 21.8583 29.6685 21.8583C29.8886 21.8583 30.0672 21.8786 30.0672 21.9039Z" fill="#E0E0E0"/>
<path d="M30.0672 19.8915C30.0672 19.9166 29.8886 19.937 29.6685 19.937C29.4483 19.937 29.2698 19.9166 29.2698 19.8915C29.2698 19.8664 29.4483 19.8459 29.6685 19.8459C29.8886 19.8459 30.0672 19.8662 30.0672 19.8915Z" fill="#E0E0E0"/>
<path d="M30.0672 17.8791C30.0672 17.9042 29.8886 17.9247 29.6685 17.9247C29.4483 17.9247 29.2698 17.9044 29.2698 17.8791C29.2698 17.854 29.4483 17.8335 29.6685 17.8335C29.8886 17.8335 30.0672 17.8538 30.0672 17.8791Z" fill="#E0E0E0"/>
<path d="M30.067 15.8667C30.067 15.8918 29.8885 15.9122 29.6683 15.9122C29.4482 15.9122 29.2697 15.8918 29.2697 15.8667C29.2697 15.8415 29.4482 15.8211 29.6683 15.8211C29.8885 15.8211 30.067 15.8415 30.067 15.8667Z" fill="#E0E0E0"/>
<path d="M30.7738 28.0919L30.7167 27.9297L35.8141 26.1381L40.9665 22.6601L46.0936 24.3608L51.259 20.9539L56.4321 20.9387L56.4544 20.9545L61.3691 24.4267L66.131 21.2801L66.2257 21.4236L61.3659 24.635L61.3181 24.6011L56.3777 21.1109L51.3108 21.1257L46.1188 24.5502L40.9926 22.85L35.8815 26.2967L30.7738 28.0919Z" fill="#D66D11"/>
<path d="M61.3966 26.2525L56.3786 22.8416H51.2071L46.0327 19.4265L41.0154 19.3814L35.8891 24.5717H30.8077V24.3997H35.8172L40.9442 19.2087L46.0851 19.255L51.2589 22.6696H56.4316L61.3391 26.0057L66.2406 17.3928L66.3901 17.4777L61.3966 26.2525Z" fill="#455A64"/>
<path d="M66.35 12.9338C66.35 12.9586 64.4171 12.9785 62.0333 12.9785C59.6487 12.9785 57.7163 12.9584 57.7163 12.9338C57.7163 12.9092 59.6487 12.8891 62.0333 12.8891C64.4171 12.8889 66.35 12.9091 66.35 12.9338Z" fill="white"/>
<path d="M31.0613 12.7485H30.7479V12.5639H31.6012V12.7485H31.2878V13.5431H31.0613V12.7485Z" fill="white"/>
<path d="M32.3473 13.5431L32.1584 13.2703H32.1473H31.9501V13.5431H31.7234V12.5639H32.1473C32.4089 12.5639 32.5726 12.6996 32.5726 12.9191C32.5726 13.066 32.4985 13.1736 32.3712 13.2282L32.5908 13.5429L32.3473 13.5431ZM32.1347 12.7485H31.9501V13.0897H32.1347C32.2732 13.0897 32.3432 13.0254 32.3432 12.9191C32.3432 12.8114 32.2732 12.7485 32.1347 12.7485Z" fill="white"/>
<path d="M33.5088 13.3613V13.5431H32.7507V12.5639H33.4908V12.7457H32.976V12.9583H33.4306V13.1344H32.976V13.3611L33.5088 13.3613Z" fill="white"/>
<path d="M34.5854 12.5639V13.5431H34.3995L33.9111 12.9485V13.5431H33.6874V12.5639H33.8749L34.3616 13.1583V12.5639H34.5854Z" fill="white"/>
<path d="M34.8179 12.5639H35.2627C35.583 12.5639 35.8026 12.7569 35.8026 13.0534C35.8026 13.3499 35.583 13.5431 35.2627 13.5431H34.8179V12.5639ZM35.2517 13.357C35.4461 13.357 35.5735 13.2409 35.5735 13.0534C35.5735 12.8659 35.4462 12.7498 35.2517 12.7498H35.0446V13.357H35.2517Z" fill="white"/>
<path d="M22.5726 35.8515L21.9679 36.6074V35.3066H20.063C20.063 35.3066 19.8514 38.2855 19.8967 38.9205C19.9421 39.5555 20.6526 41.3696 20.6526 41.3696C20.6526 41.3696 21.7261 40.78 22.5726 39.6916C23.4192 38.6032 24.8258 35.9516 24.8258 35.9516L23.3588 35.0655L22.5726 35.8515Z" fill="#FFBE9D"/>
<path d="M22.6914 35.7123C22.7007 35.7209 22.6025 35.8451 22.4425 36.0446C22.282 36.2438 22.0591 36.5183 21.8047 36.8152C21.5498 37.1119 21.3099 37.3733 21.1233 37.5505C20.9379 37.729 20.8068 37.8217 20.7998 37.8128C20.7913 37.8025 20.906 37.6943 21.078 37.5061C21.2514 37.3193 21.4824 37.0527 21.7368 36.7569C22.2406 36.1614 22.6697 35.6924 22.6914 35.7123Z" fill="#EB996E"/>
<path d="M22.6362 30.9816C22.6362 30.9816 22.0934 26.5365 19.9478 26.082L18.8364 30.3547L19.7598 33.4361L22.8233 33.0179L22.6362 30.9816Z" fill="#D66D11"/>
<path d="M8.46075 33.9356L8.56206 34.2531L10.671 40.8598C10.671 40.8598 15.8678 42.8355 17.7352 42.0534C19.6026 41.2714 20.467 40.1601 20.467 40.1601L20.0505 26.0979L17.0872 25.6489L11.9769 25.274L8.55381 26.372L8.46075 33.9356Z" fill="#D66D11"/>
<g opacity="0.3">
<path d="M14.9105 36.5109C12.9922 35.7185 11.1114 34.5147 9.50749 33.1975L8.46069 33.7558C9.24742 35.343 9.90171 36.7921 10.9862 38.1929C11.3513 38.6647 11.8756 39.1306 12.4298 39.3515C13.2201 39.6662 14.2323 39.438 14.8548 38.8582C15.4773 38.2785 15.9441 36.5769 15.7396 35.1884C15.3901 35.2075 15.2341 36.6445 14.9105 36.5109Z" fill="black"/>
</g>
<path d="M20.3431 32.4466C20.3132 32.4507 20.2984 31.7868 19.992 31.0449C19.6936 30.2995 19.2409 29.8139 19.2652 29.796C19.2726 29.789 19.3948 29.8999 19.5588 30.1099C19.7227 30.3193 19.9208 30.6337 20.0751 31.011C20.2282 31.3889 20.3056 31.7522 20.3343 32.0166C20.3635 32.2816 20.3534 32.4466 20.3431 32.4466Z" fill="#263238"/>
<path d="M20.3361 21.9515C20.0633 21.9884 19.7747 21.8595 19.6199 21.6318C19.8046 21.6602 20.0036 21.6863 20.1701 21.6015C20.3366 21.5166 20.4308 21.2715 20.3003 21.1376C20.1985 21.0332 20.0306 21.0513 19.8851 21.0406C19.5462 21.0157 19.2329 20.7752 19.1212 20.4545C18.9981 20.1007 19.1107 19.7149 19.1549 19.3428C19.2834 18.2634 18.7702 17.1316 17.8734 16.517L15.5433 15.1701C14.6983 16.2516 14.4347 17.7093 14.61 19.0705C14.7853 20.4318 15.3627 21.7114 16.0569 22.8955C16.2592 23.2405 16.4745 23.5828 16.76 23.863C17.0454 24.143 17.4095 24.3589 17.8072 24.4003C17.9121 24.0733 17.8453 23.6963 17.6346 23.4252C18.2642 23.4653 18.9066 23.2354 19.3675 22.8045C19.201 22.6769 19.0345 22.5492 18.8682 22.4215C19.3944 22.492 19.9487 22.3146 20.3361 21.9515Z" fill="#263238"/>
<path d="M11.3567 18.15C11.3978 17.1763 12.0041 16.3612 12.9411 16.0934L15.8622 15.2587C17.1298 15.085 18.0237 16.6251 18.1434 17.8991C18.2764 19.3145 18.3762 20.8092 18.2406 21.8725C17.9682 24.0106 16.3459 24.3314 16.3459 24.3314C16.3455 24.3283 16.3744 25.3438 16.3911 25.9652L15.9152 28.7502L12.0636 25.4623L11.3501 18.176C11.3481 18.1397 11.3546 18.1985 11.3567 18.15Z" fill="#FFBE9D"/>
<path d="M17.7699 19.5218C17.7795 19.6658 17.6655 19.7925 17.5152 19.8053C17.3654 19.818 17.2358 19.7119 17.2264 19.5679C17.2169 19.4239 17.331 19.297 17.4808 19.2845C17.6309 19.2717 17.7604 19.378 17.7699 19.5218Z" fill="#263238"/>
<path d="M17.8403 18.744C17.8077 18.7807 17.5961 18.6341 17.3027 18.6439C17.0092 18.6494 16.7984 18.8071 16.7653 18.7722C16.7492 18.7567 16.7817 18.6916 16.8735 18.6203C16.9638 18.5495 17.1193 18.4784 17.3021 18.4736C17.4852 18.469 17.641 18.5316 17.7315 18.5978C17.824 18.6642 17.8565 18.7275 17.8403 18.744Z" fill="#263238"/>
<path d="M15.2172 19.5309C15.2268 19.6748 15.1126 19.8016 14.9626 19.8141C14.8128 19.8267 14.6833 19.7207 14.6738 19.5768C14.6644 19.4328 14.7784 19.3059 14.9282 19.2932C15.0782 19.2806 15.2077 19.3869 15.2172 19.5309Z" fill="#263238"/>
<path d="M15.0598 18.8221C15.027 18.8588 14.8152 18.7122 14.5218 18.722C14.2284 18.7275 14.0175 18.8853 13.9847 18.8503C13.9687 18.8349 14.0007 18.7697 14.0928 18.6985C14.1831 18.6276 14.3386 18.5566 14.5215 18.5516C14.7043 18.5469 14.8603 18.6095 14.951 18.6758C15.0431 18.7423 15.0758 18.8058 15.0598 18.8221Z" fill="#263238"/>
<path d="M16.0532 21.0988C16.0513 21.0822 16.233 21.0452 16.5274 20.9982C16.6021 20.9881 16.6726 20.971 16.6838 20.9196C16.6998 20.8649 16.6659 20.7851 16.6268 20.6989C16.5508 20.5197 16.4712 20.3317 16.3876 20.1348C16.0548 19.3314 15.8112 18.6699 15.8437 18.6568C15.8762 18.6437 16.1724 19.2842 16.5054 20.0877C16.5857 20.2858 16.6625 20.4747 16.7356 20.6554C16.7665 20.7397 16.8183 20.835 16.7835 20.9485C16.7651 21.0051 16.7113 21.0476 16.6637 21.0619C16.616 21.078 16.5739 21.0801 16.5369 21.0835C16.2395 21.1085 16.0548 21.1155 16.0532 21.0988Z" fill="#263238"/>
<path d="M13.5052 23.6547C13.5052 23.6547 14.2395 25.0964 16.3629 24.8318L16.3491 24.3313C16.3491 24.3313 14.9495 24.4634 13.5052 23.6547Z" fill="#EB996E"/>
<path d="M14.9383 17.7636C14.9118 17.8443 14.6175 17.8155 14.2744 17.8677C13.9301 17.9129 13.6554 18.0223 13.6076 17.9521C13.5861 17.9184 13.6322 17.8419 13.7421 17.7612C13.8509 17.6807 14.0264 17.6017 14.2326 17.5723C14.4387 17.5434 14.6291 17.5704 14.7562 17.6176C14.884 17.6645 14.9495 17.7254 14.9383 17.7636Z" fill="#263238"/>
<path d="M17.7196 17.8479C17.6701 17.9162 17.4656 17.8533 17.2224 17.8574C16.9788 17.8531 16.7745 17.916 16.7249 17.8477C16.7031 17.8146 16.7335 17.7468 16.8216 17.6807C16.9083 17.615 17.055 17.5591 17.2224 17.559C17.3897 17.5591 17.5363 17.6152 17.6229 17.6809C17.7112 17.7468 17.7415 17.8147 17.7196 17.8479Z" fill="#263238"/>
<path d="M14.9472 21.6755C14.9813 21.4995 15.1562 21.3605 15.3347 21.3732C15.466 21.3827 15.5866 21.4678 15.649 21.5834C15.7116 21.6992 15.7181 21.8411 15.6774 21.9661L15.672 21.9938C15.5556 22.13 15.3487 22.1825 15.1839 22.1123C15.0193 22.0422 14.9133 21.8512 14.9472 21.6755Z" fill="#EB996E"/>
<path d="M15.8708 21.9953C15.8699 21.9506 15.5734 21.9733 15.3431 21.7361C15.1121 21.4993 15.1205 21.1805 15.0789 21.1816C15.06 21.179 15.0268 21.2566 15.0336 21.3902C15.0393 21.5215 15.0964 21.7093 15.2373 21.8544C15.3785 21.9991 15.556 22.0522 15.6785 22.0528C15.8033 22.0541 15.8742 22.0154 15.8708 21.9953Z" fill="#263238"/>
<path d="M12.3416 14.7616C12.6702 14.2396 13.4467 13.6945 14.0543 13.5882C14.7471 13.4671 15.1646 13.5858 15.6202 14.0018C15.6202 14.0018 15.9747 14.344 16.307 14.4085C16.6393 14.4731 16.9171 14.4183 17.3134 14.621C17.8548 14.898 18.092 15.6219 18.343 16.1758C18.6548 16.8641 19.0989 17.4977 19.3022 18.2255C19.5055 18.9532 19.3973 19.8476 18.784 20.2891C18.9011 19.6679 18.9978 18.9768 18.6567 18.4446C18.3965 18.0387 17.9329 17.8139 17.5992 17.4659C17.1966 17.0462 17.1441 16.4847 16.7222 16.0841C15.7592 15.1699 14.0633 16.7786 12.3416 14.7616Z" fill="#263238"/>
<path d="M18.4606 17.6705C18.2099 17.0624 17.9392 16.4501 17.5111 15.951C16.9783 15.3297 16.2101 14.9154 15.3981 14.8113C14.5863 14.7072 13.7383 14.9145 13.0659 15.3813L12.8981 15.3954C13.4184 16.0549 14.2512 16.456 15.0912 16.452C15.5916 16.4496 16.1343 16.3213 16.5634 16.5786C16.9758 16.8258 17.1322 17.345 17.4717 17.6858C17.7027 17.9176 18.0128 18.0602 18.2371 18.2986C18.4748 18.5514 18.5959 18.8894 18.7106 19.2169C18.8603 18.7054 18.6635 18.1631 18.4606 17.6705Z" fill="#263238"/>
<path d="M13.9847 15.7974L12.6207 14.5977C11.5576 14.5423 10.8753 15.5471 10.5103 16.3228C10.2391 16.8994 10.1546 17.5445 9.95027 18.1481C9.74043 18.7678 9.4052 19.3407 9.21411 19.9665C9.02302 20.5922 8.99704 21.3196 9.37373 21.8547C9.45302 21.7088 9.53231 21.5631 9.61177 21.4173C9.6515 22.0224 9.90916 22.6108 10.3271 23.0501C10.3576 22.8982 10.3882 22.7463 10.4186 22.5943C10.6395 23.0545 11.0024 23.4455 11.4449 23.6999L12.0838 25.4079C13.0275 22.5336 10.5978 22.3156 13.9847 15.7974Z" fill="#263238"/>
<path d="M13.7884 16.0479C13.7071 16.4353 13.6219 16.8247 13.4682 17.1895C13.3144 17.5543 13.0867 17.8966 12.7662 18.129C12.2996 18.4675 11.6986 18.5371 11.1383 18.6718C10.5777 18.8065 9.9807 19.0655 9.74988 19.5937C9.84121 18.8189 10.0015 18.0521 10.228 17.3054C10.478 16.4822 10.8385 15.6434 11.5244 15.124C12.1527 14.6484 13.028 14.5077 13.7638 14.7899" fill="#263238"/>
<path d="M12.3525 19.8113C12.3239 19.7399 11.0004 19.3046 11.0227 20.6976C11.0446 22.0509 12.402 21.7456 12.4036 21.7068C12.4051 21.6679 12.3525 19.8113 12.3525 19.8113Z" fill="#FFBE9D"/>
<path d="M11.9444 21.2012C11.9384 21.1971 11.9212 21.2183 11.8816 21.2372C11.8431 21.2557 11.7765 21.2693 11.7055 21.2442C11.5615 21.1945 11.4368 20.9699 11.4255 20.726C11.4196 20.6028 11.4432 20.4852 11.485 20.3871C11.5244 20.2874 11.5871 20.2169 11.6587 20.2028C11.7301 20.1849 11.7818 20.2268 11.799 20.2647C11.818 20.3022 11.8099 20.3294 11.8171 20.3316C11.8209 20.3349 11.8457 20.3084 11.8336 20.2526C11.8276 20.2258 11.8111 20.1942 11.7787 20.1689C11.7457 20.1431 11.6977 20.1305 11.6477 20.1369C11.5435 20.146 11.4514 20.2439 11.4053 20.3514C11.3537 20.4594 11.3243 20.5918 11.3309 20.7301C11.3448 21.0026 11.4893 21.2551 11.6859 21.3079C11.7815 21.3309 11.8604 21.3006 11.9009 21.268C11.9425 21.2341 11.949 21.2036 11.9444 21.2012Z" fill="#EB996E"/>
<path d="M11.8189 21.4428C11.6864 21.422 11.5462 21.5178 11.5174 21.6487C11.4885 21.7796 11.5751 21.9255 11.704 21.9624C11.8328 21.9994 11.9838 21.922 12.0287 21.7956C12.0736 21.6693 12.0057 21.5139 11.8825 21.4611" fill="white"/>
<path d="M11.8763 21.4598C11.8688 21.4681 11.9659 21.5042 12.0031 21.638C12.0206 21.702 12.0144 21.7877 11.9563 21.8518C11.9013 21.9158 11.7996 21.9576 11.7062 21.9313C11.6132 21.904 11.5492 21.8147 11.5365 21.7311C11.5212 21.6458 11.5616 21.5699 11.6102 21.525C11.7129 21.4313 11.8144 21.4523 11.8123 21.4413C11.813 21.4378 11.7912 21.4279 11.7485 21.4282C11.7066 21.4284 11.6426 21.443 11.5815 21.492C11.5213 21.5383 11.4644 21.6312 11.48 21.739C11.4929 21.8427 11.5671 21.9537 11.6892 21.9906C11.8122 22.0242 11.934 21.9695 11.9998 21.8885C12.0703 21.8054 12.0714 21.6963 12.0449 21.6251C12.0193 21.5512 11.9727 21.5049 11.9372 21.4824C11.9013 21.4597 11.8774 21.4568 11.8763 21.4598Z" fill="#263238"/>
<path d="M10.9496 21.3796C10.9474 21.3818 10.9333 21.3713 10.9081 21.3491C10.8829 21.3271 10.8459 21.2939 10.8046 21.2451C10.7203 21.1498 10.6099 20.9974 10.5227 20.7839C10.4363 20.572 10.3763 20.2943 10.4154 19.9878C10.4498 19.6806 10.625 19.3615 10.8946 19.1331C11.1625 18.9007 11.4678 18.758 11.7405 18.6364C12.0153 18.5173 12.2618 18.4136 12.4584 18.3065C12.8564 18.0964 13.0335 17.8718 13.0446 17.8832C13.0483 17.8861 13.01 17.9459 12.9207 18.0374C12.8311 18.1283 12.6868 18.2468 12.4895 18.3617C12.2931 18.4779 12.0456 18.5892 11.7742 18.7117C11.5053 18.8362 11.2083 18.9791 10.9534 19.2005C10.6969 19.4191 10.5344 19.7108 10.4971 19.9995C10.456 20.2872 10.506 20.5542 10.5819 20.7612C10.7392 21.1807 10.9668 21.3672 10.9496 21.3796Z" fill="#455A64"/>
<path d="M10.8312 20.5763C10.8272 20.5782 10.799 20.5338 10.7705 20.4444C10.7414 20.3556 10.7134 20.2197 10.7216 20.0505C10.7292 19.8823 10.7746 19.6791 10.8874 19.4834C10.9961 19.2861 11.186 19.1057 11.4168 18.9911C11.6463 18.8728 11.878 18.8038 12.0782 18.7237C12.2786 18.6458 12.4483 18.5515 12.5729 18.4495C12.8291 18.2453 12.8673 18.0271 12.8826 18.0353C12.8871 18.0362 12.8845 18.089 12.8499 18.1774C12.8152 18.2649 12.7409 18.385 12.614 18.4978C12.4884 18.6115 12.3135 18.7161 12.1093 18.8002C11.9067 18.886 11.6769 18.9576 11.4583 19.0708C11.2378 19.181 11.0653 19.3425 10.9586 19.5254C10.8492 19.706 10.7997 19.896 10.7847 20.0553C10.7548 20.3788 10.8498 20.5718 10.8312 20.5763Z" fill="#455A64"/>
<path d="M13.8757 16.1363C13.8489 16.147 13.7238 15.6884 13.3468 15.2627C12.9758 14.8315 12.5384 14.6458 12.5525 14.6207C12.5565 14.611 12.6705 14.6434 12.8379 14.7349C13.0051 14.8258 13.2214 14.9836 13.4142 15.2037C13.6064 15.4244 13.7335 15.66 13.8009 15.8381C13.8692 16.0163 13.8859 16.1337 13.8757 16.1363Z" fill="#455A64"/>
<path d="M20.0967 21.1116C20.0955 21.1176 20.0338 21.1092 19.923 21.0884C19.8124 21.0674 19.6535 21.0294 19.4612 20.9646C19.3661 20.9295 19.2617 20.8892 19.1564 20.8292C19.0515 20.7709 18.9397 20.6945 18.8595 20.5743C18.8195 20.5153 18.7911 20.4436 18.779 20.3708C18.7739 20.3368 18.7689 20.3022 18.7636 20.2674C18.7565 20.2305 18.7522 20.1921 18.7512 20.1539C18.7467 20 18.7887 19.8488 18.8337 19.7024C18.879 19.5562 18.9228 19.4157 18.9278 19.2788C18.934 19.1438 18.8886 19.0167 18.8222 18.9085C18.6877 18.6909 18.4947 18.5409 18.3539 18.3995C18.209 18.2618 18.0861 18.1579 17.9964 18.092C17.9072 18.0256 17.8532 17.9952 17.8563 17.989C17.8613 17.9749 18.0962 18.0813 18.3965 18.3527C18.5425 18.4886 18.7412 18.6314 18.8926 18.8651C18.9664 18.9804 19.0217 19.1264 19.0155 19.2819C19.0109 19.435 18.9641 19.5832 18.9194 19.7287C18.8745 19.8737 18.8358 20.0156 18.8391 20.1517C18.8398 20.1856 18.8432 20.2186 18.8489 20.2513C18.8537 20.2865 18.8587 20.3216 18.8633 20.3562C18.8733 20.4205 18.8955 20.4783 18.9289 20.5294C18.9946 20.6328 19.0954 20.7072 19.1937 20.7649C19.292 20.8246 19.3921 20.867 19.4836 20.905C19.8554 21.0457 20.101 21.0951 20.0967 21.1116Z" fill="#455A64"/>
<path d="M15.278 78.6185L15.3528 76.7201L18.6613 76.5956L18.6109 78.9188L17.4079 79.6445L15.278 78.6185Z" fill="#FFBE9D"/>
<path d="M18.6896 78.49L18.6884 78.7076C18.6884 78.7076 22.3616 80.2238 22.3943 80.9239L15.0726 80.8162L15.208 78.3813C16.289 78.9015 17.4275 78.9751 18.6896 78.49Z" fill="#D66D11"/>
<g opacity="0.3">
<path d="M18.6896 78.49L18.6884 78.7076C18.6884 78.7076 22.3616 80.2238 22.3943 80.9239L15.0726 80.8162L15.208 78.3813C16.289 78.9015 17.4275 78.9751 18.6896 78.49Z" fill="black"/>
</g>
<g opacity="0.6">
<path d="M15.9354 79.1719C15.7931 79.2085 15.6929 79.3664 15.7237 79.51C15.7544 79.6536 15.9141 79.757 16.057 79.7228C16.1999 79.6887 16.326 79.5028 16.2794 79.3635C16.2328 79.2242 16.0386 79.113 15.908 79.1805" fill="white"/>
</g>
<g opacity="0.6">
<path d="M15.0726 80.8115L15.1051 80.2258L22.1107 80.5435C22.1107 80.5435 22.4346 80.6901 22.3943 80.9192L15.0726 80.8115Z" fill="white"/>
</g>
<path d="M18.695 78.7251C18.6933 78.7608 18.5144 78.7743 18.3367 78.8867C18.1561 78.9944 18.0633 79.148 18.0306 79.1334C17.9977 79.126 18.0541 78.9131 18.2715 78.7808C18.4878 78.6466 18.7033 78.6924 18.695 78.7251Z" fill="#263238"/>
<path d="M19.4605 79.0567C19.4683 79.0915 19.3125 79.1501 19.1888 79.2994C19.0608 79.4453 19.0278 79.6082 18.9922 79.6061C18.9585 79.6113 18.9368 79.4014 19.0942 79.2186C19.2498 79.0346 19.4604 79.0227 19.4605 79.0567Z" fill="#263238"/>
<path d="M19.9014 79.9776C19.8689 79.9848 19.8216 79.8054 19.9164 79.6111C20.0096 79.4158 20.1793 79.3412 20.1941 79.3711C20.2139 79.4009 20.1038 79.5042 20.0285 79.6651C19.9494 79.824 19.937 79.9747 19.9014 79.9776Z" fill="#263238"/>
<path d="M12.2907 78.6627L12.3655 76.7642L15.6739 76.6396L15.6237 78.9629L14.4208 79.6887L12.2907 78.6627Z" fill="#FFBE9D"/>
<path d="M15.6888 78.5344L15.6876 78.7519C15.6876 78.7519 19.3608 80.2683 19.3934 80.9682L12.0717 80.8605L12.207 78.4255C13.2884 78.9458 14.4269 79.0192 15.6888 78.5344Z" fill="#D66D11"/>
<g opacity="0.6">
<path d="M12.9603 79.2115C12.818 79.2482 12.7178 79.4061 12.7486 79.5497C12.7793 79.6933 12.939 79.7967 13.0819 79.7625C13.2248 79.7284 13.3509 79.5425 13.3043 79.4032C13.2577 79.2638 13.0635 79.1527 12.9329 79.2201" fill="white"/>
</g>
<g opacity="0.6">
<path d="M12.0717 80.8565L12.1042 80.2708L19.1096 80.5885C19.1096 80.5885 19.4334 80.735 19.3932 80.9641L12.0717 80.8565Z" fill="white"/>
</g>
<path d="M15.7208 78.7693C15.7191 78.8051 15.5402 78.8185 15.3626 78.931C15.182 79.0387 15.0891 79.1923 15.0564 79.1776C15.0235 79.1703 15.08 78.9573 15.2974 78.825C15.5136 78.6907 15.7291 78.7366 15.7208 78.7693Z" fill="#263238"/>
<path d="M16.4872 79.0993C16.4949 79.134 16.3391 79.1925 16.2154 79.342C16.0874 79.4878 16.0542 79.6507 16.0188 79.6487C15.9851 79.6538 15.9634 79.444 16.1208 79.2611C16.2763 79.0771 16.487 79.0652 16.4872 79.0993Z" fill="#263238"/>
<path d="M16.899 80.0241C16.8664 80.0313 16.8191 79.8519 16.9139 79.6576C17.0071 79.4624 17.1769 79.3877 17.1917 79.4176C17.2115 79.4474 17.1014 79.5508 17.0261 79.7116C16.9469 79.8705 16.9346 80.021 16.899 80.0241Z" fill="#263238"/>
<path d="M7.32831 31.8764C7.32831 31.8764 10.0807 36.1427 11.5258 37.8629C12.9708 39.5831 15.3447 38.0693 15.6199 35.7297C15.8951 33.3902 15.8263 29.0551 15.8263 29.0551L13.9039 27.9108L12.661 33.829L11.1128 30.9475L7.32831 31.8764Z" fill="#FFBE9D"/>
<path d="M15.8244 29.0546L16.6501 26.9902C16.6501 26.9902 17.0373 26.8024 17.1378 26.7083C17.2589 26.595 17.2351 25.8548 17.2007 25.7172C17.1663 25.5796 17.3345 25.2012 17.216 25.1324C17.0975 25.0636 16.7659 25.1319 16.7535 24.9948C16.7509 24.9654 16.9247 24.6151 16.6842 24.4413C16.5973 24.3786 16.3036 24.3729 16.3036 24.3729L16.1687 23.6875C16.1687 23.6875 15.6181 22.967 15.3085 23.3435C15.3085 23.3435 14.1388 24.754 14.0356 24.9604C13.9324 25.1668 13.9021 27.5576 13.9021 28.005" fill="#FFBE9D"/>
<path d="M13.9003 28.0046C13.8973 28.0046 13.8942 27.9618 13.8918 27.8801C13.8906 27.7898 13.8893 27.6711 13.8872 27.5227C13.8863 27.2121 13.8884 26.7623 13.903 26.2053C13.9111 25.9269 13.9204 25.6216 13.945 25.2931C13.9527 25.2107 13.9591 25.1274 13.9739 25.0409C13.984 24.9442 14.0458 24.8672 14.0943 24.7975C14.1975 24.6546 14.3081 24.5124 14.4223 24.3668C14.651 24.0762 14.8956 23.7743 15.1512 23.4625C15.2183 23.3876 15.2677 23.2994 15.3717 23.2323C15.4777 23.1689 15.6103 23.1893 15.7085 23.2358C15.9103 23.3331 16.0623 23.4903 16.202 23.6599L16.2082 23.6675L16.2104 23.6785C16.2235 23.7447 16.2376 23.8163 16.2517 23.8882C16.2832 24.0486 16.3145 24.2076 16.3452 24.3639L16.3022 24.328C16.3931 24.3311 16.4809 24.3378 16.5709 24.3553C16.6158 24.3656 16.6612 24.3741 16.7099 24.4067C16.7477 24.4374 16.7847 24.4724 16.8071 24.517C16.8569 24.6042 16.859 24.7048 16.8471 24.7929C16.8413 24.8378 16.8305 24.8808 16.8181 24.9226L16.799 24.9831L16.7952 24.9958C16.7964 24.9934 16.7942 24.9886 16.7959 24.9929C16.7969 24.997 16.7973 25.0013 16.8005 25.0041C16.8076 25.0187 16.8456 25.0321 16.8819 25.0378C16.9192 25.0443 16.9596 25.0469 17.0002 25.05C17.041 25.0531 17.0824 25.0554 17.1254 25.0621C17.1688 25.0719 17.2121 25.0715 17.2623 25.1181C17.3038 25.1699 17.2985 25.2201 17.2985 25.2624C17.2962 25.3058 17.2902 25.3467 17.2828 25.3863C17.2684 25.4656 17.2496 25.5416 17.2396 25.6147C17.2352 25.652 17.2329 25.684 17.24 25.7151C17.2489 25.7576 17.2515 25.795 17.2553 25.834C17.2615 25.9109 17.2642 25.9862 17.2656 26.061C17.2666 26.2103 17.2637 26.356 17.2434 26.4988C17.2307 26.5703 17.2245 26.6403 17.1784 26.7129C17.122 26.7798 17.0632 26.8029 17.0055 26.8409C16.8894 26.9081 16.7751 26.9661 16.6629 27.0206L16.6796 27.0027C16.4223 27.6293 16.2121 28.141 16.0623 28.506C15.9899 28.6766 15.9323 28.8127 15.8891 28.9143C15.8485 29.0074 15.8256 29.0557 15.8224 29.0545C15.8193 29.0533 15.836 29.0024 15.8707 28.9071C15.9096 28.8037 15.9617 28.6655 16.0269 28.4921C16.17 28.1245 16.3707 27.6089 16.6165 26.9778L16.6211 26.9659L16.6332 26.9599C16.7427 26.905 16.8564 26.8459 16.9686 26.7791C17.0207 26.7459 17.0885 26.709 17.1182 26.6696C17.1462 26.6267 17.1585 26.554 17.1679 26.4885C17.186 26.3528 17.1879 26.209 17.1858 26.0628C17.1839 25.9897 17.1806 25.9154 17.1741 25.8414C17.1705 25.8051 17.1671 25.7662 17.1598 25.7339C17.1495 25.69 17.1526 25.6441 17.1574 25.6047C17.1679 25.5244 17.1865 25.448 17.1999 25.3718C17.207 25.3338 17.2121 25.296 17.2137 25.2597C17.2159 25.2244 17.2107 25.1861 17.1982 25.1751C17.1899 25.1644 17.1471 25.1515 17.1122 25.1472C17.0749 25.1415 17.0346 25.1393 16.9937 25.1365C16.9526 25.1334 16.9108 25.1312 16.8666 25.1238C16.8243 25.114 16.7715 25.1097 16.7286 25.0545C16.7178 25.0409 16.713 25.0251 16.7097 25.0086C16.7071 25.0029 16.7073 24.9878 16.7104 24.975L16.7156 24.9577L16.7341 24.8983C16.7455 24.8596 16.7551 24.8206 16.7601 24.7815C16.7706 24.7041 16.7666 24.6235 16.7297 24.5607C16.7137 24.5278 16.6858 24.5027 16.6574 24.479C16.6342 24.4626 16.5928 24.4511 16.5534 24.4432C16.4725 24.4276 16.3853 24.4207 16.3005 24.4179L16.2644 24.4167L16.2575 24.3818C16.2267 24.2255 16.1954 24.0665 16.1638 23.9061C16.1497 23.8342 16.1356 23.7628 16.1225 23.6964L16.1308 23.715C16.0007 23.5553 15.8478 23.4012 15.6722 23.3175C15.5848 23.277 15.489 23.2654 15.4152 23.3096C15.3449 23.3515 15.2837 23.4437 15.2185 23.5185C14.962 23.8292 14.7162 24.1296 14.4863 24.4181C14.3714 24.5624 14.2599 24.7038 14.1572 24.8436C14.1061 24.916 14.0551 24.9785 14.048 25.0552C14.0334 25.1359 14.026 25.2189 14.0177 25.2998C13.9902 25.625 13.9771 25.9301 13.9649 26.2079C13.9467 26.757 13.9317 27.2038 13.9211 27.5237C13.9161 27.672 13.9121 27.7907 13.9092 27.8808C13.9063 27.9618 13.9034 28.0046 13.9003 28.0046Z" fill="#EB996E"/>
<path d="M16.3031 24.3734C16.3061 24.3885 16.16 24.4097 15.9416 24.4821C15.8305 24.5163 15.7185 24.586 15.5742 24.6587C15.4251 24.7289 15.2483 24.7504 15.074 24.7769C14.7188 24.8084 14.4612 25.0201 14.3427 25.2122C14.22 25.4057 14.2384 25.5605 14.2212 25.5586C14.2145 25.5641 14.1698 25.4007 14.288 25.1804C14.3459 25.0732 14.4407 24.9585 14.5728 24.8655C14.702 24.7673 14.8829 24.7127 15.0601 24.6885C15.2383 24.6616 15.4051 24.6427 15.5403 24.5836C15.6745 24.5209 15.8055 24.4487 15.9227 24.4217C16.155 24.3624 16.3019 24.3644 16.3031 24.3734Z" fill="#EB996E"/>
<path d="M15.7943 24.4501C15.7759 24.4656 15.6999 24.3957 15.6804 24.2764C15.6605 24.157 15.71 24.0665 15.7324 24.0753C15.7568 24.0827 15.752 24.1658 15.7688 24.2619C15.7836 24.3581 15.8149 24.4353 15.7943 24.4501Z" fill="#EB996E"/>
<path d="M16.8032 25.0109C16.8095 25.033 16.3281 25.1644 15.7168 25.1699C15.5639 25.1714 15.4217 25.1611 15.3131 25.2094C15.2048 25.2557 15.1353 25.3512 15.0971 25.4347C15.024 25.6093 15.0352 25.739 15.0185 25.7373C15.0116 25.739 14.9741 25.6117 15.0385 25.411C15.0734 25.3143 15.1456 25.1976 15.2793 25.1341C15.4132 25.0708 15.5693 25.0828 15.7158 25.0803C16.3162 25.0751 16.798 24.9848 16.8032 25.0109Z" fill="#EB996E"/>
<path d="M17.1395 25.612C17.1419 25.6231 17.0431 25.6563 16.8773 25.6728C16.7119 25.6916 16.4831 25.6851 16.2365 25.6925C16.1131 25.6978 15.996 25.705 15.8987 25.7344C15.8003 25.7626 15.7249 25.8137 15.6804 25.8744C15.5861 25.9991 15.625 26.1077 15.6118 26.1089C15.6069 26.1109 15.5892 26.0891 15.5806 26.0401C15.5729 25.9917 15.581 25.9155 15.6279 25.839C15.6732 25.7614 15.7642 25.6914 15.8735 25.656C15.9835 25.6181 16.107 25.6087 16.233 25.603C16.4867 25.5956 16.7115 25.612 16.8739 25.6095C17.0363 25.6095 17.1369 25.5991 17.1395 25.612Z" fill="#EB996E"/>
<path d="M16.8348 26.2183C16.8522 26.2261 16.7607 26.3793 16.5395 26.429L16.5746 26.3814C16.5789 26.4211 16.5832 26.4593 16.5875 26.4984C16.6128 26.7577 16.6133 26.9693 16.5887 26.9712C16.5641 26.9731 16.5237 26.7656 16.4986 26.508C16.4953 26.4689 16.492 26.4309 16.4886 26.3912L16.4852 26.3499L16.5239 26.3436C16.7112 26.3131 16.8194 26.2018 16.8348 26.2183Z" fill="#EB996E"/>
<path d="M20.4603 39.9084C20.4603 39.9084 22.9085 45.3123 22.9085 48.692C22.9085 52.0718 20.4945 63.1229 20.4945 63.1229C20.4945 63.1229 20.1727 66.1808 19.8507 70.258C19.5287 74.3353 18.6168 77.8222 18.6168 77.8222H16.2026L12.2863 77.9296C12.2863 77.9296 10.6232 71.1165 10.7306 68.5413C10.8379 65.9663 11.267 63.0156 11.267 63.0156C11.267 63.0156 9.17482 54.4858 8.79935 52.9301C8.65212 52.3203 8.58573 51.1588 8.573 49.9232C8.54668 47.3793 9.02174 44.855 9.95433 42.4881L10.6377 40.7537L20.4603 39.9084Z" fill="#263238"/>
<path d="M16.851 50.7133C16.8245 50.7121 16.5335 56.7618 16.2013 64.2239C15.8688 71.6885 15.621 77.7388 15.6477 77.74C15.6741 77.7412 15.965 71.6928 16.2975 64.2282C16.6296 56.7661 16.8775 50.7145 16.851 50.7133Z" fill="#455A64"/>
<path d="M17.375 48.2973C17.3815 48.2982 17.4003 48.1919 17.4285 47.9984C17.4579 47.8052 17.4897 47.5242 17.5189 47.1759C17.5783 46.4798 17.608 45.5116 17.5358 44.4464C17.4618 43.381 17.3002 42.4259 17.1462 41.7445C17.0697 41.4035 16.9998 41.1294 16.9443 40.9421C16.8899 40.7544 16.8569 40.6516 16.8506 40.6533C16.8442 40.655 16.865 40.7611 16.908 40.9512C16.9524 41.1411 17.0119 41.4168 17.0797 41.7582C17.2161 42.4411 17.3662 43.3927 17.4398 44.4528C17.5117 45.5126 17.4928 46.4758 17.451 47.1709C17.4305 47.5185 17.4092 47.7997 17.3913 47.9939C17.3745 48.1886 17.3683 48.2966 17.375 48.2973Z" fill="#455A64"/>
<path d="M9.14926 45.1169C9.14668 45.1205 9.20034 45.1671 9.31713 45.2186C9.4334 45.269 9.6171 45.3152 9.84551 45.307C10.3037 45.2944 10.9095 45.0605 11.4613 44.648C12.0162 44.233 12.3844 43.707 12.5784 43.3027C12.6785 43.1007 12.7387 42.9282 12.7754 42.8082C12.8084 42.6867 12.8235 42.6193 12.8172 42.6174C12.7986 42.6112 12.7303 42.8818 12.5182 43.2715C12.3122 43.6609 11.9446 44.1668 11.4035 44.5713C10.8653 44.9736 10.2795 45.2107 9.84207 45.239C9.3978 45.2736 9.15442 45.0971 9.14926 45.1169Z" fill="#455A64"/>
<path d="M19.2637 41.8982C19.2573 41.9001 19.2718 41.9611 19.3034 42.0703C19.3333 42.1801 19.3901 42.3349 19.4721 42.521C19.6347 42.8935 19.9257 43.3844 20.3516 43.8402C20.7792 44.2948 21.2503 44.617 21.6115 44.8032C21.7919 44.8972 21.9428 44.9639 22.0503 45.0007C22.1571 45.0394 22.2171 45.0576 22.2195 45.0514C22.226 45.0353 21.9925 44.9439 21.6443 44.7437C21.2964 44.5447 20.8413 44.2205 20.4218 43.7745C20.004 43.3271 19.7098 42.8521 19.5337 42.4921C19.3562 42.1317 19.2802 41.8928 19.2637 41.8982Z" fill="#455A64"/>
<path d="M15.8079 41.7757C15.8158 41.7759 15.8187 41.7384 15.8392 41.6776C15.8593 41.618 15.9037 41.5326 15.9943 41.4688C16.082 41.4047 16.2224 41.3711 16.3559 41.4227C16.4883 41.4704 16.6013 41.6114 16.5999 41.7755C16.6015 41.9396 16.4885 42.0808 16.3559 42.1285C16.2224 42.1801 16.082 42.1465 15.9943 42.0824C15.9037 42.0185 15.8593 41.9332 15.8392 41.8735C15.8187 41.8128 15.8158 41.7755 15.8079 41.7757C15.8027 41.7753 15.7922 41.8133 15.8029 41.8828C15.8134 41.9508 15.8524 42.0538 15.9532 42.1365C16.0504 42.2193 16.2188 42.2705 16.3861 42.2119C16.5519 42.1587 16.6981 41.9826 16.6961 41.7757C16.6981 41.5688 16.5519 41.3928 16.3861 41.3397C16.2188 41.281 16.0504 41.3321 15.9532 41.4148C15.8524 41.4976 15.8134 41.6008 15.8029 41.6685C15.7922 41.7378 15.8027 41.7759 15.8079 41.7757Z" fill="#455A64"/>
<path d="M12.4682 62.8591C12.4553 62.8823 13.0365 63.2294 13.7661 63.6343C14.4961 64.0393 15.0979 64.3487 15.1108 64.3255C15.1237 64.3023 14.5427 63.9552 13.8128 63.5502C13.0833 63.1454 12.4811 62.836 12.4682 62.8591Z" fill="#455A64"/>
<path d="M22.7818 28.9092C22.0344 30.0451 19.0084 34.6463 18.1137 36.007C18.015 36.1571 18.138 36.3532 18.3161 36.3307L23.6918 35.6544C23.7493 35.6471 23.8012 35.6165 23.8353 35.5699L28.97 28.5571C29.0761 28.4123 28.9636 28.2097 28.7848 28.2229L23.2536 28.6321C23.0616 28.6464 22.8876 28.7484 22.7818 28.9092Z" fill="#E0E0E0"/>
<path d="M22.7817 28.9091C22.7817 28.9091 22.7927 28.885 22.8246 28.8446C22.8567 28.8051 22.9104 28.748 22.9984 28.6981C23.0844 28.6449 23.2126 28.6164 23.3566 28.611C23.5021 28.599 23.6692 28.5854 23.8567 28.5699C24.614 28.5106 25.7023 28.4251 27.0453 28.3198C27.382 28.294 27.7346 28.267 28.102 28.2388C28.2857 28.2247 28.4732 28.2105 28.6641 28.196C28.7138 28.1933 28.7555 28.1869 28.8124 28.1869C28.869 28.1881 28.9252 28.2123 28.967 28.251C29.0532 28.3267 29.0752 28.469 29.0078 28.5668C28.5396 29.2091 28.0394 29.895 27.5131 30.6167C26.4589 32.0583 25.3005 33.6424 24.0845 35.3053C24.0064 35.4105 23.9369 35.5098 23.8524 35.6192C23.8259 35.6476 23.7931 35.6701 23.7568 35.6839C23.719 35.6988 23.6816 35.7004 23.6526 35.7045L23.463 35.7284C23.2105 35.7601 22.9597 35.7915 22.7109 35.8228C22.2129 35.8853 21.7224 35.9467 21.2404 36.0072C20.2764 36.1276 19.3464 36.2437 18.4604 36.3543C18.4028 36.3605 18.355 36.3696 18.2898 36.3734C18.2239 36.3743 18.1568 36.3466 18.1116 36.2993C18.065 36.2528 18.0387 36.1882 18.038 36.1225C18.0354 36.058 18.0731 35.989 18.1026 35.9503C18.2224 35.7688 18.3405 35.5896 18.4571 35.4131C18.6902 35.0602 18.9164 34.7176 19.1352 34.3863C19.5729 33.7243 19.9807 33.1075 20.3534 32.5438C21.0987 31.4215 21.7024 30.5123 22.1226 29.8795C22.3313 29.5689 22.4941 29.3264 22.6075 29.1577C22.6618 29.0784 22.7043 29.0164 22.7355 28.9712C22.7647 28.9292 22.7804 28.9083 22.7817 28.9091C22.7829 28.91 22.77 28.9327 22.7432 28.976C22.714 29.0225 22.6739 29.0859 22.6226 29.1675C22.5125 29.3383 22.3545 29.584 22.1519 29.8986C21.7373 30.535 21.1415 31.4497 20.4064 32.5786C20.0366 33.1439 19.6317 33.7628 19.1972 34.4269C18.9797 34.759 18.7547 35.1025 18.523 35.4563C18.4071 35.6331 18.2894 35.8127 18.1702 35.9945C18.1358 36.0426 18.1207 36.0753 18.1193 36.1221C18.12 36.1658 18.1379 36.2102 18.1697 36.2416C18.2007 36.2738 18.2447 36.2915 18.2894 36.2912C18.335 36.2888 18.3969 36.2785 18.4503 36.2724C19.3361 36.1601 20.2659 36.0423 21.2298 35.9202C21.7117 35.8593 22.2023 35.7974 22.7002 35.7346C22.9491 35.7033 23.1999 35.6716 23.4524 35.6398L23.6421 35.6159C23.676 35.6113 23.7036 35.6099 23.7253 35.6006C23.7489 35.5917 23.7702 35.577 23.7872 35.5586C23.8622 35.457 23.9374 35.355 24.0127 35.2526C25.2308 33.5911 26.3911 32.0084 27.4471 30.5682C27.9748 29.8494 28.4763 29.1663 28.946 28.5266C28.9937 28.4583 28.9789 28.3592 28.918 28.3047C28.8884 28.2774 28.8502 28.2602 28.8098 28.2593C28.7701 28.2588 28.7159 28.2651 28.67 28.2677C28.4789 28.2813 28.2914 28.2949 28.1077 28.308C27.7401 28.3341 27.3874 28.3592 27.0506 28.3833C25.7068 28.4767 24.6177 28.5524 23.8598 28.605C23.672 28.6174 23.5048 28.6284 23.359 28.638C23.2124 28.641 23.0943 28.6651 23.0076 28.7142C22.8337 28.8102 22.7871 28.9157 22.7817 28.9091Z" fill="#263238"/>
<path d="M28.9674 28.5571C28.9676 28.5598 28.929 28.5655 28.8547 28.5738C28.7729 28.582 28.6645 28.593 28.5284 28.6066C28.2354 28.6326 27.8238 28.6692 27.3136 28.7145C26.2715 28.7996 24.8279 28.9174 23.1825 29.0518L23.2154 29.0327C22.9568 29.4169 22.6899 29.8158 22.4223 30.2279C21.3321 31.9037 20.3799 33.444 19.6606 34.5399C19.3031 35.0893 19.0058 35.5286 18.7989 35.831C18.6973 35.9758 18.6164 36.0909 18.5564 36.1764C18.5002 36.2548 18.4694 36.295 18.4668 36.2933C18.4642 36.2916 18.49 36.2479 18.5414 36.1662C18.598 36.0783 18.674 35.9601 18.7699 35.8115C18.9723 35.4959 19.2573 35.0515 19.6073 34.5055C20.3127 33.4015 21.2561 31.8562 22.3473 30.1789C22.6153 29.7664 22.8831 29.3674 23.1428 28.9833L23.1546 28.9658L23.1756 28.9642C24.822 28.8421 26.2665 28.7349 27.3091 28.6575C27.8202 28.6233 28.2324 28.5956 28.526 28.5758C28.6626 28.5683 28.7713 28.5624 28.8535 28.5578C28.9282 28.5549 28.9672 28.5545 28.9674 28.5571Z" fill="#263238"/>
<path d="M25.6367 29.5603H25.6369C25.638 29.5601 25.6386 29.5597 25.6395 29.5595L25.6367 29.5603Z" fill="white"/>
<path d="M25.7686 29.6396C25.7552 29.5756 25.6948 29.5491 25.6356 29.5594C25.572 29.5784 25.5393 29.5933 25.4915 29.6405C25.443 29.6883 25.4225 29.7717 25.4652 29.8247C25.5188 29.8911 25.6293 29.8666 25.6939 29.8109C25.7435 29.7683 25.782 29.7036 25.7686 29.6396Z" fill="white"/>
<path d="M23.2587 33.6185C23.2587 33.6185 23.0466 33.1126 23.585 33.0474C24.1233 32.9822 25.5368 33.0474 25.5368 33.0474C25.5368 33.0474 26.3096 33.129 26.1466 33.6837C26.1466 33.6837 26.6034 34.0916 26.3587 34.5321C26.1139 34.9726 26.016 34.8421 26.016 34.8421C26.016 34.8421 26.0812 35.3804 25.6734 35.4621C25.6734 35.4621 25.2312 35.9842 24.8241 35.9517C24.4171 35.919 22.6877 35.087 22.5735 34.9238C22.4592 34.7606 22.296 34.6678 22.3939 34.4859C22.3939 34.4859 22.1818 34.0084 22.6386 33.9358C22.6386 33.9358 22.6713 33.5369 23.2587 33.6185Z" fill="#FFBE9D"/>
<path d="M25.7103 33.8012C25.7101 33.8136 25.5711 33.8227 25.3465 33.8274C25.1221 33.832 24.8119 33.8324 24.4695 33.827C24.1277 33.8157 23.8169 33.8289 23.5885 33.7746C23.3563 33.7208 23.2651 33.5845 23.2762 33.5816C23.2856 33.5701 23.3837 33.6788 23.6016 33.7127C23.8152 33.7484 24.1289 33.7264 24.4709 33.7374C24.8133 33.7426 25.1233 33.7524 25.3475 33.7639C25.5718 33.7754 25.7105 33.7889 25.7103 33.8012Z" fill="#EB996E"/>
<path d="M25.3255 34.6162C25.3269 34.621 25.2865 34.6401 25.2086 34.6566C25.1308 34.6735 25.0147 34.6864 24.8721 34.6775C24.7295 34.669 24.5617 34.6391 24.3814 34.5885C24.2008 34.5386 24.0087 34.4693 23.8059 34.4071C23.6033 34.3445 23.4074 34.2994 23.2268 34.2877C23.0506 34.2798 22.8599 34.2844 22.7335 34.1879C22.671 34.1436 22.6282 34.0823 22.6158 34.0199C22.6038 33.9585 22.6162 33.9047 22.6361 33.8672C22.6788 33.7894 22.7366 33.7849 22.735 33.7892C22.7395 33.7961 22.6932 33.8126 22.6679 33.8813C22.6399 33.9473 22.6547 34.0681 22.7689 34.1355C22.8788 34.2105 23.0419 34.2019 23.2311 34.2051C23.4213 34.2129 23.626 34.2578 23.8319 34.3214C24.0329 34.3875 24.2247 34.4504 24.4041 34.5092C24.5796 34.5631 24.7405 34.5983 24.8773 34.6143C25.1523 34.6482 25.3226 34.6007 25.3255 34.6162Z" fill="#EB996E"/>
<path d="M24.7465 35.306C24.7432 35.3177 24.6044 35.2916 24.3832 35.2357C24.1622 35.18 23.8591 35.0935 23.5286 34.9853C23.1978 34.8769 22.9023 34.7675 22.6911 34.6819C22.4797 34.5962 22.3523 34.5351 22.3566 34.5238C22.3657 34.5001 22.8971 34.685 23.5564 34.9003C24.2152 35.1163 24.7532 35.2814 24.7465 35.306Z" fill="#EB996E"/>
<path d="M24.8855 35.9466C24.884 35.9574 24.7674 35.9528 24.5842 35.9119C24.4008 35.872 24.1542 35.7878 23.8953 35.6693C23.636 35.5513 23.4098 35.4309 23.246 35.3441C23.0826 35.2565 22.9827 35.1994 22.9879 35.1879C22.9992 35.1612 23.4223 35.3475 23.9323 35.5878C24.4413 35.832 24.8888 35.9232 24.8855 35.9466Z" fill="#EB996E"/>
<path d="M8.55316 26.3722C8.55316 26.3722 6.34141 27.2933 6.89026 30.22C7.43912 33.1468 7.72515 34.1241 7.72515 34.1241L12.0854 31.8298L8.55316 26.3722Z" fill="#D66D11"/>
<path d="M11.992 31.8781C11.9949 31.8835 11.9382 31.9201 11.8327 31.9817C11.7273 32.0432 11.5734 32.1296 11.3823 32.2349C10.9999 32.4452 10.4688 32.7304 9.8795 33.0405C9.29006 33.3506 8.7541 33.627 8.36401 33.8231C8.16896 33.9211 8.01055 33.9991 7.89995 34.0512C7.78953 34.1033 7.72709 34.1294 7.72417 34.1239C7.72124 34.1184 7.77817 34.0818 7.88378 34.0202C7.98922 33.9586 8.14316 33.8723 8.33442 33.767C8.71678 33.5567 9.24774 33.2717 9.83702 32.9616C10.4261 32.6516 10.9619 32.3754 11.3518 32.1793C11.5469 32.0813 11.7055 32.0033 11.8159 31.9512C11.9265 31.8989 11.9891 31.8726 11.992 31.8781Z" fill="#263238"/>
<path d="M11.9909 31.8782C11.9792 31.8837 11.8929 31.7263 11.7527 31.4728C11.5962 31.1937 11.4075 30.8574 11.1988 30.4855C10.9887 30.114 10.7986 29.7783 10.6409 29.4995C10.5003 29.2456 10.4183 29.0856 10.429 29.0793C10.4396 29.0731 10.5408 29.2215 10.6954 29.4671C10.8499 29.7129 11.0576 30.0559 11.2768 30.4412C11.4957 30.8263 11.683 31.1814 11.8089 31.4436C11.9352 31.7057 12.0016 31.8731 11.9909 31.8782Z" fill="#263238"/>
</svg>
