<svg width="13" height="23" viewBox="0 0 13 23" fill="none" xmlns="http://www.w3.org/2000/svg">
<path d="M8.7523 1C8.7523 1 9.32873 3.52186 11.3462 4.67471C14.0482 6.25988 10.7698 8.9979 10.6617 11.9161C10.5536 14.0056 13.3997 18.2207 10.3735 18.2207H3.0601C0.0338649 18.2207 2.87997 14.0056 2.77189 11.9161C2.62778 8.9979 -0.65064 6.22386 2.08738 4.67471C4.10487 3.52186 4.6813 1 4.6813 1H8.7523Z" stroke="black" stroke-width="1.1" stroke-linecap="round" stroke-linejoin="round"/>
<path d="M10.2294 22.4H3.16821V21.7155C3.16821 21.103 3.67258 20.5986 4.28504 20.5986H9.1126C9.72505 20.5986 10.2294 21.103 10.2294 21.7155V22.4Z" stroke="black" stroke-width="1.1" stroke-linecap="round" stroke-linejoin="round"/>
<path d="M7.38343 18.2207H5.97839V20.5624H7.38343V18.2207Z" stroke="black" stroke-width="1.1" stroke-linecap="round" stroke-linejoin="round"/>
<path d="M2.80798 6.76416C2.80798 6.76416 5.47395 11.0153 3.38441 16.1311" stroke="black" stroke-width="1.1" stroke-linecap="round" stroke-linejoin="round"/>
</svg>
