<svg width="52" height="52" viewBox="0 0 52 52" fill="none" xmlns="http://www.w3.org/2000/svg">
<g filter="url(#filter0_d_2879_400)">
<circle cx="26" cy="24" r="14" fill="white"/>
<circle cx="26" cy="24" r="14.75" stroke="black" stroke-width="1.5"/>
</g>
<path d="M27.7935 15C27.7935 15 28.2987 17.21 30.0667 18.2202C32.4345 19.6094 29.5615 22.0088 29.4668 24.566C29.3721 26.3972 31.8662 30.091 29.2142 30.091H22.8053C20.1534 30.091 22.6475 26.3972 22.5528 24.566C22.4265 22.0088 19.5535 19.5778 21.9529 18.2202C23.7209 17.21 24.226 15 24.226 15H27.7935Z" stroke="black" stroke-linecap="round" stroke-linejoin="round"/>
<path d="M29.0881 33.7534H22.9001V33.1535C22.9001 32.6168 23.3421 32.1748 23.8788 32.1748H28.1094C28.6461 32.1748 29.0881 32.6168 29.0881 33.1535V33.7534Z" stroke="black" stroke-linecap="round" stroke-linejoin="round"/>
<path d="M26.5939 30.0908H25.3626V32.1429H26.5939V30.0908Z" stroke="black" stroke-linecap="round" stroke-linejoin="round"/>
<path d="M22.5844 20.0508C22.5844 20.0508 24.9206 23.7762 23.0895 28.2593" stroke="black" stroke-width="0.5" stroke-linecap="round" stroke-linejoin="round"/>
<defs>
<filter id="filter0_d_2879_400" x="0.5" y="0.5" width="51" height="51" filterUnits="userSpaceOnUse" color-interpolation-filters="sRGB">
<feFlood flood-opacity="0" result="BackgroundImageFix"/>
<feColorMatrix in="SourceAlpha" type="matrix" values="0 0 0 0 0 0 0 0 0 0 0 0 0 0 0 0 0 0 127 0" result="hardAlpha"/>
<feOffset dy="2"/>
<feGaussianBlur stdDeviation="5"/>
<feComposite in2="hardAlpha" operator="out"/>
<feColorMatrix type="matrix" values="0 0 0 0 0 0 0 0 0 0 0 0 0 0 0 0 0 0 0.45 0"/>
<feBlend mode="normal" in2="BackgroundImageFix" result="effect1_dropShadow_2879_400"/>
<feBlend mode="normal" in="SourceGraphic" in2="effect1_dropShadow_2879_400" result="shape"/>
</filter>
</defs>
</svg>
