<?xml version="1.0" encoding="UTF-8"?>
<svg id="Layer_2" data-name="Layer 2" xmlns="http://www.w3.org/2000/svg" viewBox="0 0 270.29 1090.38">
  <defs>
    <style>
      .cls-1, .cls-2 {
        stroke-width: 0px;
      }

      .cls-2 {
        fill: #fff;
      }
    </style>
  </defs>
  <g id="Layer_3" data-name="Layer 3">
    <g>
      <path class="cls-2" d="M54.8,269.37c-.49,4.8-.9,8.78-1.44,14-4.4-2.09-8-3.56-11.36-5.44-3.69-2.07-2.42-4.59.53-5.72,3.61-1.37,7.57-1.8,12.26-2.84Z"/>
      <path class="cls-2" d="M63.46,317.47c-7.07-1.57-8.01-4.55-4.49-12.42,1.49,4.12,2.86,7.91,4.49,12.42Z"/>
      <path class="cls-1" d="M128.71,234.09c3.85-.55,7.68-1.25,11.55-1.55,1.31-.1,2.71.8,4.06,1.25-1.15.75-2.28,2.1-3.47,2.15-5.65.24-11.31.21-16.96.07-1.31-.03-2.6-.88-3.89-1.36.86-.96,1.55-2.19,2.6-2.83,3.89-2.35,7.89-4.5,12.25-6.95-3.48-2.24-5.92-.95-8.59,1.01-1.42,1.04-3.5,1.23-5.31,1.62-.15.03-1.06-1.77-.83-2.01,1.2-1.33,2.57-3.33,4.03-3.47,5.97-.55,11.99-.72,17.98-.52,1.24.04,3.44,2.35,3.34,3.45-.12,1.38-1.93,3.23-3.41,3.74-3.9,1.36-8.01,2.1-12.03,3.12-.56.14-1.07.49-1.6.74l.28,1.56Z"/>
      <path class="cls-1" d="M122.91,158.11c4.34-1.7,4.69-5.05,4.08-9.17-1.39-.57-2.92-1.2-4.48-1.84,3.76-1.55,7.15-3.11,10.66-4.34,2.23-.78,4-.11,4.01,2.72.02,3.15,0,6.29,0,9.62,1.56.65,3.06,1.27,4.55,1.89-.06.37-.12.75-.18,1.12h-18.64Z"/>
      <path class="cls-1" d="M145.94,117.62c-6.9-.72-13.9-2.82-20.19,1.77.39-3.82,3.6-6.68,7.74-6.84,10.05-.39,11.27.08,12.45,5.06Z"/>
      <g>
        <path class="cls-1" d="M34.1,558.02c.68,8.94,1.41,17.89,2.02,26.84.12,1.81.26,3.84-.4,5.44-.99,2.35-2.42,5.96-4.15,6.26-3.61.63-6.45-1.92-7.6-5.73-.43-1.42-1.01-2.8-1.87-5.16-2.79,8.1-1.64,13.94,3.87,19.05,2.52,2.34,4.45,5.39,6.35,8.31,3.22,4.96,3.12,5.04.2,13.26-6.1-2.59-12.19-5.12-18.23-7.77-9.16-4.03-12.04-12.29-12.78-21.1-.95-11.18-2.09-22.61-.78-33.65,2.85-23.97.58-47.89.96-71.82.18-11.15-1.8-22.33-1.68-33.49.11-10.57,1.86-21.11,2.58-31.69.6-8.83.55-17.71,1.18-26.54.71-10.11,2.27-20.18,2.68-30.3.35-8.44-.57-16.93-.64-25.4-.06-7.77-.45-15.65.57-23.31,2.37-17.84.63-35.6-.43-53.32-1.19-19.97,1.34-39.14,8.38-57.79,4.12-10.92,8.23-21.84,16.64-30.41,1.04-1.06,2.05-2.49,3.34-2.89,10.13-3.14,20.29-6.16,30.51-9,2.93-.82,6.06-.94,9.74-1.48-1.79-2.34-3.52-3.71-4.03-5.45-1.1-3.76-.49-7.44,3.38-9.47,3.49-1.82,7.11-3.5,10.85-4.72,2.53-.83,5.74-.3,4.48-4.84,3,1.22,5.62,1.71,7.49,3.16,4.35,3.38,7.22,1.99,8.36-2.61,1.91-7.68,3.34-15.5,4.48-23.33.23-1.57-1.61-3.54-2.7-5.19-7.52-11.35-13.28-23.5-15.65-36.97-.82-4.69-.98-9.65-.51-14.39,1.08-11.08,2.15-22.21,4.39-33.09,1.05-5.1,3.84-10.59,7.48-14.28C113.74,3.8,127.91-3.2,143.59,1.46c22.01,6.54,32.49,15.55,35.55,41.04,1.6,13.33.89,27.34-1.37,40.6-1.52,8.96-6.98,17.49-11.72,25.6-6.68,11.44-6.68,27.3,1.37,37,2.07-1.1,4.23-2.25,5.53-2.95,3.08,1.36,5.59,2.6,8.19,3.58,2.64.99,5.36,1.8,8.08,2.57,7.58,2.15,9.41,11.22,3.02,16.49,10.01,2.04,19.73,4.6,29.6,5.91,15.38,2.05,24.31,12.09,29.5,24.91,8.3,20.52,14.19,41.85,13.38,64.45-.54,14.96-.97,29.93-.98,44.89-.01,12.85,2.06,25.87.54,38.5-1.15,9.54-.58,18.77-.17,28.09.48,11.01,2.05,21.98,2.84,32.98.94,13.16,1.71,26.34,2.27,39.52.46,10.87,1.86,21.94.46,32.61-2.68,20.45-.74,40.84-1.19,61.23-.22,9.86,1.28,19.76,1.06,29.62-.26,12.08-2.07,24.14-2.07,36.21,0,5.39-2.75,7.85-6.14,10.2-4.89,3.4-9.94,6.76-15.37,9.12-2.56,1.11-6.15-.16-9.27-.35.4-2.8.13-5.95,1.36-8.33,2.28-4.4,5.74-8.18,8.12-12.55,1.8-3.3,2.67-7.1,3.96-10.67-.59-.33-1.17-.66-1.76-.99-1.06.86-2,2.08-3.21,2.5-2.86.97-5.92,2.24-8.74,1.93-.97-.1-2.23-4.59-2.04-6.98.85-10.95,2.17-21.86,3.33-32.79.21-1.95.43-3.91.65-5.86-.55-.09-1.11-.18-1.66-.26-1.8,10.53-3.73,21.04-5.38,31.59-2,12.79-3.95,25.59-5.61,38.43-4.55,35.19-15.67,68.71-25.81,102.48-2.2,7.32-5.19,14.55-6.22,22.04-2.06,15.01.38,29.88,4.65,44.27,6.4,21.52,13.46,42.88,13.21,65.67-.2,17.74-3.46,34.87-9.48,51.7-4.91,13.73-7.98,28.11-11.91,42.19-2.13,7.65-5.03,15.15-6.38,22.93-3.04,17.56-5.17,35.35-1.28,53,1.6,7.27,4.73,14.46,8.5,20.91,3.83,6.53,9.36,12.05,14.06,18.08,8,10.28-.05,21.52-8.53,22.97-8.83,1.52-17.84,2-26.79,2.79-3.14.28-6.33.25-9.49.11-7.28-.32-11.85-4.2-13.03-11.36-.59-3.59-.44-7.3-.77-10.94-.55-6.07-1.22-12.13-1.81-18.19-.08-.82-.04-1.66,0-2.49.81-16.28,1.74-32.55,2.41-48.84.36-8.63.51-17.29.35-25.92-.23-12.9-.49-25.81-1.33-38.68-1.59-24.25-3.98-48.44-5.3-72.7-.73-13.42.19-26.82,1.89-40.31,1.7-13.54.5-27.49.09-41.25-.23-7.87-.87-15.81-2.3-23.54-2.89-15.71-.53-31.32-.42-47,.19-27.62-.54-55.25-1.28-82.87-.35-13.11-1.59-26.2-2.46-39.29-.07-1.06-.41-2.09-.63-3.14-.44,0-.88,0-1.33,0-.4,4.96-1,9.91-1.16,14.88-.67,19.96-1.15,39.92-1.83,59.87-.56,16.38-1.49,32.75-1.88,49.13-.27,11.26.11,22.54.2,33.81.02,2.13,0,4.26-.43,6.63-.12,3.53-.19,7.07-.36,10.6-.3,6.1-.94,12.19-.94,18.29,0,16.39.29,32.78.42,49.17.09,12.06.29,24.12.09,36.18-.23,14.02-.58,28.05-1.35,42.05-1.35,24.24-3.26,48.45-4.52,72.7-.39,7.59.67,15.26.89,22.89.36,12.55.52,25.1.89,37.65.1,3.23,1.08,6.47.93,9.68-.5,10.59-1.04,21.19-2.11,31.73-.87,8.6-5.66,12.57-14.19,13.02-13.14.68-25.82-.96-38.05-6.23-11.18-4.82-13.34-16.86-3.42-24.05,7.14-5.18,10.7-12.48,14.55-19.77,6.53-12.36,8.04-26.08,7.83-39.5-.26-16.49-1.15-33.25-8.58-48.72-1.54-3.21-1.62-7.1-2.61-10.62-5.91-20.96-12.74-41.71-17.61-62.91-5-21.75-3.74-43.53,3.72-64.97,4.58-13.15,8.36-26.68,11.13-40.32,3.1-15.26,1.36-30.31-3.52-45.41-7.91-24.52-14.59-49.44-21.44-74.29-3.71-13.46-7.36-26.99-9.83-40.71-2.23-12.4-2.71-25.12-4.21-37.67-.68-5.69-1.96-11.31-2.96-16.96-1.13-11.26-2.26-22.52-3.39-33.77-.46-.1-.93-.2-1.39-.3-.42,1.2-1.39,2.51-1.18,3.6,1.91,10.15,4.02,20.26,6.07,30.38ZM30.61,584.41c.37,0,.73-.02,1.1-.03-.79-8.42-1.38-16.86-2.42-25.25-1.42-11.48-3.16-22.92-4.85-34.37-.12-.83-.84-1.76-1.54-2.29-1.83-1.39-3.85-2.52-5.7-3.87-4.22-3.07-4.11-8.44.27-11.17,2.25-1.41,4.89-2.3,6.9-3.97,1.85-1.52,3.96-3.56,4.48-5.72,4.92-20.67,9.56-41.41,14.2-62.14,2.76-12.3,6.2-24.52,7.83-36.98,1.52-11.65,1.1-23.56,1.44-35.35.31-10.81.6-21.63.71-32.44.05-5.17-.42-9.85-5.7-13.32-5.43-3.56-5.1-8.89-.42-13.44,1.55-1.5,3.06-3.08,4.4-4.76,3.83-4.79,2.02-9.82-3.69-11.82-4.48-1.57-9.03-3.43-12.92-6.08-4.48-3.05-4.19-9.79.6-12.39,6.02-3.27,12.57-5.55,19.4-8.47-.58-7.31,4.57-17.29-7.19-22.15-.29-.12-.51-.43-.72-.68-2.79-3.34-1.92-8,1.21-10.94,3.78-3.55,6.16-1.18,8.65,1.78.77-1.97,1.35-3.43,2.42-6.14.58,3.41.95,5.53,1.34,7.82,1.56-1.21,2.8-2.16,4.03-3.11.34.18.67.36,1.01.53-.98,3.72-1.97,7.45-2.96,11.21.47.33.82.75,1.26.85,3.41.78,6.8,1.69,10.25,2.2,40,5.88,80.01,6.05,119.99-.2,4.55-.71,9.06-2.21,13.31-4.02,1.44-.61,2.56-3.19,2.86-5.03.47-2.88.13-5.89.13-9.26,1.24.52,1.67.73,2.12.89,10.4,3.68,11.41,8.53,3.46,16.17-.88.84-1.7,2.23-1.73,3.38-.17,6.09-.08,12.2-.08,17.19,5.63,2.24,10.4,3.69,14.75,5.96,7.69,4.01,7.72,11.99.16,16.22-2.86,1.61-6.16,2.43-9.18,3.79-1.24.56-3.3,1.73-3.21,2.39.66,4.9-.93,10.39,3.73,14.34,2.54,2.16,2.42,10.38.55,13.01-1.44,2.02-3,4.5-3.09,6.82-.28,7.64.17,15.3.17,22.95,0,11.48-.25,22.97-.24,34.45.02,22.23,6.99,43.25,11.56,64.68,3.64,17.05,7.96,33.96,11.69,50.99.96,4.38,1.72,8.17,6.4,10.33,3.45,1.59,3.69,8.94,1.13,11.68-1.36,1.46-2.83,3.38-3.06,5.23-1.29,10.52-2.09,21.09-3.29,31.62-1.17,10.24-2.66,20.44-3.94,30.67-.17,1.37.1,2.8.19,4.76,9.64-4.27,8.56-13.51,11.72-20.75,1.71,6.45,2.95,12.91,4.11,19.39,1.91,10.67-.8,19.25-10.8,24.9-1.74.98-2.57,3.57-3.82,5.42,9.52.42,15.71-4.49,21.41-10.06,1.45-1.42,2.66-3.71,2.84-5.7.72-8.13,1.31-16.3,1.36-24.45.06-10.02-.68-20.05-.71-30.07-.05-17.38.17-34.77.32-52.15.08-8.78.46-17.55.34-26.33-.23-15.8-.29-31.62-1.23-47.38-1.2-20.3-5.07-40.36-4.16-60.88.67-15.2-.52-30.48-.64-45.73-.1-12.47-.84-25.05.44-37.41,2.83-27.29-.8-53.34-11.34-78.64-6.46-15.51-16.73-25.5-34.11-27.34-6.4-.68-12.63-2.78-18.99-3.92-3.71-.67-7.73-1.63-11.28-.89-26.86,5.54-53.86,6.33-81.04,3.28-8.59-.97-17.31-3.34-25.74-2.58-10.5.95-20.9,4.03-31.07,7.09-5.74,1.73-11.29,4.35-15.08,9.97-14.1,20.93-20.21,44.24-21.2,69.08-.27,6.61,1.04,13.28,1.17,19.93.3,15.61.29,31.22.5,46.83.04,2.79,1.11,5.67.71,8.36-2.55,17.27.85,34.65-2.19,52.09-2.98,17.06-2.97,34.69-3.71,52.09-.68,15.76-.73,31.55-.82,47.33-.08,14.79.13,29.58.24,44.37.08,10.74.38,21.48.29,32.22-.06,7.55-.79,15.1-.85,22.66-.02,2.46,1.21,4.92,1.74,7.41.14.68-.2,1.47-.33,2.21-1.17,6.39-1.63,13.01,3.53,17.71,4.85,4.42,10.68,7.77,16.08,11.59.44-.54.87-1.08,1.31-1.63-2.22-2.53-4.63-4.93-6.61-7.63-2.03-2.76-5.05-5.78-5.16-8.78-.28-7.53.69-15.13,1.45-22.68.58-5.72,1.61-11.4,2.44-17.1.17-1.18.32-2.35.48-3.53,1.57,4.82,2.12,9.65,3.32,14.31,1.19,4.65,3.03,9.13,4.58,13.69.47-.14.93-.29,1.4-.43v-4.47c.24-.03.48-.05.71-.08.21.73.42,1.46.63,2.18ZM143.01,582.51q-3.08,1.62-2.88,5.71c1.4,27.23,2.94,54.44,4.15,81.68.52,11.62.29,23.28.5,34.92.2,11.41-2.43,22.82.4,34.25,1.06,4.29,1.08,8.85,1.6,13.28.73,6.24,3.37,13.03,1.75,18.58-2.2,7.59,1.36,14.38,0,21.75-1.51,8.17-.37,16.81-.82,25.22-.59,11.09-1.37,22.17-2.5,33.22-1.12,10.89,2.45,21.45,1.2,32.5-1.08,9.62-.04,19.7,1.48,29.35,4.35,27.67,3.17,55.43,2.68,83.21-.07,3.74-.55,7.46-.61,11.2-.03,2.12.72,4.28.55,6.38-.5,6.23-1.97,12.45-1.81,18.64.34,13.53,1.64,27.03,2.17,40.56.35,8.95,3.52,12.75,12.35,12.5,8.48-.24,16.96-.93,25.4-1.79,3.09-.31,6.21-1.35,9.07-2.62,6.51-2.89,8.28-8.6,4.66-14.62-1.53-2.55-3.3-4.99-5.23-7.25-7.14-8.37-14.52-16.58-16.87-27.83-2.24-10.71-4.33-21.27-4.08-32.49.31-13.47,2.53-26.43,5.99-39.23,4.02-14.87,8.98-29.49,13.07-44.35,3.97-14.44,7.43-29.03,10.93-43.59.72-2.99.75-6.16.85-9.26.14-4.62.48-9.3,0-13.88-1.05-9.87-1.52-19.99-4.15-29.47-4.15-15-10.37-29.44-11.35-45.24-.13-2.15-.56-4.3-1.07-6.39-3-12.37-1.34-24.37,2.49-36.29,5.5-17.11,11.81-34.03,16.02-51.46,6.16-25.52,10.99-51.37,15.95-77.17,2.42-12.62,3.85-25.43,5.84-38.9-29.72,18.71-58.94,17.93-88.79,3.59-3.3,4.78-2.94,11.25,1.08,15.32ZM39.67,565.56c2.85,19.45,5.44,38.94,8.65,58.32,1.37,8.3,3.97,16.4,6.1,24.58,4.55,17.5,9.06,35.01,13.76,52.48,2.11,7.85,4.8,15.55,6.94,23.39,2.27,8.31,5.37,16.62,6.05,25.09,1.72,21.44-3.42,42.05-10.7,61.99-7.54,20.67-10.07,41.9-5.83,63.2,4.01,20.17,10.46,39.86,15.95,59.73,1.64,5.92,3.64,11.74,5.52,17.58,5.05,15.71,8.42,31.79,8.2,48.31-.12,9.11-1.51,18.27-3.01,27.29-2.55,15.37-8.17,29.04-22.33,37.8-1.69,1.05-2.82,5.08-2.27,7.25,1.06,4.2,3.66,8.06,8.48,8.97,7.42,1.4,14.88,2.67,22.38,3.6,4.44.55,8.97.52,13.46.46,3.51-.05,6.11-1.64,6.53-5.53.75-6.82,1.62-13.64,2.16-20.48.55-6.91.74-13.84,1.17-20.76.29-4.81,1.67-9.77.87-14.37-1.34-7.63-2.38-15.21-2.4-22.96-.03-15.46-.67-30.94-.14-46.38.58-16.94,2-33.86,3.38-50.76,2.35-28.77,2.32-57.52.2-86.29-.44-5.94-1.16-11.9-.95-17.83.45-13.01,1.53-25.99,2.13-39,.29-6.4-.1-12.84.15-19.24.17-4.45,1.23-8.88,1.32-13.33.18-9.04-.32-18.1-.02-27.13.37-11.09,1.55-22.15,1.87-33.24.34-11.94-.15-23.9.17-35.84.21-7.75,1.38-15.48,1.87-23.23.76-11.88,1.31-23.77,1.92-35.65.09-1.73.01-3.47.01-5.47-31.92,22.95-70.5,10.29-91.6-2.56ZM36.26,519.6c2.48.58,4.55,1.16,6.65,1.53,28.15,4.96,56.59,6.05,85.08,6.33,9.51.1,9.5,0,10.47-8.94.02-.19.48-.33,1.48-.97v9.2c9.59,0,18.6.65,27.48-.13,19.87-1.74,39.68-4.21,59.52-6.34,3.74-.4,5.33-2.19,4.46-5.96-2.66-11.59-4.44-23.48-8.17-34.72-5.02-15.09-11.56-29.66-17.42-44.47-2.79-7.06-5.5-14.16-8.12-20.92-8.9,1.56-17.51,3.62-26.25,4.49-32.1,3.19-64.17,3.45-96-2.89-2.92-.58-4.17.31-5.07,3.07-1.74,5.37-3.33,10.88-5.9,15.87-9.73,18.88-16.57,38.77-21.84,59.26-2.14,8.32-4.15,16.66-6.37,25.58ZM180.07,165.13l.33-1.78c-1.46-1.01-2.82-2.19-4.38-2.99-7.34-3.8-11.94-9.96-14.46-17.55-2.59-7.8-4.7-15.77-6.62-23.77-.36-1.5.9-3.67,1.94-5.17,9-13.04,18.54-26.04,18.99-42.6.3-11.2-1.18-22.45-1.99-33.67-1.03-14.28-10.29-22.59-21.89-28.63-10.63-5.54-21.66-5.2-32.8-.75-8.51,3.4-15.19,8.9-18.27,17.35-5.77,15.83-7.75,32.24-5.3,49.1,1.73,11.92,6.02,23.03,12.46,32.85,4.59,7.01,5.3,13.6,3.81,21.14-.13.65-.25,1.31-.31,1.97-1.39,14.2-7.78,25.2-20.45,32.25-.74.41-1.28,1.17-2.9,2.71,31.54,5.6,61.74,6,91.87-.48ZM70.4,326.94c.04-.24-.11.09-.06.39,2.2,12.05,4.86,24.05,6.51,36.17,1.85,13.57.48,27.17-2.39,40.51-.97,4.53.52,6.19,4.49,6.81,7.73,1.2,15.42,2.69,23.19,3.5,28.31,2.95,56.52,2.53,84.45-3.53,9.89-2.15,10.67-3.19,8.13-12.95-4.94-19.06-.88-37.57,2.51-56.18.99-5.43,1.97-10.86,2.79-15.34-22.11,1.19-43.51,3.15-64.92,3.25-21.41.1-42.83-1.66-64.71-2.62ZM209.09,244.22c-1.27.08-2.08.04-2.86.19-47.16,8.79-94.4,8.53-141.67,1.1-3.12-.49-4.39.25-4.83,3.06-.31,1.97-.72,3.95-.72,5.93.02,7.83.5,15.67.17,23.48-.21,4.93,1.55,6.57,6.31,7.26,31.12,4.52,62.41,5.4,93.74,3.9,14.95-.71,29.84-2.75,44.72-4.47,1.82-.21,4.88-2.15,4.91-3.36.37-12.28.22-24.57.22-37.08ZM211.63,289.57c-51.65,6.66-101.53,6.65-151.76.75,0,1.31-.19,2.15.03,2.87,2.03,6.66,4.32,13.24,6.15,19.95,1.38,5.05,4.53,6.97,9.52,7.69,36.8,5.28,73.62,5.65,110.49.92,16.41-2.1,17.65-3.12,23.02-19.09,1.32-3.92,1.63-8.18,2.56-13.1ZM35.16,527.62c1.64,7.52,3.11,15.47,5.15,23.26,2.46,9.43,8.82,15.4,17.36,20.04,12.88,7.01,26.35,6.77,40.25,5.73,10.36-.77,19.32-4.76,27.61-10.44,2.86-1.96,5.88-5.02,6.85-8.18,2.51-8.15,3.91-16.64,5.67-24.57-34.88-1.98-68.48-3.89-102.88-5.85ZM139.54,533.34c.73,6.98.8,14.38,2.54,21.37.89,3.57,4.17,7.48,7.45,9.32,6.01,3.38,12.72,5.65,19.32,7.83,14.17,4.67,28.43,3.63,41.9-2.08,7.61-3.23,15.81-7.24,18.76-16.09,3.01-9,4.3-18.34,2.39-26.76-30.47,2.11-60.77,4.22-92.36,6.41ZM214.18,321.69c-8.9,1.19-9.41,1.74-10.63,8.54-.62,3.43-1.74,6.77-2.35,10.2-2.45,13.81-7.24,27.27-4.39,41.8.91,4.65,1.93,7.67,6.28,10.06,8.2,4.51,8.45,12.32.82,17.78-2.37,1.69-3.04,3.2-1.89,5.77,3.52,7.87,6.98,15.76,10.47,23.65,3.9,8.8,8.34,17.4,11.56,26.44,3.61,10.13,6.11,20.65,9.13,30.99.71,2.42,1.1,5.29,5.16,4.85-.08-1.22-.02-2.21-.23-3.14-3.59-15.7-7.25-31.38-10.8-47.09-4.39-19.41-8.83-38.81-12.96-58.27-1.17-5.51-1.69-11.22-1.89-16.86-.11-3.06,1.6-6.15,1.64-9.24.18-15.1.08-30.2.08-45.47ZM32.06,500.35c.82.65,1.64,1.29,2.46,1.94.32-1.13.61-2.26.97-3.38,2.06-6.32,4.03-12.67,6.24-18.93,3.53-10,6.86-20.09,10.96-29.85,4.05-9.64,9.36-18.75,13.37-28.4,3.34-8.03,3.34-7.05-3.98-10.77-7.42-3.77-8.06-12.61-1.32-17.49,2.65-1.92,5.88-3.02,8.8-4.57,1.05-.56,2.77-1.23,2.86-2.01.82-6.88,2.57-13.97,1.67-20.68-1.58-11.81-4.98-23.37-7.32-35.09-1.38-6.88-2.07-7.73-10.35-7.57,0,11.75-.04,23.54.02,35.33.03,5.31-.78,10.93.67,15.86,1.98,6.75-.27,12.87-1.3,18.97-2.03,12.02-5.53,23.79-8.34,35.69-4.28,18.11-8.58,36.22-12.68,54.38-1.23,5.45-1.84,11.05-2.73,16.57ZM88.29,149.77c-3.73,1.65-7.45,3.02-10.9,4.9-2.55,1.39-2.76,3.48-.41,5.64,3,2.75,5.7,3.87,9.6,1.02,4.11-3.01,8.88-5.13,10.92-10.55-2.16,1.1-4.33,2.19-6.74,3.42-.75-1.34-1.45-2.57-2.48-4.41ZM54.8,269.37c-4.69,1.03-8.65,1.47-12.26,2.84-2.96,1.12-4.23,3.64-.53,5.72,3.36,1.89,6.95,3.36,11.36,5.44.53-5.21.94-9.2,1.44-14ZM186.82,162.46c1.58-1.14,3.73-1.94,4.35-3.39.46-1.07-.67-3.78-1.81-4.37-3.48-1.8-7.25-3.11-11.03-4.17-.76-.21-2.44,1.35-2.99,2.44-.42.85-.12,2.87.56,3.3,3.31,2.14,6.85,3.93,10.92,6.19ZM214.21,269.62c.75,5.06,1.25,8.42,1.92,12.93,3.44-1.86,6.56-3.19,9.19-5.19.71-.54.41-4.18-.26-4.47-3.14-1.37-6.58-2.07-10.85-3.27ZM68.29,407.75c.53-.32,1.07-.64,1.6-.96.52-3.81,1.04-7.63,1.56-11.44-.72-.31-1.45-.63-2.17-.94-2.34,2.53-5.17,4.81-6.68,7.76-.36.71,3.68,3.66,5.69,5.58ZM63.46,317.47c-1.63-4.51-3-8.29-4.49-12.42-3.52,7.87-2.58,10.84,4.49,12.42ZM241.77,522.67c-4.55,2.03-4.64,3.38-1.56,13.84.57-5.02,1.04-9.18,1.56-13.84ZM29.94,517.36c.45.12.91.23,1.36.35.87-3.13,1.74-6.26,2.61-9.39-.58-.2-1.15-.4-1.73-.6-4.17,1.99-.86,6.65-2.24,9.64Z"/>
        <path class="cls-2" d="M32.06,500.35c.89-5.53,1.5-11.12,2.73-16.57,4.1-18.15,8.4-36.26,12.68-54.38,2.81-11.89,6.31-23.67,8.34-35.69,1.03-6.1,3.28-12.22,1.3-18.97-1.45-4.93-.64-10.55-.67-15.86-.06-11.79-.02-23.58-.02-35.33,8.27-.16,8.97.69,10.35,7.57,2.35,11.72,5.75,23.28,7.32,35.09.9,6.71-.85,13.79-1.67,20.68-.09.78-1.81,1.45-2.86,2.01-2.93,1.55-6.15,2.65-8.8,4.57-6.73,4.88-6.1,13.72,1.32,17.49,7.32,3.72,7.32,2.74,3.98,10.77-4.02,9.65-9.32,18.77-13.37,28.4-4.1,9.76-7.43,19.86-10.96,29.85-2.21,6.26-4.18,12.62-6.24,18.93-.36,1.11-.65,2.25-.97,3.38-.82-.65-1.64-1.29-2.46-1.94Z"/>
        <path class="cls-2" d="M68.29,407.75c-2.02-1.92-6.05-4.87-5.69-5.58,1.51-2.95,4.34-5.23,6.68-7.76.72.31,1.45.63,2.17.94-.52,3.81-1.04,7.63-1.56,11.44-.53.32-1.07.64-1.6.96Z"/>
        <path class="cls-2" d="M34.1,558.02c-2.05-10.12-4.16-20.23-6.07-30.38-.2-1.09.76-2.39,1.18-3.6.46.1.93.2,1.39.3,1.13,11.25,2.27,22.51,3.39,33.77,0,0,.1-.1.1-.1Z"/>
        <path class="cls-2" d="M29.94,517.36c1.38-2.99-1.93-7.65,2.24-9.64.58.2,1.15.4,1.73.6-.87,3.13-1.74,6.26-2.61,9.39-.45-.12-.91-.23-1.36-.35Z"/>
        <path class="cls-1" d="M181.83,783.05c-1.04,2.56-2.09,5.13-3.13,7.69-.64-.24-1.27-.49-1.91-.73l2.56-7.94c.83.33,1.66.65,2.49.98Z"/>
        <path class="cls-1" d="M165.68,788.09c.84,2.05,1.67,4.09,3.03,7.41-2.13-.64-4.34-.84-4.44-1.41-.34-1.95.07-4.03.19-6.06.41.02.82.04,1.22.06Z"/>
        <path class="cls-1" d="M103.33,795.19c.86-2.18,1.49-4.49,2.69-6.46.43-.69,2.25-.53,4.82-1.02-2.42,3.61-3.97,5.92-5.53,8.24-.66-.25-1.32-.51-1.98-.76Z"/>
        <path class="cls-1" d="M131.58,504.57c5.67.87,10.92,1.6,16.11,2.56.9.17,2.22,1.26,2.27,2.01.07.88-.84,2.09-1.66,2.72-4.29,3.3-21.88,2.48-25.86-1.29-2.72-2.58-3.76-5.55-.38-8.55.74-.66,1.4-1.53,2.26-1.93,7.11-3.28,14.53-2.95,21.89-1.29,1.28.29,2.12,2.58,3.16,3.95-1.63.15-3.32.63-4.88.36-1.58-.27-2.99-1.45-4.57-1.93-4.1-1.25-7.06.01-8.34,3.39Z"/>
        <path class="cls-1" d="M129.4,457.94c2.31,1.2,4.79,2.15,6.89,3.64,5.73,4.04,7.37,3.97,12.8-.7,1.84-1.58,4.04-2.75,6.34-3.69-.84,3.35-11.68,11.54-13.8,10.45-4.6-2.37-8.77-5.59-13.12-8.46l.89-1.23Z"/>
        <path class="cls-1" d="M135.85,405.19c-3.1-7.27-9.65-2.18-14.24-5.08v-7.26h24.17c.02.54.04,1.09.06,1.63-1.47.15-2.94.4-4.41.43-4.15.08-8.32-.08-12.46.17-2.62.16-4.68,1.19-2.57,4.7,5.83-2.68,11.7-2.31,17.66-.12,3.65,1.35,3.35,3.26,1.14,5.44-1.14,1.13-2.79,2.39-4.24,2.43-5.6.15-11.23-.02-16.82-.4-1.38-.09-2.67-1.42-4.01-2.18.14-.52.29-1.04.43-1.57,5.1.61,10.19,1.21,15.29,1.82Z"/>
      </g>
      <path class="cls-1" d="M118.79,273.33c4.78,1.02,9.56,2.04,14.34,3.05.16-.52.32-1.03.48-1.55-1.83-1.05-3.66-2.09-6.09-3.49,1.55-.61,2.44-.86,3.24-1.29,1.13-.61,2.19-1.35,3.29-2.04-1.19-.7-2.52-2.14-3.53-1.93-1.9.38-3.59,1.73-5.39,2.64-1.2.61-2.48,1.68-3.63,1.56-1.02-.11-2.84-1.89-2.68-2.36.5-1.41,1.71-3.52,2.79-3.61,5.98-.51,12.01-.62,18.02-.58,1.5,0,3,1.06,5.14,1.87-.44,1.06-1.02,2.11-1.31,3.22-.32,1.22-.98,3.02-.43,3.68,3.01,3.6-.19,5.58-2.29,5.8-6.82.73-13.87,2.18-20.43-1.45-.79-.44-1.38-1.23-2.07-1.85.17-.56.35-1.12.52-1.67Z"/>
      <path class="cls-1" d="M141.74,309.25c1.9.53,3.8,1.06,5.71,1.59l-.07,1.19c-2.02.46-4.03.91-6.05,1.37-.09.4-.18.8-.26,1.19,1.58.67,3.16,1.34,4.74,2.01.03.43.06.86.09,1.29-6.13,1.01-12.33.85-18.87-.87,1.57-.72,3.14-1.43,4.71-2.15.02-.56.04-1.13.06-1.69-4.42-.32-8.84-.64-13.25-.96-.16-.28-.33-.57-.49-.85,2.09-1.18,4.15-2.4,6.26-3.53,3.2-1.71,6.28-3.81,9.69-4.91,5.47-1.77,7.33-.03,7.73,6.32Z"/>
    </g>
  </g>
</svg>