<svg width="32" height="19" viewBox="0 0 32 19" fill="none" xmlns="http://www.w3.org/2000/svg">
<path d="M18.5814 3.16961C18.5814 2.88972 18.6901 2.6213 18.8837 2.42338C19.0773 2.22547 19.3398 2.11429 19.6136 2.11429H30.9678C31.2416 2.11429 31.5041 2.22547 31.6977 2.42338C31.8913 2.6213 32 2.88972 32 3.16961C32 3.4495 31.8913 3.71793 31.6977 3.91584C31.5041 4.11375 31.2416 4.22494 30.9678 4.22494H19.6136C19.3398 4.22494 19.0773 4.11375 18.8837 3.91584C18.6901 3.71793 18.5814 3.4495 18.5814 3.16961ZM30.9678 8.44624H19.6136C19.3398 8.44624 19.0773 8.55742 18.8837 8.75533C18.6901 8.95324 18.5814 9.22167 18.5814 9.50156C18.5814 9.78145 18.6901 10.0499 18.8837 10.2478C19.0773 10.4457 19.3398 10.5569 19.6136 10.5569H30.9678C31.2416 10.5569 31.5041 10.4457 31.6977 10.2478C31.8913 10.0499 32 9.78145 32 9.50156C32 9.22167 31.8913 8.95324 31.6977 8.75533C31.5041 8.55742 31.2416 8.44624 30.9678 8.44624ZM30.9678 14.7782H22.7102C22.4364 14.7782 22.1739 14.8894 21.9803 15.0873C21.7867 15.2852 21.678 15.5536 21.678 15.8335C21.678 16.1134 21.7867 16.3818 21.9803 16.5797C22.1739 16.7776 22.4364 16.8888 22.7102 16.8888H30.9678C31.2416 16.8888 31.5041 16.7776 31.6977 16.5797C31.8913 16.3818 32 16.1134 32 15.8335C32 15.5536 31.8913 15.2852 31.6977 15.0873C31.5041 14.8894 31.2416 14.7782 30.9678 14.7782ZM18.5491 17.6803C18.5829 17.8146 18.5904 17.9543 18.5713 18.0916C18.5522 18.2288 18.5069 18.3608 18.4379 18.4802C18.3689 18.5995 18.2775 18.7037 18.1691 18.7869C18.0607 18.8702 17.9373 18.9307 17.806 18.9652C17.7218 18.9884 17.635 18.9999 17.5479 18.9995C17.319 18.9996 17.0965 18.9219 16.9155 18.7786C16.7345 18.6353 16.6052 18.4346 16.548 18.208C15.7532 15.0499 12.6333 12.6675 9.29031 12.6675C5.94727 12.6675 2.82744 15.0486 2.03265 18.208C1.96421 18.4791 1.79322 18.7114 1.5573 18.8536C1.32139 18.9959 1.03986 19.0365 0.774657 18.9665C0.509455 18.8965 0.282303 18.7217 0.143171 18.4805C0.00403881 18.2393 -0.0356761 17.9515 0.032763 17.6803C0.754013 14.8164 2.85067 12.4974 5.51117 11.3484C4.48675 10.5417 3.73499 9.42735 3.36133 8.16172C2.98767 6.89609 3.01084 5.54262 3.4276 4.29114C3.84436 3.03966 4.6338 1.95293 5.6852 1.18336C6.73661 0.413799 7.99724 0 9.29031 0C10.5834 0 11.844 0.413799 12.8954 1.18336C13.9468 1.95293 14.7363 3.03966 15.153 4.29114C15.5698 5.54262 15.5929 6.89609 15.2193 8.16172C14.8456 9.42735 14.0939 10.5417 13.0695 11.3484C15.7312 12.4974 17.8279 14.8164 18.5491 17.6803ZM9.2916 10.5569C10.1082 10.5569 10.9065 10.3093 11.5854 9.84547C12.2644 9.38163 12.7936 8.72235 13.1061 7.95101C13.4186 7.17967 13.5004 6.3309 13.3411 5.51205C13.1818 4.6932 12.7885 3.94104 12.2111 3.35068C11.6337 2.76032 10.898 2.35828 10.0971 2.1954C9.29618 2.03252 8.46601 2.11611 7.71157 2.43561C6.95713 2.75511 6.3123 3.29617 5.85863 3.99036C5.40495 4.68455 5.1628 5.50069 5.1628 6.33559C5.1628 7.45514 5.59779 8.52885 6.3721 9.32049C7.1464 10.1121 8.19657 10.5569 9.2916 10.5569Z" fill="black"/>
</svg>
