<svg width="13" height="15" viewBox="0 0 13 15" fill="none" xmlns="http://www.w3.org/2000/svg">
<path d="M6.5 3.21432C5.91565 3.21432 5.34441 3.37142 4.85854 3.66574C4.37267 3.96007 3.99398 4.37841 3.77036 4.86786C3.54673 5.35731 3.48822 5.89589 3.60222 6.41548C3.71623 6.93508 3.99762 7.41236 4.41082 7.78697C4.82402 8.16158 5.35047 8.41669 5.9236 8.52005C6.49672 8.6234 7.09078 8.57036 7.63066 8.36762C8.17053 8.16488 8.63196 7.82156 8.95661 7.38107C9.28126 6.94057 9.45455 6.42269 9.45455 5.89292C9.45455 5.18251 9.14326 4.5012 8.58918 3.99886C8.03509 3.49653 7.28359 3.21432 6.5 3.21432ZM6.5 7.50007C6.14939 7.50007 5.80665 7.40582 5.51513 7.22922C5.2236 7.05262 4.99639 6.80162 4.86221 6.50795C4.72804 6.21428 4.69293 5.89113 4.76133 5.57937C4.82974 5.26762 4.99857 4.98125 5.24649 4.75648C5.49441 4.53172 5.81028 4.37865 6.15416 4.31664C6.49803 4.25463 6.85447 4.28645 7.17839 4.40809C7.50232 4.52974 7.77918 4.73573 7.97397 5.00003C8.16876 5.26432 8.27273 5.57505 8.27273 5.89292C8.27273 6.31916 8.08596 6.72795 7.75351 7.02935C7.42106 7.33075 6.97016 7.50007 6.5 7.50007ZM6.5 0C4.77669 0.00177238 3.12453 0.623201 1.90596 1.72795C0.687402 2.8327 0.00195497 4.33056 0 5.89292C0 7.99562 1.07176 10.2242 3.10227 12.3383C4.01465 13.2936 5.04153 14.1538 6.16392 14.9031C6.26328 14.9662 6.38164 15 6.50295 15C6.62426 15 6.74263 14.9662 6.84199 14.9031C7.96231 14.1535 8.9872 13.2933 9.89773 12.3383C11.9253 10.2242 13 7.99562 13 5.89292C12.998 4.33056 12.3126 2.8327 11.094 1.72795C9.87547 0.623201 8.22331 0.00177238 6.5 0ZM6.5 13.7948C5.27903 12.9242 1.18182 9.72666 1.18182 5.89292C1.18182 4.61418 1.74212 3.38782 2.73948 2.48362C3.73683 1.57941 5.08953 1.07144 6.5 1.07144C7.91047 1.07144 9.26317 1.57941 10.2605 2.48362C11.2579 3.38782 11.8182 4.61418 11.8182 5.89292C11.8182 9.72532 7.72097 12.9242 6.5 13.7948Z" fill="#2260AD"/>
</svg>
