<svg width="35" height="35" viewBox="0 0 35 35" fill="none" xmlns="http://www.w3.org/2000/svg">
<circle cx="17.5" cy="17.5" r="17" stroke="#FF0000"/>
<path d="M17.25 7C15.0627 7.00248 12.9657 7.87247 11.4191 9.41911C9.87247 10.9657 9.00248 13.0627 9 15.25C9 22.3094 16.5 27.6409 16.8197 27.8641C16.9458 27.9524 17.096 27.9998 17.25 27.9998C17.404 27.9998 17.5542 27.9524 17.6803 27.8641C18 27.6409 25.5 22.3094 25.5 15.25C25.4975 13.0627 24.6275 10.9657 23.0809 9.41911C21.5343 7.87247 19.4373 7.00248 17.25 7ZM17.25 12.25C17.8433 12.25 18.4234 12.4259 18.9167 12.7556C19.4101 13.0852 19.7946 13.5538 20.0216 14.1019C20.2487 14.6501 20.3081 15.2533 20.1924 15.8353C20.0766 16.4172 19.7909 16.9518 19.3713 17.3713C18.9518 17.7909 18.4172 18.0766 17.8353 18.1924C17.2533 18.3081 16.6501 18.2487 16.1019 18.0216C15.5538 17.7946 15.0852 17.4101 14.7556 16.9167C14.4259 16.4234 14.25 15.8433 14.25 15.25C14.25 14.4544 14.5661 13.6913 15.1287 13.1287C15.6913 12.5661 16.4544 12.25 17.25 12.25Z" fill="#FF0000"/>
</svg>
