<svg width="14" height="14" viewBox="0 0 14 14" fill="none" xmlns="http://www.w3.org/2000/svg">
<path d="M5.99984 12.5C5.99984 12.6326 5.94716 12.7598 5.85339 12.8536C5.75963 12.9473 5.63246 13 5.49985 13H1.49998C1.36738 13 1.24021 12.9473 1.14644 12.8536C1.05268 12.7598 1 12.6326 1 12.5V1.5C1 1.36739 1.05268 1.24021 1.14644 1.14645C1.24021 1.05268 1.36738 1 1.49998 1H5.49985C5.63246 1 5.75963 1.05268 5.85339 1.14645C5.94716 1.24021 5.99984 1.36739 5.99984 1.5C5.99984 1.63261 5.94716 1.75979 5.85339 1.85355C5.75963 1.94732 5.63246 2 5.49985 2H1.99997V12H5.49985C5.63246 12 5.75963 12.0527 5.85339 12.1464C5.94716 12.2402 5.99984 12.3674 5.99984 12.5ZM12.8534 6.64625L10.3534 4.14625C10.2596 4.05243 10.1324 3.99972 9.99971 3.99972C9.86703 3.99972 9.73978 4.05243 9.64597 4.14625C9.55215 4.24007 9.49944 4.36732 9.49944 4.5C9.49944 4.63268 9.55215 4.75993 9.64597 4.85375L11.2928 6.5H5.49985C5.36725 6.5 5.24008 6.55268 5.14631 6.64645C5.05255 6.74021 4.99987 6.86739 4.99987 7C4.99987 7.13261 5.05255 7.25979 5.14631 7.35355C5.24008 7.44732 5.36725 7.5 5.49985 7.5H11.2928L9.64597 9.14625C9.55215 9.24007 9.49944 9.36732 9.49944 9.5C9.49944 9.63268 9.55215 9.75993 9.64597 9.85375C9.73978 9.94757 9.86703 10.0003 9.99971 10.0003C10.1324 10.0003 10.2596 9.94757 10.3534 9.85375L12.8534 7.35375C12.8998 7.30731 12.9367 7.25217 12.9619 7.19147C12.9871 7.13077 13 7.06571 13 7C13 6.93429 12.9871 6.86923 12.9619 6.80853C12.9367 6.74783 12.8998 6.69269 12.8534 6.64625Z" fill="#D16B11" stroke="#D16B11" stroke-width="0.5"/>
</svg>
