<svg width="1709" height="1495" viewBox="0 0 1709 1495" fill="none" xmlns="http://www.w3.org/2000/svg">
<rect width="1709" height="1495" fill="white"/>
<g clip-path="url(#clip0_8_3601)">
<path d="M847.91 358.33C848.66 359.52 849.23 360.89 850.19 361.87C865.02 376.82 871 396.03 875.99 415.67C877.91 423.21 879.75 430.84 880.66 438.54C881.43 445.05 880.22 451.79 880.91 458.33C882.13 469.86 874.41 478.99 873.33 489.88C871.61 507.19 869.49 524.47 867.32 541.74C866.14 551.11 864.12 560.39 863.2 569.78C861.91 583.02 862.05 596.43 860.15 609.57C858.52 620.81 864.15 628.99 869.15 637.55C876.48 650.1 882.95 662.93 887.52 676.79C891.83 689.85 891.48 702.71 887.19 715.48C884.71 722.85 881.36 729.93 878.17 737.04C877.39 738.77 876 740.74 874.38 741.48C870.76 743.13 870.37 745.73 870.49 749.17C871.14 767.46 873.07 785.84 871.85 804.01C870.01 831.38 865.91 858.6 862.79 885.89C861.79 894.62 859.73 903.41 860.18 912.07C860.75 923.09 862.66 934.17 865.28 944.92C869.12 960.71 874.5 976.12 878.49 991.89C882.96 1009.59 887.14 1027.39 890.49 1045.33C894.78 1068.33 893.83 1091.35 888.76 1114.26C882.54 1142.36 876.35 1170.48 870.92 1198.74C868.21 1212.85 867.94 1227.15 873.86 1240.96C877.46 1249.36 877.81 1258.51 878.05 1267.53C878.24 1274.76 871.15 1281.62 862.56 1283.28C854.99 1284.75 847.59 1284.43 839.88 1283.59C830.59 1282.58 821.05 1283.98 811.61 1284.03C798.67 1284.09 785.72 1283.87 772.78 1283.76C761.15 1283.67 749.51 1283.58 737.88 1283.48C736.55 1283.47 734.98 1283.76 733.94 1283.17C731.73 1281.94 728.83 1280.59 728.05 1278.58C727.38 1276.88 728.78 1273.77 730.16 1271.98C734.22 1266.73 740.29 1265.36 746.52 1264.62C765.03 1262.44 781.21 1254.81 795.95 1243.68C799.92 1240.68 803.96 1237.38 808.5 1235.59C818.4 1231.68 821.88 1223.13 825.16 1214.42C831.63 1197.24 831.12 1179.22 831.15 1161.25C831.16 1153.1 832.58 1144.91 832.04 1136.82C831.28 1125.4 829.49 1114.03 827.78 1102.69C825.1 1084.94 821.55 1067.3 819.45 1049.48C817.94 1036.69 818.96 1023.61 817.41 1010.83C816.39 1002.4 814.09 993.6 810.16 986.13C799.43 965.78 796.51 944.32 798.03 921.83C798.15 920.05 798.16 918.01 797.42 916.48C794.03 909.49 790.35 902.64 785.47 895.48C785.34 895.92 785.36 896.57 785.07 896.78C779.39 900.85 782.34 905.21 783.62 910.39C787.38 925.52 790.41 940.87 792.97 956.26C795.23 969.84 798.34 983.03 805.04 995.14C810.93 1005.79 811.39 1017.06 809.79 1028.79C807.09 1048.59 812.2 1067.38 817.44 1086.18C819.52 1093.65 821.17 1101.36 821.88 1109.07C823.18 1123.14 824.29 1137.28 824.27 1151.4C824.25 1164.15 822.65 1176.89 821.71 1189.63C821.39 1193.9 820.87 1198.15 820.59 1202.41C820.53 1203.27 821.06 1204.25 821.52 1205.05C822.23 1206.28 823.91 1208.36 823.81 1208.44C821.06 1210.74 818.24 1213.01 815.14 1214.77C814.7 1215.02 812.43 1212.88 811.6 1211.49C809.71 1208.31 806.71 1204.83 813.5 1203.11C814.89 1202.76 816.13 1199.26 816.32 1197.11C817.88 1179.56 820.85 1161.91 820.12 1144.43C819.28 1124.5 817.84 1104.45 811.57 1084.92C806.2 1068.2 803.36 1050.73 805.72 1032.7C807.55 1018.72 805.55 1005.04 798.78 992.11C791.26 977.75 789.21 961.85 787.01 945.95C785.17 932.6 784.52 918.7 776.34 907C775.97 906.48 775.61 905.95 775.36 905.61C773.31 906.36 771.5 907.01 769.68 907.67C769.39 905.6 768.9 903.53 768.86 901.45C768.82 899.47 769 897.41 769.53 895.51C770.38 892.5 771.9 890.53 775.72 891.94C777.95 892.76 780.52 892.64 783.32 892.99C779.9 885.35 776.3 878.45 773.67 871.21C762.17 839.49 752.88 807.16 751.85 773.19C751.34 756.47 751.51 739.77 755.79 723.14C760.07 706.47 757.69 689.15 757.03 672.09C756.42 656.33 755.47 640.57 755.21 624.8C755.01 612.56 756.43 600.26 755.68 588.08C755.02 577.32 754.59 566.11 747.04 556.95C745.39 554.95 745.25 551.72 744.35 549.08C740.68 538.2 739.79 527.11 742.35 515.9C743.07 512.75 742.55 511.66 739.3 510.73C721.79 505.7 710.52 488.75 713.02 471.43C714.26 462.83 718.92 455.72 724.93 449.94C731.47 443.65 738.77 438.05 746.17 432.76C754.24 426.99 763.49 422.78 769.29 414.19C771.15 411.44 773.34 408.88 774.89 405.98C780.44 395.62 785.85 385.18 791.12 374.67C792.03 372.85 792.02 370.57 791.41 367.91C790.37 369.21 789.23 370.44 788.29 371.81C780.12 383.76 772.13 395.83 763.81 407.68C755.14 420.04 742.42 428.05 731.01 437.45C726.39 441.26 721.68 445.05 717.53 449.34C708.78 458.38 707.17 469.57 709.55 481.37C711.79 492.44 717.32 501.94 725.72 509.5C732.02 515.17 735.6 521.85 735.86 530.39C736.27 543.77 741.5 555.8 745.84 568.23C749.18 577.79 750.19 588.42 750.71 598.66C751.44 613.09 750.8 627.6 750.68 642.07C750.48 665.21 750.48 688.35 749.85 711.48C749.61 720.25 747.4 728.96 746.96 737.74C746.29 751.18 745.88 764.68 746.24 778.13C746.9 802.32 750.31 826.22 756.43 849.64C758.65 858.13 762.03 866.31 764.95 874.81C766.19 874.65 766.99 874.59 767.76 874.43C772.56 873.43 773.39 874.13 772.9 879.08C772.6 882.05 772.08 885 771.49 889.1C767.29 888.68 762.86 888.7 758.68 887.69C755.3 886.87 755.05 883.79 758.17 881.33C760.78 879.27 761.12 877.19 759.89 874.4C750.34 852.71 745.42 829.79 743.91 806.36C742.42 783.19 742.2 759.91 742.44 736.68C742.57 724.43 745.5 712.23 746.01 699.96C746.78 681.55 746.69 663.1 746.67 644.66C746.66 629.1 746.72 613.52 745.84 598C745.11 585.1 743.31 572.37 738.65 559.96C735.19 550.76 734.53 540.54 732.18 530.89C731.11 526.51 729.59 522.01 727.21 518.22C721.22 508.68 713.23 500.17 708.59 490.08C700.28 472.01 704.87 455.54 719.81 442.45C724.69 438.18 729.72 434.02 735.01 430.28C754.46 416.51 768.63 398.25 780.38 377.84C781.95 375.11 783.61 372.36 785.61 369.94C792.54 361.57 793.79 352.2 791.22 341.94C790.7 339.88 790.9 337.64 790.7 335.49C790.07 328.59 785.74 326.03 779.27 328.43C774.35 330.25 769.39 332.25 764.28 333.13C759.34 333.98 756.65 330.76 753.97 326.41C748.44 317.45 748.5 308.09 749.01 298.26C749.11 296.31 746.6 293.69 744.64 292.29C740.98 289.69 740.55 286.59 741.76 282.76C742.31 281.01 742.53 279.03 743.53 277.58C748.06 271 748.47 263.75 748.01 256.08C746.6 232.47 756.99 216.3 778.96 207.31C790.13 202.74 801.7 201.87 813.5 202.01C816.67 202.05 819.83 202.16 822.99 202.27C832.86 202.63 840.99 205.95 848.01 213.58C853.61 219.67 858.82 225.66 861.99 233.32C865.36 241.45 867.6 249.91 865.21 258.53C862.56 268.07 859.59 277.66 855.45 286.63C847.26 304.39 840.31 322.17 843.81 342.31C844.54 346.53 845.6 349.96 849.67 352.54C863.2 361.12 869.62 375.01 875.3 389.14C879.58 399.79 882.64 410.95 887.02 421.56C893.8 437.99 892.36 454.48 888.68 471.11C884.15 491.57 878.78 511.88 875.03 532.48C871.55 551.59 869.29 570.96 867.34 590.31C865.98 603.75 868.63 616.68 875.13 628.88C883.32 644.27 892.95 659.21 895.94 676.76C898.81 693.64 898.46 710.18 890.95 726.46C885.14 739.07 884.2 753.06 884.31 767.03C884.44 783.33 884.98 799.73 883.48 815.91C881.56 836.56 877.88 857.05 874.78 877.59C871.65 898.36 871.9 918.91 877.2 939.4C884.23 966.59 891.02 993.84 897.6 1021.14C906.44 1057.82 907.1 1094.74 898.96 1131.6C895.92 1145.39 890.58 1158.69 887.91 1172.53C885.89 1183.01 886.38 1193.98 885.9 1204.74C885.86 1205.67 886.72 1207.31 887.44 1207.48C892.22 1208.63 890.61 1211.72 889.72 1214.51C889.17 1216.25 888.26 1217.87 887.53 1219.55C884.49 1226.54 883.67 1226.68 878.76 1221.09C877.55 1219.71 876.3 1218.38 875.11 1216.99C871.88 1213.24 872.2 1211.18 876.58 1209.08C879.51 1207.67 880.65 1205.62 880.56 1202.35C880.03 1183.13 884.41 1164.92 890.29 1146.64C894.84 1132.49 897.01 1117.44 898.9 1102.61C902.82 1071.9 897.71 1041.91 890.06 1012.2C884.21 989.47 879.37 966.48 873.11 943.87C869.65 931.4 866.94 918.94 867.41 906.11C867.77 896.14 869.67 886.22 870.96 876.28C873.03 860.27 875.51 844.31 877.15 828.26C878.7 813.06 880.55 797.73 880.03 782.53C879.69 772.39 878.31 762.32 880.49 752.33C882.65 742.45 884.66 732.43 888.14 722.99C896.85 699.42 894.48 676.94 883.3 654.98C878.92 646.38 874.32 637.89 869.73 629.39C863.37 617.61 863.18 604.63 863.41 591.9C863.61 580.82 865.48 569.72 867.17 558.72C869.65 542.61 872.48 526.55 875.47 510.52C876.53 504.82 878.65 499.33 880.07 493.69C884.43 476.4 888.95 458.91 887.05 441.04C885.96 430.8 882.01 420.73 878.5 410.9C873.47 396.85 870.01 382.12 861.6 369.43C858.28 364.42 854.43 360.05 849.12 357.23C848.72 357.59 848.33 357.95 847.93 358.31L847.91 358.33ZM857.01 378.19C855.37 375.61 853.69 373.67 852.78 371.42C850.22 365.05 844.81 363.07 838.87 362.53C833.11 362 827.26 362.48 821.46 362.33C807.43 361.95 798.36 369.43 792.18 381.05C788.13 388.67 784.67 396.6 781.03 404.44C775.45 416.45 766.19 425.02 755.2 431.83C743.43 439.11 732.11 446.94 722.94 457.4C715.03 466.43 715.15 483.75 722.34 493.28C729.47 502.73 739.3 504.81 750.22 505.1C757.5 505.29 762.74 502.18 766.36 496.21C769.28 491.39 771.74 486.3 774.54 481.41C775 480.61 776.17 480.22 777.01 479.64C777.15 480.61 777.76 481.89 777.36 482.51C772.6 489.9 767.89 497.35 762.68 504.42C761.28 506.32 758.34 507.66 755.9 508.13C746.82 509.89 746.62 509.88 745.39 518.96C745.28 519.78 745.29 520.62 745.22 521.45C744.03 536.7 748.45 550.72 754.5 564.43C756.03 567.9 757.88 571.6 758 575.25C758.6 593.63 758.69 612.03 758.94 630.42C759 635.05 758.85 639.68 759.1 644.29C759.55 652.37 760.43 660.43 760.76 668.51C761.05 675.62 760.82 682.76 760.82 689.89C765.15 673.99 773.63 660.5 781.87 646.85C781.96 648.24 781.76 649.53 781.24 650.67C777.76 658.2 773.83 665.55 770.8 673.25C767.89 680.65 764.96 688.26 763.69 696.04C760.2 717.28 755.19 738.18 755.31 760.11C755.44 783.65 758.72 806.49 764.13 829.15C766.18 837.74 769.64 846.02 772.75 854.33C777.34 866.6 781.44 879.12 787.14 890.87C792.49 901.89 799.73 911.97 805.94 922.58C807.63 925.47 808.59 928.78 809.89 931.9C809.13 932.3 808.38 932.69 807.62 933.09C805.36 929.77 803.11 926.45 800.27 922.28C800.27 926.5 800.2 929.62 800.28 932.74C800.73 949.39 803.3 965.67 811.09 980.55C818.19 994.1 821.2 1008.45 822.29 1023.51C823.41 1038.93 824.46 1054.4 826.77 1069.66C829.01 1084.44 832.97 1098.95 835.89 1113.64C836.98 1119.14 837.69 1124.8 837.79 1130.4C837.87 1134.99 836.46 1139.58 836.25 1144.19C835.58 1159.08 835.79 1174.05 834.45 1188.87C833.28 1201.85 831.86 1215.15 824.5 1226.49C821.9 1230.49 817.99 1233.85 814.13 1236.78C809.39 1240.37 803.75 1242.79 799.07 1246.45C783.78 1258.43 766.75 1265.92 747.39 1268.21C743.51 1268.67 739.59 1269.99 736.04 1271.65C734.29 1272.47 733.34 1274.99 732.03 1276.74C734.21 1277.84 736.36 1279.81 738.57 1279.88C747.36 1280.16 756.17 1279.72 764.97 1279.78C777.51 1279.85 790.05 1280.19 802.59 1280.26C805.55 1280.28 808.52 1279.35 811.47 1279.43C822.74 1279.73 834 1280.54 845.26 1280.57C850.75 1280.58 856.22 1279.07 861.73 1278.65C871.14 1277.94 875 1273.63 874.99 1264.33C874.99 1256.88 873.23 1250 870.66 1243.09C868.18 1236.45 866.4 1229.7 867.28 1222.21C868.21 1214.2 866.51 1205.83 867.83 1197.93C870.82 1180.06 875.03 1162.39 878.63 1144.61C880.77 1134.04 882.32 1123.35 884.79 1112.86C889.33 1093.54 891 1074.05 888.2 1054.43C883.54 1021.76 875.23 989.89 866.09 958.21C860.03 937.21 852.95 916.49 858.29 893.75C862 877.93 863.86 861.6 865.41 845.38C866.99 828.86 867.57 812.22 867.85 795.62C868.12 779.64 867.33 763.64 867.26 747.65C867.24 744.46 868.34 741.26 869.02 737.56C870.29 738.76 871.06 739.47 872.17 740.52C881.91 725.73 885.43 709.48 886.52 692.51C886.6 691.23 886.1 689.88 885.7 688.62C884.14 683.69 882.35 678.83 880.99 673.84C880.14 670.71 879.91 667.42 879.4 664.2C879.05 664.21 878.7 664.23 878.36 664.24C878.14 665.35 877.93 666.46 877.86 666.81C872.06 653.6 866.05 639.91 860.05 626.23C858.22 629.67 858.02 633.06 856.76 636C852.22 646.66 847.4 657.21 842.53 667.74C836.53 680.73 830.28 693.61 824.36 706.63C822.31 711.13 820.07 715.8 819.34 720.61C816.16 741.58 819.25 762.25 823.22 782.83C824 786.88 825.03 789.27 830.31 788.29C832.73 787.84 836.24 790.42 838.33 792.53C839.14 793.35 838.06 797.35 836.67 798.78C831.39 804.24 825.85 809.51 819.9 814.22C818.45 815.37 815.08 814.28 812.63 813.95C810.68 813.69 808.79 813.01 806.11 812.33C806.03 812.2 805.49 811.15 804.79 810.24C789.9 791 790.23 768.22 790.15 745.69C790.13 739.49 792.51 733.32 793.14 727.08C794.43 714.2 794.95 701.25 796.38 688.39C798.24 671.72 800.96 655.14 802.81 638.47C804.42 623.97 805.14 609.36 806.68 594.85C807.39 588.13 808.51 581.32 810.53 574.89C815.06 560.47 817.39 545.76 817.8 530.74C817.98 524.37 817.08 517.97 816.86 511.57C816.57 503.04 816.77 494.47 816.15 485.97C815.79 481.13 814.54 476.27 813.05 471.63C811.99 468.31 810.26 465.02 808.1 462.29C804.11 457.22 799.5 452.64 795.36 447.67C794.43 446.55 794.36 444.72 793.89 443.21C793.67 443.7 793.45 444.19 793.24 444.68C797.86 447.82 802.48 450.95 806.37 453.59C805.39 449.92 804.1 445.08 802.8 440.24L804.19 439.78C805.16 442.32 805.94 444.95 807.16 447.36C808.39 449.79 810.07 451.99 811.56 454.29C807.93 443.19 815.67 434.12 816.86 423.98C817.54 428.02 817.2 431.97 817 435.94C816.57 444.33 815.51 452.76 816.01 461.1C816.47 468.79 819.43 476.34 819.87 484.03C820.78 500.13 821.43 516.32 820.87 532.42C820.49 543.25 818.08 554.05 816.14 564.78C813.75 578 810.08 591.03 808.45 604.32C805.86 625.44 804.65 646.73 802.57 667.92C801.45 679.33 799.61 690.67 798.31 702.07C796.68 716.43 794.95 730.79 793.89 745.19C793.35 752.5 794.1 759.91 794.43 767.27C795.16 783.65 798.21 799.05 812.38 809.81C816.86 813.21 819.54 812.54 822.12 807.4C823.12 805.42 824.9 803.84 826.25 802.03C828.74 798.7 831.18 795.33 833.64 791.98C833.31 791.62 832.99 791.27 832.67 790.91C831.29 791.29 829.88 792.05 828.53 791.95C826.65 791.81 823.72 791.56 823.16 790.42C820.84 785.72 818.54 780.8 817.52 775.7C815.73 766.7 814.37 757.54 813.78 748.38C813.01 736.57 813.98 724.68 818.19 713.54C822.36 702.52 827.58 691.91 832.37 681.13C837.49 669.58 843.02 658.19 847.68 646.46C853.11 632.81 856.81 618.75 857.15 603.81C857.45 590.68 858.58 577.54 859.85 564.46C861.52 547.3 868.14 530.79 866.66 513.19C866.62 512.71 866.83 512.21 866.88 511.71C868.34 495.8 869.71 479.89 871.31 464C871.91 458.03 873.03 452.11 873.91 446.16C874.28 446.2 874.66 446.25 875.03 446.29C875.28 449.79 875.52 453.29 875.77 456.79C876.82 449.51 878.22 441.95 876.54 435.15C872.6 419.21 867.17 403.65 862.39 387.92C860.57 381.92 856.18 379.54 850.34 379.37C845.21 379.22 840.06 379.34 835.3 379.34C841.17 372.32 848.87 377.27 857 378.16L857.01 378.19ZM839 349.52C839.41 349.07 839.83 348.62 840.24 348.17C840.14 347.38 840.09 346.59 839.95 345.81C837.55 332.52 837.75 319.21 842.21 306.48C845.55 296.94 850.12 287.8 854.6 278.71C862.06 263.6 864.96 248.43 857.42 232.4C851.62 220.07 839.13 204.06 821.25 206.17C814.51 206.97 807.58 205.96 800.78 206.47C795.02 206.9 789.16 207.74 783.64 209.39C765.15 214.93 751.83 226.23 751.64 246.57C751.52 259.06 751.36 270.95 745.75 282.31C743.8 286.26 745.5 288.86 749.32 290.67C750.75 291.35 752.74 292.95 752.76 294.17C752.91 301.58 752.49 308.99 752.44 316.4C752.44 317.59 753.13 318.92 753.85 319.94C759.6 328.06 767.44 329.98 776.3 325.31C785.72 320.34 793.66 323.02 794.44 335.33C794.86 341.98 795.83 348.6 796.71 356.77C802.01 350.64 810.37 350.92 812.66 342.44C816.21 345.26 819.23 347.65 822.22 350.03C819.83 353.05 817.89 355.5 815.42 358.62C821.99 358.99 827.19 359.29 833.6 359.65C830.65 356.06 828.5 353.44 825.77 350.12C827.95 348.08 830.15 346.01 831.87 344.4C834.62 346.38 836.8 347.94 838.98 349.51L839 349.52ZM797.9 365.75C801.23 364.09 804.39 361.72 807.91 360.95C813.68 359.69 814.09 359.64 812.71 353.33C803.87 353.28 795.18 360.56 797.9 365.75ZM841.19 360.21C841.84 359.29 842.48 358.37 843.13 357.46C841.21 356.06 839.29 354.66 837.37 353.27C836.66 354.35 835.96 355.43 835.25 356.52C837.23 357.75 839.21 358.99 841.19 360.22V360.21Z" fill="black"/>
<path d="M818.78 382.99C811.47 388.19 810.31 394.42 811.77 401.51C806.11 395.25 809.52 384.69 818.78 382.99Z" fill="black"/>
<path d="M883.112 362.164H880.663C880.471 362.164 880.323 362.293 880.217 362.551C880.163 362.68 880.116 362.775 880.077 362.838C880.038 362.896 879.846 362.926 879.502 362.926C879.381 362.926 879.321 362.881 879.321 362.791V362.727L879.491 360.74C879.506 360.576 879.536 360.477 879.579 360.441C879.622 360.402 879.729 360.383 879.901 360.383H884.395C884.481 360.383 884.532 360.389 884.547 360.4C884.567 360.412 884.577 360.451 884.577 360.518V360.77C884.577 360.879 884.522 361.039 884.413 361.25C884.147 361.781 883.831 362.643 883.463 363.834C883.096 365.025 882.913 366.32 882.913 367.719C882.913 368.297 882.934 368.639 882.977 368.744C883.02 368.85 883.104 368.938 883.229 369.008C883.311 369.051 883.352 369.158 883.352 369.33C883.352 369.541 883.342 369.662 883.323 369.693C883.307 369.725 883.247 369.74 883.141 369.74H880.651C880.549 369.74 880.485 369.725 880.458 369.693C880.43 369.662 880.417 369.564 880.417 369.4C880.417 369.229 880.426 369.121 880.446 369.078C880.469 369.031 880.534 368.982 880.639 368.932C880.709 368.896 880.754 368.846 880.774 368.779C880.793 368.709 880.803 368.592 880.803 368.428C880.803 367.924 880.922 367.24 881.161 366.377C881.399 365.51 881.739 364.676 882.18 363.875L883.112 362.164Z" fill="black"/>
<path d="M679.831 578.955C679.089 578.337 678.718 577.57 678.718 576.652C678.718 575.917 678.944 575.33 679.397 574.888C679.854 574.447 680.462 574.226 681.22 574.226C681.993 574.226 682.601 574.439 683.042 574.865C683.483 575.287 683.704 575.789 683.704 576.371C683.704 577.144 683.31 577.775 682.521 578.263C683.009 578.65 683.354 579.041 683.558 579.435C683.761 579.83 683.862 580.289 683.862 580.812C683.862 581.738 683.591 582.472 683.048 583.015C682.509 583.558 681.854 583.83 681.085 583.83C680.343 583.83 679.728 583.58 679.239 583.08C678.755 582.576 678.513 581.957 678.513 581.222C678.513 580.261 678.952 579.505 679.831 578.955ZM681.899 577.794C682.228 577.494 682.392 577.025 682.392 576.388C682.392 575.458 682.048 574.994 681.36 574.994C681.052 574.994 680.804 575.099 680.616 575.31C680.429 575.517 680.335 575.75 680.335 576.007C680.335 576.277 680.448 576.546 680.675 576.816C680.901 577.085 681.31 577.412 681.899 577.794ZM680.405 579.447C680.218 579.607 680.085 579.804 680.007 580.039C679.933 580.269 679.896 580.613 679.896 581.07C679.896 581.726 679.991 582.208 680.183 582.517C680.378 582.822 680.696 582.974 681.138 582.974C681.478 582.974 681.761 582.871 681.987 582.664C682.214 582.453 682.327 582.162 682.327 581.791C682.327 581.447 682.245 581.158 682.081 580.923C681.917 580.685 681.63 580.408 681.22 580.091L680.405 579.447Z" fill="black"/>
<path d="M752.694 1079.79C752.343 1080.18 751.954 1080.38 751.528 1080.38C751.005 1080.38 750.55 1080.1 750.163 1079.55C749.78 1078.99 749.589 1078.21 749.589 1077.21C749.589 1076.63 749.677 1076.05 749.852 1075.47C750.028 1074.9 750.313 1074.41 750.708 1074.01C751.106 1073.61 751.634 1073.41 752.29 1073.41C753.122 1073.41 753.778 1073.75 754.259 1074.43C754.743 1075.1 754.985 1076.25 754.985 1077.87C754.985 1079.71 754.594 1081.03 753.813 1081.83C753.032 1082.62 752.007 1083.01 750.737 1083.01C750.507 1083.01 750.368 1082.99 750.321 1082.96C750.274 1082.94 750.251 1082.85 750.251 1082.72C750.251 1082.5 750.262 1082.37 750.286 1082.31C750.313 1082.26 750.358 1082.23 750.421 1082.22C751.003 1082.15 751.444 1082.05 751.745 1081.93C752.05 1081.8 752.286 1081.59 752.454 1081.3C752.626 1081.02 752.712 1080.64 752.712 1080.18C752.712 1080.09 752.706 1079.96 752.694 1079.79ZM752.694 1074.64C752.694 1074.3 752.553 1074.13 752.272 1074.13C751.995 1074.13 751.856 1074.32 751.856 1074.7V1078.9C751.856 1079.05 751.893 1079.18 751.968 1079.28C752.042 1079.38 752.137 1079.42 752.255 1079.42C752.391 1079.42 752.499 1079.36 752.577 1079.23C752.655 1079.1 752.694 1078.96 752.694 1078.79V1074.64Z" fill="black"/>
</g>
<g clip-path="url(#clip1_8_3601)">
<path d="M1106.51 755.67C1107.24 766.78 1107.97 777.89 1108.69 789C1108.75 789.99 1108.99 791.13 1108.62 791.97C1107.55 794.37 1106.59 798.25 1104.91 798.64C1101.34 799.47 1098.3 797.03 1096.94 793.32C1096.4 791.85 1096.07 790.3 1095.39 787.87C1092.41 795.11 1092.6 800.75 1097.89 805.61C1099.35 806.95 1100.42 808.71 1101.79 810.16C1106.51 815.14 1109.3 820.57 1106.07 827.51C1087.41 826.56 1074.94 814.25 1074.08 795.6C1073.68 786.94 1073.45 778.26 1073.56 769.6C1073.71 757.35 1074.32 745.1 1074.53 732.85C1074.56 731.07 1074 728.65 1072.78 727.6C1066.24 721.93 1066.59 717.6 1074.66 712.68C1074.07 688.86 1073.47 664.86 1072.86 640.31C1068.76 638.8 1061.67 638.27 1062.59 630.97C1063.33 625.04 1069.34 624.58 1074.83 624.24C1075.4 617.54 1075.92 611.04 1076.53 604.55C1077.45 594.74 1078.93 584.95 1079.27 575.12C1079.6 565.51 1078.66 555.87 1078.54 546.24C1078.44 538.94 1078.85 531.64 1078.78 524.35C1078.77 523.07 1077.72 521.61 1076.79 520.55C1074.71 518.18 1071.23 516.35 1070.45 513.68C1069.21 509.44 1073.56 507.61 1076.53 505.6C1077.57 504.9 1078.96 504.72 1080 504.36C1079.57 485.97 1078.1 467.67 1078.97 449.48C1080.04 427.07 1087.06 406.08 1099.35 387.07C1102.01 382.95 1104.53 378.72 1106.93 374.44C1110.63 367.83 1115.54 366.41 1122.29 369.92C1124.08 370.85 1126.35 371.75 1128.22 371.47C1135.94 370.34 1143.73 369.25 1151.21 367.15C1155.93 365.82 1160.16 362.73 1164.61 360.43C1164.45 359.84 1164.28 359.25 1164.12 358.66C1159.95 358.66 1155.73 358.26 1151.62 358.75C1144.02 359.65 1136.42 360.77 1128.97 362.47C1127.12 362.89 1125.86 365.88 1123.84 368.26C1120.59 367.18 1117.1 364.91 1116.45 360.41C1115.79 355.87 1119.33 354.17 1122.92 352.95C1122.89 353.48 1122.87 354.02 1122.84 354.55C1125.53 355.15 1128.27 356.43 1130.9 356.24C1140.02 355.6 1149.14 354.62 1158.19 353.35C1160.21 353.07 1162 351.07 1163.89 349.86C1163.79 349.31 1163.68 348.76 1163.58 348.21C1165.05 348.69 1166.83 348.81 1167.93 349.73C1171.43 352.66 1173.82 350.86 1175.83 348.07C1181.67 339.96 1182.23 330.44 1182.55 320.95C1182.59 319.69 1181.27 318.33 1180.45 317.09C1172.94 305.75 1166.99 293.7 1164.29 280.29C1163.51 276.43 1163.26 272.33 1163.56 268.4C1164.46 256.96 1165.11 245.45 1167.06 234.17C1169.79 218.37 1180.53 209.63 1195.34 205.05C1201.92 203.01 1208.51 200.7 1215.33 202.85C1233.47 208.58 1247.72 218.5 1251.26 238.81C1254.05 254.8 1254.76 271.12 1250.37 286.66C1247.4 297.16 1240.65 306.56 1235.88 316.58C1234.59 319.28 1233.74 322.48 1233.73 325.45C1233.69 335.75 1237.06 345.29 1243.19 353.33C1245.81 356.76 1250.96 358.26 1254.96 360.64C1256.16 361.35 1257.48 361.92 1258.57 362.78C1261.85 365.38 1264.36 368.42 1269.62 368.2C1274.43 368 1279.35 370.42 1284.22 371.69C1284.49 371.24 1284.75 370.78 1285.02 370.33C1283.16 368.69 1281.44 366.85 1279.42 365.45C1276.82 363.66 1277.19 361.81 1279.2 360.23C1281.89 358.11 1284.87 356.36 1286.51 355.27C1289.68 357.48 1291.86 359.26 1294.27 360.63C1304.53 366.46 1314.16 372.74 1322.27 381.77C1335.51 396.51 1340 414.59 1342.91 432.89C1345.69 450.37 1346.23 468.28 1346.79 486.03C1348.05 525.64 1347.4 565.28 1350.95 604.84C1353.72 635.66 1356.87 666.53 1355.31 697.58C1355.1 701.74 1354.99 705.9 1355.03 710.06C1355.11 718.4 1355.17 718.4 1363.93 721.28C1360.06 726.66 1356.44 731.71 1352.54 737.14C1348.57 733.35 1345.29 730.21 1340.96 726.07C1342.13 730.72 1339.38 734.72 1344.41 737.19C1345.27 737.61 1344.45 742 1343.98 744.48C1343.21 748.57 1341.4 752.58 1341.29 756.65C1341.06 764.68 1342.02 772.73 1341.89 780.77C1341.73 790.34 1341.01 799.9 1340.37 809.46C1340.3 810.57 1339.49 812.01 1338.57 812.64C1331.76 817.35 1325.03 822.25 1317.82 826.28C1315.84 827.39 1312.01 826.28 1309.65 825.04C1308.84 824.61 1309.2 820.24 1310.25 818.35C1313.06 813.28 1316.47 808.53 1319.76 803.73C1322.19 800.2 1322.77 796.6 1321.39 793.24C1318.19 794.89 1315.37 796.69 1312.31 797.83C1309.67 798.81 1307.71 797.52 1307.43 794.55C1307.23 792.41 1307.07 790.23 1307.29 788.11C1308.62 775.37 1310.09 762.64 1311.44 749.89C1311.65 747.94 1311.47 745.95 1310.51 743.91C1302.62 796.22 1297.1 848.88 1280.46 898.43C1281.93 900.58 1282.96 902.09 1283.37 902.69C1280.88 903.94 1278.43 904.38 1278.11 905.46C1274.05 919.11 1269.12 932.65 1266.76 946.62C1263.89 963.59 1267.58 980.42 1272.99 996.64C1282.52 1025.26 1288.81 1054.22 1281.2 1084.29C1277.1 1100.51 1271.7 1116.39 1267.05 1132.48C1265.53 1137.74 1264.63 1143.18 1263.27 1148.49C1262.08 1153.12 1260.41 1157.64 1259.38 1162.3C1257.67 1170.05 1255.97 1177.84 1254.86 1185.69C1253.18 1197.55 1252.88 1209.42 1254.64 1221.41C1256.24 1232.35 1259.89 1242.15 1266.8 1250.74C1270.54 1255.39 1274.64 1259.8 1277.98 1264.72C1284.33 1274.08 1280.08 1286.11 1268.95 1287.84C1256.51 1289.77 1243.77 1290.02 1231.15 1290.33C1225.52 1290.47 1220.79 1285.47 1220.13 1279.19C1219.3 1271.29 1219.4 1263.3 1218.9 1255.36C1218.7 1252.13 1217.63 1248.94 1217.6 1245.72C1217.49 1234.41 1217.29 1223.08 1217.86 1211.79C1218.27 1203.69 1220.09 1195.67 1220.83 1187.57C1221.22 1183.29 1220.58 1178.92 1220.52 1174.59C1220.05 1144.64 1216.74 1114.9 1214.37 1085.07C1212.64 1063.33 1211.72 1041.39 1215.75 1019.39C1218.04 1006.89 1215.82 993.57 1215.71 980.62C1215.62 970.13 1213.6 959.91 1212.16 949.57C1210.73 939.3 1212.02 928.65 1212.25 918.17C1212.32 914.85 1212.62 911.51 1213.16 908.23C1213.78 904.46 1212.04 902.79 1208.7 901.77C1204.5 900.49 1202.83 901.44 1202.48 905.82C1202.4 906.81 1202.4 907.82 1202.44 908.81C1202.49 910.13 1202.62 911.45 1202.73 912.89C1204.5 913.67 1206.2 914.41 1209.07 915.66C1202.2 917.47 1202.63 922.25 1202.64 926.52C1202.66 933.6 1203.16 940.69 1203.33 947.77C1203.35 948.63 1202.58 949.48 1202.27 950.37C1201.75 951.89 1200.91 953.44 1200.9 954.98C1200.81 969.33 1200.73 983.69 1200.92 998.04C1201.14 1015.06 1201.8 1032.07 1201.94 1049.09C1202.02 1058.7 1201.57 1068.32 1201.11 1077.92C1200.02 1100.64 1198.84 1123.36 1197.58 1146.08C1196.97 1157.04 1195.84 1167.98 1195.48 1178.94C1195.25 1185.89 1195.96 1192.87 1196.36 1199.83C1196.75 1206.62 1197.4 1213.4 1197.73 1220.2C1198.24 1230.66 1198.64 1241.12 1198.87 1251.59C1198.89 1252.65 1196.55 1254.09 1196.81 1254.76C1199.09 1260.54 1195.21 1266.08 1196.41 1271.86C1196.99 1274.66 1196.38 1277.86 1195.71 1280.74C1193.72 1289.26 1190.03 1291.91 1181.33 1292.25C1168.02 1292.77 1155.23 1291.28 1142.85 1285.65C1134.51 1281.86 1129.27 1270.6 1139.99 1262.35C1147.01 1256.95 1150.82 1249.91 1154.68 1242.68C1160.17 1232.39 1161.6 1221.06 1162.25 1209.53C1163.07 1194.98 1162.28 1180.55 1158.44 1166.56C1153.09 1147.04 1147.1 1127.7 1141.04 1108.38C1132.82 1082.17 1127.57 1055.68 1134.06 1028.34C1136.94 1016.22 1141.66 1004.55 1144.83 992.49C1146.92 984.53 1147.39 976.16 1149.21 968.11C1152.17 955.05 1148.97 942.93 1145.25 930.56C1137.3 904.14 1130.01 877.53 1122.35 851.02C1117.22 833.25 1113.38 815.25 1111.65 796.8C1110.43 783.77 1109 770.76 1107.6 757.75C1107.53 757.05 1106.79 756.43 1106.38 755.76C1106.38 745.19 1106.38 734.63 1106.38 723.67C1101.19 725.66 1100.26 728.77 1100.97 732.77C1102.03 738.78 1102.91 744.83 1104.12 750.81C1104.46 752.52 1105.67 754.05 1106.48 755.67H1106.51ZM1145.64 920.11C1146.33 921.93 1147.04 923.43 1147.48 925.01C1149.87 933.65 1153.61 942.2 1154.26 950.97C1155.85 972.53 1150.96 993.41 1143.4 1013.44C1135.77 1033.64 1133.45 1054.43 1137.3 1075.23C1140.91 1094.75 1147.3 1113.77 1152.58 1132.98C1156.24 1146.28 1160.78 1159.39 1163.65 1172.85C1165.88 1183.28 1166.76 1194.12 1167.05 1204.81C1167.26 1212.38 1165.85 1220.06 1164.51 1227.58C1162.17 1240.76 1159.26 1253.81 1147.72 1262.66C1145.61 1264.28 1143.61 1266.06 1141.44 1267.6C1138.64 1269.58 1137.81 1272.56 1139.45 1275.02C1141.55 1278.18 1144.25 1281.79 1147.55 1283.17C1159.58 1288.2 1172.52 1287.72 1185.26 1287.42C1186.9 1287.38 1189.58 1284.91 1189.88 1283.23C1191.16 1276.04 1191.92 1268.74 1192.51 1261.45C1193.01 1255.37 1193.02 1249.26 1193.24 1243.16C1193.51 1235.89 1194.08 1228.62 1193.95 1221.37C1193.84 1215.56 1192.39 1209.77 1192.36 1203.97C1192.24 1183.51 1191.95 1163.03 1192.72 1142.6C1193.54 1120.89 1196.14 1099.24 1196.79 1077.53C1197.35 1058.93 1196.16 1040.29 1195.94 1021.66C1195.83 1011.96 1194.02 1002.38 1195.66 992.51C1196.82 985.46 1195.48 977.99 1195.26 970.71C1194.64 970.66 1194.02 970.6 1193.4 970.55C1189.03 980.22 1186.9 991.3 1176.26 998.3C1176.69 995.96 1176.67 994.43 1177.25 993.19C1180.35 986.58 1183.43 979.95 1186.85 973.5C1194.13 959.75 1198.37 945.23 1198.47 929.62C1198.53 920.87 1198.1 912.11 1198.4 903.37C1198.88 889.6 1199.98 875.85 1200.46 862.08C1200.78 852.8 1200.24 843.49 1200.53 834.21C1200.79 825.95 1201.72 817.71 1202.25 809.45C1203.29 793.03 1204.43 776.61 1205.15 760.18C1205.4 754.52 1205.8 748.3 1203.82 743.24C1200.77 735.46 1195.5 728.58 1191.62 721.09C1190.21 718.37 1190.06 714.99 1189.34 711.91L1191.33 711.26C1192.54 713.12 1193.97 714.88 1194.91 716.87C1197.77 722.87 1200.34 729.02 1203.22 735.01C1205.72 740.19 1209.25 740.6 1212.03 735.77C1215.67 729.45 1218.65 722.76 1222.01 716.28C1222.91 714.55 1224.14 713 1225.23 711.36C1225.69 711.57 1226.15 711.77 1226.61 711.98C1226.27 714.34 1226.51 717.01 1225.48 719.02C1221.48 726.85 1217.78 735 1212.57 741.99C1209.02 746.75 1208.83 750.64 1210.81 755.48C1210.93 755.78 1210.92 756.14 1210.94 756.47C1211.43 765.4 1211.91 774.33 1212.4 783.26C1214.07 813.1 1216.01 842.93 1217.3 872.78C1217.92 887.16 1217.33 901.6 1217.3 916.01C1217.3 918.31 1217.41 920.62 1217.46 922.92C1217.59 929.55 1217.35 936.21 1217.97 942.79C1218.46 948.03 1218.26 955.11 1221.44 957.93C1227.24 963.08 1227.64 969.96 1230.85 975.81C1233.08 979.88 1235.58 983.8 1237.67 987.93C1239.11 990.76 1240.05 993.84 1241.22 996.81C1240.75 997.08 1240.29 997.34 1239.82 997.61C1230.21 992.74 1228.14 981.58 1221.65 973.84C1220.82 980.98 1220.94 987.73 1220.79 994.47C1220.58 1003.85 1220.23 1013.24 1219.82 1022.62C1219.37 1033.07 1219.44 1043.6 1218.1 1053.94C1216.75 1064.31 1220.65 1074.13 1219.24 1084.69C1217.86 1095.04 1220.07 1105.9 1220.9 1116.52C1221.77 1127.63 1223.44 1138.7 1223.72 1149.82C1224.13 1166.29 1223.66 1182.78 1223.49 1199.26C1223.46 1202.22 1223.11 1205.18 1222.91 1208.14C1223.29 1210.83 1223.5 1213.53 1223.25 1216.19C1222.81 1220.77 1221.45 1225.35 1221.58 1229.89C1222.02 1245.28 1222.95 1260.65 1223.68 1276.03C1224.06 1283.91 1227.59 1287.81 1235.6 1287.57C1244.88 1287.3 1254.15 1286.22 1263.41 1285.28C1265.69 1285.05 1267.94 1284.16 1270.1 1283.32C1276.85 1280.71 1278.99 1274.86 1275.29 1268.65C1273.44 1265.54 1271.28 1262.56 1268.89 1259.84C1262.02 1252.04 1255.53 1244.04 1253.18 1233.58C1251.95 1228.07 1250.27 1222.54 1250 1216.96C1249.51 1206.6 1248.68 1196.01 1250.25 1185.86C1252.24 1172.98 1256.4 1160.43 1259.74 1147.77C1264.49 1129.8 1268.89 1111.72 1274.3 1093.95C1279.06 1078.32 1280.19 1062.56 1280.17 1046.36C1280.15 1029.9 1272.92 1015.41 1269.6 999.89C1266.98 987.63 1263.58 975.47 1261.98 963.07C1260.66 952.85 1262.23 942.52 1266.14 932.69C1268.13 927.69 1269.45 922.42 1271.23 916.8H1263.03C1262.93 916.27 1262.83 915.73 1262.72 915.2C1265.59 914.4 1268.45 913.59 1272.36 912.5C1275.7 901.11 1280.02 888.84 1282.84 876.22C1289 848.64 1294.82 820.96 1299.93 793.17C1302.57 778.8 1303.82 764.13 1304.91 749.53C1305.65 739.61 1305.68 729.52 1304.8 719.62C1304.02 710.95 1301.87 702.35 1299.7 693.88C1295.07 675.85 1289.14 658.32 1280.98 641.45C1274.74 628.56 1268.18 615.49 1267.65 600.59C1267.6 599.24 1266.89 597.92 1266.4 596.32C1257.29 607.92 1255.73 603.37 1248.72 594.28C1255.13 593.93 1254.33 588.64 1254.46 585.04C1255.12 566.24 1255.42 547.43 1255.44 528.62C1255.44 522.22 1254.28 515.82 1253.59 508.86C1241.21 510.41 1230.85 506.03 1220.93 500.32C1219.66 499.59 1219.07 497.67 1218.17 496.31C1218.6 496.01 1219.04 495.72 1219.47 495.42C1220.34 495.83 1221.3 496.12 1222.08 496.66C1230.99 502.95 1241.21 504.6 1251.75 505.31C1255.58 505.57 1258.12 504.45 1258.12 500.35C1258.13 487.94 1258.39 475.5 1257.78 463.12C1256.92 445.85 1255.2 428.63 1254.15 411.37C1253.48 400.29 1253.41 389.17 1252.9 378.08C1252.84 376.82 1252.02 375.26 1251.04 374.46C1249.24 372.98 1247.05 371.97 1244.3 370.32C1244.24 370.35 1243.25 371.04 1242.16 371.23C1240.26 371.56 1238.3 371.58 1236.37 371.74C1237.47 369.98 1238.26 367.86 1239.76 366.55C1241.88 364.69 1244.53 363.42 1247.08 361.82C1236.19 351.68 1232.98 344.95 1229.78 326.04C1215.41 332.72 1200.96 333.33 1186.49 325.99C1183.88 340.48 1180.72 354.18 1167.84 362.73C1168.81 365.77 1175.99 365.31 1172.43 369.91C1168.16 375.42 1164.15 371.54 1160.53 367.48C1160.63 369.46 1161.14 370.75 1161.67 372.03C1162.78 374.74 1163.14 377.51 1159.93 378.83C1156.48 380.25 1156.61 376.63 1155.33 374.99C1154.21 373.57 1152.74 370.99 1151.75 371.13C1144.44 372.22 1137.21 373.86 1131 375.12C1134.05 391.18 1137.14 406.46 1139.75 421.81C1140.55 426.5 1140.35 431.43 1140.08 436.23C1139.62 444.24 1135.6 449.92 1128.11 453.18C1126.7 453.79 1125.06 455.43 1124.8 456.83C1122.8 467.67 1121.37 478.49 1127.15 488.85C1131.24 496.19 1135.56 502.96 1145.35 502.78C1146.15 502.77 1146.94 503.2 1147.75 503.32C1153.91 504.21 1160.18 506.26 1166.2 505.67C1175.59 504.75 1185.48 504.29 1193.44 497.78C1193.96 497.35 1195.26 497.58 1196.02 497.91C1196.31 498.04 1196.41 499.75 1196.05 500.02C1191.97 503.1 1188.02 508.13 1183.58 508.63C1169.3 510.24 1154.77 511.38 1140.61 506.87C1139.46 506.5 1138.17 506.58 1136.24 506.37C1138 511.79 1140.05 516.38 1140.94 521.18C1144.16 538.56 1147.12 556 1149.91 573.46C1152.22 587.93 1149.45 602.19 1144.92 615.62C1137.76 636.85 1128.74 657.45 1120.76 678.4C1112.9 699.02 1110.35 720.44 1111.27 742.45C1112.43 770.11 1115.55 797.59 1121.07 824.61C1126.28 850.12 1133.85 875.14 1140.47 900.35C1141.85 905.61 1143.6 910.76 1144.96 915.23C1147.5 915.75 1149.2 916.1 1150.91 916.44C1150.91 916.86 1150.93 917.28 1150.94 917.7C1149.38 918.41 1147.82 919.13 1145.68 920.11H1145.64ZM1311.53 822.2C1321.06 822.84 1334.05 814.63 1336.5 807.67C1336.72 807.05 1336.81 806.37 1336.87 805.71C1337.44 799.21 1338.44 792.7 1338.45 786.2C1338.45 774.54 1337.82 762.88 1337.5 751.22C1337.16 738.96 1336.59 726.69 1336.66 714.43C1336.74 700.84 1337.98 687.25 1337.74 673.68C1337.4 654.12 1336.23 634.57 1335.34 615.02C1334.57 598.14 1333.59 581.28 1332.92 564.4C1332.39 551 1331.85 537.59 1331.96 524.19C1332.13 503.9 1332.99 483.61 1333.28 463.32C1333.38 456.53 1333.53 449.53 1332.07 442.98C1329.15 429.89 1325.71 416.84 1321.37 404.16C1318.2 394.89 1313.53 385.74 1303.99 381.27C1298.42 378.66 1292.16 377.44 1286.12 375.98C1280.08 374.52 1279.78 375.03 1278.53 380.98C1278.01 383.47 1276.69 385.8 1275.74 388.2C1274.95 388.03 1274.16 387.85 1273.38 387.68C1273.59 384.6 1273.22 381.33 1274.14 378.48C1275.27 374.98 1274.06 373.94 1271.11 372.57C1267.25 370.77 1264.59 372.6 1261.26 373.87C1258.57 374.9 1257.35 376.01 1257.46 378.7C1257.76 386.34 1257.94 394 1258.43 401.63C1259.67 420.9 1261.23 440.14 1262.33 459.42C1263.1 473 1263.33 486.61 1263.78 500.21C1263.83 501.82 1263.78 503.44 1263.78 505.94C1272.9 502.56 1281.39 501.19 1286.98 491.97C1294.88 478.97 1293.05 466 1290.47 452.61C1290.14 450.87 1288.47 449.36 1287.32 447.82C1286.4 446.6 1285.11 445.61 1284.35 444.31C1280.83 438.25 1283.22 432.03 1284.06 425.79C1286.72 432.26 1288.57 438.97 1291.27 445.32C1297.94 461.05 1297.62 476.62 1291.35 492.31C1290.57 494.25 1289.9 496.42 1289.93 498.47C1290.17 517.7 1291.14 536.94 1290.8 556.15C1290.38 580.66 1290.99 604.85 1297.75 628.75C1303.4 648.7 1307.92 669.02 1311.92 689.37C1314.58 702.92 1319.25 716.25 1317.46 730.55C1315.17 748.8 1313.53 767.14 1311.65 785.44C1311.41 787.76 1311.39 790.1 1311.24 792.99C1320.91 788.73 1319.79 779.67 1323.18 772.62C1325 779.77 1325.72 786.96 1327.12 794.01C1329.13 804.11 1325.12 810.96 1316.73 816.12C1314.85 817.27 1313.69 819.59 1311.51 822.2H1311.53ZM1249.38 263.72C1248.51 256.38 1247.3 245.2 1245.78 234.06C1245.46 231.68 1244.35 229.26 1243.06 227.19C1236.91 217.27 1228.06 211.1 1216.68 208.31C1201.9 204.69 1189.27 208.69 1179.13 219.52C1169.78 229.51 1169.19 242.73 1167.92 255.47C1167.36 261.06 1166.22 266.94 1167.34 272.26C1169.35 281.77 1172.4 291.15 1175.91 300.24C1180.31 311.64 1186.78 321.42 1199.11 326.17C1208.12 329.64 1217 327.79 1222.97 322.22C1238.55 307.69 1248.8 289.85 1249.37 263.71L1249.38 263.72ZM1106 425.19C1105.96 425.64 1105.92 426.09 1105.87 426.53C1101.11 426.53 1096.33 426.33 1091.58 426.64C1089.93 426.75 1087.14 427.88 1086.95 428.92C1085.24 438.35 1083.02 447.83 1082.81 457.35C1082.4 475.46 1083.38 493.6 1083.41 511.72C1083.41 516.35 1085.82 517.1 1089.28 517.04C1100.54 516.83 1111.81 516.52 1123.06 516.11C1123.88 516.08 1125.38 514.87 1125.35 514.26C1125.03 506.62 1127.44 499.01 1124.26 491.31C1118.02 476.21 1118.17 460.96 1124.53 445.74C1127.06 439.69 1128.84 433.34 1131.25 426.3H1106.89C1108.87 423.93 1109.67 422.29 1110.98 421.53C1113.98 419.79 1117.26 418.55 1120.34 416.93C1121.05 416.56 1121.41 415.51 1121.93 414.78C1121.01 414.32 1119.86 413.26 1119.21 413.51C1117.24 414.27 1115.56 415.76 1113.6 416.53C1112.02 417.15 1110.2 417.22 1108.48 417.34C1108.24 417.36 1107.54 415.98 1107.69 415.81C1108.82 414.52 1109.9 412.83 1111.38 412.27C1118.26 409.65 1125.28 410.13 1133.38 412.41C1130.55 401.08 1127.93 390.35 1125.06 379.69C1124.83 378.83 1122.56 377.65 1121.75 377.96C1117.11 379.73 1111.68 380.91 1108.26 384.14C1099.99 391.95 1094.8 401.94 1091.73 413.19C1094.97 412.19 1097.9 411.29 1101.39 410.21V423.32C1103.06 424 1104.52 424.6 1105.97 425.19H1106ZM1084.38 522.49C1084.57 526.54 1085.2 530.15 1084.81 533.65C1082.92 550.94 1086.09 568.34 1082.63 585.7C1080.35 597.14 1080.6 609.08 1079.8 620.81C1079.52 624.94 1079.33 629.1 1079.48 633.24C1079.52 634.35 1080.9 636.31 1081.73 636.35C1092.1 636.84 1102.48 637.16 1112.86 637.16C1114.07 637.16 1115.9 635.22 1116.39 633.82C1121.7 618.67 1124.54 602.99 1125.09 586.99C1125.71 569.06 1125.76 551.11 1125.91 533.17C1125.94 529.3 1125.31 525.43 1125.06 522.5H1084.38V522.49ZM1271.91 597.25C1276.72 596.58 1279.3 599.23 1278.3 603.35C1278 604.59 1277.35 605.99 1276.41 606.78C1273.04 609.65 1272.9 612.98 1274.57 616.66C1280.11 628.91 1285.72 641.13 1291.23 653.39C1298.28 669.05 1303.37 685.34 1305.94 702.32C1307.63 713.49 1308.8 724.75 1310.4 737.51C1311.88 735.04 1313.72 733.36 1313.73 731.68C1313.77 726.58 1313.3 721.46 1312.65 716.39C1311.4 706.56 1310.52 696.62 1308.37 686.97C1303.54 665.26 1297.94 643.73 1292.82 622.08C1291.03 614.51 1289.71 606.84 1288.23 599.2C1286.56 590.56 1282.9 582.07 1286.51 573.01C1287.15 571.4 1286.91 569.38 1286.87 567.56C1286.59 555.27 1286.33 542.98 1285.92 530.69C1285.72 524.65 1285.19 518.62 1284.81 512.58C1284.21 512.53 1283.61 512.49 1283.02 512.44C1273.91 539.8 1264.43 567.12 1271.9 597.25H1271.91ZM1341.17 720.06C1347.85 720.51 1349.21 719.98 1349.8 714.48C1350.53 707.56 1350.44 700.54 1350.38 693.56C1350.25 676.95 1350.51 660.31 1349.56 643.74C1348.02 616.98 1345.29 590.3 1343.74 563.54C1342.79 547.29 1343.16 530.96 1342.84 514.66C1342.66 505.53 1341.81 496.39 1342.08 487.28C1342.95 457.75 1341.32 428.62 1329.02 401.19C1325.15 392.57 1320.64 383.96 1312.59 378.38C1305.47 373.43 1297.82 369.23 1289.64 364.23C1288.87 367.28 1288.35 369.35 1287.74 371.78C1291.01 372.48 1293.59 373.06 1296.17 373.59C1305.27 375.47 1312.53 379.74 1318.06 387.65C1323.43 395.33 1326.61 403.71 1329.4 412.45C1334.79 429.36 1338.53 446.45 1337.97 464.4C1337.35 484.32 1337.38 504.26 1337.17 524.19C1337.14 527.17 1337.52 530.16 1337.39 533.12C1337.04 540.63 1335.87 548.15 1336.19 555.62C1336.89 571.95 1338.35 588.24 1339.43 604.56C1339.95 612.45 1340.19 620.36 1340.75 628.25C1341.52 639.18 1343.06 650.09 1343.18 661.03C1343.29 670.84 1341.64 680.65 1341.28 690.49C1340.92 700.26 1341.2 710.06 1341.2 720.07L1341.17 720.06ZM1078.36 642.37C1076.17 669.2 1079.76 696.61 1079.84 723.9C1085.44 723.9 1090.55 724.05 1095.63 723.74C1096.44 723.69 1097.52 721.65 1097.8 720.39C1099.15 714.23 1100.53 708.05 1101.43 701.81C1103.91 684.65 1106.99 667.65 1113.07 651.32C1114.11 648.52 1114.21 645.36 1114.74 642.37H1078.36ZM1107.74 716.54C1106.83 704.18 1110.69 693.12 1114.68 682.23C1119.8 668.23 1125.05 654.22 1131.31 640.71C1136.09 630.4 1141.48 620.46 1142.44 608.93C1142.58 607.25 1141.88 605.13 1140.84 603.78C1137.8 599.85 1138.45 595.93 1142.83 593.58C1143.74 593.09 1145.01 592.22 1145.09 591.43C1145.9 583.7 1147.88 575.76 1146.85 568.26C1144.79 553.33 1141.08 538.63 1137.93 523.86C1137.47 521.69 1136.36 519.65 1135.6 517.69C1130.97 518.33 1129.69 520.53 1129.85 524.67C1130.17 533.14 1129.87 541.63 1129.8 550.11C1129.73 558.57 1129.51 567.03 1129.63 575.48C1129.67 578.61 1131.27 581.86 1130.77 584.82C1128.92 595.91 1126.66 606.93 1124.2 617.9C1123.44 621.27 1122.85 623.67 1126.57 625.77C1127.82 626.47 1128.74 630.06 1128.05 631.43C1126.32 634.83 1123.61 637.75 1121.21 640.79C1120.26 641.99 1118.39 642.84 1118.09 644.11C1113.15 665.63 1108.47 687.22 1103.51 708.74C1102.66 712.45 1103.24 714.88 1107.75 716.56L1107.74 716.54ZM1101.4 790.04C1107.78 768.19 1096.97 749.06 1097.32 729.23H1079.11C1079.11 730.72 1079.11 731.68 1079.11 732.64C1079.08 742.43 1079.18 752.21 1078.96 762C1078.76 770.54 1078.09 779.06 1077.87 787.59C1077.82 789.42 1079.63 791.47 1079.25 793.1C1076.04 806.61 1085.61 819.73 1100.46 821C1097.86 818.27 1095.61 815.86 1093.32 813.48C1089.3 809.31 1086.98 804.61 1088.2 798.6C1088.56 796.83 1088.33 794.94 1088.58 793.14C1090.06 782.59 1091.59 772.04 1093.13 761.5C1093.13 761.46 1093.44 761.46 1094.16 761.37C1093.69 771.35 1096.82 780.37 1101.4 790.05V790.04ZM1208.73 775.86C1208.26 775.79 1207.79 775.71 1207.32 775.64C1205.69 816.44 1204.05 857.24 1202.42 898.15C1204.58 898.15 1205.66 897.87 1206.52 898.2C1211.75 900.19 1212.8 897.77 1212.75 893.04C1212.63 881.38 1213.28 869.7 1212.86 858.06C1212.33 843.61 1210.88 829.2 1210.13 814.76C1209.45 801.81 1209.19 788.83 1208.74 775.86H1208.73ZM1263.92 592.73C1264.41 592.37 1264.9 592.01 1265.39 591.65C1264.96 561.53 1270.39 532.5 1281.55 504.64C1275.51 506.41 1269.59 508.48 1263.51 509.79C1260.37 510.46 1259.58 511.45 1259.64 514.63C1260.07 535.1 1260.23 555.58 1260.47 576.06C1260.52 580.05 1260.24 584.08 1260.74 588.01C1260.96 589.69 1262.8 591.17 1263.91 592.73H1263.92ZM1128.33 446.77C1135.1 438.1 1134.23 428.1 1133.84 417.82C1127.48 419.56 1121.84 421.1 1116.21 422.63C1116.35 423.26 1116.48 423.89 1116.62 424.52C1121.67 423.85 1126.71 423.19 1131.49 422.56C1135.45 431.65 1129.74 438.88 1128.34 446.77H1128.33ZM1072.47 636.05C1073.38 633.4 1074.29 632.01 1074.15 630.73C1074.05 629.78 1072.59 628.98 1071.73 628.12C1070.74 629.23 1068.99 630.32 1068.96 631.46C1068.93 632.59 1070.62 633.77 1072.47 636.05Z" fill="black"/>
<path d="M1388.82 455.76C1392.12 456.67 1395.56 457.24 1398.67 458.59C1402.91 460.43 1403.39 463.76 1400.5 467.29C1395.81 473.02 1389.56 472.61 1383.18 471.78C1382.86 471.74 1382.54 471.61 1382.23 471.51C1378.13 470.26 1372.53 469.27 1373.11 464.16C1373.67 459.34 1378.88 457.37 1383.67 456.59C1385.29 456.32 1386.97 456.41 1388.62 456.34L1388.81 455.76H1388.82ZM1383.52 465.3C1385.03 466.72 1386.34 468.99 1388.08 469.39C1391.92 470.28 1392.46 466.84 1392.18 464.34C1391.98 462.54 1390.41 459.81 1388.97 459.45C1385.7 458.64 1384.31 461.02 1383.52 465.29V465.3Z" fill="black"/>
<path d="M1043.5 501.26C1041.77 500.64 1040.04 500.01 1036.79 498.84C1039.48 497.82 1040.82 497.47 1042 496.82C1042.74 496.41 1043.24 495.56 1043.85 494.9C1043.15 494.3 1042.29 493.09 1041.78 493.22C1039.61 493.78 1037.53 494.71 1035.44 495.57C1034.03 496.15 1032.66 497.3 1031.27 497.3C1030.46 497.3 1028.86 495.39 1029.01 494.62C1029.25 493.44 1030.5 491.95 1031.66 491.54C1038.91 488.98 1046.26 489.48 1053.39 492C1054 492.21 1053.47 495.63 1053.47 497.57L1052.04 497.72C1052.89 499.07 1053.74 500.42 1054.55 501.71C1049.97 507.67 1033.67 507.59 1029.04 500.5L1043.28 503.33C1043.35 502.64 1043.42 501.95 1043.49 501.25L1043.5 501.26Z" fill="black"/>
<path d="M1033.21 631.97C1034.53 631.22 1035.86 630.46 1037.18 629.71C1037.15 629.26 1037.13 628.81 1037.1 628.35C1032.86 627.99 1028.62 627.63 1024.38 627.27C1031.23 622.77 1037.3 616.61 1047.01 617.89C1046.39 622.66 1047.78 626.02 1053.13 626.87C1051.15 627.4 1049.17 627.94 1045.98 628.8C1048.58 630.35 1050.13 631.26 1051.67 632.18C1051.61 632.47 1051.55 632.76 1051.49 633.05H1033.06C1033.11 632.69 1033.15 632.33 1033.2 631.97H1033.21Z" fill="black"/>
<path d="M1031.09 718.24C1031.38 715.56 1031.63 713.28 1031.9 710.81H1055.58L1055.7 712.07C1049.17 713.83 1041.76 711.28 1035.46 714.16C1035.54 714.84 1035.61 715.52 1035.69 716.21C1037.34 716.21 1039 716.09 1040.64 716.23C1045.06 716.61 1049.61 716.59 1053.86 717.69C1057.67 718.68 1057.75 721.29 1054.56 723.6C1049.21 727.47 1036.57 727.12 1030.91 722.72C1032.99 720.65 1034.45 719.43 1037.5 721.96C1039.35 723.5 1042.64 723.32 1045.33 723.92C1045.91 718.94 1043.46 718.04 1031.09 718.24Z" fill="black"/>
<path d="M1005.21 622.03C1008.88 620.54 1012.46 618.89 1016.19 617.72C1016.93 617.49 1018.84 618.87 1019.16 619.85C1019.71 621.52 1019.44 623.47 1019.47 625.3C1019.53 628.29 1018.75 631.74 1024.6 631.35C1024.21 631.85 1023.81 632.35 1023.42 632.85H1004.65C1010.59 629.06 1010.58 625.21 1005.21 622.03Z" fill="black"/>
<path d="M1023.85 709.96C1027.11 714.96 1021.73 721.99 1029.45 725.26H1011.41C1012.63 723.53 1014.98 721.66 1014.97 719.82C1014.95 717.87 1012.69 715.93 1011.46 714.08C1015.41 712.77 1019.74 711.33 1023.86 709.96H1023.85Z" fill="black"/>
<path d="M1024.61 505.46H1006.79C1008.26 503.45 1010.48 501.73 1010.58 499.91C1010.67 498.11 1008.62 496.19 1007.39 494.1C1010.41 492.9 1014.11 491.28 1017.94 490.07C1018.55 489.88 1020.3 491.42 1020.57 492.41C1021.02 494.12 1020.69 496.03 1020.73 497.86C1020.79 500.76 1019.94 504.23 1025.86 503.59C1025.45 504.21 1025.04 504.83 1024.62 505.45L1024.61 505.46Z" fill="black"/>
<path d="M1367.29 456.14C1369.77 461.44 1365.43 468.02 1372.38 471.52H1354.61C1354.52 471.28 1354.44 471.03 1354.35 470.79C1355.65 470.08 1356.94 469.37 1359.36 468.04C1357.96 465.36 1356.58 462.7 1355.14 459.95C1358.64 458.85 1362.94 457.5 1367.3 456.14H1367.29Z" fill="black"/>
<path d="M1110.32 336.78C1116.42 331.38 1116.43 330.29 1111.4 325.51C1114.35 324.17 1117.39 322.58 1120.58 321.42C1122.95 320.56 1124.95 321.07 1124.79 324.32C1124.75 325.15 1124.77 325.99 1124.82 326.82C1125.06 330.39 1123.5 334.73 1130.16 335.63C1129.69 336.01 1129.22 336.4 1128.75 336.78H1110.33H1110.32Z" fill="black"/>
<path d="M1133.11 336.62C1134.71 334.43 1136.72 332.92 1136.64 331.51C1136.53 329.32 1135 327.21 1134.06 325.04C1137.28 323.91 1141.5 322.44 1145.63 320.99C1149.03 325.87 1143.07 333.57 1151.23 336.62H1133.1H1133.11Z" fill="black"/>
<path d="M1136.27 917.93C1134.8 915.77 1133.01 913.74 1132.05 911.37C1131.71 910.52 1133.4 908.85 1134.16 907.55C1135.07 908.28 1136.52 908.84 1136.78 909.76C1137.48 912.17 1137.66 914.72 1138.05 917.22C1137.46 917.46 1136.86 917.7 1136.27 917.94V917.93Z" fill="black"/>
<path d="M1277.82 912.01C1279.99 910.17 1282.15 908.33 1284.32 906.49C1284.71 906.61 1285.09 906.74 1285.48 906.86C1285.25 908.39 1285.57 910.63 1284.69 911.3C1283.01 912.59 1280.64 912.99 1278.56 913.76C1278.31 913.18 1278.07 912.59 1277.82 912.01Z" fill="black"/>
<path d="M1158.9 800.58H1142.51C1143.69 797.76 1145.16 795.5 1145.4 793.12C1145.52 791.91 1143.41 790.48 1141.99 788.76C1142.52 788.58 1143.39 788.26 1144.28 787.99C1146.06 787.44 1147.84 786.92 1149.62 786.38C1151.14 785.91 1152.92 784.74 1154.11 785.18C1155.05 785.53 1155.51 787.81 1155.72 789.3C1156.13 792.22 1156.21 795.19 1156.42 798.14C1157.12 798.11 1157.82 798.07 1158.51 798.04V627.34H1150.47C1150.18 626.93 1149.88 626.52 1149.59 626.11C1153.64 622.32 1157.69 618.53 1161.6 614.87C1164.73 618.93 1167.76 622.87 1171.5 627.71C1164.02 627.02 1164.21 631.51 1164.22 636.07C1164.24 650.21 1164.27 664.36 1164.1 678.5C1163.81 702.78 1163.31 727.05 1163.01 751.33C1162.87 762.79 1162.99 774.25 1162.99 784.93C1169.99 784.93 1175.89 784.7 1181.74 785.04C1184.25 785.19 1186.74 786.4 1189.14 787.38C1189.84 787.67 1190.2 788.8 1190.71 789.55C1184.83 791.42 1195.29 798.87 1187.41 799.69C1179.66 800.5 1171.82 800.56 1163.34 800.98C1163.49 800.35 1163.15 801.12 1163.14 801.88C1163.12 822.36 1163.05 842.84 1163.18 863.32C1163.23 871.29 1163.61 879.27 1164.16 887.23C1164.24 888.36 1166.15 890.25 1167.25 890.28C1171.56 890.38 1171.31 892.9 1169.83 895.22C1167.27 899.22 1164.13 902.84 1160.78 907.22C1156.52 901.48 1152.88 896.57 1148.94 891.27C1158.3 889.27 1158.23 889.27 1158.32 880.08C1158.45 867.78 1158.79 855.48 1158.88 843.18C1158.98 829.25 1158.9 815.32 1158.9 800.57V800.58Z" fill="black"/>
<path d="M1209.64 471.24C1208.17 472.21 1206.7 473.17 1204.91 474.34C1201.4 471.8 1198.76 468.19 1193.23 468.2C1190.63 468.2 1188.75 462.61 1189.82 457.43C1191.31 458.67 1192.4 459.41 1193.29 460.35C1196.28 463.5 1201.32 462.56 1201.95 458.28C1202.83 452.24 1202.79 446.06 1203.07 439.93C1203.43 432.143 1199.71 428.23 1191.9 428.19C1190.32 428.19 1188.74 427.99 1187.22 427.89C1188.66 425.57 1190.74 423.69 1190.78 421.77C1190.81 419.95 1188.71 418.08 1187.39 416.01C1191.38 414.85 1195.87 413.55 1201.57 411.9V425.45C1202.04 425.45 1202.52 425.45 1202.99 425.45C1203.26 424.62 1203.76 423.8 1203.78 422.96C1203.99 413.64 1204.07 404.32 1204.33 395C1204.41 392.07 1203.07 391.15 1200.41 391.3C1198.82 391.39 1197.22 391.32 1194 391.32C1198.6 386.05 1202.23 381.9 1205.1 378.61C1205.55 375.81 1205.89 373.73 1206.23 371.66C1209.74 372.53 1213.26 373.4 1216.77 374.27C1214.65 375.62 1212.54 376.96 1209.47 378.92C1211.54 382.7 1214.01 387.23 1216.88 392.47H1209.39V415.34C1218.46 411.79 1227.88 410.69 1237.68 414.65C1236.94 417.95 1233.69 420.61 1237.55 423.02C1236.43 424.41 1235.36 426.94 1234.17 427C1227.63 427.33 1221.05 427.17 1214.5 426.91C1212.8 426.84 1211.14 425.79 1207.9 424.63C1207.9 436.02 1207.74 446.42 1208.06 456.81C1208.11 458.52 1209.91 460.69 1211.5 461.75C1217.88 465.99 1217.95 476.79 1211.33 480.85C1210.71 481.23 1208.99 481.06 1208.8 480.67C1208.22 479.43 1207.66 477.84 1207.98 476.62C1208.41 474.97 1209.65 473.53 1210.55 472C1210.25 471.74 1209.96 471.48 1209.66 471.23L1209.64 471.24ZM1218.71 420.77C1221.28 420.23 1223.19 419.96 1225.01 419.41C1226.33 419.01 1227.53 418.24 1228.79 417.64C1227.4 416.87 1226.02 415.49 1224.61 415.47C1221.74 415.42 1219.16 416.46 1218.7 420.77H1218.71Z" fill="black"/>
<path d="M1168.23 609.31C1172.02 605.66 1177.01 606.99 1181.82 609.12C1183.01 609.65 1183.59 611.56 1184.45 612.84C1183.28 613.45 1182.05 614.68 1180.95 614.57C1175.95 614.07 1171 613.16 1166.02 612.48C1164.58 612.28 1163.07 612.55 1161.64 612.31C1158.11 611.71 1154.5 611.23 1151.15 610.05C1150.2 609.72 1149.39 606.97 1149.74 605.65C1149.98 604.73 1152.55 603.54 1153.65 603.88C1158.42 605.34 1163.03 607.32 1168.23 609.31Z" fill="black"/>
<path d="M1252.36 540.18C1249.78 545.28 1247.55 549.83 1245.15 554.29C1244.76 555.03 1243.67 555.79 1242.87 555.84C1239.64 556.02 1236.39 555.91 1232.85 555.91C1235.67 551.43 1238.18 547.45 1240.69 543.47C1240.3 543.04 1239.91 542.61 1239.51 542.18C1237.83 542.87 1236.17 543.61 1234.47 544.23C1233.14 544.72 1231.73 545.46 1230.41 545.35C1229.51 545.28 1227.91 543.74 1228.04 543.19C1228.31 542.07 1229.5 540.34 1230.35 540.31C1237.38 540.08 1244.43 540.18 1252.34 540.18H1252.36Z" fill="black"/>
<path d="M1205.52 555.19C1212.18 550.1 1212.17 548.01 1205.44 544.09C1209.76 542.61 1213.67 541.11 1217.69 540.05C1218.28 539.89 1219.9 541.64 1220.19 542.73C1220.65 544.43 1220.06 546.4 1220.49 548.11C1221.06 550.38 1222.19 552.5 1223.28 555.19H1205.52Z" fill="black"/>
<path d="M1172.32 415.19C1179.91 419.84 1180.82 426.8 1182.23 433.71C1176.38 433.99 1173.11 427.98 1172.32 415.19Z" fill="black"/>
<path d="M1217.08 608.43C1219.17 608.55 1220.65 608.28 1221.77 608.8C1222.78 609.26 1223.93 610.53 1224.03 611.54C1224.12 612.47 1222.88 614.41 1222.25 614.4C1217.71 614.32 1213.16 613.94 1208.64 613.44C1208 613.37 1207.48 612.13 1206.91 611.44C1207.61 610.87 1208.23 609.97 1209.02 609.8C1211.92 609.17 1214.87 608.79 1217.08 608.43Z" fill="black"/>
<path d="M1253.91 613.29C1253.01 613.17 1250.85 613.07 1248.8 612.53C1247.95 612.3 1246.75 611.1 1246.79 610.4C1246.83 609.61 1248 608.38 1248.83 608.22C1252.23 607.59 1255.69 606.97 1259.11 607.06C1260.58 607.1 1262.01 608.86 1263.47 609.84C1262.18 610.88 1261.03 612.24 1259.57 612.87C1258.28 613.42 1256.64 613.14 1253.91 613.3V613.29Z" fill="black"/>
<path d="M1195.56 615.2C1192.69 613.68 1187.99 612.09 1188.11 611.08C1188.64 606.67 1192.92 607.54 1195.99 607.63C1198.89 607.71 1203.13 606.9 1203.44 611.08C1203.52 612.18 1198.68 613.64 1195.56 615.2Z" fill="black"/>
<path d="M1233.15 408.35C1234.4 404.24 1235.36 400.58 1236.69 397.06C1237.04 396.13 1238.5 395.63 1239.46 394.93C1240.08 396.11 1241.41 397.44 1241.2 398.44C1240.44 402.12 1239.29 405.73 1237.98 409.26C1237.66 410.12 1235.96 411.2 1235.22 411C1234.34 410.76 1233.8 409.25 1233.17 408.36L1233.15 408.35Z" fill="black"/>
<path d="M1197.23 472.76C1200.55 475.96 1203.33 478.43 1205.8 481.18C1206.49 481.95 1206.24 483.55 1206.43 484.77C1205.22 484.9 1203.88 485.43 1202.82 485.09C1198.35 483.67 1195.76 478.79 1197.23 472.76Z" fill="black"/>
<path d="M1189.12 452.76C1188.24 452.01 1187.45 451.61 1187.08 450.97C1185.53 448.23 1183.98 445.48 1182.73 442.6C1182.39 441.81 1182.81 440.31 1183.43 439.61C1183.86 439.12 1185.89 439.11 1186.06 439.45C1187.84 443.03 1189.45 446.69 1190.89 450.42C1191.06 450.85 1189.88 451.8 1189.12 452.76Z" fill="black"/>
<path d="M1247.32 380.75C1246.24 383.99 1245.41 387.03 1244.16 389.89C1243.81 390.7 1241.94 391.63 1241.31 391.34C1240.43 390.94 1239.39 389.27 1239.59 388.42C1240.33 385.38 1241.39 382.38 1242.69 379.53C1243.12 378.59 1244.65 378.15 1245.67 377.48C1246.2 378.54 1246.73 379.6 1247.31 380.75H1247.32Z" fill="black"/>
<path d="M1164.39 383.15C1166.12 387.25 1167.95 391.31 1169.46 395.49C1169.68 396.09 1168.51 397.53 1167.66 398.05C1167.06 398.41 1165.23 398.08 1165.11 397.7C1163.72 393.21 1162.55 388.64 1161.32 384.1C1162.34 383.78 1163.36 383.47 1164.38 383.15H1164.39Z" fill="black"/>
<path d="M1222.46 449.21C1221.52 453.02 1220.8 456.89 1219.54 460.59C1219.11 461.86 1217.33 462.66 1216.16 463.67C1215.89 462.28 1215.26 460.85 1215.42 459.52C1215.71 457.08 1216.15 454.56 1217.15 452.35C1217.92 450.65 1219.64 449.38 1220.93 447.91C1221.44 448.34 1221.95 448.77 1222.46 449.2V449.21Z" fill="black"/>
<path d="M1241.97 613.42C1237.84 613.42 1234.29 613.53 1230.75 613.34C1229.85 613.29 1229 612.28 1228.13 611.72C1228.71 610.85 1229.1 609.65 1229.91 609.15C1234.2 606.47 1239.81 608.16 1241.97 613.42Z" fill="black"/>
<path d="M1176.05 409.72C1174.47 410.96 1173.5 411.72 1172.52 412.48C1171.09 409.36 1169.54 406.29 1168.37 403.08C1168.2 402.61 1169.87 401.48 1170.68 400.65C1172.36 403.49 1174.04 406.32 1176.05 409.72Z" fill="black"/>
<path d="M1164.49 993.02C1162.84 987.99 1161.13 982.98 1159.62 977.9C1159.44 977.28 1160.22 976.08 1160.88 975.62C1161.25 975.36 1162.73 975.83 1162.96 976.32C1164.07 978.68 1165.4 981.1 1165.73 983.62C1166.11 986.5 1165.5 989.5 1165.33 992.45L1164.49 993.02Z" fill="black"/>
<path d="M1253.68 976.41C1255.92 982.17 1254.17 987.53 1252.29 992.88C1251.55 992.8 1250.81 992.72 1250.07 992.64C1250.75 987.17 1251.43 981.71 1252.12 976.24C1252.64 976.3 1253.16 976.35 1253.68 976.41Z" fill="black"/>
<path d="M1195.32 369.44C1197.51 371.03 1199.33 372.36 1201.15 373.68C1199.76 374.45 1198.18 376.06 1197.02 375.8C1194.79 375.3 1192.8 373.74 1190.72 372.63C1192 371.74 1193.28 370.85 1195.32 369.44Z" fill="black"/>
<path d="M1180.47 367.26C1182.72 369.75 1184.43 371.65 1186.14 373.55C1185.17 374.19 1183.78 375.59 1183.3 375.33C1181.13 374.16 1179.22 372.52 1177.22 371.05C1178.06 370.07 1178.91 369.08 1180.47 367.26Z" fill="black"/>
<path d="M1221.21 439.78C1223.07 437.14 1224.61 434.95 1226.14 432.77C1226.84 433.84 1228.36 435.25 1228.08 435.91C1227.07 438.32 1225.46 440.49 1224.08 442.75C1223.33 441.97 1222.58 441.2 1221.21 439.78Z" fill="black"/>
<path d="M1226.17 377.58C1224.09 376.18 1222.92 375.39 1221.75 374.61C1223.77 373.39 1225.69 371.94 1227.86 371.11C1228.44 370.89 1229.75 372.56 1230.72 373.36C1229.32 374.66 1227.92 375.96 1226.17 377.58Z" fill="black"/>
<path d="M1159.77 917.66C1162.82 917.08 1165.87 916.42 1168.94 915.99C1169.37 915.93 1170.35 916.97 1170.37 917.52C1170.39 918.13 1169.67 919.23 1169.14 919.31C1166.15 919.81 1163.12 920.07 1160.1 920.41C1159.99 919.49 1159.88 918.57 1159.77 917.65V917.66Z" fill="black"/>
<path d="M1178.63 919.74C1180.46 916.71 1187.54 915.84 1188.38 917.9C1188.59 918.42 1187.28 920.28 1186.61 920.31C1184.2 920.42 1181.77 920.01 1178.64 919.74H1178.63Z" fill="black"/>
<path d="M1222.24 917.13C1225.28 916.59 1228.31 916.04 1232.09 915.37C1229.88 919.73 1227.6 920.27 1222.52 918.61C1222.43 918.12 1222.33 917.63 1222.24 917.14V917.13Z" fill="black"/>
<path d="M1253.3 918.64H1244.37C1247.23 917.42 1250.15 916.84 1253.3 917.74C1253.3 918.04 1253.3 918.34 1253.3 918.64Z" fill="black"/>
<path d="M1273.28 410.73C1267.76 403.05 1269.32 395.79 1276.57 394.83C1276.94 400.32 1278.02 405.77 1273.28 410.73Z" fill="black"/>
<path d="M1327.27 748.65C1325.02 747.11 1323.55 746.11 1322.08 745.1C1323.9 743.71 1325.59 741.5 1327.57 741.19C1329.07 740.96 1330.94 743.16 1332.65 744.28C1330.97 745.64 1329.3 747 1327.27 748.65Z" fill="black"/>
<path d="M1278.19 416.83C1279.01 421.02 1279.82 425.22 1280.64 429.41C1271.94 426.98 1276.55 421.55 1276.03 417.3L1278.2 416.83H1278.19Z" fill="black"/>
</g>
<g clip-path="url(#clip2_8_3601)">
<path d="M362.8 471.37C362.31 476.17 361.9 480.15 361.36 485.37C356.96 483.28 353.36 481.81 350 479.93C346.31 477.86 347.58 475.34 350.53 474.21C354.14 472.84 358.1 472.41 362.79 471.37H362.8Z" fill="white"/>
<path d="M371.46 519.47C364.39 517.9 363.45 514.92 366.97 507.05C368.46 511.17 369.83 514.96 371.46 519.47Z" fill="white"/>
<path d="M436.71 436.09C440.56 435.54 444.39 434.84 448.26 434.54C449.57 434.44 450.97 435.34 452.32 435.79C451.17 436.54 450.04 437.89 448.85 437.94C443.2 438.18 437.54 438.15 431.89 438.01C430.58 437.98 429.29 437.13 428 436.65C428.86 435.69 429.55 434.46 430.6 433.82C434.49 431.47 438.49 429.32 442.85 426.87C439.37 424.63 436.93 425.92 434.26 427.88C432.84 428.92 430.76 429.11 428.95 429.5C428.8 429.53 427.89 427.73 428.12 427.49C429.32 426.16 430.69 424.16 432.15 424.02C438.12 423.47 444.14 423.3 450.13 423.5C451.37 423.54 453.57 425.85 453.47 426.95C453.35 428.33 451.54 430.18 450.06 430.69C446.16 432.05 442.05 432.79 438.03 433.81C437.47 433.95 436.96 434.3 436.43 434.55L436.71 436.11V436.09Z" fill="black"/>
<path d="M430.91 360.11C435.25 358.41 435.6 355.06 434.99 350.94C433.6 350.37 432.07 349.74 430.51 349.1C434.27 347.55 437.66 345.99 441.17 344.76C443.4 343.98 445.17 344.65 445.18 347.48C445.2 350.63 445.18 353.77 445.18 357.1C446.74 357.75 448.24 358.37 449.73 358.99C449.67 359.36 449.61 359.74 449.55 360.11H430.91Z" fill="black"/>
<path d="M453.94 319.62C447.04 318.9 440.04 316.8 433.75 321.39C434.14 317.57 437.35 314.71 441.49 314.55C451.54 314.16 452.76 314.63 453.94 319.61V319.62Z" fill="black"/>
<path d="M342.1 760.02C342.78 768.96 343.51 777.91 344.12 786.86C344.24 788.67 344.38 790.7 343.72 792.3C342.73 794.65 341.3 798.26 339.57 798.56C335.96 799.19 333.12 796.64 331.97 792.83C331.54 791.41 330.96 790.03 330.1 787.67C327.31 795.77 328.46 801.61 333.97 806.72C336.49 809.06 338.42 812.11 340.32 815.03C343.54 819.99 343.44 820.07 340.52 828.29C334.42 825.7 328.33 823.17 322.29 820.52C313.13 816.49 310.25 808.23 309.51 799.42C308.56 788.24 307.42 776.81 308.73 765.77C311.58 741.8 309.31 717.88 309.69 693.95C309.87 682.8 307.89 671.62 308.01 660.46C308.12 649.89 309.87 639.35 310.59 628.77C311.19 619.94 311.14 611.06 311.77 602.23C312.48 592.12 314.04 582.05 314.45 571.93C314.8 563.49 313.88 555 313.81 546.53C313.75 538.76 313.36 530.88 314.38 523.22C316.75 505.38 315.01 487.62 313.95 469.9C312.76 449.93 315.29 430.76 322.33 412.11C326.45 401.19 330.56 390.27 338.97 381.7C340.01 380.64 341.02 379.21 342.31 378.81C352.44 375.67 362.6 372.65 372.82 369.81C375.75 368.99 378.88 368.87 382.56 368.33C380.77 365.99 379.04 364.62 378.53 362.88C377.43 359.12 378.04 355.44 381.91 353.41C385.4 351.59 389.02 349.91 392.76 348.69C395.29 347.86 398.5 348.39 397.24 343.85C400.24 345.07 402.86 345.56 404.73 347.01C409.08 350.39 411.95 349 413.09 344.4C415 336.72 416.43 328.9 417.57 321.07C417.8 319.5 415.96 317.53 414.87 315.88C407.35 304.53 401.59 292.38 399.22 278.91C398.4 274.22 398.24 269.26 398.71 264.52C399.79 253.44 400.86 242.31 403.1 231.43C404.15 226.33 406.94 220.84 410.58 217.15C421.74 205.8 435.91 198.8 451.59 203.46C473.6 210 484.08 219.01 487.14 244.5C488.74 257.83 488.03 271.84 485.77 285.1C484.25 294.06 478.79 302.59 474.05 310.7C467.37 322.14 467.37 338 475.42 347.7C477.49 346.6 479.65 345.45 480.95 344.75C484.03 346.11 486.54 347.35 489.14 348.33C491.78 349.32 494.5 350.13 497.22 350.9C504.8 353.05 506.63 362.12 500.24 367.39C510.25 369.43 519.97 371.99 529.84 373.3C545.22 375.35 554.15 385.39 559.34 398.21C567.64 418.73 573.53 440.06 572.72 462.66C572.18 477.62 571.75 492.59 571.74 507.55C571.73 520.4 573.8 533.42 572.28 546.05C571.13 555.59 571.7 564.82 572.11 574.14C572.59 585.15 574.16 596.12 574.95 607.12C575.89 620.28 576.66 633.46 577.22 646.64C577.68 657.51 579.08 668.58 577.68 679.25C575 699.7 576.94 720.09 576.49 740.48C576.27 750.34 577.77 760.24 577.55 770.1C577.29 782.18 575.48 794.24 575.48 806.31C575.48 811.7 572.73 814.16 569.34 816.51C564.45 819.91 559.4 823.27 553.97 825.63C551.41 826.74 547.82 825.47 544.7 825.28C545.1 822.48 544.83 819.33 546.06 816.95C548.34 812.55 551.8 808.77 554.18 804.4C555.98 801.1 556.85 797.3 558.14 793.73C557.55 793.4 556.97 793.07 556.38 792.74C555.32 793.6 554.38 794.82 553.17 795.24C550.31 796.21 547.25 797.48 544.43 797.17C543.46 797.07 542.2 792.58 542.39 790.19C543.24 779.24 544.56 768.33 545.72 757.4C545.93 755.45 546.15 753.49 546.37 751.54C545.82 751.45 545.26 751.36 544.71 751.28C542.91 761.81 540.98 772.32 539.33 782.87C537.33 795.66 535.38 808.46 533.72 821.3C529.17 856.49 518.05 890.01 507.91 923.78C505.71 931.1 502.72 938.33 501.69 945.82C499.63 960.83 502.07 975.7 506.34 990.09C512.74 1011.61 519.8 1032.97 519.55 1055.76C519.35 1073.5 516.09 1090.63 510.07 1107.46C505.16 1121.19 502.09 1135.57 498.16 1149.65C496.03 1157.3 493.13 1164.8 491.78 1172.58C488.74 1190.14 486.61 1207.93 490.5 1225.58C492.1 1232.85 495.23 1240.04 499 1246.49C502.83 1253.02 508.36 1258.54 513.06 1264.57C521.06 1274.85 513.01 1286.09 504.53 1287.54C495.7 1289.06 486.69 1289.54 477.74 1290.33C474.6 1290.61 471.41 1290.58 468.25 1290.44C460.97 1290.12 456.4 1286.24 455.22 1279.08C454.63 1275.49 454.78 1271.78 454.45 1268.14C453.9 1262.07 453.23 1256.01 452.64 1249.95C452.56 1249.13 452.6 1248.29 452.64 1247.46C453.45 1231.18 454.38 1214.91 455.05 1198.62C455.41 1189.99 455.56 1181.33 455.4 1172.7C455.17 1159.8 454.91 1146.89 454.07 1134.02C452.48 1109.77 450.09 1085.58 448.77 1061.32C448.04 1047.9 448.96 1034.5 450.66 1021.01C452.36 1007.47 451.16 993.52 450.75 979.76C450.52 971.89 449.88 963.95 448.45 956.22C445.56 940.51 447.92 924.9 448.03 909.22C448.22 881.6 447.49 853.97 446.75 826.35C446.4 813.24 445.16 800.15 444.29 787.06C444.22 786 443.88 784.97 443.66 783.92C443.22 783.92 442.78 783.92 442.33 783.92C441.93 788.88 441.33 793.83 441.17 798.8C440.5 818.76 440.02 838.72 439.34 858.67C438.78 875.05 437.85 891.42 437.46 907.8C437.19 919.06 437.57 930.34 437.66 941.61C437.68 943.74 437.66 945.87 437.23 948.24C437.11 951.77 437.04 955.31 436.87 958.84C436.57 964.94 435.93 971.03 435.93 977.13C435.93 993.52 436.22 1009.91 436.35 1026.3C436.44 1038.36 436.64 1050.42 436.44 1062.48C436.21 1076.5 435.86 1090.53 435.09 1104.53C433.74 1128.77 431.83 1152.98 430.57 1177.23C430.18 1184.82 431.24 1192.49 431.46 1200.12C431.82 1212.67 431.98 1225.22 432.35 1237.77C432.45 1241 433.43 1244.24 433.28 1247.45C432.78 1258.04 432.24 1268.64 431.17 1279.18C430.3 1287.78 425.51 1291.75 416.98 1292.2C403.84 1292.88 391.16 1291.24 378.93 1285.97C367.75 1281.15 365.59 1269.11 375.51 1261.92C382.65 1256.74 386.21 1249.44 390.06 1242.15C396.59 1229.79 398.1 1216.07 397.89 1202.65C397.63 1186.16 396.74 1169.4 389.31 1153.93C387.77 1150.72 387.69 1146.83 386.7 1143.31C380.79 1122.35 373.96 1101.6 369.09 1080.4C364.09 1058.65 365.35 1036.87 372.81 1015.43C377.39 1002.28 381.17 988.75 383.94 975.11C387.04 959.85 385.3 944.8 380.42 929.7C372.51 905.18 365.83 880.26 358.98 855.41C355.27 841.95 351.62 828.42 349.15 814.7C346.92 802.3 346.44 789.58 344.94 777.03C344.26 771.34 342.98 765.72 341.98 760.07C340.85 748.81 339.72 737.55 338.59 726.3C338.13 726.2 337.66 726.1 337.2 726C336.78 727.2 335.81 728.51 336.02 729.6C337.93 739.75 340.04 749.86 342.09 759.98L342.1 760.02ZM338.61 786.41C338.98 786.41 339.34 786.39 339.71 786.38C338.92 777.96 338.33 769.52 337.29 761.13C335.87 749.65 334.13 738.21 332.44 726.76C332.32 725.93 331.6 725 330.9 724.47C329.07 723.08 327.05 721.95 325.2 720.6C320.98 717.53 321.09 712.16 325.47 709.43C327.72 708.02 330.36 707.13 332.37 705.46C334.22 703.94 336.33 701.9 336.85 699.74C341.77 679.07 346.41 658.33 351.05 637.6C353.81 625.3 357.25 613.08 358.88 600.62C360.4 588.97 359.98 577.06 360.32 565.27C360.63 554.46 360.92 543.64 361.03 532.83C361.08 527.66 360.61 522.98 355.33 519.51C349.9 515.95 350.23 510.62 354.91 506.07C356.46 504.57 357.97 502.99 359.31 501.31C363.14 496.52 361.33 491.49 355.62 489.49C351.14 487.92 346.59 486.06 342.7 483.41C338.22 480.36 338.51 473.62 343.3 471.02C349.32 467.75 355.87 465.47 362.7 462.55C362.12 455.24 367.27 445.26 355.51 440.4C355.22 440.28 355 439.97 354.79 439.72C352 436.38 352.87 431.72 356 428.78C359.78 425.23 362.16 427.6 364.65 430.56C365.42 428.59 366 427.13 367.07 424.42C367.65 427.83 368.02 429.95 368.41 432.24C369.97 431.03 371.21 430.08 372.44 429.13C372.78 429.31 373.11 429.49 373.45 429.66C372.47 433.38 371.48 437.11 370.49 440.87C370.96 441.2 371.31 441.62 371.75 441.72C375.16 442.5 378.55 443.41 382 443.92C422 449.8 462.01 449.97 501.99 443.72C506.54 443.01 511.05 441.51 515.3 439.7C516.74 439.09 517.86 436.51 518.16 434.67C518.63 431.79 518.29 428.78 518.29 425.41C519.53 425.93 519.96 426.14 520.41 426.3C530.81 429.98 531.82 434.83 523.87 442.47C522.99 443.31 522.17 444.7 522.14 445.85C521.97 451.94 522.06 458.05 522.06 463.04C527.69 465.28 532.46 466.73 536.81 469C544.5 473.01 544.53 480.99 536.97 485.22C534.11 486.83 530.81 487.65 527.79 489.01C526.55 489.57 524.49 490.74 524.58 491.4C525.24 496.3 523.65 501.79 528.31 505.74C530.85 507.9 530.73 516.12 528.86 518.75C527.42 520.77 525.86 523.25 525.77 525.57C525.49 533.21 525.94 540.87 525.94 548.52C525.94 560 525.69 571.49 525.7 582.97C525.72 605.2 532.69 626.22 537.26 647.65C540.9 664.7 545.22 681.61 548.95 698.64C549.91 703.02 550.67 706.81 555.35 708.97C558.8 710.56 559.04 717.91 556.48 720.65C555.12 722.11 553.65 724.03 553.42 725.88C552.13 736.4 551.33 746.97 550.13 757.5C548.96 767.74 547.47 777.94 546.19 788.17C546.02 789.54 546.29 790.97 546.38 792.93C556.02 788.66 554.94 779.42 558.1 772.18C559.81 778.63 561.05 785.09 562.21 791.57C564.12 802.24 561.41 810.82 551.41 816.47C549.67 817.45 548.84 820.04 547.59 821.89C557.11 822.31 563.3 817.4 569 811.83C570.45 810.41 571.66 808.12 571.84 806.13C572.56 798 573.15 789.83 573.2 781.68C573.26 771.66 572.52 761.63 572.49 751.61C572.44 734.23 572.66 716.84 572.81 699.46C572.89 690.68 573.27 681.91 573.15 673.13C572.92 657.33 572.86 641.51 571.92 625.75C570.72 605.45 566.85 585.39 567.76 564.87C568.43 549.67 567.24 534.39 567.12 519.14C567.02 506.67 566.28 494.09 567.56 481.73C570.39 454.44 566.76 428.39 556.22 403.09C549.76 387.58 539.49 377.59 522.11 375.75C515.71 375.07 509.48 372.97 503.12 371.83C499.41 371.16 495.39 370.2 491.84 370.94C464.98 376.48 437.98 377.27 410.8 374.22C402.21 373.25 393.49 370.88 385.06 371.64C374.56 372.59 364.16 375.67 353.99 378.73C348.25 380.46 342.7 383.08 338.91 388.7C324.81 409.63 318.7 432.94 317.71 457.78C317.44 464.39 318.75 471.06 318.88 477.71C319.18 493.32 319.17 508.93 319.38 524.54C319.42 527.33 320.49 530.21 320.09 532.9C317.54 550.17 320.94 567.55 317.9 584.99C314.92 602.05 314.93 619.68 314.19 637.08C313.51 652.84 313.46 668.63 313.37 684.41C313.29 699.2 313.5 713.99 313.61 728.78C313.69 739.52 313.99 750.26 313.9 761C313.84 768.55 313.11 776.1 313.05 783.66C313.03 786.12 314.26 788.58 314.79 791.07C314.93 791.75 314.59 792.54 314.46 793.28C313.29 799.67 312.83 806.29 317.99 810.99C322.84 815.41 328.67 818.76 334.07 822.58C334.51 822.04 334.94 821.5 335.38 820.95C333.16 818.42 330.75 816.02 328.77 813.32C326.74 810.56 323.72 807.54 323.61 804.54C323.33 797.01 324.3 789.41 325.06 781.86C325.64 776.14 326.67 770.46 327.5 764.76C327.67 763.58 327.82 762.41 327.98 761.23C329.55 766.05 330.1 770.88 331.3 775.54C332.49 780.19 334.33 784.67 335.88 789.23C336.35 789.09 336.81 788.94 337.28 788.8V784.33C337.52 784.3 337.76 784.28 337.99 784.25C338.2 784.98 338.41 785.71 338.62 786.43L338.61 786.41ZM451.01 784.51C448.957 785.59 447.997 787.493 448.13 790.22C449.53 817.45 451.07 844.66 452.28 871.9C452.8 883.52 452.57 895.18 452.78 906.82C452.98 918.23 450.35 929.64 453.18 941.07C454.24 945.36 454.26 949.92 454.78 954.35C455.51 960.59 458.15 967.38 456.53 972.93C454.33 980.52 457.89 987.31 456.53 994.68C455.02 1002.85 456.16 1011.49 455.71 1019.9C455.12 1030.99 454.34 1042.07 453.21 1053.12C452.09 1064.01 455.66 1074.57 454.41 1085.62C453.33 1095.24 454.37 1105.32 455.89 1114.97C460.24 1142.64 459.06 1170.4 458.57 1198.18C458.5 1201.92 458.02 1205.64 457.96 1209.38C457.93 1211.5 458.68 1213.66 458.51 1215.76C458.01 1221.99 456.54 1228.21 456.7 1234.4C457.04 1247.93 458.34 1261.43 458.87 1274.96C459.22 1283.91 462.39 1287.71 471.22 1287.46C479.7 1287.22 488.18 1286.53 496.62 1285.67C499.71 1285.36 502.83 1284.32 505.69 1283.05C512.2 1280.16 513.97 1274.45 510.35 1268.43C508.82 1265.88 507.05 1263.44 505.12 1261.18C497.98 1252.81 490.6 1244.6 488.25 1233.35C486.01 1222.64 483.92 1212.08 484.17 1200.86C484.48 1187.39 486.7 1174.43 490.16 1161.63C494.18 1146.76 499.14 1132.14 503.23 1117.28C507.2 1102.84 510.66 1088.25 514.16 1073.69C514.88 1070.7 514.91 1067.53 515.01 1064.43C515.15 1059.81 515.49 1055.13 515.01 1050.55C513.96 1040.68 513.49 1030.56 510.86 1021.08C506.71 1006.08 500.49 991.64 499.51 975.84C499.38 973.69 498.95 971.54 498.44 969.45C495.44 957.08 497.1 945.08 500.93 933.16C506.43 916.05 512.74 899.13 516.95 881.7C523.11 856.18 527.94 830.33 532.9 804.53C535.32 791.91 536.75 779.1 538.74 765.63C509.02 784.34 479.8 783.56 449.95 769.22C446.65 774 447.01 780.47 451.03 784.54L451.01 784.51ZM347.67 767.56C350.52 787.01 353.11 806.5 356.32 825.88C357.69 834.18 360.29 842.28 362.42 850.46C366.97 867.96 371.48 885.47 376.18 902.94C378.29 910.79 380.98 918.49 383.12 926.33C385.39 934.64 388.49 942.95 389.17 951.42C390.89 972.86 385.75 993.47 378.47 1013.41C370.93 1034.08 368.4 1055.31 372.64 1076.61C376.65 1096.78 383.1 1116.47 388.59 1136.34C390.23 1142.26 392.23 1148.08 394.11 1153.92C399.16 1169.63 402.53 1185.71 402.31 1202.23C402.19 1211.34 400.8 1220.5 399.3 1229.52C396.75 1244.89 391.13 1258.56 376.97 1267.32C375.28 1268.37 374.15 1272.4 374.7 1274.57C375.76 1278.77 378.36 1282.63 383.18 1283.54C390.6 1284.94 398.06 1286.21 405.56 1287.14C410 1287.69 414.53 1287.66 419.02 1287.6C422.53 1287.55 425.13 1285.96 425.55 1282.07C426.3 1275.25 427.17 1268.43 427.71 1261.59C428.26 1254.68 428.45 1247.75 428.88 1240.83C429.17 1236.02 430.55 1231.06 429.75 1226.46C428.41 1218.83 427.37 1211.25 427.35 1203.5C427.32 1188.04 426.68 1172.56 427.21 1157.12C427.79 1140.18 429.21 1123.26 430.59 1106.36C432.94 1077.59 432.91 1048.84 430.79 1020.07C430.35 1014.13 429.63 1008.17 429.84 1002.24C430.29 989.23 431.37 976.25 431.97 963.24C432.26 956.84 431.87 950.4 432.12 944C432.29 939.55 433.35 935.12 433.44 930.67C433.62 921.63 433.12 912.57 433.42 903.54C433.79 892.45 434.97 881.39 435.29 870.3C435.63 858.36 435.14 846.4 435.46 834.46C435.67 826.71 436.84 818.98 437.33 811.23C438.09 799.35 438.64 787.46 439.25 775.58C439.34 773.85 439.26 772.11 439.26 770.11C407.34 793.06 368.76 780.4 347.66 767.55L347.67 767.56ZM344.26 721.6C346.74 722.18 348.81 722.76 350.91 723.13C379.06 728.09 407.5 729.18 435.99 729.46C445.5 729.56 445.49 729.46 446.46 720.52C446.48 720.33 446.94 720.19 447.94 719.55V728.75C457.53 728.75 466.54 729.4 475.42 728.62C495.29 726.88 515.1 724.41 534.94 722.28C538.68 721.88 540.27 720.09 539.4 716.32C536.74 704.73 534.96 692.84 531.23 681.6C526.21 666.51 519.67 651.94 513.81 637.13C511.02 630.07 508.31 622.97 505.69 616.21C496.79 617.77 488.18 619.83 479.44 620.7C447.34 623.89 415.27 624.15 383.44 617.81C380.52 617.23 379.27 618.12 378.37 620.88C376.63 626.25 375.04 631.76 372.47 636.75C362.74 655.63 355.9 675.52 350.63 696.01C348.49 704.33 346.48 712.67 344.26 721.59V721.6ZM488.07 367.13L488.4 365.35C486.94 364.34 485.58 363.16 484.02 362.36C476.68 358.56 472.08 352.4 469.56 344.81C466.97 337.01 464.86 329.04 462.94 321.04C462.58 319.54 463.84 317.37 464.88 315.87C473.88 302.83 483.42 289.83 483.87 273.27C484.17 262.07 482.69 250.82 481.88 239.6C480.85 225.32 471.59 217.01 459.99 210.97C449.36 205.43 438.33 205.77 427.19 210.22C418.68 213.62 412 219.12 408.92 227.57C403.15 243.4 401.17 259.81 403.62 276.67C405.35 288.59 409.64 299.7 416.08 309.52C420.67 316.53 421.38 323.12 419.89 330.66C419.76 331.31 419.64 331.97 419.58 332.63C418.19 346.83 411.8 357.83 399.13 364.88C398.39 365.29 397.85 366.05 396.23 367.59C427.77 373.19 457.97 373.59 488.1 367.11L488.07 367.13ZM378.4 528.94C378.44 528.7 378.29 529.03 378.34 529.33C380.54 541.38 383.2 553.38 384.85 565.5C386.7 579.07 385.33 592.67 382.46 606.01C381.49 610.54 382.98 612.2 386.95 612.82C394.68 614.02 402.37 615.51 410.14 616.32C438.45 619.27 466.66 618.85 494.59 612.79C504.48 610.64 505.26 609.6 502.72 599.84C497.78 580.78 501.84 562.27 505.23 543.66C506.22 538.23 507.2 532.8 508.02 528.32C485.91 529.51 464.51 531.47 443.1 531.57C421.69 531.67 400.27 529.91 378.39 528.95L378.4 528.94ZM517.09 446.22C515.82 446.3 515.01 446.26 514.23 446.41C467.07 455.2 419.83 454.94 372.56 447.51C369.44 447.02 368.17 447.76 367.73 450.57C367.42 452.54 367.01 454.52 367.01 456.5C367.03 464.33 367.51 472.17 367.18 479.98C366.97 484.91 368.73 486.55 373.49 487.24C404.61 491.76 435.9 492.64 467.23 491.14C482.18 490.43 497.07 488.39 511.95 486.67C513.77 486.46 516.83 484.52 516.86 483.31C517.23 471.03 517.08 458.74 517.08 446.23L517.09 446.22ZM519.63 491.57C467.98 498.23 418.1 498.22 367.87 492.32C367.87 493.63 367.68 494.47 367.9 495.19C369.93 501.85 372.22 508.43 374.05 515.14C375.43 520.19 378.58 522.11 383.57 522.83C420.37 528.11 457.19 528.48 494.06 523.75C510.47 521.65 511.71 520.63 517.08 504.66C518.4 500.74 518.71 496.48 519.64 491.56L519.63 491.57ZM343.16 729.62C344.8 737.14 346.27 745.09 348.31 752.88C350.77 762.31 357.13 768.28 365.67 772.92C378.55 779.93 392.02 779.69 405.92 778.65C416.28 777.88 425.24 773.89 433.53 768.21C436.39 766.25 439.41 763.19 440.38 760.03C442.89 751.88 444.29 743.39 446.05 735.46C411.17 733.48 377.57 731.57 343.17 729.61L343.16 729.62ZM447.54 735.34C448.27 742.32 448.34 749.72 450.08 756.71C450.97 760.28 454.25 764.19 457.53 766.03C463.54 769.41 470.25 771.68 476.85 773.86C491.02 778.53 505.28 777.49 518.75 771.78C526.36 768.55 534.56 764.54 537.51 755.69C540.52 746.69 541.81 737.35 539.9 728.93C509.43 731.04 479.13 733.15 447.54 735.34ZM522.18 523.69C513.28 524.88 512.77 525.43 511.55 532.23C510.93 535.66 509.81 539 509.2 542.43C506.75 556.24 501.96 569.7 504.81 584.23C505.72 588.88 506.74 591.9 511.09 594.29C519.29 598.8 519.54 606.61 511.91 612.07C509.54 613.76 508.87 615.27 510.02 617.84C513.54 625.71 517 633.6 520.49 641.49C524.39 650.29 528.83 658.89 532.05 667.93C535.66 678.06 538.16 688.58 541.18 698.92C541.89 701.34 542.28 704.21 546.34 703.77C546.26 702.55 546.32 701.56 546.11 700.63C542.52 684.93 538.86 669.25 535.31 653.54C530.92 634.13 526.48 614.73 522.35 595.27C521.18 589.76 520.66 584.05 520.46 578.41C520.35 575.35 522.06 572.26 522.1 569.17C522.28 554.07 522.18 538.97 522.18 523.7V523.69ZM340.06 702.35C340.88 703 341.7 703.64 342.52 704.29C342.84 703.16 343.13 702.03 343.49 700.91C345.55 694.59 347.52 688.24 349.73 681.98C353.26 671.98 356.59 661.89 360.69 652.13C364.74 642.49 370.05 633.38 374.06 623.73C377.4 615.7 377.4 616.68 370.08 612.96C362.66 609.19 362.02 600.35 368.76 595.47C371.41 593.55 374.64 592.45 377.56 590.9C378.61 590.34 380.33 589.67 380.42 588.89C381.24 582.01 382.99 574.92 382.09 568.21C380.51 556.4 377.11 544.84 374.77 533.12C373.39 526.24 372.7 525.39 364.42 525.55C364.42 537.3 364.38 549.09 364.44 560.88C364.47 566.19 363.66 571.81 365.11 576.74C367.09 583.49 364.84 589.61 363.81 595.71C361.78 607.73 358.28 619.5 355.47 631.4C351.19 649.51 346.89 667.62 342.79 685.78C341.56 691.23 340.95 696.83 340.06 702.35ZM396.29 351.77C392.56 353.42 388.84 354.79 385.39 356.67C382.84 358.06 382.63 360.15 384.98 362.31C387.98 365.06 390.68 366.18 394.58 363.33C398.69 360.32 403.46 358.2 405.5 352.78C403.34 353.88 401.17 354.97 398.76 356.2C398.01 354.86 397.31 353.63 396.28 351.79L396.29 351.77ZM362.8 471.37C358.11 472.4 354.15 472.84 350.54 474.21C347.58 475.33 346.31 477.85 350.01 479.93C353.37 481.82 356.96 483.29 361.37 485.37C361.9 480.16 362.31 476.17 362.81 471.37H362.8ZM494.82 364.46C496.4 363.32 498.55 362.52 499.17 361.07C499.63 360 498.5 357.29 497.36 356.7C493.88 354.9 490.11 353.59 486.33 352.53C485.57 352.32 483.89 353.88 483.34 354.97C482.92 355.82 483.22 357.84 483.9 358.27C487.21 360.41 490.75 362.2 494.82 364.46ZM522.21 471.62C522.96 476.68 523.46 480.04 524.13 484.55C527.57 482.69 530.69 481.36 533.32 479.36C534.03 478.82 533.73 475.18 533.06 474.89C529.92 473.52 526.48 472.82 522.21 471.62ZM376.29 609.75C376.82 609.43 377.36 609.11 377.89 608.79C378.41 604.98 378.93 601.16 379.45 597.35C378.73 597.04 378 596.72 377.28 596.41C374.94 598.94 372.11 601.22 370.6 604.17C370.24 604.88 374.28 607.83 376.29 609.75ZM371.46 519.47C369.83 514.96 368.46 511.18 366.97 507.05C363.45 514.92 364.39 517.89 371.46 519.47ZM549.77 724.67C545.22 726.7 545.13 728.05 548.21 738.51C548.78 733.49 549.25 729.33 549.77 724.67ZM337.94 719.36C338.39 719.48 338.85 719.59 339.3 719.71C340.17 716.58 341.04 713.45 341.91 710.32C341.33 710.12 340.76 709.92 340.18 709.72C336.01 711.71 339.32 716.37 337.94 719.36Z" fill="black"/>
<path d="M340.06 702.35C340.95 696.82 341.56 691.23 342.79 685.78C346.89 667.63 351.19 649.52 355.47 631.4C358.28 619.51 361.78 607.73 363.81 595.71C364.84 589.61 367.09 583.49 365.11 576.74C363.66 571.81 364.47 566.19 364.44 560.88C364.38 549.09 364.42 537.3 364.42 525.55C372.69 525.39 373.39 526.24 374.77 533.12C377.12 544.84 380.52 556.4 382.09 568.21C382.99 574.92 381.24 582 380.42 588.89C380.33 589.67 378.61 590.34 377.56 590.9C374.63 592.45 371.41 593.55 368.76 595.47C362.03 600.35 362.66 609.19 370.08 612.96C377.4 616.68 377.4 615.7 374.06 623.73C370.04 633.38 364.74 642.5 360.69 652.13C356.59 661.89 353.26 671.99 349.73 681.98C347.52 688.24 345.55 694.6 343.49 700.91C343.13 702.02 342.84 703.16 342.52 704.29C341.7 703.64 340.88 703 340.06 702.35Z" fill="white"/>
<path d="M376.29 609.75C374.27 607.83 370.24 604.88 370.6 604.17C372.11 601.22 374.94 598.94 377.28 596.41C378 596.72 378.73 597.04 379.45 597.35C378.93 601.16 378.41 604.98 377.89 608.79C377.36 609.11 376.82 609.43 376.29 609.75Z" fill="white"/>
<path d="M342.1 760.02C340.05 749.9 337.94 739.79 336.03 729.64C335.83 728.55 336.79 727.25 337.21 726.04C337.67 726.14 338.14 726.24 338.6 726.34C339.73 737.59 340.87 748.85 341.99 760.11L342.09 760.01L342.1 760.02Z" fill="white"/>
<path d="M337.94 719.36C339.32 716.37 336.01 711.71 340.18 709.72C340.76 709.92 341.33 710.12 341.91 710.32C341.04 713.45 340.17 716.58 339.3 719.71C338.85 719.59 338.39 719.48 337.94 719.36Z" fill="white"/>
<path d="M489.83 985.05C488.79 987.61 487.74 990.18 486.7 992.74C486.06 992.5 485.43 992.25 484.79 992.01L487.35 984.07C488.18 984.4 489.01 984.72 489.84 985.05H489.83Z" fill="black"/>
<path d="M473.68 990.09C474.52 992.14 475.35 994.18 476.71 997.5C474.58 996.86 472.37 996.66 472.27 996.09C471.93 994.14 472.34 992.06 472.46 990.03C472.87 990.05 473.28 990.07 473.68 990.09Z" fill="black"/>
<path d="M411.33 997.19C412.19 995.01 412.82 992.7 414.02 990.73C414.45 990.04 416.27 990.2 418.84 989.71C416.42 993.32 414.87 995.63 413.31 997.95C412.65 997.7 411.99 997.44 411.33 997.19Z" fill="black"/>
<path d="M439.58 706.57C445.25 707.44 450.5 708.17 455.69 709.13C456.59 709.3 457.91 710.39 457.96 711.14C458.03 712.02 457.12 713.23 456.3 713.86C452.01 717.16 434.42 716.34 430.44 712.57C427.72 709.99 426.68 707.02 430.06 704.02C430.8 703.36 431.46 702.49 432.32 702.09C439.43 698.81 446.85 699.14 454.21 700.8C455.49 701.09 456.33 703.38 457.37 704.75C455.74 704.9 454.05 705.38 452.49 705.11C450.91 704.84 449.5 703.66 447.92 703.18C443.82 701.93 440.86 703.19 439.58 706.57Z" fill="black"/>
<path d="M437.4 659.94C439.71 661.14 442.19 662.09 444.29 663.58C450.02 667.62 451.66 667.55 457.09 662.88C458.93 661.3 461.13 660.13 463.43 659.19C462.59 662.54 451.75 670.73 449.63 669.64C445.03 667.27 440.86 664.05 436.51 661.18L437.4 659.95V659.94Z" fill="black"/>
<path d="M443.85 607.19C440.75 599.92 434.2 605.01 429.61 602.11V594.85H453.78C453.8 595.39 453.82 595.94 453.84 596.48C452.37 596.63 450.9 596.88 449.43 596.91C445.28 596.99 441.11 596.83 436.97 597.08C434.35 597.24 432.29 598.27 434.4 601.78C440.23 599.1 446.1 599.47 452.06 601.66C455.71 603.01 455.41 604.92 453.2 607.1C452.06 608.23 450.41 609.49 448.96 609.53C443.36 609.68 437.73 609.51 432.14 609.13C430.76 609.04 429.47 607.71 428.13 606.95C428.27 606.43 428.42 605.91 428.56 605.38C433.66 605.99 438.75 606.59 443.85 607.2V607.19Z" fill="black"/>
<path d="M426.79 475.33C431.57 476.35 436.35 477.37 441.13 478.38C441.29 477.86 441.45 477.35 441.61 476.83C439.78 475.78 437.95 474.74 435.52 473.34C437.07 472.73 437.96 472.48 438.76 472.05C439.89 471.44 440.95 470.7 442.05 470.01C440.86 469.31 439.53 467.87 438.52 468.08C436.62 468.46 434.93 469.81 433.13 470.72C431.93 471.33 430.65 472.4 429.5 472.28C428.48 472.17 426.66 470.39 426.82 469.92C427.32 468.51 428.53 466.4 429.61 466.31C435.59 465.8 441.62 465.69 447.63 465.73C449.13 465.73 450.63 466.79 452.77 467.6C452.33 468.66 451.75 469.71 451.46 470.82C451.14 472.04 450.48 473.84 451.03 474.5C454.04 478.1 450.84 480.08 448.74 480.3C441.92 481.03 434.87 482.48 428.31 478.85C427.52 478.41 426.93 477.62 426.24 477C426.41 476.44 426.59 475.88 426.76 475.33H426.79Z" fill="black"/>
<path d="M449.74 511.25C451.64 511.78 453.54 512.31 455.45 512.84L455.38 514.03C453.36 514.49 451.35 514.94 449.33 515.4C449.24 515.8 449.15 516.2 449.07 516.59C450.65 517.26 452.23 517.93 453.81 518.6C453.84 519.03 453.87 519.46 453.9 519.89C447.77 520.9 441.57 520.74 435.03 519.02C436.6 518.3 438.17 517.59 439.74 516.87C439.76 516.31 439.78 515.74 439.8 515.18C435.38 514.86 430.96 514.54 426.55 514.22C426.39 513.94 426.22 513.65 426.06 513.37C428.15 512.19 430.21 510.97 432.32 509.84C435.52 508.13 438.6 506.03 442.01 504.93C447.48 503.16 449.34 504.9 449.74 511.25Z" fill="black"/>
</g>
<defs>
<clipPath id="clip0_8_3601">
<rect width="226.36" height="1082.3" fill="white" transform="translate(678.29 202)"/>
</clipPath>
<clipPath id="clip1_8_3601">
<rect width="397.69" height="1090.36" fill="white" transform="translate(1004.65 202)"/>
</clipPath>
<clipPath id="clip2_8_3601">
<rect width="270.29" height="1090.38" fill="white" transform="translate(308 202)"/>
</clipPath>
</defs>
</svg>
