<svg width="23" height="22" viewBox="0 0 23 22" fill="none" xmlns="http://www.w3.org/2000/svg">
<path d="M8.24986 12.2461C12.2538 12.2461 15.4997 9.72859 15.4997 6.62306C15.4997 3.51753 12.2538 1 8.24986 1C4.24587 1 1 3.51753 1 6.62306C1 9.72859 4.24587 12.2461 8.24986 12.2461Z" stroke="black" stroke-width="1.1" stroke-linecap="round" stroke-linejoin="round"/>
<path d="M2.80359 6.62322C2.80359 4.28911 5.24379 2.37939 8.24983 2.37939" stroke="black" stroke-width="1.1" stroke-linecap="round" stroke-linejoin="round"/>
<path d="M8.24989 8.70971C9.73429 8.70971 10.9376 7.77553 10.9376 6.62317C10.9376 5.4708 9.73429 4.53662 8.24989 4.53662C6.76548 4.53662 5.56213 5.4708 5.56213 6.62317C5.56213 7.77553 6.76548 8.70971 8.24989 8.70971Z" stroke="black" stroke-width="1.1" stroke-linecap="round" stroke-linejoin="round"/>
<path d="M8.24986 12.2461H21.8301V20.9459H6.41087C3.40483 20.9106 1 18.4704 1 15.4643V6.62305" stroke="black" stroke-width="1.1" stroke-linecap="round" stroke-linejoin="round"/>
<path d="M15.4998 6.62305V12.2461" stroke="black" stroke-width="1.1" stroke-linecap="round" stroke-linejoin="round"/>
<path d="M19.1423 20.9816V18.1523" stroke="black" stroke-width="1.1" stroke-linecap="round" stroke-linejoin="round"/>
<path d="M14.1558 20.9816V18.1523" stroke="black" stroke-width="1.1" stroke-linecap="round" stroke-linejoin="round"/>
<path d="M9.16931 20.9816V18.1523" stroke="black" stroke-width="1.1" stroke-linecap="round" stroke-linejoin="round"/>
<path d="M4.11206 20.4154V17.374" stroke="black" stroke-width="1.1" stroke-linecap="round" stroke-linejoin="round"/>
</svg>
