<svg width="4" height="27" viewBox="0 0 4 27" fill="none" xmlns="http://www.w3.org/2000/svg">
<path d="M4 13.5C4 13.9005 3.8827 14.292 3.66294 14.625C3.44317 14.958 3.13082 15.2176 2.76537 15.3709C2.39991 15.5241 1.99778 15.5642 1.60982 15.4861C1.22186 15.408 0.865492 15.2151 0.585787 14.9319C0.306082 14.6487 0.115601 14.2879 0.0384303 13.8951C-0.0387401 13.5022 0.000866572 13.0951 0.152242 12.7251C0.303617 12.355 0.559963 12.0388 0.888861 11.8163C1.21776 11.5938 1.60444 11.475 2 11.475C2.53043 11.475 3.03914 11.6883 3.41421 12.0681C3.78928 12.4479 4 12.9629 4 13.5ZM2 4.05C2.39556 4.05 2.78224 3.93124 3.11114 3.70873C3.44004 3.48622 3.69638 3.16996 3.84776 2.79993C3.99913 2.42991 4.03874 2.02275 3.96157 1.62994C3.8844 1.23713 3.69392 0.876311 3.41421 0.59311C3.13451 0.309908 2.77814 0.117046 2.39018 0.0389107C2.00222 -0.0392244 1.60009 0.000877404 1.23463 0.154145C0.869182 0.307412 0.556824 0.566962 0.337061 0.899971C0.117298 1.23298 1.07889e-06 1.62449 1.07889e-06 2.025C1.07889e-06 2.56206 0.210714 3.07713 0.585787 3.45689C0.96086 3.83665 1.46957 4.05 2 4.05ZM2 22.95C1.60444 22.95 1.21776 23.0688 0.888861 23.2913C0.559963 23.5138 0.303617 23.83 0.152242 24.2001C0.000866572 24.5701 -0.0387401 24.9772 0.0384303 25.3701C0.115601 25.7629 0.306082 26.1237 0.585787 26.4069C0.865492 26.6901 1.22186 26.883 1.60982 26.9611C1.99778 27.0392 2.39991 26.9991 2.76537 26.8459C3.13082 26.6926 3.44317 26.433 3.66294 26.1C3.8827 25.767 4 25.3755 4 24.975C4 24.4379 3.78928 23.9229 3.41421 23.5431C3.03914 23.1633 2.53043 22.95 2 22.95Z" fill="black"/>
</svg>
