<svg width="30" height="30" viewBox="0 0 30 30" fill="none" xmlns="http://www.w3.org/2000/svg">
<path fill-rule="evenodd" clip-rule="evenodd" d="M19.9743 0.0933017C19.4364 0.285005 18.9981 0.929848 18.9995 1.52751C19.0007 2.0144 19.4635 2.71398 19.8697 2.84288C19.9873 2.88019 19.9988 2.93292 19.9988 3.43324V3.98267L19.6521 4.01847C19.2378 4.06121 18.8219 4.28772 18.5832 4.6007C18.4863 4.72761 18.3551 5.04297 18.2782 5.33352L18.1433 5.84346L17.7331 5.82247C17.1508 5.7926 16.859 5.93963 16.1623 6.6139C15.6215 7.13734 15.5041 7.21394 13.812 8.14721C11.8914 9.20652 11.5518 9.46402 11.2619 10.0808C11.0386 10.5557 11.003 10.8457 11.0014 12.2013L10.9999 13.4978H11.4998H11.9997V12.228C11.9997 10.7757 12.0528 10.5179 12.4271 10.1512C12.553 10.028 13.359 9.53675 14.2182 9.05949L15.7805 8.19183L17.8862 12.3913L19.9919 16.5908L19.9954 21.5428L19.9988 26.4947H17.7491H15.4993V26.9946V27.4944H17.2491H18.9989V28.7441V29.9938H19.4989H19.9988V28.7441V27.4944H20.4987H20.9987V28.7441V29.9938H21.4986H21.9986V28.7441V27.4944H23.8505C25.1218 27.4944 25.783 27.4706 25.9596 27.4185C26.3029 27.317 26.8205 26.7994 26.922 26.4562C26.9638 26.3147 26.998 25.9281 26.998 25.597V24.995H27.85C28.3363 24.995 28.8124 24.9624 28.9592 24.9191C29.3025 24.8177 29.8202 24.3 29.9216 23.9568C30.0187 23.6281 30.0292 11.0549 29.9327 10.6366C29.8313 10.197 29.6196 9.81331 29.2834 9.4599C29.0214 9.1844 28.6526 8.95252 27.1542 8.1211C25.4481 7.17451 25.3104 7.08472 24.8032 6.58897C24.14 5.94056 23.8433 5.79279 23.2644 5.82247L22.8542 5.84346L22.7192 5.33352C22.6424 5.04297 22.5111 4.72761 22.4143 4.6007C22.1755 4.28772 21.7597 4.06121 21.3453 4.01847L20.9987 3.98267V3.43324C20.9987 2.93292 21.0102 2.88019 21.1278 2.84288C21.3593 2.7694 21.7028 2.41442 21.8516 2.09481C22.1277 1.50202 21.9985 0.88086 21.5026 0.416973C21.0702 0.0126963 20.5247 -0.102838 19.9743 0.0933017ZM20.1522 1.15429C19.8422 1.46422 20.0618 2.00065 20.4987 2.00065C20.7556 2.00065 20.9987 1.75765 20.9987 1.50077C20.9987 1.2439 20.7556 1.00089 20.4987 1.00089C20.377 1.00089 20.2489 1.05757 20.1522 1.15429ZM19.4842 5.12301C19.3677 5.21462 19.2936 5.38208 19.1945 5.77685C19.1213 6.06872 19.0614 6.33659 19.0614 6.37202C19.0614 6.40745 19.3848 6.65183 19.7801 6.91508L20.4987 7.39365L21.2174 6.91508C21.6127 6.65183 21.9361 6.40745 21.9361 6.37202C21.9361 6.33659 21.8761 6.06872 21.803 5.77685C21.6126 5.01804 21.5822 4.99992 20.4987 4.99992C19.7396 4.99992 19.6227 5.0141 19.4842 5.12301ZM17.0754 7.14171L16.7497 7.47144L17.7594 8.3133C18.3148 8.77631 18.8055 9.17696 18.85 9.20358C18.9057 9.23689 19.0579 9.08342 19.3398 8.70976C19.5648 8.41159 19.7481 8.15078 19.7472 8.13028C19.7463 8.10972 19.3106 7.80467 18.7789 7.45245C17.6003 6.67164 17.549 6.66226 17.0754 7.14171ZM22.2033 7.45663C21.68 7.80661 21.2511 8.10972 21.2503 8.13028C21.2481 8.17989 22.0556 9.24888 22.0952 9.24888C22.1122 9.24888 22.6045 8.84992 23.1891 8.36235L24.252 7.47582L23.9242 7.1439C23.4447 6.65839 23.379 6.67032 22.2033 7.45663ZM23.1063 12.4071L20.9987 16.6223V21.5585V26.4947H23.345H25.6913L25.8447 26.3413L25.9981 26.1879V19.343V12.4981H26.498H26.998V17.2469V21.9958H27.9978H28.9977V16.477C28.9977 10.3268 29.0154 10.5881 28.5703 10.1503C28.3706 9.95384 27.6362 9.52082 25.7154 8.46701L25.2139 8.19189L23.1063 12.4071ZM20.0419 9.43884C19.5415 10.1068 19.3414 10.2481 18.8957 10.2484C18.6113 10.2486 18.5305 10.216 18.2014 9.96865C17.9965 9.81468 17.7934 9.64597 17.7501 9.59374C17.4682 9.25413 17.7261 9.82743 19.0143 12.4044C19.8132 14.0024 20.4812 15.3099 20.4987 15.3099C20.5163 15.3099 21.1843 14.0024 21.9832 12.4044C23.2714 9.82743 23.5293 9.25413 23.2474 9.59374C23.204 9.64597 23.001 9.81468 22.7961 9.96865C22.467 10.216 22.3861 10.2486 22.1017 10.2484C21.656 10.2481 21.456 10.1068 20.9556 9.43884C20.7229 9.12816 20.5173 8.87397 20.4987 8.87397C20.4802 8.87397 20.2746 9.12816 20.0419 9.43884ZM2.00092 15.4974V16.4971H1.64884C1.45517 16.4971 1.18102 16.5313 1.03953 16.5731C0.696262 16.6745 0.178573 17.1921 0.0771471 17.5354C-0.0257157 17.8834 -0.0257157 20.1096 0.0771471 20.4577C0.221193 20.9452 0.922297 21.4959 1.39887 21.4959C1.49148 21.4959 1.50098 21.7055 1.50098 23.7454C1.50098 25.7852 1.49148 25.9948 1.39887 25.9948C0.922297 25.9948 0.221193 26.5455 0.0771471 27.0331C-0.0210913 27.3655 -0.0210913 28.6232 0.0771471 28.9556C0.178573 29.2988 0.696262 29.8164 1.03953 29.9178C1.41036 30.0274 13.0902 30.0274 13.4611 29.9178C13.8043 29.8164 14.322 29.2988 14.4235 28.9556C14.5217 28.6232 14.5217 27.3655 14.4235 27.0331C14.322 26.6898 13.8043 26.1722 13.4611 26.0708C13.2743 26.0156 12.3548 25.9948 10.1021 25.9948H7.00033V23.7454V21.4959H8.03146C8.8613 21.4959 9.06258 21.5126 9.06258 21.5813C9.06258 21.7854 9.52059 22.5611 9.78494 22.8048C10.0493 23.0485 10.7449 23.4327 10.9217 23.4329C10.98 23.4329 10.9999 23.6308 10.9999 24.214V24.995H11.4998H11.9997V24.214C11.9997 23.5955 12.0175 23.4329 12.0851 23.4329C12.132 23.4329 12.3678 23.3342 12.6089 23.2136C13.1417 22.947 13.5027 22.5721 13.7705 22.007L13.9683 21.5896L13.9874 18.9653C14.0016 17.0065 13.9866 16.2696 13.9283 16.0597C13.8267 15.6939 13.323 15.1804 12.9611 15.0735C12.613 14.9706 10.3866 14.9706 10.0385 15.0735C9.5509 15.2175 9.00009 15.9185 9.00009 16.395C9.00009 16.4867 8.84642 16.4971 7.50027 16.4971H6.00045V15.4974V14.4976H5.50051H5.00057V15.4974V16.4971H4.00068H3.0008V15.4974V14.4976H2.50086H2.00092V15.4974ZM10.1534 16.1506L9.99997 16.304V18.7521C9.99997 20.4916 10.022 21.2746 10.076 21.4574C10.1774 21.8006 10.6951 22.3183 11.0384 22.4197C11.635 22.5959 12.1752 22.4477 12.5809 21.9965C12.7295 21.8313 12.8844 21.5845 12.9253 21.4482C12.9772 21.2749 12.9996 20.4627 12.9996 18.7521V16.304L12.8462 16.1506C12.6941 15.9985 12.6832 15.9972 11.4998 15.9972C10.3164 15.9972 10.3055 15.9985 10.1534 16.1506ZM1.15446 17.6503C1.00229 17.8024 1.00104 17.8133 1.00104 18.9965C1.00104 20.1797 1.00229 20.1907 1.15446 20.3427L1.30781 20.4961H5.15399H9.00009V18.9965V17.4969H5.15399H1.30781L1.15446 17.6503ZM18.1524 18.65C18.0557 18.7467 17.999 18.8748 17.999 18.9965C17.999 19.1182 18.0557 19.2463 18.1524 19.343C18.2491 19.4397 18.3772 19.4964 18.499 19.4964C18.6207 19.4964 18.7488 19.4397 18.8455 19.343C18.9422 19.2463 18.9989 19.1182 18.9989 18.9965C18.9989 18.8748 18.9422 18.7467 18.8455 18.65C18.7488 18.5533 18.6207 18.4966 18.499 18.4966C18.3772 18.4966 18.2491 18.5533 18.1524 18.65ZM18.1524 21.1494C18.0557 21.2461 17.999 21.3742 17.999 21.4959C17.999 21.6176 18.0557 21.7457 18.1524 21.8424C18.2491 21.9391 18.3772 21.9958 18.499 21.9958C18.6207 21.9958 18.7488 21.9391 18.8455 21.8424C18.9422 21.7457 18.9989 21.6176 18.9989 21.4959C18.9989 21.3742 18.9422 21.2461 18.8455 21.1494C18.7488 21.0527 18.6207 20.996 18.499 20.996C18.3772 20.996 18.2491 21.0527 18.1524 21.1494ZM2.50086 23.7454V25.9948H4.25065H6.00045V23.7454V21.4959H4.25065H2.50086V23.7454ZM26.998 23.4954V23.9953H27.8444C28.6599 23.9953 28.6966 23.9897 28.8443 23.8419C28.9703 23.716 28.9977 23.6266 28.9977 23.342V22.9955H27.9978H26.998V23.4954ZM18.1524 23.6488C18.0557 23.7455 17.999 23.8736 17.999 23.9953C17.999 24.117 18.0557 24.2451 18.1524 24.3418C18.2491 24.4385 18.3772 24.4952 18.499 24.4952C18.6207 24.4952 18.7488 24.4385 18.8455 24.3418C18.9422 24.2451 18.9989 24.117 18.9989 23.9953C18.9989 23.8736 18.9422 23.7455 18.8455 23.6488C18.7488 23.5521 18.6207 23.4954 18.499 23.4954C18.3772 23.4954 18.2491 23.5521 18.1524 23.6488ZM1.15446 27.148C1.01004 27.2924 1.00104 27.3419 1.00104 27.9943C1.00104 28.6468 1.01004 28.6963 1.15446 28.8407L1.30781 28.9941H7.2503H13.1928L13.3461 28.8407C13.4906 28.6963 13.4996 28.6468 13.4996 27.9943C13.4996 27.3419 13.4906 27.2924 13.3461 27.148L13.1928 26.9946H7.2503H1.30781L1.15446 27.148Z" fill="#FF0000"/>
</svg>
