<svg width="28" height="19" viewBox="0 0 28 19" fill="none" xmlns="http://www.w3.org/2000/svg">
<path d="M27.5659 1.42943C27.4315 1.34409 27.278 1.29496 27.1198 1.28665C26.9616 1.27834 26.8039 1.31113 26.6616 1.38194C21.6522 3.87506 18.0747 2.70685 14.2929 1.47454C10.3255 0.181677 6.21236 -1.15392 0.529755 1.66924C0.37098 1.74673 0.236986 1.86833 0.143248 2.02C0.0495086 2.17168 -0.00015213 2.34723 3.50079e-07 2.5264V16.7645C-2.19562e-05 16.9256 0.0402551 17.0841 0.117041 17.2251C0.193827 17.366 0.304597 17.4848 0.438926 17.5701C0.573255 17.6555 0.726726 17.7047 0.884895 17.7131C1.04306 17.7215 1.20073 17.6888 1.34306 17.6181C6.35238 15.125 9.92997 16.2932 13.7176 17.5255C15.9626 18.2556 18.2497 19 20.8354 19C22.8296 19 25.0046 18.5584 27.476 17.3308C27.633 17.2528 27.7653 17.1316 27.8579 16.9809C27.9506 16.8302 27.9998 16.6561 28 16.4784V2.24028C28.0014 2.07872 27.9622 1.91946 27.8863 1.77757C27.8103 1.63569 27.7001 1.51586 27.5659 1.42943ZM26.1377 15.8741C21.4002 18.0312 17.9405 16.9058 14.287 15.7174C12.042 14.9873 9.75495 14.2429 7.16919 14.2429C5.35251 14.2519 3.5543 14.6145 1.87164 15.3114V3.13068C6.60909 0.97354 10.0688 2.09901 13.7223 3.2874C17.3757 4.47578 21.1365 5.70335 26.1377 3.69579V15.8741ZM14.0023 5.70335C13.2638 5.70335 12.5419 5.92616 11.9278 6.3436C11.3138 6.76105 10.8352 7.35438 10.5526 8.04856C10.27 8.74274 10.196 9.50661 10.3401 10.2435C10.4842 10.9805 10.8398 11.6574 11.362 12.1887C11.8842 12.72 12.5495 13.0819 13.2739 13.2284C13.9982 13.375 14.7489 13.2998 15.4312 13.0123C16.1135 12.7247 16.6967 12.2378 17.107 11.613C17.5173 10.9883 17.7363 10.2538 17.7363 9.50239C17.7363 8.49482 17.3429 7.52852 16.6426 6.81606C15.9424 6.1036 14.9926 5.70335 14.0023 5.70335ZM14.0023 11.4019C13.6331 11.4019 13.2721 11.2905 12.9651 11.0818C12.6581 10.8731 12.4188 10.5764 12.2775 10.2293C12.1361 9.88222 12.0992 9.50029 12.1712 9.13181C12.2433 8.76334 12.4211 8.42488 12.6822 8.15923C12.9433 7.89358 13.2759 7.71266 13.6381 7.63937C14.0002 7.56608 14.3756 7.60369 14.7168 7.74746C15.0579 7.89123 15.3495 8.1347 15.5546 8.44707C15.7598 8.75945 15.8693 9.1267 15.8693 9.50239C15.8693 10.0062 15.6726 10.4893 15.3225 10.8456C14.9723 11.2018 14.4975 11.4019 14.0023 11.4019ZM5.60093 5.70335V11.4019C5.60093 11.6538 5.50258 11.8954 5.32751 12.0735C5.15245 12.2516 4.91502 12.3517 4.66744 12.3517C4.41986 12.3517 4.18243 12.2516 4.00736 12.0735C3.8323 11.8954 3.73395 11.6538 3.73395 11.4019V5.70335C3.73395 5.45146 3.8323 5.20988 4.00736 5.03177C4.18243 4.85365 4.41986 4.75359 4.66744 4.75359C4.91502 4.75359 5.15245 4.85365 5.32751 5.03177C5.50258 5.20988 5.60093 5.45146 5.60093 5.70335ZM22.4037 13.3014V7.60287C22.4037 7.35098 22.5021 7.1094 22.6771 6.93129C22.8522 6.75317 23.0896 6.65311 23.3372 6.65311C23.5848 6.65311 23.8222 6.75317 23.9973 6.93129C24.1723 7.1094 24.2707 7.35098 24.2707 7.60287V13.3014C24.2707 13.5533 24.1723 13.7949 23.9973 13.973C23.8222 14.1511 23.5848 14.2512 23.3372 14.2512C23.0896 14.2512 22.8522 14.1511 22.6771 13.973C22.5021 13.7949 22.4037 13.5533 22.4037 13.3014Z" fill="#FF0000"/>
</svg>
