<svg width="92" height="92" viewBox="0 0 92 92" fill="none" xmlns="http://www.w3.org/2000/svg">
<path d="M4.4035 86.2892C4.4035 86.2627 22.9459 86.2413 45.8138 86.2413C68.6896 86.2413 87.2282 86.2629 87.2282 86.2892C87.2282 86.3155 68.6898 86.337 45.8138 86.337C22.9459 86.337 4.4035 86.3157 4.4035 86.2892Z" fill="#263238"/>
<path d="M25.5385 50.3447C26.7799 46.6292 24.7742 42.611 21.0588 41.3696C17.3434 40.1283 13.3251 42.1339 12.0838 45.8493C10.8424 49.5648 12.8481 53.583 16.5635 54.8244C20.2789 56.0657 24.2972 54.0601 25.5385 50.3447Z" fill="#D66D11"/>
<g opacity="0.1">
<path d="M15.0086 42.1026C11.7036 44.2011 10.7256 48.5814 12.8239 51.8864C12.8245 51.8872 12.8249 51.8879 12.8252 51.8886C12.8252 51.8886 17.1535 49.4081 17.0907 47.071C17.0282 44.7336 15.0086 42.1026 15.0086 42.1026Z" fill="white"/>
</g>
<path d="M18.6015 52.8847C21.5701 52.7909 23.9005 50.3083 23.8066 47.3397C23.7128 44.3711 21.2302 42.0407 18.2616 42.1346C15.293 42.2284 12.9626 44.711 13.0565 47.6796C13.1503 50.6482 15.6329 52.9786 18.6015 52.8847Z" fill="#D66D11"/>
<g opacity="0.2">
<path d="M18.6016 52.8847C21.5701 52.7909 23.9005 50.3083 23.8067 47.3397C23.7128 44.3711 21.2302 42.0407 18.2617 42.1346C15.2931 42.2284 12.9627 44.711 13.0565 47.6796C13.1504 50.6482 15.633 52.9786 18.6016 52.8847Z" fill="black"/>
</g>
<path d="M23.4552 45.2774C25.0315 47.7566 24.2994 51.0441 21.8202 52.6204C19.341 54.1968 16.0534 53.4646 14.4771 50.9856C12.9008 48.5066 13.6329 45.2189 16.1119 43.6425C16.1132 43.6416 16.1147 43.6409 16.116 43.6399C18.5954 42.0667 21.88 42.7998 23.4552 45.2774Z" fill="#D66D11"/>
<g opacity="0.2">
<path d="M23.4554 45.2774C25.0317 47.7566 24.2996 51.0442 21.8204 52.6205C19.3411 54.1968 16.0536 53.4647 14.4773 50.9857C12.901 48.5066 13.6331 45.2189 16.1121 43.6426C16.1134 43.6417 16.1149 43.6409 16.1162 43.64C18.5956 42.0668 21.8802 42.7999 23.4554 45.2774Z" fill="white"/>
</g>
<path d="M18.8948 47.6245L18.1665 46.4765C18.3932 46.3694 18.633 46.2927 18.8797 46.2483C19.0129 46.2371 19.1469 46.2371 19.2801 46.2489L19.2709 46.2031L19.1859 45.6766L19.1618 45.557L18.8212 45.472L18.7491 45.5778C18.4066 45.6073 18.0736 45.7052 17.7698 45.8656L17.367 45.233L17.0699 45.1993L17.1702 45.3576L16.9019 45.5296L17.3091 46.1738C16.4748 46.8224 16.3769 47.6053 16.7427 48.177C17.2458 48.9678 18.0532 48.7436 18.7831 48.4953L19.5053 49.6341C19.0701 49.8615 18.579 49.9602 18.0898 49.9184L18.1983 50.6557C18.6582 50.725 19.3145 50.5644 19.8934 50.2448L20.1964 50.7212L19.9767 50.8669L20.2937 50.8759L20.7602 50.5749L20.3561 49.9364C21.1928 49.279 21.3002 48.5025 20.9333 47.9249C20.4402 47.14 19.6253 47.3783 18.8948 47.6245ZM18.3538 47.8017C17.9615 47.9135 17.6381 47.9454 17.4629 47.6716C17.2875 47.3978 17.3492 47.1054 17.7115 46.792L18.3538 47.8017ZM19.9721 49.3226L19.3322 48.3146C19.7353 48.1943 20.0698 48.1665 20.2459 48.4444C20.401 48.6909 20.3482 48.9962 19.9721 49.3226Z" fill="#D66D11"/>
<g opacity="0.3">
<path d="M18.895 47.6246L18.1668 46.4767C18.3934 46.3696 18.6332 46.2929 18.8799 46.2485C19.0132 46.2373 19.1471 46.2373 19.2803 46.2491L19.2711 46.2032L19.1861 45.6768L19.162 45.5572L18.8214 45.4722L18.7493 45.578C18.4069 45.6075 18.0738 45.7053 17.7701 45.8658L17.3673 45.2332L17.0701 45.1995L17.1704 45.3578L16.9021 45.5298L17.3093 46.174C16.4751 46.8226 16.3772 47.6055 16.743 48.1772C17.246 48.968 18.0534 48.7437 18.7833 48.4955L19.5055 49.6343C19.0704 49.8617 18.5793 49.9603 18.09 49.9186L18.1986 50.6559C18.6584 50.7252 19.3147 50.5646 19.8936 50.245L20.1966 50.7214L19.9769 50.8671L20.294 50.8761L20.7604 50.5751L20.3564 49.9366C21.193 49.2792 21.3005 48.5027 20.9336 47.9251C20.4404 47.1402 19.6255 47.3785 18.895 47.6246ZM18.3541 47.8018C17.9618 47.9137 17.6383 47.9455 17.4631 47.6717C17.2878 47.398 17.3494 47.1056 17.7117 46.7922L18.3541 47.8018ZM19.9723 49.3228L19.3324 48.3148C19.7355 48.1945 20.0701 48.1667 20.2461 48.4445C20.4013 48.6911 20.3484 48.9964 19.9723 49.3228Z" fill="black"/>
</g>
<path d="M20.0725 49.9068L20.4786 50.5449L20.0121 50.8459L19.6112 50.213C19.0312 50.5368 18.3742 50.6936 17.9147 50.6262L17.8062 49.889C18.2954 49.9298 18.7861 49.8314 19.2217 49.6047L18.4995 48.4659C17.7692 48.7121 16.9618 48.9364 16.4607 48.1452C16.0911 47.5641 16.189 46.7915 17.0251 46.1425L16.6179 45.4983L17.0843 45.1973L17.4853 45.8303C17.9039 45.5885 18.3764 45.4558 18.8596 45.4444L18.9906 46.169C18.6027 46.1828 18.2218 46.277 17.8722 46.4454L18.6032 47.5969C19.3332 47.3487 20.1481 47.1104 20.6497 47.9036C21.0193 48.4764 20.913 49.2486 20.0725 49.9068ZM18.0603 47.766L17.4166 46.7503C17.0516 47.0704 17.0107 47.3834 17.178 47.6278C17.3452 47.8723 17.6683 47.88 18.0603 47.766ZM19.9545 48.4102C19.7761 48.1308 19.4436 48.1581 19.0404 48.2784L19.6804 49.2865C20.0546 48.9605 20.1095 48.6551 19.9545 48.4102Z" fill="#D66D11"/>
<path d="M17.1494 48.3666C17.0743 48.3686 16.9998 48.3523 16.9325 48.319C16.7654 48.2483 16.6252 48.1259 16.5326 47.9699C16.4416 47.8119 16.4046 47.6284 16.4278 47.4475C16.4285 47.3701 16.4497 47.2943 16.4894 47.2278C16.4894 47.2278 16.4706 47.3105 16.4636 47.4404C16.4533 47.6119 16.4933 47.7826 16.5788 47.9316C16.6675 48.0781 16.7963 48.1962 16.95 48.2719C17.0681 48.3436 17.1498 48.3583 17.1494 48.3666Z" fill="white"/>
<path d="M17.0596 45.9763C17.0457 45.9791 16.9835 45.9066 16.918 45.7973C16.8525 45.688 16.8101 45.6115 16.8217 45.5968C16.8333 45.582 16.8959 45.6669 16.9634 45.7758C17.0309 45.8847 17.0729 45.9695 17.0596 45.9763Z" fill="white"/>
<path d="M73.8971 31.8254C76.6295 30.0105 77.3732 26.3241 75.5583 23.5917C73.7434 20.8593 70.057 20.1155 67.3246 21.9305C64.5922 23.7454 63.8484 27.4318 65.6634 30.1642C67.4783 32.8966 71.1647 33.6403 73.8971 31.8254Z" fill="#D66D11"/>
<g opacity="0.1">
<path d="M71.4212 20.9906C68.1733 20.5455 65.1794 22.8177 64.7343 26.0659C64.7341 26.0666 64.7341 26.0673 64.7341 26.0679C64.7341 26.0679 68.843 26.8219 70.0666 25.2934C71.29 23.7649 71.4212 20.9906 71.4212 20.9906Z" fill="white"/>
</g>
<path d="M75.1584 26.8578C75.4671 24.3898 73.7166 22.1388 71.2486 21.8302C68.7806 21.5215 66.5296 23.272 66.221 25.74C65.9123 28.2081 67.6628 30.459 70.1308 30.7676C72.5988 31.0763 74.8498 29.3258 75.1584 26.8578Z" fill="#D66D11"/>
<g opacity="0.2">
<path d="M75.1583 26.8579C75.467 24.3899 73.7165 22.1389 71.2485 21.8303C68.7804 21.5216 66.5295 23.2721 66.2209 25.7401C65.9122 28.2081 67.6627 30.4591 70.1307 30.7677C72.5987 31.0764 74.8497 29.3259 75.1583 26.8579Z" fill="black"/>
</g>
<path d="M75.1031 27.5871C74.7706 30.0248 72.5249 31.7312 70.0875 31.3987C67.6498 31.0662 65.9434 28.8205 66.2759 26.383C66.6084 23.9454 68.8541 22.2388 71.2916 22.5715C71.2928 22.5717 71.2943 22.5718 71.2956 22.572C73.7314 22.9064 75.4354 25.151 75.1031 27.5871Z" fill="#D66D11"/>
<g opacity="0.2">
<path d="M75.1024 27.587C74.7699 30.0246 72.5242 31.731 70.0867 31.3985C67.6491 31.066 65.9427 28.8203 66.2752 26.3829C66.6077 23.9452 68.8534 22.2386 71.2908 22.5713C71.2921 22.5715 71.2936 22.5717 71.2949 22.5719C73.7307 22.9062 75.4347 25.1508 75.1024 27.587Z" fill="white"/>
</g>
<path d="M70.9218 26.622L71.0767 25.4943C71.2796 25.5484 71.4745 25.629 71.6563 25.7341C71.7475 25.7988 71.8331 25.8713 71.912 25.9508L71.931 25.9166L72.1612 25.5341L72.2105 25.4446L72.0386 25.206L71.9354 25.2347C71.7006 25.0684 71.4347 24.951 71.1536 24.8893L71.238 24.267L71.0662 24.0849L71.0447 24.2402L70.7801 24.2052L70.6923 24.8372C69.8082 24.801 69.3222 25.2487 69.247 25.8119C69.141 26.5897 69.7787 26.8826 70.3797 27.1187L70.2259 28.2374C69.8246 28.1476 69.4573 27.945 69.1669 27.6537L68.8378 28.184C69.0943 28.4769 69.6008 28.729 70.1438 28.8378L70.08 29.3062L69.8608 29.2807L70.0588 29.4579L70.5197 29.5175L70.6066 28.8906C71.4969 28.9226 71.9856 28.4841 72.0633 27.9163C72.1718 27.1479 71.522 26.8596 70.9218 26.622ZM70.48 26.4428C70.1686 26.3023 69.9445 26.1477 69.9806 25.878C70.0165 25.608 70.2141 25.4544 70.615 25.45L70.48 26.4428ZM70.6925 28.2904L70.8283 27.2997C71.151 27.4407 71.3801 27.6039 71.3424 27.8767C71.3083 28.1185 71.1094 28.285 70.6925 28.2904Z" fill="#D66D11"/>
<g opacity="0.3">
<path d="M70.9222 26.6221L71.0772 25.4944C71.2801 25.5485 71.475 25.6291 71.6568 25.7341C71.748 25.7989 71.8336 25.8714 71.9125 25.9509L71.9315 25.9167L72.1617 25.5341L72.211 25.4447L72.0391 25.206L71.9359 25.2347C71.7011 25.0684 71.4352 24.951 71.1541 24.8894L71.2385 24.2671L71.0667 24.0849L71.0452 24.2402L70.7806 24.2053L70.6928 24.8373C69.8087 24.8011 69.3227 25.2487 69.2475 25.812C69.1415 26.5897 69.7792 26.8827 70.3802 27.1187L70.2264 28.2374C69.825 28.1477 69.4578 27.9451 69.1674 27.6538L68.8383 28.1841C69.0948 28.477 69.6013 28.7291 70.1443 28.8378L70.0804 29.3063L69.8613 29.2807L70.0593 29.4579L70.5202 29.5175L70.6071 28.8906C71.4974 28.9227 71.9861 28.4842 72.0638 27.9164C72.1723 27.148 71.5224 26.8597 70.9222 26.6221ZM70.4805 26.4429C70.1691 26.3023 69.945 26.1478 69.9811 25.878C70.017 25.6081 70.2146 25.4544 70.6155 25.45L70.4805 26.4429ZM70.693 28.2904L70.8288 27.2998C71.1515 27.4407 71.3806 27.6039 71.3429 27.8768C71.3088 28.1186 71.1099 28.2851 70.693 28.2904Z" fill="black"/>
</g>
<path d="M70.4379 28.7192L70.3525 29.3468L69.8916 29.2872L69.9775 28.6657C69.4316 28.5591 68.9265 28.3041 68.6693 28.0126L68.9984 27.4824C69.2891 27.7729 69.6562 27.9753 70.0572 28.066L70.211 26.9473C69.6108 26.7097 68.9732 26.4168 69.0807 25.6398C69.1585 25.0683 69.6387 24.6272 70.5245 24.6642L70.6125 24.0322L71.0734 24.0918L70.9875 24.7133C71.3858 24.7851 71.7597 24.9558 72.0749 25.2096L71.7669 25.7437C71.5113 25.5428 71.2169 25.3971 70.9023 25.3157L70.7472 26.4474C71.3481 26.6834 71.9982 26.9716 71.89 27.7499C71.8168 28.3164 71.3314 28.7527 70.4379 28.7192ZM70.3087 26.2622L70.4463 25.2648C70.0399 25.2721 69.8445 25.4503 69.8193 25.6968C69.794 25.9436 69.9964 26.1231 70.3087 26.2622ZM71.1717 27.6984C71.2086 27.4233 70.9812 27.2608 70.6583 27.1199L70.5225 28.1105C70.9382 28.1045 71.1383 27.9387 71.1717 27.6984Z" fill="#D66D11"/>
<path d="M69.4001 26.1532C69.351 26.1138 69.3122 26.063 69.2871 26.0054C69.2185 25.8698 69.195 25.7158 69.2202 25.566C69.2474 25.4157 69.323 25.2784 69.4354 25.1754C69.4778 25.1263 69.5324 25.0893 69.5937 25.0681C69.5937 25.0681 69.537 25.1108 69.4623 25.1901C69.3629 25.2943 69.2963 25.4251 69.2704 25.5666C69.2479 25.7083 69.2663 25.8534 69.3238 25.9848C69.3606 26.0943 69.4049 26.148 69.4001 26.1532Z" fill="white"/>
<path d="M70.6361 24.5762C70.6257 24.5705 70.6251 24.4905 70.6422 24.3852C70.6593 24.28 70.6737 24.2082 70.6891 24.2049C70.7044 24.2018 70.6987 24.2899 70.6831 24.3959C70.6672 24.5019 70.6481 24.579 70.6361 24.5762Z" fill="white"/>
<path d="M78.5679 82.4876H85.4092V79.9111H78.5679V82.4876Z" fill="#EBEBEB"/>
<path d="M64.2102 80.009H85.6959V79.4694H64.2102V80.009Z" fill="#455A64"/>
<path d="M64.2089 82.9128H85.595V82.3731H64.2089V82.9128Z" fill="#455A64"/>
<path d="M78.569 79.5978L78.5366 82.8101H64.2094V79.5978H78.569Z" fill="#455A64"/>
<path d="M75.0872 81.2007C75.0872 81.6421 75.4338 82 75.8616 82C76.2892 82 76.6361 81.6421 76.6361 81.2007C76.6361 80.7591 76.2892 80.4014 75.8616 80.4014C75.434 80.4014 75.0872 80.7591 75.0872 81.2007Z" fill="#263238"/>
<path d="M74.966 81.2004C74.966 80.6962 75.3675 80.2863 75.8606 80.2863C76.3537 80.2863 76.755 80.6964 76.755 81.2004C76.755 81.7045 76.3537 82.1147 75.8606 82.1147C75.3675 82.1147 74.966 81.7045 74.966 81.2004ZM75.2065 81.2004C75.2065 81.5778 75.5002 81.8849 75.8608 81.8849C76.2216 81.8849 76.5149 81.5778 76.5149 81.2004C76.5149 80.8228 76.2216 80.5159 75.8608 80.5159C75.5 80.5159 75.2065 80.8228 75.2065 81.2004Z" fill="#E0E0E0"/>
<path d="M79.0805 81.8572C79.0805 81.8903 80.4863 81.917 82.2197 81.917C83.9539 81.917 85.3593 81.8903 85.3593 81.8572C85.3593 81.8242 83.9539 81.7974 82.2197 81.7974C80.4861 81.7974 79.0805 81.8242 79.0805 81.8572Z" fill="#263238"/>
<path d="M79.0805 81.4087C79.0805 81.4419 80.4863 81.4685 82.2197 81.4685C83.9539 81.4685 85.3593 81.4419 85.3593 81.4087C85.3593 81.3758 83.9539 81.3489 82.2197 81.3489C80.4861 81.3489 79.0805 81.3758 79.0805 81.4087Z" fill="#263238"/>
<path d="M79.0805 80.9595C79.0805 80.9926 80.4863 81.0193 82.2197 81.0193C83.9539 81.0193 85.3593 80.9925 85.3593 80.9595C85.3593 80.9264 83.9539 80.8997 82.2197 80.8997C80.4861 80.8997 79.0805 80.9266 79.0805 80.9595Z" fill="#263238"/>
<path d="M79.0805 80.5094C79.0805 80.5426 80.4863 80.5692 82.2197 80.5692C83.9539 80.5692 85.3593 80.5424 85.3593 80.5094C85.3593 80.4765 83.9539 80.4496 82.2197 80.4496C80.4861 80.4496 79.0805 80.4765 79.0805 80.5094Z" fill="#263238"/>
<path d="M65.7967 81.9997H72.2531V80.2806H65.7967V81.9997Z" fill="white"/>
<path d="M71.2516 81.8253C71.2862 81.8253 71.3142 81.5188 71.3142 81.1405C71.3142 80.7622 71.2862 80.4556 71.2516 80.4556C71.2171 80.4556 71.1891 80.7622 71.1891 81.1405C71.1891 81.5188 71.2171 81.8253 71.2516 81.8253Z" fill="#E0E0E0"/>
<path d="M70.3923 81.8253C70.4269 81.8253 70.4549 81.5188 70.4549 81.1405C70.4549 80.7622 70.4269 80.4556 70.3923 80.4556C70.3577 80.4556 70.3298 80.7622 70.3298 81.1405C70.3298 81.5188 70.3577 81.8253 70.3923 81.8253Z" fill="#E0E0E0"/>
<path d="M69.5446 81.8253C69.5792 81.8253 69.6072 81.5188 69.6072 81.1405C69.6072 80.7622 69.5792 80.4556 69.5446 80.4556C69.51 80.4556 69.4821 80.7622 69.4821 81.1405C69.4821 81.5188 69.51 81.8253 69.5446 81.8253Z" fill="#E0E0E0"/>
<path d="M68.6853 81.8253C68.7199 81.8253 68.7479 81.5188 68.7479 81.1405C68.7479 80.7622 68.7199 80.4556 68.6853 80.4556C68.6507 80.4556 68.6227 80.7622 68.6227 81.1405C68.6227 81.5188 68.6509 81.8253 68.6853 81.8253Z" fill="#E0E0E0"/>
<path d="M67.8376 81.8253C67.8722 81.8253 67.9001 81.5188 67.9001 81.1405C67.9001 80.7622 67.8722 80.4556 67.8376 80.4556C67.803 80.4556 67.775 80.7622 67.775 81.1405C67.775 81.5188 67.803 81.8253 67.8376 81.8253Z" fill="#E0E0E0"/>
<path d="M66.9783 81.8253C67.0129 81.8253 67.0408 81.5188 67.0408 81.1405C67.0408 80.7622 67.0129 80.4556 66.9783 80.4556C66.9437 80.4556 66.9157 80.7622 66.9157 81.1405C66.9157 81.5188 66.9437 81.8253 66.9783 81.8253Z" fill="#E0E0E0"/>
<path d="M78.4713 82.9051C78.5058 82.9051 78.5338 82.1414 78.5338 81.1995C78.5338 80.2572 78.5058 79.4936 78.4713 79.4936C78.4367 79.4936 78.4087 80.2572 78.4087 81.1995C78.4087 82.1415 78.4368 82.9051 78.4713 82.9051Z" fill="#263238"/>
<path d="M77.6581 85.8375H84.4994V83.261H77.6581V85.8375Z" fill="#EBEBEB"/>
<path d="M63.2986 83.3575H84.7842V82.8178H63.2986V83.3575Z" fill="#D66D11"/>
<path d="M63.3012 86.2615H84.6874V85.7219H63.3012V86.2615Z" fill="#D66D11"/>
<path d="M77.6597 82.9467L77.6273 86.159H63.3002V82.9467H77.6597Z" fill="#D66D11"/>
<path d="M74.1807 84.5497C74.1807 84.9913 74.5274 85.3491 74.9552 85.3491C75.3828 85.3491 75.7296 84.9913 75.7296 84.5497C75.7296 84.1083 75.383 83.7504 74.9552 83.7504C74.5276 83.7504 74.1807 84.1083 74.1807 84.5497Z" fill="#263238"/>
<path d="M74.0596 84.5501C74.0596 84.0459 74.4609 83.636 74.9544 83.636C75.4477 83.636 75.849 84.0461 75.849 84.5501C75.849 85.0543 75.4477 85.4644 74.9544 85.4644C74.4611 85.4644 74.0596 85.0543 74.0596 84.5501ZM74.3001 84.5501C74.3001 84.9275 74.5937 85.2348 74.9544 85.2348C75.315 85.2348 75.6087 84.9277 75.6087 84.5501C75.6087 84.1727 75.315 83.8656 74.9544 83.8656C74.5935 83.8656 74.3001 84.1727 74.3001 84.5501Z" fill="#E0E0E0"/>
<path d="M78.1708 85.2052C78.1708 85.2384 79.5766 85.265 81.3101 85.265C83.0443 85.265 84.4497 85.2384 84.4497 85.2052C84.4497 85.1723 83.0443 85.1454 81.3101 85.1454C79.5764 85.1454 78.1708 85.1723 78.1708 85.2052Z" fill="#263238"/>
<path d="M78.1708 84.7571C78.1708 84.7902 79.5766 84.8169 81.3101 84.8169C83.0443 84.8169 84.4497 84.7902 84.4497 84.7571C84.4497 84.724 83.0443 84.6973 81.3101 84.6973C79.5764 84.6973 78.1708 84.724 78.1708 84.7571Z" fill="#263238"/>
<path d="M78.1708 84.3087C78.1708 84.3418 79.5766 84.3685 81.3101 84.3685C83.0443 84.3685 84.4497 84.3416 84.4497 84.3087C84.4497 84.2756 83.0443 84.2489 81.3101 84.2489C79.5764 84.2489 78.1708 84.2756 78.1708 84.3087Z" fill="#263238"/>
<path d="M78.1708 83.8606C78.1708 83.8935 79.5766 83.9204 81.3101 83.9204C83.0443 83.9204 84.4497 83.8935 84.4497 83.8606C84.4497 83.8275 83.0443 83.8008 81.3101 83.8008C79.5764 83.8006 78.1708 83.8275 78.1708 83.8606Z" fill="#263238"/>
<path d="M64.8869 85.348H71.3433V83.6289H64.8869V85.348Z" fill="white"/>
<path d="M70.3375 85.1736C70.3721 85.1736 70.4001 84.867 70.4001 84.4887C70.4001 84.1104 70.3721 83.8039 70.3375 83.8039C70.3029 83.8039 70.275 84.1104 70.275 84.4887C70.275 84.867 70.3031 85.1736 70.3375 85.1736Z" fill="#E0E0E0"/>
<path d="M69.486 85.1736C69.5206 85.1736 69.5486 84.867 69.5486 84.4887C69.5486 84.1104 69.5206 83.8039 69.486 83.8039C69.4514 83.8039 69.4235 84.1104 69.4235 84.4887C69.4235 84.867 69.4514 85.1736 69.486 85.1736Z" fill="#E0E0E0"/>
<path d="M68.6305 85.1736C68.6651 85.1736 68.6931 84.867 68.6931 84.4887C68.6931 84.1104 68.6651 83.8039 68.6305 83.8039C68.5959 83.8039 68.5679 84.1104 68.5679 84.4887C68.5679 84.867 68.5959 85.1736 68.6305 85.1736Z" fill="#E0E0E0"/>
<path d="M67.779 85.1736C67.8136 85.1736 67.8416 84.867 67.8416 84.4887C67.8416 84.1104 67.8136 83.8039 67.779 83.8039C67.7444 83.8039 67.7164 84.1104 67.7164 84.4887C67.7166 84.867 67.7446 85.1736 67.779 85.1736Z" fill="#E0E0E0"/>
<path d="M66.9235 85.1736C66.9581 85.1736 66.986 84.867 66.986 84.4887C66.986 84.1104 66.9581 83.8039 66.9235 83.8039C66.8889 83.8039 66.8609 84.1104 66.8609 84.4887C66.8609 84.867 66.8889 85.1736 66.9235 85.1736Z" fill="#E0E0E0"/>
<path d="M66.072 85.1736C66.1066 85.1736 66.1345 84.867 66.1345 84.4887C66.1345 84.1104 66.1066 83.8039 66.072 83.8039C66.0374 83.8039 66.0094 84.1104 66.0094 84.4887C66.0094 84.867 66.0376 85.1736 66.072 85.1736Z" fill="#E0E0E0"/>
<path d="M77.5654 86.2555C77.6 86.2555 77.6279 85.4917 77.6279 84.5498C77.6279 83.6075 77.6 82.8439 77.5654 82.8439C77.5308 82.8439 77.5028 83.6075 77.5028 84.5498C77.5028 85.4917 77.531 86.2555 77.5654 86.2555Z" fill="#263238"/>
<path d="M64.9381 74.4589V73.6201L83.3013 73.6565H84.3624V74.4712H83.3013V79.4948H63.469V74.4589H64.9381Z" fill="#EBEBEB"/>
<path d="M84.3606 74.4707C84.3606 74.4972 80.0158 74.5129 74.6577 74.5059C69.2976 74.4987 64.9539 74.4716 64.9541 74.4452C64.9541 74.4187 69.298 74.403 74.6579 74.4102C80.016 74.417 84.3606 74.4442 84.3606 74.4707Z" fill="#263238"/>
<path d="M83.3016 75.5954C83.3016 75.6219 78.8616 75.6405 73.3858 75.637C67.9081 75.6335 63.4691 75.609 63.4691 75.5827C63.4691 75.5562 67.9081 75.5376 73.3858 75.5413C78.8616 75.5446 83.3016 75.5689 83.3016 75.5954Z" fill="#263238"/>
<path d="M83.3016 76.7397C83.3016 76.7662 78.8616 76.7848 73.3858 76.7811C67.9081 76.7776 63.4691 76.7531 63.4691 76.7268C63.4691 76.7003 67.9081 76.6817 73.3858 76.6854C78.8616 76.6889 83.3016 76.7132 83.3016 76.7397Z" fill="#263238"/>
<path d="M83.3016 77.8839C83.3016 77.9104 78.8616 77.929 73.3858 77.9253C67.9081 77.9218 63.4691 77.8973 63.4691 77.871C63.4691 77.8445 67.9081 77.8259 73.3858 77.8296C78.8616 77.8331 83.3016 77.8574 83.3016 77.8839Z" fill="#263238"/>
<path d="M83.3016 79.028C83.3016 79.0545 78.8616 79.0731 73.3858 79.0694C67.9081 79.0659 63.4691 79.0416 63.4691 79.0152C63.4691 78.9887 67.9081 78.9701 73.3858 78.9736C78.8616 78.9772 83.3016 79.0017 83.3016 79.028Z" fill="#263238"/>
<g opacity="0.3">
<path d="M69.4405 79.4948V73.6201H64.9381V74.4589H63.469V79.4948H69.4405Z" fill="black"/>
</g>
<path d="M83.0385 52.8876L70.5752 50.887C69.9456 50.786 69.3533 51.2143 69.2521 51.844L67.2516 64.3072C67.1506 64.9369 67.5791 65.5292 68.2086 65.6302L68.581 65.69L72.0492 66.2466L80.6719 67.6306C81.3015 67.7317 81.8938 67.3031 81.9948 66.6735L83.9953 54.2102C84.0966 53.581 83.6681 52.9887 83.0385 52.8876Z" fill="white"/>
<path d="M68.6909 55.3591L83.4343 57.7258L84.0119 54.1276C84.1055 53.544 83.7083 52.9949 83.1246 52.9013L70.4522 50.8672C69.8921 50.7772 69.3651 51.1584 69.2753 51.7185L68.6909 55.3591Z" fill="#D66D11"/>
<path d="M74.7785 58.2759L73.974 63.2877L72.8141 63.1015L73.4691 59.0204L72.4667 58.8596L72.6161 57.9287L74.7785 58.2759Z" fill="#263238"/>
<path d="M79.5769 59.0447L79.4562 59.7965L76.9108 63.7577L75.6507 63.5555L78.1005 59.7772L76.4395 59.5106L76.3085 60.3268L75.2776 60.1614L75.5604 58.4L79.5769 59.0447Z" fill="#263238"/>
<path d="M74.3269 54.1974C74.3227 54.2235 75.3323 54.4071 76.5817 54.6077C77.8314 54.8083 78.8476 54.9498 78.8517 54.9236C78.8559 54.8975 77.8465 54.7139 76.5967 54.5133C75.3476 54.3127 74.3311 54.1713 74.3269 54.1974Z" fill="#263238"/>
<path d="M83.039 52.8893C83.039 52.8893 83.0896 52.8941 83.1853 52.9193C83.2802 52.9443 83.4216 52.9978 83.5756 53.1161C83.7266 53.2346 83.8926 53.4247 83.9741 53.6992C84.0151 53.835 84.0339 53.99 84.0168 54.153C83.9977 54.3153 83.9668 54.484 83.9397 54.6649C83.7108 56.11 83.3803 58.1973 82.9719 60.7762C82.7663 62.0663 82.5413 63.4792 82.2995 64.9959C82.239 65.3751 82.1775 65.7608 82.115 66.1527C82.082 66.3492 82.0557 66.5448 82.0167 66.7465C81.9753 66.9504 81.8732 67.1414 81.7321 67.2978C81.5884 67.4512 81.4046 67.5723 81.1987 67.6319C80.9952 67.6991 80.7685 67.6917 80.5626 67.6521C80.1471 67.5857 79.7261 67.5184 79.2998 67.4503C75.8891 66.9038 72.1398 66.303 68.2042 65.6725C67.6888 65.597 67.2627 65.1525 67.2067 64.6415C67.1878 64.5155 67.1999 64.3854 67.2183 64.263L67.2765 63.9004C67.3153 63.659 67.3539 63.4185 67.3924 63.1789C67.5464 62.2205 67.6982 61.2762 67.8474 60.3481C68.1462 58.4923 68.4344 56.7021 68.7089 54.9968C68.8464 54.1441 68.9803 53.3128 69.1106 52.5051C69.1432 52.303 69.1755 52.1027 69.2076 51.9038C69.2217 51.8048 69.2464 51.7012 69.281 51.6049C69.3211 51.5104 69.3651 51.4165 69.4276 51.3352C69.5448 51.167 69.7104 51.0388 69.8906 50.9512C70.0735 50.8684 70.2753 50.8296 70.4726 50.8436C71.9964 51.0785 73.4035 51.314 74.6946 51.5207C77.2719 51.9398 79.3577 52.2791 80.8016 52.5141C81.5208 52.633 82.0798 52.7251 82.4613 52.7883C82.6495 52.8203 82.7934 52.8447 82.8926 52.8615C82.9897 52.8784 83.039 52.8893 83.039 52.8893C83.039 52.8893 82.9888 52.8841 82.8913 52.8698C82.7917 52.8547 82.6475 52.833 82.4587 52.8044C82.0767 52.7448 81.517 52.6576 80.7966 52.5454C79.3517 52.3165 77.2646 51.986 74.6856 51.5775C73.3967 51.3749 71.9803 51.1416 70.4681 50.9109C70.2821 50.898 70.0922 50.935 69.9198 51.0132C69.7504 51.0964 69.5943 51.2173 69.4845 51.3759C69.4256 51.4524 69.3848 51.5409 69.3468 51.6298C69.3143 51.7222 69.292 51.8142 69.2777 51.9148C69.2458 52.1139 69.2138 52.3143 69.1816 52.5163C69.0524 53.3242 68.9196 54.1559 68.7833 55.0088C68.5102 56.7144 68.2237 58.5048 67.9266 60.3608C67.7779 61.2889 67.6265 62.2333 67.4728 63.1918C67.4344 63.4314 67.3959 63.6719 67.3571 63.9133C67.3256 64.156 67.2551 64.3966 67.2879 64.6312C67.34 65.1072 67.737 65.5214 68.2173 65.5919C72.1525 66.2247 75.9015 66.8276 79.3117 67.376C79.7379 67.4446 80.1589 67.5125 80.5743 67.5795C80.7804 67.6187 80.9837 67.6247 81.1777 67.5622C81.3711 67.5066 81.544 67.3929 81.6794 67.249C81.8123 67.1022 81.9085 66.9231 81.9477 66.7312C81.9856 66.5373 82.0132 66.3362 82.0462 66.1415C82.1095 65.7498 82.1716 65.3643 82.2329 64.9851C82.4782 63.4689 82.7065 62.0565 82.915 60.767C83.3342 58.1898 83.6736 56.1037 83.9084 54.6597C83.9366 54.4796 83.9691 54.309 83.989 54.1499C84.0069 53.9909 83.9899 53.8393 83.9509 53.706C83.8736 53.4365 83.7128 53.2479 83.5654 53.129C83.4153 53.0103 83.2766 52.9546 83.1831 52.9272C83.1369 52.9102 83.0996 52.9062 83.0756 52.899C83.0512 52.8933 83.039 52.8893 83.039 52.8893Z" fill="#263238"/>
<path d="M74.3024 53.4191L74.3342 53.4243C74.5903 53.4655 74.8314 53.2911 74.8726 53.0349L75.2582 50.6326C75.2993 50.3765 75.125 50.1355 74.8689 50.0944L74.8371 50.0893C74.5809 50.0481 74.3399 50.2225 74.2989 50.4786L73.9132 52.8809C73.872 53.1371 74.0462 53.3781 74.3024 53.4191Z" fill="#E0E0E0"/>
<path d="M74.3038 53.4199C74.3101 53.4079 74.1826 53.4074 74.0492 53.2641C73.9862 53.1932 73.9301 53.0813 73.9358 52.9467C73.9503 52.8134 73.9859 52.6501 74.0138 52.4758C74.074 52.119 74.1447 51.7015 74.2225 51.2408C74.2608 51.0077 74.3009 50.7637 74.3425 50.5111C74.3575 50.3915 74.4177 50.2844 74.515 50.213C74.6129 50.1419 74.736 50.1162 74.8624 50.1423C74.9839 50.1615 75.0919 50.2356 75.1544 50.3372C75.2198 50.4409 75.2315 50.5583 75.2043 50.6818C75.1646 50.9348 75.1265 51.1792 75.0899 51.4126C75.0196 51.8747 74.9559 52.2933 74.9014 52.651C74.8886 52.7386 74.8762 52.8226 74.8645 52.9025C74.8514 52.9825 74.8468 53.0582 74.8238 53.1196C74.7774 53.2464 74.6834 53.3286 74.5988 53.371C74.4212 53.453 74.3025 53.4061 74.3038 53.4199C74.3034 53.423 74.3294 53.4317 74.3827 53.4398C74.4356 53.446 74.518 53.4446 74.6144 53.4048C74.7084 53.3643 74.8166 53.279 74.8738 53.1388C74.9027 53.0674 74.9092 52.9899 74.9246 52.9122C74.9386 52.8326 74.9531 52.749 74.9682 52.6616C75.0286 52.3049 75.0991 51.8874 75.1769 51.4265C75.2152 51.1933 75.2553 50.9492 75.2969 50.6965C75.3268 50.5708 75.3158 50.4086 75.2354 50.2869C75.1594 50.1626 75.0262 50.0709 74.8777 50.0479C74.7375 50.0177 74.5752 50.0483 74.4591 50.1361C74.3406 50.2209 74.2657 50.3609 74.2501 50.496C74.2105 50.749 74.1723 50.9933 74.1356 51.2266C74.0653 51.6887 74.0017 52.1072 73.9472 52.4649C73.9231 52.6431 73.8933 52.7967 73.8825 52.9454C73.8817 53.0968 73.9498 53.217 74.0221 53.2895C74.0953 53.364 74.1724 53.3947 74.2234 53.4092C74.2751 53.4238 74.3038 53.4217 74.3038 53.4199Z" fill="#263238"/>
<path d="M78.8008 54.1425L78.8326 54.1477C79.0887 54.1887 79.3298 54.0145 79.3708 53.7583L79.7565 51.356C79.7975 51.0999 79.6233 50.8589 79.3671 50.8178L79.3353 50.8127C79.0792 50.7717 78.8381 50.9459 78.7969 51.202L78.4113 53.6043C78.3702 53.8605 78.5447 54.1015 78.8008 54.1425Z" fill="#E0E0E0"/>
<path d="M78.8016 54.1428C78.8076 54.1308 78.6803 54.1302 78.5469 53.9869C78.484 53.9161 78.4279 53.8042 78.4336 53.6695C78.4481 53.5363 78.4836 53.3729 78.5116 53.1986C78.5719 52.8419 78.6424 52.4244 78.7202 51.9636C78.7585 51.7305 78.7986 51.4865 78.8402 51.2337C78.8553 51.1143 78.9154 51.007 79.0128 50.9358C79.1107 50.8648 79.2338 50.839 79.3602 50.8652C79.4816 50.8843 79.5896 50.9584 79.6522 51.06C79.7175 51.1638 79.7293 51.2812 79.7021 51.4046C79.6625 51.6576 79.6242 51.902 79.5876 52.1355C79.5173 52.5975 79.4537 53.0161 79.3992 53.374C79.3863 53.4616 79.374 53.5457 79.3622 53.6255C79.3491 53.7056 79.3445 53.7812 79.3215 53.8426C79.2752 53.9694 79.1813 54.0515 79.0965 54.094C78.9189 54.1759 78.8001 54.129 78.8016 54.1428C78.8012 54.1459 78.8271 54.1543 78.8803 54.1626C78.9331 54.1689 79.0157 54.1674 79.112 54.1275C79.2062 54.087 79.3142 54.0016 79.3714 53.8614C79.4003 53.79 79.4069 53.7127 79.4222 53.6349C79.4362 53.5552 79.4507 53.4717 79.4658 53.3843C79.5261 53.0275 79.5966 52.61 79.6745 52.1491C79.7127 51.916 79.753 51.6718 79.7944 51.4192C79.8246 51.2935 79.8134 51.1312 79.733 51.0096C79.657 50.8852 79.5238 50.7936 79.3751 50.7706C79.2349 50.7404 79.0726 50.7709 78.9567 50.8587C78.8382 50.9435 78.7633 51.0836 78.7476 51.2186C78.7081 51.4716 78.6698 51.716 78.6332 51.9493C78.5629 52.4113 78.4992 52.8299 78.4448 53.1876C78.4207 53.3657 78.3909 53.5194 78.38 53.668C78.3793 53.8195 78.4474 53.9396 78.5197 54.0121C78.5929 54.0866 78.67 54.1174 78.721 54.1319C78.7727 54.1466 78.8014 54.1446 78.8016 54.1428Z" fill="#263238"/>
<path d="M83.6935 44.34V27.4326C83.6935 26.8611 83.2301 26.398 82.6588 26.398H56.561C55.9895 26.398 55.5264 26.8613 55.5264 27.4326V44.3398C55.5264 44.9113 55.9897 45.3745 56.561 45.3745H82.6586C83.2301 45.3746 83.6935 44.9113 83.6935 44.34Z" fill="white"/>
<path d="M82.5408 45.4238H56.5462C55.9574 45.4238 55.4801 44.9465 55.4801 44.3577V33.1455H83.7318V44.2328C83.7318 44.8906 83.1986 45.4238 82.5408 45.4238Z" fill="#E0E0E0"/>
<path d="M82.7566 45.4242H79.0069V37.6277H83.6915V44.4893C83.6915 45.0056 83.2729 45.4242 82.7566 45.4242Z" fill="#D66D11"/>
<path d="M74.6954 42.0463H60.7094V45.4238H74.6954V42.0463Z" fill="#F5F5F5"/>
<path d="M68.5347 39.2002V39.3489L67.9157 40.7309H67.6839L68.2896 39.3903H67.5898V39.6637H67.3799V39.2L68.5347 39.2002Z" fill="#263238"/>
<path d="M73.1129 40.2989C73.1129 40.5765 72.8767 40.7495 72.5028 40.7495C72.1309 40.7495 71.897 40.5767 71.897 40.2989C71.897 40.1239 71.9933 39.9949 72.166 39.9292C72.026 39.8635 71.9517 39.7498 71.9517 39.5989C71.9517 39.343 72.1725 39.1835 72.5028 39.1835C72.8353 39.1835 73.0583 39.3432 73.0583 39.5989C73.0583 39.7498 72.9817 39.8635 72.8417 39.9292C73.0167 39.9971 73.1129 40.1239 73.1129 40.2989ZM72.8941 40.2923C72.8941 40.1239 72.7455 40.019 72.5026 40.019C72.2599 40.019 72.1154 40.1239 72.1154 40.2923C72.1154 40.465 72.2597 40.5721 72.5026 40.5721C72.7455 40.5723 72.8941 40.465 72.8941 40.2923ZM72.1681 39.608C72.1681 39.7588 72.2926 39.8529 72.5028 39.8529C72.7149 39.8529 72.8439 39.7588 72.8439 39.608C72.8439 39.4549 72.7083 39.3608 72.5028 39.3608C72.2971 39.3608 72.1681 39.4547 72.1681 39.608Z" fill="#263238"/>
<path d="M58.5772 43.4793C58.5772 44.002 58.2819 44.2819 57.8534 44.2819C57.7089 44.2819 57.5713 44.2534 57.4729 44.1923L57.556 44.0217C57.637 44.0742 57.7397 44.0939 57.8513 44.0939C58.1619 44.0939 58.3586 43.8992 58.3586 43.5165V43.4618C58.269 43.5952 58.1071 43.6629 57.9168 43.6629C57.6129 43.6629 57.3941 43.4815 57.3941 43.1992C57.3941 42.9041 57.6304 42.7161 57.9343 42.7161C58.3454 42.7161 58.5772 42.9917 58.5772 43.4793ZM58.3082 43.1884C58.3082 43.0311 58.1814 42.8933 57.943 42.8933C57.7439 42.8933 57.6063 43.0092 57.6063 43.1908C57.6063 43.3702 57.7397 43.4859 57.954 43.4859C58.1638 43.4859 58.3082 43.3568 58.3082 43.1884Z" fill="#263238"/>
<path d="M73.1278 36.2147H72.8369V36.591H72.6247V36.2147H71.7741V36.0616L72.557 35.0599H72.7933L72.0431 36.0267H72.6314V35.6942H72.8369V36.0267H73.1278V36.2147Z" fill="#263238"/>
<path d="M58.5544 39.9723C58.5544 40.237 58.3663 40.449 57.9748 40.449C57.7582 40.449 57.544 40.3791 57.4127 40.263L57.5133 40.0902C57.616 40.1864 57.7867 40.2541 57.9726 40.2541C58.2044 40.2541 58.3356 40.1471 58.3356 39.9809C58.3356 39.8081 58.2263 39.701 57.8719 39.701H57.5242L57.6051 38.9006H58.469V39.0909H57.7889L57.7474 39.5108H57.9179C58.375 39.5108 58.5544 39.701 58.5544 39.9723Z" fill="#263238"/>
<path d="M63.6375 39.9605C63.6375 40.2558 63.3991 40.4439 63.0951 40.4439C62.6839 40.4439 62.4522 40.1682 62.4522 39.6806C62.4522 39.1581 62.7473 38.878 63.1761 38.878C63.3203 38.878 63.4581 38.9065 63.5566 38.9676L63.4734 39.1382C63.3947 39.0858 63.2898 39.0661 63.1805 39.0661C62.8699 39.0661 62.671 39.2607 62.671 39.6435C62.671 39.6609 62.671 39.6784 62.6732 39.6981C62.7608 39.5669 62.9225 39.497 63.1128 39.497C63.4167 39.497 63.6375 39.6784 63.6375 39.9605ZM63.4256 39.9693C63.4256 39.7899 63.29 39.6742 63.0756 39.6742C62.8679 39.6742 62.7234 39.8032 62.7234 39.9715C62.7234 40.129 62.8504 40.2669 63.0865 40.2669C63.2855 40.2669 63.4256 40.1507 63.4256 39.9693Z" fill="#263238"/>
<path d="M58.2388 34.9685V36.4994H58.0222V35.1588H57.6767V34.9685H58.2388Z" fill="#263238"/>
<path d="M63.7182 36.4102V36.6005H62.6183V36.4518L63.2417 35.8505C63.4034 35.693 63.4341 35.5967 63.4341 35.5005C63.4341 35.343 63.3226 35.247 63.1083 35.247C62.9443 35.247 62.8109 35.2994 62.7169 35.4131L62.5682 35.2841C62.6864 35.1377 62.8897 35.0523 63.1281 35.0523C63.4474 35.0523 63.6531 35.2164 63.6531 35.4788C63.6531 35.6275 63.6093 35.7609 63.4016 35.96L62.9335 36.4104H63.7182V36.4102Z" fill="#263238"/>
<path d="M68.3386 36.131C68.3386 36.3892 68.1483 36.5991 67.759 36.5991C67.5402 36.5991 67.3258 36.5292 67.1968 36.4133L67.2975 36.2405C67.4003 36.3368 67.5709 36.4045 67.759 36.4045C67.9886 36.4045 68.1198 36.2996 68.1198 36.1333C68.1198 35.9715 68.0039 35.8665 67.7415 35.8665H67.6191V35.7134L68.004 35.241H67.2669V35.0508H68.2773V35.1995L67.8771 35.6937C68.1833 35.7222 68.3386 35.8948 68.3386 36.131Z" fill="#263238"/>
<path d="M67.21 43.9296C67.21 43.4312 67.4768 43.1467 67.8354 43.1467C68.1918 43.1467 68.4588 43.431 68.4588 43.9296C68.4588 44.4283 68.192 44.7126 67.8354 44.7126C67.4768 44.7128 67.21 44.4283 67.21 43.9296ZM68.2401 43.9296C68.2401 43.5383 68.0739 43.3414 67.8354 43.3414C67.595 43.3414 67.4288 43.5381 67.4288 43.9296C67.4288 44.3212 67.595 44.5179 67.8354 44.5179C68.0739 44.5179 68.2401 44.3212 68.2401 43.9296Z" fill="#263238"/>
<path d="M76.9894 43.9708C76.9894 43.927 76.9982 43.8943 77.0265 43.8133L77.1292 43.5093H77.267L77.1861 43.835C77.2407 43.8547 77.2779 43.9049 77.2779 43.9706C77.2779 44.0582 77.2144 44.1193 77.1314 44.1193C77.0484 44.1195 76.9894 44.056 76.9894 43.9708Z" fill="#263238"/>
<path d="M82.0978 40.834H80.6044V40.9911H82.0978V40.834Z" fill="#263238"/>
<path d="M82.0978 41.3075H80.6044V41.4646H82.0978V41.3075Z" fill="#263238"/>
<path d="M82.0844 35.7658H80.9662V35.8836H82.0844V35.7658Z" fill="#263238"/>
<path d="M82.1391 35.9413H80.9059V35.7083H82.1391V35.9413Z" fill="#263238"/>
<path d="M81.4659 35.2666V36.3847H81.5836V35.2666H81.4659Z" fill="#263238"/>
<path d="M81.6374 36.4428H81.4046V35.2097H81.6374V36.4428ZM81.5198 36.3276H81.5224L81.5198 35.3245V36.3276Z" fill="#263238"/>
<path d="M77.4688 39.6911L77.3043 39.5266L76.9505 39.8803L76.5969 39.5266L76.4322 39.6913L76.7858 40.0449L76.4322 40.3986L76.5969 40.5633L76.9505 40.2096L77.3042 40.5633L77.4688 40.3986L77.1152 40.0449L77.4688 39.6911Z" fill="#263238"/>
<path d="M77.5922 35.7657H76.4741V35.8835H77.5922V35.7657Z" fill="#263238"/>
<path d="M77.6469 35.9412H76.4138V35.7083H77.6469V35.9412Z" fill="#263238"/>
<path d="M73.5217 28.7354V31.6048H73.3125V28.924H72.6116V28.7354H73.5217Z" fill="#263238"/>
<path d="M76.219 28.7354V28.8829L74.9851 31.6048H74.7556L75.9772 28.924H74.3663V29.4732H74.1613V28.7354H76.219Z" fill="#263238"/>
<path d="M78.4352 30.7974C78.4352 31.2731 78.091 31.6254 77.4309 31.6254C77.0087 31.6254 76.6193 31.4696 76.4184 31.2401L76.5249 31.0802C76.7012 31.2812 77.0374 31.4328 77.4308 31.4328C77.9473 31.4328 78.222 31.187 78.222 30.7974C78.222 30.4121 77.9596 30.1619 77.3857 30.1619H77.2054V30.0103L78.054 28.924H76.5249V28.7354H78.3245V28.8829L77.4635 29.9856C78.1154 30.0022 78.4352 30.3301 78.4352 30.7974Z" fill="#263238"/>
<path d="M81.0341 30.8179C81.0341 31.318 80.6201 31.6255 79.9437 31.6255C79.2674 31.6255 78.8615 31.318 78.8615 30.8179C78.8615 30.4571 79.0828 30.207 79.4723 30.1045C79.1444 29.998 78.9641 29.7724 78.9641 29.4569C78.9641 28.9978 79.3494 28.715 79.9439 28.715C80.5382 28.715 80.9318 28.9978 80.9318 29.4569C80.9318 29.7724 80.7473 29.998 80.4153 30.1045C80.8087 30.207 81.0341 30.4613 81.0341 30.8179ZM80.8251 30.8179C80.8251 30.4367 80.4972 30.1947 79.9437 30.1947C79.3903 30.1947 79.0705 30.4365 79.0705 30.8179C79.0705 31.2032 79.3903 31.445 79.9437 31.445C80.4972 31.445 80.8251 31.2032 80.8251 30.8179ZM79.9437 30.0227C80.4315 30.0227 80.7226 29.8053 80.7226 29.4651C80.7226 29.1126 80.4194 28.8953 79.9437 28.8953C79.4681 28.8953 79.1731 29.1126 79.1731 29.4611C79.1731 29.8053 79.456 30.0227 79.9437 30.0227Z" fill="#263238"/>
<path d="M57.6208 27.7882C57.7027 28.1277 57.4046 28.4258 57.0651 28.3439C56.9056 28.3055 56.7747 28.1746 56.7363 28.0151C56.6544 27.6756 56.9525 27.3776 57.292 27.4594C57.4513 27.4979 57.5823 27.6287 57.6208 27.7882Z" fill="#E0E0E0"/>
<path d="M59.159 27.7882C59.2409 28.1277 58.9428 28.4258 58.6033 28.3439C58.4438 28.3055 58.313 28.1746 58.2745 28.0151C58.1926 27.6756 58.4907 27.3776 58.8302 27.4594C58.9897 27.4979 59.1205 27.6287 59.159 27.7882Z" fill="#E0E0E0"/>
<path d="M60.5699 27.7882C60.6518 28.1277 60.3537 28.4258 60.0142 28.3439C59.8547 28.3055 59.7238 28.1746 59.6854 28.0151C59.6035 27.6756 59.9016 27.3776 60.2411 27.4594C60.4004 27.4979 60.5314 27.6287 60.5699 27.7882Z" fill="#E0E0E0"/>
<path d="M55.5096 44.3633C55.5096 44.3633 55.512 44.3843 55.5146 44.4255C55.516 44.4667 55.5238 44.5284 55.5414 44.6075C55.5779 44.7619 55.668 45.0042 55.9094 45.1981C56.0283 45.2934 56.1838 45.3737 56.3672 45.3996C56.4583 45.4149 56.5556 45.411 56.6576 45.4108C56.7593 45.4105 56.8655 45.4101 56.9759 45.4099C57.4175 45.4088 57.9266 45.4075 58.4998 45.4062C60.7941 45.4031 64.112 45.3987 68.2117 45.3933C72.3123 45.391 77.1946 45.3878 82.6156 45.3847C82.9471 45.4055 83.2818 45.2504 83.4739 44.9604C83.5733 44.8202 83.6305 44.6493 83.6511 44.4754C83.6633 44.3017 83.6544 44.1125 83.657 43.9309C83.6568 43.1971 83.6566 42.4549 83.6565 41.7049C83.6561 40.2047 83.6559 38.6729 83.6555 37.1135C83.6553 33.9947 83.655 30.7657 83.6548 27.4583C83.66 27.0576 83.4182 26.6724 83.0706 26.5201C82.9839 26.4831 82.8936 26.4562 82.8007 26.445C82.7092 26.436 82.6113 26.4384 82.5144 26.438C82.3206 26.438 82.1272 26.438 81.934 26.438C81.1614 26.438 80.3941 26.4378 79.6322 26.4378C78.1085 26.4377 76.6072 26.4375 75.1319 26.4373C72.1815 26.4366 69.3357 26.4356 66.6247 26.4349C63.9136 26.4336 61.3376 26.4323 58.9267 26.4312C58.3239 26.4309 57.7316 26.4305 57.15 26.4301C57.0046 26.4299 56.8598 26.4299 56.7157 26.4298C56.5706 26.4316 56.4283 26.4206 56.2944 26.4561C56.0239 26.5203 55.788 26.7126 55.6575 26.9646C55.5924 27.0907 55.5538 27.2307 55.5429 27.3722C55.5348 27.5133 55.5405 27.6627 55.5385 27.8066C55.5383 28.0964 55.5381 28.3831 55.5379 28.6668C55.5376 29.2341 55.537 29.7889 55.5367 30.3309C55.5315 34.6656 55.5273 38.1734 55.5245 40.5989C55.5214 41.8101 55.519 42.7511 55.5173 43.3905C55.5157 43.7086 55.5144 43.9517 55.5135 44.1166C55.5122 44.2796 55.5096 44.3633 55.5096 44.3633C55.5096 44.3633 55.507 44.2796 55.5057 44.116C55.5048 43.9512 55.5035 43.7083 55.5019 43.39C55.5002 42.7506 55.4978 41.8096 55.4947 40.5983C55.4918 38.1726 55.4877 34.6649 55.4826 30.3304C55.4822 29.7885 55.4816 29.2335 55.4813 28.6663C55.4811 28.3825 55.4809 28.0959 55.4807 27.8061C55.4826 27.6602 55.4763 27.5179 55.4846 27.3667C55.4958 27.2165 55.5367 27.0679 55.6057 26.9341C55.7435 26.6664 55.9935 26.462 56.2809 26.3933C56.4257 26.3554 56.5737 26.367 56.7157 26.365C56.8598 26.3648 57.0044 26.3648 57.15 26.3646C57.7316 26.3642 58.3241 26.3639 58.9267 26.3635C61.3376 26.3624 63.9138 26.3611 66.6247 26.3598C69.3357 26.3591 72.1817 26.3584 75.1319 26.3574C76.607 26.3573 78.1085 26.3571 79.6322 26.3569C80.3939 26.3569 81.1614 26.3567 81.934 26.3567C82.1272 26.3567 82.3206 26.3567 82.5144 26.3567C82.6112 26.3571 82.7074 26.3541 82.8093 26.3641C82.9096 26.3762 83.0075 26.4049 83.101 26.4452C83.4763 26.6097 83.7372 27.0257 83.7317 27.4581C83.7315 30.7653 83.7312 33.9945 83.731 37.1133C83.7306 38.6727 83.7302 40.2045 83.7301 41.7047C83.7299 42.4549 83.7297 43.1969 83.7295 43.9307C83.7266 44.116 83.7359 44.2932 83.7229 44.4835C83.701 44.6704 83.639 44.8539 83.5323 45.0046C83.3284 45.3155 82.9606 45.4822 82.6159 45.4594C77.1949 45.4561 72.3127 45.4531 68.212 45.4508C64.1125 45.4452 60.7945 45.4408 58.5002 45.4379C57.927 45.4364 57.4179 45.4353 56.9763 45.4342C56.8659 45.4338 56.7599 45.4336 56.658 45.4333C56.5566 45.4327 56.4579 45.436 56.3647 45.4198C56.1777 45.3921 56.0202 45.3091 55.9002 45.2114C55.6566 45.0121 55.5681 44.7657 55.5339 44.6095C55.5171 44.5295 55.5109 44.4675 55.5107 44.4259C55.5092 44.3843 55.5096 44.3633 55.5096 44.3633Z" fill="#263238"/>
<path d="M60.7093 45.4623C60.6828 45.4623 60.6615 42.7347 60.6615 39.3708C60.6615 36.0058 60.6828 33.2788 60.7093 33.2788C60.7358 33.2788 60.7572 36.0058 60.7572 39.3708C60.7572 42.7347 60.7357 45.4623 60.7093 45.4623Z" fill="#263238"/>
<path d="M65.4695 42.0464C65.443 42.0464 65.4217 40.0833 65.4217 37.6624C65.4217 35.2406 65.4432 33.278 65.4695 33.278C65.4958 33.278 65.5174 35.2406 65.5174 37.6624C65.5174 40.0834 65.496 42.0464 65.4695 42.0464Z" fill="#263238"/>
<path d="M70.208 42.0464C70.1815 42.0464 70.1602 40.0833 70.1602 37.6624C70.1602 35.2406 70.1817 33.278 70.208 33.278C70.2343 33.278 70.2558 35.2406 70.2558 37.6624C70.2558 40.0834 70.2345 42.0464 70.208 42.0464Z" fill="#263238"/>
<path d="M74.6971 45.4557C74.6706 45.4557 74.6493 42.7296 74.6493 39.3675C74.6493 36.0042 74.6708 33.2788 74.6971 33.2788C74.7236 33.2788 74.745 36.0044 74.745 39.3675C74.7452 42.7296 74.7236 45.4557 74.6971 45.4557Z" fill="#263238"/>
<path d="M79.0068 45.4557C78.9803 45.4557 78.9589 42.7296 78.9589 39.3675C78.9589 36.0042 78.9805 33.2788 79.0068 33.2788C79.0331 33.2788 79.0546 36.0044 79.0546 39.3675C79.0546 42.7296 79.0333 45.4557 79.0068 45.4557Z" fill="#263238"/>
<path d="M55.5827 37.6999C55.5827 37.6734 61.8613 37.6521 69.6044 37.6521C77.3503 37.6521 83.6274 37.6736 83.6274 37.6999C83.6274 37.7264 77.3503 37.7478 69.6044 37.7478C61.8612 37.748 55.5827 37.7264 55.5827 37.6999Z" fill="#263238"/>
<path d="M55.5827 42.085C55.5827 42.0585 60.8269 42.0371 67.2945 42.0371C73.7643 42.0371 79.0074 42.0586 79.0074 42.085C79.0074 42.1114 73.7643 42.1328 67.2945 42.1328C60.8269 42.1328 55.5827 42.1113 55.5827 42.085Z" fill="#263238"/>
<path d="M23.6205 58.1028C23.4577 58.2811 24.7814 60.4277 25.3148 61.7814C25.848 63.1351 28.5022 69.4249 30.7584 69.466C33.0146 69.507 34.7376 68.4814 36.2144 66.3893C37.6912 64.2972 40.1526 53.2211 40.1526 53.2211L36.1323 49.2009L31.4968 62.287C31.4968 62.287 27.7524 57.6423 26.9991 57.1341C26.2458 56.6261 23.6205 58.1028 23.6205 58.1028Z" fill="#AE7461"/>
<path d="M61.1334 77.6939L60.1168 70.1342L38.996 70.7291C38.996 70.7291 37.1582 81.7054 37.2513 86.2677H49.4603L49.5621 84.7387L50.2132 84.88C50.2132 84.88 50.3645 85.4923 50.5371 86.2677L62.3795 86.2894L61.1334 77.6939Z" fill="#263238"/>
<path d="M39.3164 58.0262L33.1633 55.9292C33.1633 55.9292 36.5386 42.5851 41.2477 42.5851L39.3164 58.0262Z" fill="#D66D11"/>
<path d="M59.1704 62.0385L58.4401 42.0596C57.2875 41.5335 52.355 40.9004 52.355 40.9004L45.9373 41.8032L40.5913 42.7198L39.1576 56.3654L38.5539 75.239C45.423 77.7736 53.804 76.9198 61.175 75.0454L59.1704 62.0385Z" fill="#D66D11"/>
<g opacity="0.3">
<path d="M46.9782 50.6028C46.9782 50.6028 50.5635 58.2293 53.7426 61.0621C56.9218 63.895 59.5522 64.5129 59.5522 64.5129L59.1708 62.0386L46.9782 50.6028Z" fill="black"/>
</g>
<path d="M39.3317 47.8804C39.3582 47.8815 39.2955 49.967 39.1917 52.538C39.0879 55.1098 38.9823 57.1932 38.956 57.1921C38.9295 57.191 38.9923 55.1059 39.096 52.5342C39.1996 49.9631 39.3053 47.8793 39.3317 47.8804Z" fill="#263238"/>
<path d="M57.1838 41.7118C57.1838 41.7118 62.8685 42.2198 63.6249 48.1472C63.9747 50.8885 64.6218 55.2167 64.6218 55.2167L59.0379 55.7043L58.2677 55.1335C57.8388 53.8532 57.0956 51.214 57.2 51.1199C57.3415 50.9924 57.1838 41.7118 57.1838 41.7118Z" fill="#D66D11"/>
<path d="M44.9384 67.6861C44.9346 67.6808 45.0232 67.6116 45.1866 67.4909C45.3497 67.3698 45.5898 67.2003 45.8899 66.9957C46.4899 66.5863 47.3356 66.0448 48.2981 65.4945C49.2613 64.9449 50.1576 64.4913 50.815 64.1825C51.1436 64.028 51.4115 63.9073 51.5987 63.8284C51.7856 63.7489 51.8901 63.7076 51.8929 63.7137C51.8956 63.7198 51.7963 63.7722 51.6143 63.8622C51.4182 63.9594 51.1585 64.088 50.8446 64.2435C50.1958 64.5675 49.3066 65.0293 48.3455 65.5776C47.3852 66.1267 46.5357 66.6579 45.9272 67.052C45.6337 67.2436 45.3911 67.4018 45.2076 67.5214C45.038 67.6326 44.9423 67.6914 44.9384 67.6861Z" fill="#263238"/>
<path d="M48.1294 66.6095C48.1232 66.5992 48.2835 66.4866 48.5587 66.3311C48.8338 66.1757 49.2268 65.9821 49.6784 65.81C50.1301 65.6387 50.5527 65.5225 50.8617 65.456C51.1708 65.3892 51.3653 65.3672 51.3675 65.3789C51.3702 65.3931 51.1807 65.4387 50.8779 65.5217C50.575 65.6045 50.1599 65.7298 49.7124 65.8995C49.2653 66.0697 48.8717 66.2516 48.5904 66.3909C48.3088 66.53 48.1368 66.6219 48.1294 66.6095Z" fill="#263238"/>
<path d="M57.9596 54.9303C57.9331 54.9288 58.0066 53.1337 58.1234 50.9213C58.2402 48.7079 58.3563 46.9156 58.3828 46.9169C58.4093 46.9183 58.3359 48.7131 58.2191 50.9262C58.1022 53.1388 57.9859 54.9315 57.9596 54.9303Z" fill="#263238"/>
<path d="M39.9964 30.0088C39.3152 30.2866 38.4567 30.0275 38.0428 29.4192C37.9185 29.2361 37.8303 29.0185 37.8474 28.7977C37.8644 28.5769 38.0049 28.3575 38.2171 28.2939C37.8811 28.1693 37.5869 27.9167 37.4469 27.5869C37.3068 27.257 37.3359 26.8522 37.5512 26.5657C37.7663 26.2793 38.1709 26.1387 38.5073 26.2618C38.4057 25.8883 38.542 25.461 38.8412 25.2154L40.4595 25.1823L39.9964 30.0088Z" fill="#263238"/>
<path d="M45.4796 42.0201L45.1979 40.9244C45.1979 40.9244 41.8672 41.2077 41.0452 38.0091C40.6483 36.4642 40.0899 33.2164 39.6187 30.2712C39.1119 27.1045 41.1221 24.0803 44.2378 23.3207L44.5473 23.2453C47.9329 22.6265 50.3497 25.156 50.8747 28.5576L52.6098 41.0197L47.5023 44.8601L45.4796 42.0201Z" fill="#AE7461"/>
<path d="M45.1949 40.9246C45.1949 40.9246 47.2588 40.6015 49.1619 39.0156C49.1619 39.0156 48.6767 41.2497 45.4048 41.7413L45.1949 40.9246Z" fill="#6F4439"/>
<path d="M41.2859 33.4017C41.3363 33.6457 41.5845 33.8043 41.8403 33.7563C42.0957 33.7083 42.2624 33.472 42.212 33.228C42.1614 32.984 41.9134 32.8253 41.658 32.8731C41.402 32.9211 41.2355 33.1577 41.2859 33.4017Z" fill="#263238"/>
<path d="M40.6896 31.6731C40.761 31.719 41.0452 31.3774 41.5387 31.2586C42.0298 31.1327 42.4536 31.2981 42.4922 31.2249C42.5121 31.1918 42.4278 31.0979 42.2423 31.0218C42.0594 30.9452 41.7678 30.8987 41.4609 30.9749C41.1543 31.0514 40.9234 31.2275 40.8033 31.3795C40.68 31.5326 40.6552 31.6531 40.6896 31.6731Z" fill="#263238"/>
<path d="M45.4865 32.4594C45.537 32.7034 45.7852 32.862 46.0409 32.8139C46.2963 32.7661 46.463 32.5298 46.4126 32.2857C46.3622 32.0417 46.1138 31.8829 45.8584 31.9309C45.6025 31.9786 45.4359 32.2154 45.4865 32.4594Z" fill="#263238"/>
<path d="M45.5583 30.5832C45.6297 30.629 45.9147 30.2875 46.4078 30.1686C46.8987 30.0428 47.3225 30.2082 47.3613 30.1348C47.381 30.1017 47.2975 30.0078 47.1112 29.9317C46.9284 29.8551 46.6367 29.8086 46.33 29.8847C46.0233 29.9613 45.7925 30.1374 45.6722 30.2892C45.5493 30.4426 45.5241 30.5631 45.5583 30.5832Z" fill="#263238"/>
<path d="M44.6622 34.6758C44.6576 34.6471 44.3381 34.6688 43.8261 34.7264C43.6971 34.7443 43.5718 34.7481 43.5296 34.6674C43.4778 34.5836 43.4974 34.4351 43.5226 34.2738C43.5668 33.9404 43.6128 33.5908 43.6612 33.2244C43.8456 31.7335 43.9462 30.5198 43.886 30.5128C43.8259 30.506 43.6277 31.7088 43.4435 33.1999C43.4012 33.5668 43.3604 33.9168 43.3219 34.2513C43.3092 34.4059 43.2669 34.5882 43.3771 34.7614C43.434 34.8471 43.5431 34.8929 43.629 34.895C43.7157 34.8999 43.7869 34.8841 43.85 34.8725C44.3565 34.7776 44.6669 34.7042 44.6622 34.6758Z" fill="#263238"/>
<path d="M45.1229 29.8391C45.2287 29.9409 45.6547 29.6586 46.2205 29.4604C46.7826 29.2507 47.2903 29.1953 47.3067 29.0494C47.3122 28.9806 47.1799 28.9011 46.9466 28.8669C46.7151 28.8321 46.3835 28.8538 46.0453 28.9758C45.7073 29.0985 45.4387 29.2937 45.283 29.4687C45.1257 29.6439 45.0747 29.7898 45.1229 29.8391Z" fill="#263238"/>
<path d="M40.5228 30.2014C40.6369 30.2923 40.948 30.0932 41.3552 29.9882C41.7586 29.8689 42.1278 29.8796 42.1788 29.7429C42.1998 29.6776 42.1181 29.5786 41.9411 29.5094C41.7665 29.44 41.4964 29.4145 41.2178 29.4914C40.9394 29.5686 40.7208 29.7295 40.6067 29.8789C40.4904 30.0292 40.4711 30.1562 40.5228 30.2014Z" fill="#263238"/>
<path d="M39.5656 28.7252C39.5656 28.7252 39.922 26.5097 40.7765 25.8046C41.8109 24.951 42.6299 26.1153 43.6715 25.5304C44.7132 24.9453 45.7 24.1278 47.0531 24.7133C48.5339 25.3541 48.11 26.1606 48.5343 27.5653C50.2545 33.2606 51.7065 34.6358 51.3434 31.8442C51.3037 31.5384 52.0724 31.0999 51.8883 29.8117C51.6492 28.1412 51.229 26.1448 50.5824 25.0756C50.0376 24.1743 49.3167 23.6358 48.1376 23.1355C46.2761 22.3459 44.1062 22.8482 42.6728 23.3544C41.2393 23.8604 38.8182 26.2421 39.5656 28.7252Z" fill="#263238"/>
<path d="M51.1184 31.8063C51.018 31.3062 51.3493 30.8113 51.8542 30.7379C52.4664 30.6488 53.2151 30.8264 53.4771 32.0724C53.9419 34.283 51.6266 34.2937 51.6095 34.2311C51.5977 34.1884 51.3048 32.7331 51.1184 31.8063Z" fill="#AE7461"/>
<path d="M51.9172 33.2984C51.9255 33.2892 51.9615 33.3173 52.0327 33.3333C52.1023 33.349 52.2156 33.3462 52.3218 33.2787C52.5373 33.144 52.6559 32.7318 52.5829 32.3311C52.5463 32.1287 52.4637 31.946 52.3591 31.8025C52.2578 31.6549 52.1293 31.564 52.0073 31.5679C51.8846 31.5655 51.8162 31.6532 51.8024 31.7211C51.7856 31.7892 51.809 31.8302 51.7981 31.8365C51.7932 31.8433 51.7429 31.8093 51.7415 31.7143C51.7415 31.6685 51.7564 31.6109 51.7994 31.5576C51.8434 31.5031 51.9168 31.4648 52.0005 31.4564C52.1735 31.4323 52.3599 31.557 52.4749 31.7145C52.5994 31.8709 52.6968 32.0753 52.738 32.3026C52.8175 32.751 52.6771 33.216 52.3768 33.3753C52.2298 33.4487 52.0903 33.429 52.0123 33.3909C51.9324 33.3508 51.9104 33.3039 51.9172 33.2984Z" fill="#6F4439"/>
<path d="M42.4694 27.5874C42.4641 27.5887 42.4597 27.5916 42.4544 27.5931C42.4415 27.5972 42.4282 27.6005 42.4155 27.6051L42.4694 27.5874Z" fill="#D66D11"/>
<path d="M37.5231 24.7392C37.5846 24.1355 38.0203 23.6133 38.5567 23.3295C39.093 23.0458 39.7177 22.972 40.3243 22.9873C40.0949 22.1989 40.8421 21.3979 41.6504 21.2526C42.4587 21.1072 43.2717 21.4183 44.0342 21.7234C44.8798 20.9142 46.4302 21.0432 47.1305 21.981C47.6433 21.5348 48.3992 21.3878 49.0417 21.6091C49.6844 21.8305 50.1891 22.4121 50.3181 23.0795C50.8618 23.0679 51.4008 23.3763 51.6661 23.851C51.9316 24.3257 51.9123 24.9462 51.6177 25.4034C52.0376 25.5587 52.3318 26.0029 52.3112 26.45C52.2906 26.8971 51.9566 27.3122 51.5242 27.4281L49.6228 26.3519C48.7814 26.6949 47.6989 26.1587 47.4621 25.2814C46.8486 25.6846 45.9897 25.672 45.3882 25.2514C45.3299 25.6945 45.0392 26.1002 44.6384 26.2978C44.2375 26.4954 43.7387 26.4791 43.3517 26.2555C43.4231 26.8607 43.1154 27.4944 42.5956 27.8127C42.0758 28.131 41.3717 28.1169 40.8651 27.7781C40.4103 28.357 39.4905 28.499 38.882 28.0845C38.2737 27.6699 38.0696 26.7617 38.442 26.1267C37.8497 25.9953 37.4619 25.3431 37.5231 24.7392Z" fill="#263238"/>
<path d="M47.6532 25.6273C47.6458 25.631 47.6646 25.697 47.7339 25.8008C47.8033 25.9029 47.929 26.0433 48.1332 26.151C48.3334 26.2579 48.6239 26.3289 48.9331 26.2498C49.2369 26.1751 49.5519 25.96 49.7206 25.6183L49.592 25.6415C49.7349 25.778 49.9142 25.8864 50.112 25.9517C50.5342 26.0899 50.99 26.0281 51.3157 25.8198C51.6473 25.6129 51.8232 25.2897 51.8977 25.0181C51.9731 24.741 51.9497 24.5045 51.9128 24.3527C51.8727 24.1998 51.8244 24.126 51.8165 24.1295C51.783 24.1329 51.9496 24.4705 51.7865 24.9846C51.7041 25.2315 51.5323 25.5165 51.2366 25.6908C50.9468 25.8678 50.539 25.9188 50.1635 25.7957C49.9878 25.7375 49.8303 25.6428 49.7038 25.5252L49.6227 25.4496L49.5752 25.5485C49.4348 25.842 49.1625 26.0393 48.897 26.1132C48.6286 26.1914 48.3697 26.142 48.1794 26.0564C47.7908 25.8753 47.6751 25.6076 47.6532 25.6273Z" fill="#455A64"/>
<path d="M46.4205 35.6034C46.4218 35.6319 46.1493 35.6333 45.8831 35.8104C45.6128 35.9815 45.5005 36.2295 45.475 36.2168C45.4641 36.2126 45.4761 36.1434 45.5305 36.0451C45.5841 35.9472 45.6864 35.8243 45.831 35.7301C45.976 35.6365 46.1298 35.593 46.2411 35.5842C46.3532 35.5745 46.4213 35.5916 46.4205 35.6034Z" fill="#263238"/>
<path d="M44.5154 49.2573L44.0946 49.808C43.7965 49.9775 43.5382 49.8474 43.3961 49.4719L39.9297 43.0356L40.9581 42.5012L44.8643 48.7245C44.8643 48.7245 44.8992 49.0391 44.5154 49.2573Z" fill="#455A64"/>
<path d="M35.7901 42.5701C35.0458 42.0599 34.4489 41.3211 34.1192 40.4098C33.7131 39.2874 33.7683 38.0741 34.2747 36.9933C34.7812 35.9125 35.6782 35.0935 36.8006 34.6874C39.1176 33.8489 41.6847 35.0519 42.5232 37.369C42.9293 38.4914 42.8741 39.7049 42.3676 40.7855C41.861 41.8663 40.964 42.6851 39.8416 43.0914C38.4359 43.6 36.9379 43.3571 35.7901 42.5701ZM40.6829 35.4552C39.6118 34.7207 38.2143 34.4942 36.9026 34.9687C35.8554 35.3476 35.0184 36.1117 34.5459 37.1202C34.0732 38.1287 34.0217 39.2609 34.4007 40.308C34.7796 41.3554 35.5437 42.1924 36.5522 42.6649C37.5606 43.1374 38.6927 43.1891 39.74 42.8101C40.7872 42.4312 41.6242 41.6671 42.0967 40.6586C42.5694 39.65 42.6209 38.5181 42.2419 37.4708C41.9342 36.6207 41.3771 35.9312 40.6829 35.4552Z" fill="#263238"/>
<path d="M35.9932 42.3975C35.2491 41.8873 34.652 41.1485 34.3223 40.2372C33.9162 39.115 33.9714 37.9015 34.478 36.8207C34.9845 35.7398 35.8815 34.9209 37.0039 34.5148C39.3209 33.6763 41.888 34.8793 42.7265 37.1964C43.1326 38.3188 43.0774 39.5321 42.5709 40.6129C42.0645 41.6937 41.1673 42.5125 40.0449 42.9188C38.6391 43.4274 37.141 43.1847 35.9932 42.3975ZM40.886 35.2826C39.8149 34.5481 38.4174 34.3216 37.1057 34.7963C36.0585 35.1752 35.2215 35.9393 34.7488 36.9478C34.2761 37.9563 34.2246 39.0883 34.6037 40.1356C34.9825 41.1829 35.7467 42.02 36.7552 42.4925C37.7635 42.965 38.8956 43.0167 39.943 42.6376C40.9901 42.2588 41.8271 41.4946 42.2996 40.4863C42.7723 39.4778 42.8239 38.3458 42.4448 37.2985C42.1373 36.4481 41.5802 35.7586 40.886 35.2826Z" fill="#455A64"/>
<path d="M37.2642 42.3219C37.2685 42.3112 37.465 42.4045 37.8037 42.4814C37.8464 42.4904 37.8908 42.4996 37.937 42.5094C37.9833 42.5187 38.0326 42.5232 38.0829 42.5307C38.1835 42.5478 38.2924 42.5519 38.4067 42.5598C38.6356 42.566 38.888 42.5535 39.1488 42.5088C39.4091 42.4608 39.6504 42.3857 39.8632 42.3007C39.9678 42.254 40.0688 42.2126 40.1573 42.1618C40.202 42.1373 40.2467 42.1163 40.287 42.0915C40.3269 42.0665 40.3654 42.0424 40.4024 42.0194C40.6938 41.8304 40.8462 41.6751 40.8537 41.6836C40.8559 41.6859 40.8178 41.724 40.7464 41.7912C40.7113 41.8254 40.6671 41.8657 40.6112 41.9073C40.556 41.9496 40.4957 42.0015 40.4208 42.0475C40.384 42.0718 40.3455 42.097 40.3058 42.1231C40.2655 42.1491 40.2208 42.1712 40.1759 42.1967C40.087 42.2495 39.9854 42.293 39.88 42.3414C39.6653 42.4297 39.4209 42.5071 39.1571 42.5557C38.8926 42.601 38.6365 42.6124 38.4047 42.6036C38.2889 42.5945 38.1787 42.5888 38.077 42.5699C38.026 42.5614 37.9765 42.5561 37.9298 42.5456C37.8834 42.5347 37.8387 42.5243 37.7956 42.5143C37.7095 42.497 37.635 42.4689 37.5686 42.4483C37.5018 42.4286 37.4462 42.4059 37.4015 42.3859C37.3119 42.3476 37.263 42.325 37.2642 42.3219Z" fill="white"/>
<path d="M50.8294 49.7361C49.7618 48.7138 44.7083 43.6429 44.5848 43.5715C44.4297 43.4817 42.0301 42.3853 41.531 42.6265C41.0319 42.8677 39.6203 44.353 39.6203 44.353C39.6203 44.353 39.6542 45.3565 40.8259 44.7429C41.7197 44.2748 41.8583 44.2021 41.8741 44.194C41.8732 44.1946 41.8723 44.1949 41.8723 44.1949L43.0276 44.5736C43.0276 44.5736 41.5367 45.0485 41.2047 45.3377C40.8728 45.627 40.2858 46.7945 40.5616 47.0992C40.8375 47.4039 41.1837 47.4582 41.1837 47.4582C41.1837 47.4582 40.5162 48.2495 41.5249 48.8509C41.5249 48.8509 41.6167 49.5732 42.112 49.8965C42.6074 50.2198 43.584 50.2062 43.584 50.2062C43.584 50.2062 44.0562 49.9799 43.7612 49.5107C43.4663 49.0413 42.8563 48.9267 42.8563 48.9267L43.6576 48.5485C43.6576 48.5485 44.0437 48.7048 44.5916 49.21C44.5916 49.21 46.1981 50.9385 46.9374 50.4956L47.9829 51.7391C48.7793 51.2541 50.8294 49.7361 50.8294 49.7361Z" fill="#AE7461"/>
<path d="M43.4803 47.1133C43.4801 47.1098 43.4399 47.1071 43.3666 47.11C43.2934 47.113 43.1876 47.1245 43.0593 47.1536C42.8041 47.2097 42.456 47.3527 42.1568 47.6259C41.8576 47.8992 41.6836 48.233 41.6046 48.4821C41.5642 48.6072 41.543 48.7115 41.5334 48.7842C41.5237 48.8569 41.5229 48.8974 41.5263 48.8978C41.5369 48.8996 41.5533 48.7377 41.6424 48.4952C41.7296 48.2539 41.9044 47.933 42.1949 47.6675C42.4854 47.4024 42.8209 47.2572 43.0691 47.1923C43.3186 47.1256 43.4813 47.124 43.4803 47.1133Z" fill="#6F4439"/>
<path d="M43.6407 45.8345C43.6406 45.8306 43.5973 45.8301 43.5191 45.8325C43.4799 45.833 43.4319 45.8354 43.3767 45.8432C43.3215 45.8503 43.2578 45.8553 43.1894 45.8708C43.0508 45.8947 42.8889 45.9394 42.7145 46.0038C42.5413 46.0713 42.3562 46.1602 42.1744 46.275C41.9939 46.3918 41.8355 46.5227 41.7016 46.6517C41.57 46.7832 41.4614 46.9115 41.3818 47.027C41.3389 47.0828 41.3078 47.1383 41.2782 47.1856C41.248 47.2325 41.2257 47.275 41.2088 47.3104C41.1737 47.3805 41.1562 47.4199 41.1597 47.4217C41.1696 47.427 41.2467 47.2717 41.4142 47.0508C41.497 46.9396 41.6068 46.8163 41.738 46.6892C41.8716 46.5644 42.028 46.4375 42.205 46.3227C42.3835 46.2101 42.5884 46.0836 42.7575 46.0146C42.9279 45.949 43.0619 45.9385 43.1975 45.91C43.4681 45.8507 43.6415 45.8457 43.6407 45.8345Z" fill="#6F4439"/>
<path d="M43.9859 44.3798C43.9879 44.3738 43.9305 44.3456 43.8288 44.3298C43.7277 44.3136 43.582 44.3169 43.4319 44.3655C43.2286 44.4321 43.1524 44.5077 43.0898 44.5703C43.017 44.6428 42.987 44.6994 42.9923 44.7031C43.0044 44.716 43.1603 44.5101 43.4494 44.4194C43.7366 44.3226 43.9837 44.3973 43.9859 44.3798Z" fill="#6F4439"/>
<g opacity="0.1">
<path d="M41.6246 37.0061C41.5326 36.8311 41.4057 36.6482 41.2121 36.6081C41.0102 36.5663 40.8055 36.7036 40.7024 36.8824C40.5996 37.0611 40.5756 37.2729 40.5532 37.4778C40.4962 38 40.434 38.5288 40.2417 39.0175C40.0494 39.5064 39.7096 39.9587 39.231 40.1755C38.8436 40.351 38.4048 40.3587 37.9801 40.3779C37.5555 40.397 37.112 40.4366 36.7519 40.6625C36.7483 40.6647 36.7448 40.6671 36.7411 40.6693C36.2334 40.9926 36.3054 41.7599 36.855 42.005C38.1214 42.5695 39.7215 42.3778 40.7782 41.4659C42.0143 40.3988 42.384 38.4519 41.6246 37.0061Z" fill="black"/>
</g>
<path d="M64.2431 55.1395L59.0155 55.5784C57.8107 54.7824 49.4078 48.2657 49.163 48.0955L46.9762 50.6021C51.5613 56.1604 54.7734 60.2203 58.6343 63.0718C60.5423 64.481 63.6495 63.7202 64.4538 61.1482C64.8472 59.8906 64.2431 55.1395 64.2431 55.1395Z" fill="#AE7461"/>
<g opacity="0.3">
<path d="M37.8334 86.3573C37.8334 86.3573 39.7124 86.6195 39.8461 86.6604C39.8909 86.674 44.9396 86.674 44.9396 86.674L44.807 84.3348L39.0664 84.4621L37.8334 86.3573Z" fill="black"/>
</g>
<g opacity="0.3">
<path d="M37.9653 84.2004C37.9653 84.2004 39.8721 84.5946 39.9781 84.5035C40.0841 84.4124 44.8061 84.3348 44.8061 84.3348L44.6734 82.4572L38.9258 82.2679L37.9653 84.2004Z" fill="black"/>
</g>
<g opacity="0.3">
<path d="M37.9653 82.151C37.9653 82.151 39.7152 82.381 39.821 82.29C39.9268 82.1989 44.6732 82.4574 44.6732 82.4574L44.4166 78.2997L38.8921 79.794L37.9653 82.151Z" fill="black"/>
</g>
<path d="M20.1363 49.2015C20.1363 49.2015 32.7657 68.759 31.8799 82.0637L39.4138 86.6736H44.9388C44.6372 83.2174 44.6786 77.5636 42.9926 69.6325C38.6544 49.2245 30.9461 49.1674 30.9461 49.1674L20.1363 49.2015Z" fill="#E0E0E0"/>
<path d="M44.4108 80.3088L31.7943 82.4658C31.8998 82.8691 31.6985 83.3742 31.4206 83.6513C31.1428 83.9284 30.7533 84.0583 30.3737 84.1581C29.6299 84.3535 28.8647 84.4674 28.0963 84.4974C27.6919 84.5132 27.2812 84.5064 26.8904 84.612C26.4997 84.7176 26.1214 84.9579 25.9634 85.3305C25.8051 85.7031 25.9411 86.6606 26.9023 86.6606H39.7142C38.753 86.6606 38.617 85.7031 38.7753 85.3305C38.9335 84.9579 39.3116 84.7178 39.7025 84.612C40.0933 84.5062 40.504 84.513 40.9082 84.4974C41.6766 84.4674 42.4419 84.3535 43.1856 84.1581C43.5652 84.0583 43.9547 83.9284 44.2325 83.6513C44.5104 83.374 44.4701 80.7745 44.4108 80.3088Z" fill="#E0E0E0"/>
<path d="M44.4008 78.4426L31.9962 80.2828C32.1017 80.6861 31.9004 81.1912 31.6225 81.4683C31.3447 81.7454 30.9552 81.8753 30.5756 81.975C29.8318 82.1704 29.0666 82.2843 28.2982 82.3143C27.8938 82.3301 27.4831 82.3233 27.0923 82.4291C26.7016 82.5347 26.3233 82.775 26.1653 83.1474C26.007 83.52 26.143 84.4776 27.1042 84.4776H39.9161C38.9549 84.4776 38.819 83.52 38.9772 83.1474C39.1354 82.7748 39.5136 82.5347 39.9044 82.4291C40.295 82.3235 40.7059 82.3301 41.1103 82.3143C41.8787 82.2843 42.6439 82.1704 43.3877 81.975C43.7673 81.8753 44.1568 81.7454 44.4346 81.4683C44.7123 81.1912 44.46 78.9083 44.4008 78.4426Z" fill="#E0E0E0"/>
<path d="M44.3488 77.9911L31.7943 78.4055C31.8998 78.7857 31.6985 79.2615 31.4206 79.5226C31.1428 79.7837 30.7533 79.9062 30.3737 80.0001C29.6299 80.1841 28.8647 80.2915 28.0963 80.3197C27.6919 80.3346 27.2812 80.3281 26.8904 80.4277C26.4997 80.5272 26.1214 80.7535 25.9634 81.1046C25.8051 81.4557 25.9411 82.358 26.9023 82.358L39.675 82.2151C38.7138 82.2151 38.6172 81.4559 38.7753 81.1048C38.9335 80.7537 39.3116 80.5274 39.7025 80.4279C40.0933 80.3283 40.504 80.3346 40.9082 80.3199C41.6766 80.2917 42.4419 80.1842 43.1856 80.0002C43.5652 79.9064 43.9547 79.7839 44.2325 79.5228C44.5102 79.2615 44.4081 78.43 44.3488 77.9911Z" fill="#E0E0E0"/>
<path d="M24.7886 58.7742C24.7886 58.7742 23.3114 55.5767 23.0242 54.6929C22.737 53.8092 23.4755 53.3168 24.1731 52.7834C24.8706 52.2499 27.4148 52.0448 27.5377 52.4961C27.6608 52.9475 27.6198 53.604 27.2505 53.645C26.8812 53.6861 25.4861 53.6069 24.6655 54.6929C24.6655 54.6929 28.0713 53.9354 28.892 54.6929C29.7126 55.4504 28.1944 55.7377 28.1944 55.7377C28.1944 55.7377 28.6458 56.4762 28.2354 56.6814C27.8251 56.8866 25.5684 57.3379 25.5684 57.3379L25.5273 57.6662C25.5273 57.6662 26.6352 57.5841 27.3738 57.7893C28.1123 57.9944 28.4406 58.774 28.4406 58.774C28.2765 59.3895 27.9892 59.3895 27.5789 59.1023C27.1686 58.8151 26.8814 58.774 26.8814 58.774C26.8814 58.774 26.2249 59.5947 25.7735 59.6357C25.322 59.6769 24.7886 58.7742 24.7886 58.7742Z" fill="#AE7461"/>
<g opacity="0.3">
<path d="M30.329 49.1661C30.329 49.1661 27.723 52.0389 28.176 56.5256C28.629 61.0122 28.6211 65.9942 28.6211 65.9942L27.1079 62.337L26.0479 51.8064L28.1883 49.4583L30.329 49.1661Z" fill="black"/>
</g>
<path d="M30.3303 49.1666L19.5836 49.1682C19.5836 49.1682 15.1461 49.2595 15.1461 58.0078C15.1461 69.3383 17.7478 73.2073 10.8383 79.6756L21.9896 81.0758C21.9896 81.0758 27.2656 80.5687 27.2601 71.1294C27.2575 66.8216 27.0606 59.1758 26.8249 55.4916C26.6532 52.8074 28.6335 49.3498 30.3303 49.1666Z" fill="white"/>
<path d="M30.3304 49.1668C30.3061 49.1716 30.2603 49.1808 30.1587 49.2012C30.0472 49.2315 29.8812 49.2829 29.6825 49.3925C29.284 49.6086 28.7701 50.0651 28.2773 50.7808C27.7888 51.4957 27.2999 52.4657 27.0164 53.6786C26.6848 54.8958 26.9461 56.3321 26.9818 57.9125C27.1205 61.0795 27.2357 64.8844 27.2889 69.1713C27.2949 70.2427 27.3247 71.3452 27.262 72.4757C27.1969 73.6042 27.0482 74.7615 26.7247 75.9042C26.4084 77.0439 25.9127 78.1797 25.1348 79.1472C24.7427 79.6252 24.2865 80.0637 23.7564 80.4081C23.2271 80.75 22.6395 81.0242 21.9943 81.1226L21.9902 81.1232L21.984 81.1224C18.7643 80.7185 15.3771 80.2937 11.8987 79.8572C11.5335 79.8114 11.1694 79.7656 10.8326 79.7233L10.7329 79.7108L10.806 79.6409C11.3637 79.1065 11.9112 78.5672 12.4104 77.9911C12.9098 77.4159 13.375 76.8176 13.782 76.187C14.5971 74.9262 15.1349 73.5207 15.3697 72.0884C15.6113 70.6554 15.6039 69.2185 15.5467 67.8227C15.4889 66.4251 15.3815 65.0587 15.3013 63.7245C15.2183 62.3905 15.1568 61.0883 15.1277 59.823C15.113 59.1902 15.1064 58.5666 15.1077 57.9528C15.1178 57.6457 15.1279 57.341 15.1379 57.0389C15.1485 56.7367 15.1506 56.4368 15.1907 56.1415C15.2218 55.8458 15.2525 55.5527 15.283 55.2621C15.2933 55.1162 15.3254 54.974 15.3513 54.8314C15.378 54.689 15.4045 54.5473 15.431 54.4064C15.4575 54.2654 15.4838 54.125 15.5099 53.9854C15.5395 53.8465 15.5846 53.7118 15.6209 53.5758C15.6591 53.4402 15.6972 53.3053 15.7353 53.1712C15.7729 53.0368 15.8078 52.9023 15.8637 52.7756C16.2229 51.7336 16.7775 50.7873 17.5372 50.1094C17.9073 49.7622 18.3391 49.4991 18.7899 49.3263C19.0151 49.2385 19.2473 49.1767 19.4823 49.1471C19.7209 49.1283 19.9484 49.1423 20.1769 49.1384C21.0871 49.1403 21.9455 49.1419 22.7477 49.1436C24.3493 49.1495 25.7282 49.1546 26.8554 49.1589C29.0735 49.1638 30.202 49.1666 30.3304 49.1668C30.2008 49.1671 29.0617 49.1701 26.8228 49.1762C25.6993 49.1808 24.3248 49.1863 22.7282 49.1927C21.931 49.1946 21.0783 49.1966 20.1739 49.1986C19.2676 49.0946 18.3126 49.4798 17.5818 50.1593C16.8345 50.8287 16.2869 51.7652 15.9324 52.8002C15.877 52.9259 15.8426 53.0597 15.8056 53.1933C15.7681 53.3267 15.7305 53.4606 15.6926 53.5953C15.6568 53.7305 15.6124 53.8643 15.583 54.0025C15.5572 54.1414 15.5313 54.2811 15.5051 54.4215C15.479 54.5618 15.4529 54.7028 15.4266 54.8443C15.4012 54.986 15.3693 55.1275 15.3594 55.2728C15.3294 55.5621 15.2992 55.8541 15.2687 56.1485C15.2291 56.4423 15.2275 56.7415 15.2174 57.0423C15.2078 57.3434 15.1982 57.647 15.1885 57.953C15.1881 58.5659 15.1953 59.1889 15.2107 59.8209C15.2413 61.0852 15.3042 62.3857 15.3883 63.7192C15.4696 65.0528 15.5782 66.4188 15.6371 67.819C15.6952 69.2171 15.704 70.6598 15.4613 72.104C15.2258 73.5473 14.6827 74.968 13.8616 76.2383C13.4519 76.8737 12.9838 77.4759 12.482 78.054C11.9804 78.6333 11.4308 79.1748 10.8711 79.711L10.8442 79.6285C11.181 79.6709 11.5453 79.7165 11.9103 79.7625C15.3887 80.1997 18.7757 80.6254 21.9954 81.0301L21.9851 81.0299C22.6013 80.9362 23.1879 80.6665 23.7055 80.331C24.2267 79.9927 24.6764 79.5612 25.0636 79.09C25.8318 78.1359 26.3243 77.0117 26.6393 75.8803C26.9615 74.7463 27.1107 73.5948 27.1768 72.4709C27.2405 71.3461 27.2121 70.2434 27.2075 69.1722C27.1601 64.8865 27.0521 61.0817 26.9214 57.9152C26.8859 57.1237 26.8519 56.372 26.8081 55.6631C26.7512 54.9517 26.8296 54.2765 26.9702 53.6682C27.26 52.4493 27.7553 51.4778 28.2503 50.7624C28.7495 50.0463 29.27 49.5907 29.6742 49.378C29.8757 49.2698 30.0439 49.2207 30.1565 49.1929C30.2124 49.1811 30.2549 49.1784 30.2846 49.1734C30.3081 49.1701 30.3203 49.1682 30.3304 49.1668Z" fill="#263238"/>
<g opacity="0.3">
<path d="M18.8087 78.6413H20.6136C20.6136 78.6413 20.712 81.0383 22.6429 80.8758C22.6429 80.8758 22.2339 81.1446 21.6828 81.0752C21.1313 81.0062 19.4108 81.4289 18.8087 78.6413Z" fill="black"/>
</g>
<path d="M5.66927 77.4326C5.66927 77.4326 5.38462 80.8677 9.66152 81.0732C13.9384 81.2788 21.6949 81.0732 21.6949 81.0732C21.6949 81.0732 19.0014 80.5875 19.0014 77.658L5.66927 77.4326Z" fill="#E0E0E0"/>
<path d="M5.66998 77.4326C5.66906 77.4315 5.69022 77.4309 5.73236 77.4305C5.77873 77.4305 5.8411 77.4307 5.92169 77.4307C6.09392 77.4322 6.34158 77.4344 6.66064 77.4372C7.31237 77.4451 8.25444 77.4567 9.4348 77.471C11.8134 77.506 15.1504 77.5549 19.0026 77.6116L19.0481 77.6123V77.658C19.0475 78.3897 19.2418 79.1649 19.718 79.785C20.1883 80.4058 20.9199 80.8428 21.7039 81.0261L22.0697 81.1116L21.6968 81.1212C21.6894 81.1214 21.6813 81.1216 21.6732 81.1218C19.1759 81.1819 16.7966 81.2112 14.6324 81.2082C13.5503 81.2057 12.522 81.1974 11.5598 81.1748C10.5977 81.144 9.70124 81.1394 8.88409 81.027C8.07173 80.8965 7.3626 80.5961 6.85439 80.1801C6.34011 79.7673 6.0481 79.2586 5.88728 78.8311C5.72463 78.3995 5.68212 78.0403 5.66667 77.8004C5.65949 77.6799 5.65857 77.5877 5.66207 77.5259C5.66373 77.4644 5.66943 77.4304 5.66998 77.4326C5.67108 77.4348 5.6709 77.4638 5.67182 77.5259C5.67164 77.5875 5.67568 77.6791 5.68599 77.7987C5.70752 78.0368 5.75591 78.3927 5.92206 78.8175C6.08656 79.2385 6.37912 79.7362 6.88806 80.1381C7.39112 80.5431 8.09068 80.8347 8.89476 80.9597C9.70087 81.0664 10.6012 81.0679 11.5615 81.0949C12.5231 81.1142 13.5509 81.1194 14.6324 81.1196C16.7957 81.1175 19.1745 81.0857 21.6706 81.0255C21.6787 81.0253 21.6868 81.0252 21.6942 81.025L21.687 81.1201C21.2758 81.0274 20.8925 80.8658 20.5436 80.6502C20.1964 80.4345 19.8829 80.1652 19.6429 79.8428C19.1517 79.2026 18.9537 78.4034 18.9557 77.6578L19.0011 77.704C15.1614 77.6305 11.8353 77.5669 9.46443 77.5216C8.28002 77.496 7.33463 77.4756 6.68069 77.4616C6.35777 77.4535 6.10698 77.4473 5.93255 77.4429C5.84975 77.4403 5.78553 77.4381 5.73788 77.4366C5.6939 77.435 5.6709 77.4337 5.66998 77.4326Z" fill="#263238"/>
<path d="M24.6133 64.4994C24.6133 64.5491 23.644 64.5894 22.4486 64.5894C21.2528 64.5894 20.2836 64.5491 20.2836 64.4994C20.2836 64.4497 21.2528 64.4094 22.4486 64.4094C23.6438 64.4094 24.6133 64.4497 24.6133 64.4994Z" fill="#263238"/>
<path d="M17.1266 64.5134C17.1266 64.4638 17.3971 64.4235 17.7307 64.4235C18.0643 64.4235 18.3347 64.4638 18.3347 64.5134C18.3347 64.5631 18.0643 64.6034 17.7307 64.6034C17.3971 64.6034 17.1266 64.5631 17.1266 64.5134Z" fill="#263238"/>
<path d="M24.8815 62.919C24.8815 62.9686 23.9122 63.0089 22.7167 63.0089C21.5209 63.0089 20.5518 62.9686 20.5518 62.919C20.5518 62.8693 21.5209 62.829 22.7167 62.829C23.9122 62.829 24.8815 62.8693 24.8815 62.919Z" fill="#263238"/>
<path d="M17.1266 63.0084C17.1266 62.9587 17.3971 62.9185 17.7307 62.9185C18.0643 62.9185 18.3347 62.9587 18.3347 63.0084C18.3347 63.0581 18.0643 63.0984 17.7307 63.0984C17.3971 63.0984 17.1266 63.0581 17.1266 63.0084Z" fill="#263238"/>
<path d="M24.8325 61.5816C24.8325 61.6312 23.8631 61.6715 22.6677 61.6715C21.4719 61.6715 20.5027 61.6312 20.5027 61.5816C20.5027 61.5319 21.4719 61.4916 22.6677 61.4916C23.8631 61.4916 24.8325 61.5319 24.8325 61.5816Z" fill="#263238"/>
<path d="M17.1266 61.5956C17.1266 61.5459 17.3971 61.5056 17.7307 61.5056C18.0643 61.5056 18.3347 61.5459 18.3347 61.5956C18.3347 61.6453 18.0643 61.6856 17.7307 61.6856C17.3971 61.6856 17.1266 61.6453 17.1266 61.5956Z" fill="#263238"/>
<path d="M24.6644 60.0114C24.6644 60.061 23.695 60.1013 22.4996 60.1013C21.3038 60.1013 20.3347 60.061 20.3347 60.0114C20.3347 59.9617 21.3038 59.9214 22.4996 59.9214C23.695 59.9214 24.6644 59.9617 24.6644 60.0114Z" fill="#263238"/>
<path d="M16.909 60.1012C16.909 60.0515 17.1795 60.0112 17.5131 60.0112C17.8467 60.0112 18.1171 60.0515 18.1171 60.1012C18.1171 60.1509 17.8467 60.1912 17.5131 60.1912C17.1795 60.1912 16.909 60.1509 16.909 60.1012Z" fill="#263238"/>
<path d="M24.6133 58.6741C24.6133 58.7238 23.644 58.7641 22.4486 58.7641C21.2528 58.7641 20.2836 58.7238 20.2836 58.6741C20.2836 58.6245 21.2528 58.5842 22.4486 58.5842C23.644 58.5842 24.6133 58.6245 24.6133 58.6741Z" fill="#263238"/>
<path d="M16.909 58.6884C16.909 58.6387 17.1795 58.5984 17.5131 58.5984C17.8467 58.5984 18.1171 58.6387 18.1171 58.6884C18.1171 58.738 17.8467 58.7783 17.5131 58.7783C17.1795 58.7782 16.909 58.7379 16.909 58.6884Z" fill="#263238"/>
<path d="M24.4601 57.1044C24.4601 57.1541 23.4908 57.1944 22.2954 57.1944C21.0996 57.1944 20.1304 57.1541 20.1304 57.1044C20.1304 57.0548 21.0996 57.0145 22.2954 57.0145C23.4908 57.0145 24.4601 57.0548 24.4601 57.1044Z" fill="#263238"/>
<path d="M16.7072 57.1938C16.7072 57.1441 16.9776 57.1038 17.3112 57.1038C17.6448 57.1038 17.9153 57.1441 17.9153 57.1938C17.9153 57.2435 17.6448 57.2838 17.3112 57.2838C16.9776 57.2836 16.7072 57.2433 16.7072 57.1938Z" fill="#263238"/>
<path d="M24.4115 55.7664C24.4115 55.8161 23.4422 55.8563 22.2467 55.8563C21.0509 55.8563 20.0818 55.8161 20.0818 55.7664C20.0818 55.7167 21.0509 55.6764 22.2467 55.6764C23.4422 55.6766 24.4115 55.7169 24.4115 55.7664Z" fill="#263238"/>
<path d="M24.6781 54.3969C24.6781 54.4466 23.7088 54.4869 22.5133 54.4869C21.3175 54.4869 20.3484 54.4466 20.3484 54.3969C20.3484 54.3472 21.3175 54.3069 22.5133 54.3069C23.7088 54.3069 24.6781 54.3472 24.6781 54.3969Z" fill="#263238"/>
<path d="M16.7072 55.7808C16.7072 55.7311 16.9776 55.6908 17.3112 55.6908C17.6448 55.6908 17.9153 55.7311 17.9153 55.7808C17.9153 55.8304 17.6448 55.8707 17.3112 55.8707C16.9776 55.8706 16.7072 55.8303 16.7072 55.7808Z" fill="#263238"/>
<path d="M16.909 54.3092C16.909 54.2595 17.1795 54.2192 17.5131 54.2192C17.8467 54.2192 18.1171 54.2595 18.1171 54.3092C18.1171 54.3588 17.8467 54.3991 17.5131 54.3991C17.1795 54.399 16.909 54.3587 16.909 54.3092Z" fill="#263238"/>
<path d="M24.9589 53.0568C24.9589 53.1065 23.9896 53.1468 22.7942 53.1468C21.5982 53.1468 20.629 53.1065 20.629 53.0568C20.629 53.0071 21.5982 52.9668 22.7942 52.9668C23.9896 52.9668 24.9589 53.0071 24.9589 53.0568Z" fill="#263238"/>
<path d="M17.1901 52.9684C17.1901 52.9187 17.4606 52.8784 17.7942 52.8784C18.1278 52.8784 18.3983 52.9187 18.3983 52.9684C18.3983 53.0181 18.1278 53.0584 17.7942 53.0584C17.4606 53.0582 17.1901 53.0179 17.1901 52.9684Z" fill="#263238"/>
<path d="M25.2385 51.7171C25.2385 51.7667 24.2691 51.807 23.0737 51.807C21.8779 51.807 20.9086 51.7667 20.9086 51.7171C20.9086 51.6674 21.8777 51.6271 23.0737 51.6271C24.2691 51.6271 25.2385 51.6674 25.2385 51.7171Z" fill="#263238"/>
<path d="M17.4681 51.629C17.4681 51.5793 17.7386 51.539 18.0722 51.539C18.4058 51.539 18.6763 51.5793 18.6763 51.629C18.6763 51.6787 18.4058 51.719 18.0722 51.719C17.7386 51.719 17.4681 51.6785 17.4681 51.629Z" fill="#263238"/>
<path d="M26.2502 50.5105C26.2502 50.5602 25.2809 50.6005 24.0855 50.6005C22.8897 50.6005 21.9205 50.5602 21.9205 50.5105C21.9205 50.4608 22.8897 50.4205 24.0855 50.4205C25.2807 50.4207 26.2502 50.461 26.2502 50.5105Z" fill="#263238"/>
<path d="M18.4797 50.4227C18.4797 50.3731 18.7502 50.3328 19.0838 50.3328C19.4174 50.3328 19.6879 50.3731 19.6879 50.4227C19.6879 50.4724 19.4176 50.5127 19.0838 50.5127C18.7502 50.5127 18.4797 50.4724 18.4797 50.4227Z" fill="#263238"/>
<path d="M24.6133 66.2246C24.6133 66.2743 23.644 66.3146 22.4486 66.3146C21.2528 66.3146 20.2836 66.2743 20.2836 66.2246C20.2836 66.1749 21.2528 66.1346 22.4486 66.1346C23.6438 66.1348 24.6133 66.1749 24.6133 66.2246Z" fill="#263238"/>
<path d="M17.1266 66.2387C17.1266 66.189 17.3971 66.1487 17.7307 66.1487C18.0643 66.1487 18.3347 66.189 18.3347 66.2387C18.3347 66.2883 18.0643 66.3286 17.7307 66.3286C17.3971 66.3286 17.1266 66.2883 17.1266 66.2387Z" fill="#263238"/>
<path d="M24.8325 67.9171C24.8325 67.9667 23.8631 68.007 22.6677 68.007C21.4719 68.007 20.5027 67.9667 20.5027 67.9171C20.5027 67.8674 21.4719 67.8271 22.6677 67.8271C23.8631 67.8273 24.8325 67.8674 24.8325 67.9171Z" fill="#263238"/>
<path d="M17.3453 67.9306C17.3453 67.8809 17.6158 67.8406 17.9493 67.8406C18.2829 67.8406 18.5534 67.8809 18.5534 67.9306C18.5534 67.9803 18.2829 68.0206 17.9493 68.0206C17.6158 68.0206 17.3453 67.9803 17.3453 67.9306Z" fill="#263238"/>
<path d="M24.903 69.3776C24.903 69.4273 23.9337 69.4675 22.7382 69.4675C21.5424 69.4675 20.5733 69.4273 20.5733 69.3776C20.5733 69.3279 21.5424 69.2876 22.7382 69.2876C23.9335 69.2876 24.903 69.3279 24.903 69.3776Z" fill="#263238"/>
<path d="M17.4163 69.3916C17.4163 69.3419 17.6867 69.3016 18.0203 69.3016C18.3539 69.3016 18.6244 69.3419 18.6244 69.3916C18.6244 69.4413 18.3539 69.4816 18.0203 69.4816C17.6867 69.4816 17.4163 69.4413 17.4163 69.3916Z" fill="#263238"/>
<path d="M24.9703 70.8397C24.9703 70.8894 24.001 70.9297 22.8055 70.9297C21.6097 70.9297 20.6406 70.8894 20.6406 70.8397C20.6406 70.79 21.6097 70.7498 22.8055 70.7498C24.001 70.7498 24.9703 70.79 24.9703 70.8397Z" fill="#263238"/>
<path d="M17.4845 70.8533C17.4845 70.8036 17.755 70.7633 18.0886 70.7633C18.4222 70.7633 18.6926 70.8036 18.6926 70.8533C18.6926 70.903 18.4223 70.9433 18.0886 70.9433C17.755 70.9431 17.4845 70.903 17.4845 70.8533Z" fill="#263238"/>
<path d="M25.0391 72.301C25.0391 72.3507 24.0697 72.3909 22.8743 72.3909C21.6785 72.3909 20.7094 72.3507 20.7094 72.301C20.7094 72.2513 21.6785 72.211 22.8743 72.211C24.0697 72.211 25.0391 72.2513 25.0391 72.301Z" fill="#263238"/>
<path d="M17.5521 72.3143C17.5521 72.2646 17.8226 72.2243 18.1562 72.2243C18.4898 72.2243 18.7603 72.2646 18.7603 72.3143C18.7603 72.364 18.4898 72.4043 18.1562 72.4043C17.8226 72.4041 17.5521 72.3638 17.5521 72.3143Z" fill="#263238"/>
<path d="M25.0643 73.7216C25.0643 73.7713 24.095 73.8116 22.8996 73.8116C21.7037 73.8116 20.7346 73.7713 20.7346 73.7216C20.7346 73.6719 21.7037 73.6317 22.8996 73.6317C24.0948 73.6317 25.0643 73.6719 25.0643 73.7216Z" fill="#263238"/>
<path d="M17.5773 73.735C17.5773 73.6853 17.8478 73.645 18.1814 73.645C18.515 73.645 18.7855 73.6853 18.7855 73.735C18.7855 73.7847 18.515 73.825 18.1814 73.825C17.8476 73.825 17.5773 73.7847 17.5773 73.735Z" fill="#263238"/>
<path d="M24.8325 75.1353C24.8325 75.1849 23.8631 75.2252 22.6677 75.2252C21.4719 75.2252 20.5027 75.1849 20.5027 75.1353C20.5027 75.0856 21.4719 75.0453 22.6677 75.0453C23.8631 75.0453 24.8325 75.0856 24.8325 75.1353Z" fill="#263238"/>
<path d="M17.3454 75.1497C17.3454 75.1001 17.6159 75.0598 17.9495 75.0598C18.2831 75.0598 18.5535 75.1001 18.5535 75.1497C18.5535 75.1994 18.2831 75.2397 17.9495 75.2397C17.6159 75.2395 17.3454 75.1994 17.3454 75.1497Z" fill="#263238"/>
<path d="M24.2769 76.6369C24.2769 76.6865 23.3076 76.7268 22.1121 76.7268C20.9163 76.7268 19.947 76.6865 19.947 76.6369C19.947 76.5872 20.9161 76.5469 22.1121 76.5469C23.3076 76.5471 24.2769 76.5874 24.2769 76.6369Z" fill="#263238"/>
<path d="M16.7913 76.6508C16.7913 76.6011 17.0618 76.5608 17.3954 76.5608C17.729 76.5608 17.9995 76.6011 17.9995 76.6508C17.9995 76.7004 17.729 76.7407 17.3954 76.7407C17.0618 76.7407 16.7913 76.7004 16.7913 76.6508Z" fill="#263238"/>
<path d="M23.8584 78.0039C23.8584 78.0536 22.8891 78.0939 21.6936 78.0939C20.4978 78.0939 19.5287 78.0536 19.5287 78.0039C19.5287 77.9542 20.4978 77.9139 21.6936 77.9139C22.8891 77.9139 23.8584 77.9542 23.8584 78.0039Z" fill="#263238"/>
<path d="M44.6736 82.4571C44.6734 82.4588 44.6581 82.4595 44.6285 82.4593C44.5932 82.4584 44.5497 82.4573 44.4967 82.456C44.3731 82.4507 44.2042 82.4433 43.9906 82.4341C43.5512 82.4117 42.9151 82.3841 42.1292 82.3548C40.5573 82.2952 38.3844 82.2533 35.9842 82.2647C33.5831 82.2759 31.4097 82.3188 29.8364 82.3405C29.0558 82.3495 28.4214 82.3569 27.973 82.362C27.7592 82.3624 27.5901 82.3626 27.4663 82.3627C27.4131 82.3618 27.3698 82.3611 27.3345 82.3605C27.3049 82.3594 27.2896 82.3581 27.2896 82.3565C27.2896 82.3548 27.3047 82.353 27.3343 82.3508C27.3697 82.3488 27.4129 82.3464 27.4659 82.3434C27.5895 82.3388 27.7586 82.3326 27.9723 82.3247C28.4205 82.3121 29.0547 82.2945 29.8349 82.2726C31.4079 82.2336 33.5815 82.1798 35.9838 82.1686C38.3852 82.1574 40.5599 82.21 42.132 82.2869C42.918 82.3248 43.5539 82.3629 43.9928 82.3968C44.206 82.4135 44.3747 82.427 44.498 82.4367C44.551 82.4419 44.5941 82.4461 44.6292 82.4494C44.6587 82.4529 44.6737 82.4555 44.6736 82.4571Z" fill="#263238"/>
<path d="M44.125 84.4271C44.1252 84.4536 40.583 84.4863 36.2147 84.5003C31.8447 84.5143 28.3034 84.5042 28.3032 84.4777C28.3032 84.4512 31.8445 84.4184 36.2143 84.4044C40.5826 84.3906 44.1248 84.4007 44.125 84.4271Z" fill="#263238"/>
<path d="M42.6169 78.6416C42.618 78.6385 42.6636 78.6503 42.7496 78.6756C42.8441 78.7047 42.9685 78.7432 43.124 78.791C43.2061 78.817 43.296 78.8455 43.3937 78.8766C43.4861 78.9112 43.618 78.9279 43.6916 79.0558C43.7248 79.1209 43.7018 79.2105 43.6449 79.2573C43.591 79.3062 43.5246 79.3331 43.4565 79.3533C43.3222 79.3846 43.1805 79.4175 43.032 79.4521C42.436 79.5798 41.7179 79.693 40.9154 79.7653C40.1132 79.8391 39.2282 79.8761 38.3003 79.8941C36.4487 79.9188 34.773 79.9412 33.5475 79.9576C32.9473 79.9609 32.4579 79.9635 32.1072 79.9653C31.9445 79.9642 31.8144 79.9633 31.7154 79.9625C31.6258 79.9609 31.5789 79.9583 31.5787 79.955C31.5787 79.9517 31.6257 79.9476 31.7151 79.9432C31.8139 79.9394 31.944 79.9344 32.1064 79.928C32.457 79.9186 32.9462 79.9057 33.5464 79.8897C34.7717 79.8661 36.447 79.8337 38.2982 79.7982C39.2254 79.7802 40.1081 79.746 40.9077 79.6773C41.7076 79.6102 42.4231 79.5046 43.0182 79.3857C43.1658 79.3539 43.3065 79.3233 43.4401 79.2944C43.503 79.2773 43.5634 79.2527 43.6061 79.215C43.6499 79.1787 43.6629 79.1235 43.6427 79.0777C43.595 78.9848 43.473 78.9539 43.3792 78.9198C43.2824 78.886 43.1932 78.8547 43.112 78.8263C42.959 78.7713 42.8364 78.7274 42.7433 78.6939C42.6594 78.6628 42.6158 78.6447 42.6169 78.6416Z" fill="#263238"/>
</svg>
