<svg width="29" height="28" viewBox="0 0 29 28" fill="none" xmlns="http://www.w3.org/2000/svg">
<path d="M16.125 7.25004V13.363L21.2044 16.4104C21.4602 16.564 21.6446 16.813 21.7168 17.1026C21.7891 17.3922 21.7433 17.6986 21.5897 17.9544C21.436 18.2103 21.187 18.3946 20.8975 18.4669C20.6079 18.5391 20.3015 18.4934 20.0456 18.3397L14.4206 14.9647C14.2541 14.8647 14.1164 14.7233 14.0208 14.5542C13.9252 14.3852 13.8749 14.1943 13.875 14V7.25004C13.875 6.95167 13.9935 6.66553 14.2045 6.45455C14.4155 6.24357 14.7016 6.12504 15 6.12504C15.2984 6.12504 15.5845 6.24357 15.7955 6.45455C16.0065 6.66553 16.125 6.95167 16.125 7.25004ZM15 0.500042C13.2253 0.495621 11.4674 0.843214 9.82789 1.5227C8.18842 2.2022 6.7 3.20009 5.44875 4.45864C4.42641 5.49364 3.51797 6.48926 2.625 7.53129V5.00004C2.625 4.70167 2.50647 4.41553 2.29549 4.20455C2.08452 3.99357 1.79837 3.87504 1.5 3.87504C1.20163 3.87504 0.915483 3.99357 0.704505 4.20455C0.493526 4.41553 0.375 4.70167 0.375 5.00004V10.625C0.375 10.9234 0.493526 11.2096 0.704505 11.4205C0.915483 11.6315 1.20163 11.75 1.5 11.75H7.125C7.42337 11.75 7.70952 11.6315 7.9205 11.4205C8.13147 11.2096 8.25 10.9234 8.25 10.625C8.25 10.3267 8.13147 10.0405 7.9205 9.82955C7.70952 9.61857 7.42337 9.50004 7.125 9.50004H3.89062C4.89609 8.31598 5.89734 7.20082 7.03922 6.04489C8.60276 4.48135 10.5924 3.41324 12.7595 2.97403C14.9266 2.53481 17.1751 2.74396 19.2241 3.57535C21.273 4.40674 23.0315 5.82349 24.2798 7.64858C25.5282 9.47368 26.211 11.6262 26.243 13.8371C26.275 16.0481 25.6547 18.2194 24.4597 20.0799C23.2646 21.9403 21.5479 23.4073 19.5238 24.2976C17.4998 25.188 15.2583 25.4621 13.0794 25.0857C10.9005 24.7094 8.88077 23.6993 7.27266 22.1816C7.16518 22.08 7.03875 22.0006 6.90058 21.9479C6.76241 21.8952 6.61522 21.8702 6.4674 21.8744C6.31958 21.8786 6.17403 21.9118 6.03906 21.9723C5.90409 22.0327 5.78235 22.1191 5.68078 22.2266C5.57921 22.3341 5.49981 22.4605 5.4471 22.5987C5.39439 22.7368 5.36941 22.884 5.37359 23.0319C5.37777 23.1797 5.41102 23.3252 5.47145 23.4602C5.53188 23.5952 5.6183 23.7169 5.72578 23.8185C7.32813 25.3306 9.27621 26.4275 11.4 27.0136C13.5238 27.5997 15.7588 27.6571 17.9098 27.1808C20.0609 26.7045 22.0627 25.7089 23.7405 24.281C25.4184 22.8532 26.7213 21.0364 27.5355 18.9892C28.3497 16.9419 28.6505 14.7266 28.4116 12.5364C28.1728 10.3462 27.4015 8.24776 26.1651 6.4242C24.9288 4.60063 23.2649 3.10737 21.3187 2.07474C19.3725 1.0421 17.2032 0.501476 15 0.500042Z" fill="black"/>
</svg>
