<svg width="52" height="52" viewBox="0 0 52 52" fill="none" xmlns="http://www.w3.org/2000/svg">
<g filter="url(#filter0_d_900_1618)">
<circle cx="26" cy="24" r="14" fill="white"/>
<circle cx="26" cy="24" r="14.75" stroke="black" stroke-width="1.5"/>
</g>
<path d="M26.625 20.25V23.6461L29.4469 25.3391C29.589 25.4245 29.6914 25.5628 29.7316 25.7237C29.7717 25.8845 29.7463 26.0548 29.6609 26.1969C29.5756 26.339 29.4372 26.4414 29.2764 26.4816C29.1155 26.5217 28.9453 26.4963 28.8031 26.411L25.6781 24.536C25.5856 24.4804 25.5091 24.4018 25.456 24.3079C25.4029 24.214 25.375 24.1079 25.375 24V20.25C25.375 20.0843 25.4408 19.9253 25.5581 19.8081C25.6753 19.6909 25.8342 19.625 26 19.625C26.1658 19.625 26.3247 19.6909 26.4419 19.8081C26.5592 19.9253 26.625 20.0843 26.625 20.25ZM26 16.5C25.0141 16.4976 24.0374 16.6907 23.1266 17.0682C22.2158 17.4457 21.3889 18 20.6938 18.6992C20.1258 19.2742 19.6211 19.8274 19.125 20.4063V19C19.125 18.8343 19.0592 18.6753 18.9419 18.5581C18.8247 18.4409 18.6658 18.375 18.5 18.375C18.3342 18.375 18.1753 18.4409 18.0581 18.5581C17.9408 18.6753 17.875 18.8343 17.875 19V22.125C17.875 22.2908 17.9408 22.4498 18.0581 22.567C18.1753 22.6842 18.3342 22.75 18.5 22.75H21.625C21.7908 22.75 21.9497 22.6842 22.0669 22.567C22.1842 22.4498 22.25 22.2908 22.25 22.125C22.25 21.9593 22.1842 21.8003 22.0669 21.6831C21.9497 21.5659 21.7908 21.5 21.625 21.5H19.8281C20.3867 20.8422 20.943 20.2227 21.5773 19.5805C22.446 18.7119 23.5513 18.1185 24.7553 17.8745C25.9592 17.6305 27.2084 17.7466 28.3467 18.2085C29.485 18.6704 30.4619 19.4575 31.1555 20.4714C31.849 21.4854 32.2283 22.6812 32.2461 23.9095C32.2639 25.1378 31.9193 26.3441 31.2554 27.3777C30.5915 28.4113 29.6377 29.2263 28.5132 29.7209C27.3888 30.2155 26.1435 30.3678 24.933 30.1587C23.7225 29.9496 22.6004 29.3885 21.707 28.5453C21.6473 28.4889 21.5771 28.4448 21.5003 28.4155C21.4236 28.3862 21.3418 28.3724 21.2597 28.3747C21.1775 28.377 21.0967 28.3955 21.0217 28.429C20.9467 28.4626 20.8791 28.5106 20.8227 28.5703C20.7662 28.63 20.7221 28.7003 20.6928 28.777C20.6636 28.8538 20.6497 28.9356 20.652 29.0177C20.6543 29.0998 20.6728 29.1807 20.7064 29.2557C20.7399 29.3306 20.7879 29.3983 20.8477 29.4547C21.7379 30.2948 22.8201 30.9042 24 31.2298C25.1799 31.5554 26.4215 31.5873 27.6166 31.3226C28.8116 31.058 29.9237 30.505 30.8559 29.7117C31.788 28.9184 32.5118 27.9091 32.9642 26.7718C33.4165 25.6344 33.5836 24.4037 33.4509 23.1869C33.3182 21.9701 32.8897 20.8043 32.2029 19.7912C31.516 18.7781 30.5916 17.9485 29.5104 17.3749C28.4292 16.8012 27.224 16.5008 26 16.5Z" fill="black"/>
<defs>
<filter id="filter0_d_900_1618" x="0.5" y="0.5" width="51" height="51" filterUnits="userSpaceOnUse" color-interpolation-filters="sRGB">
<feFlood flood-opacity="0" result="BackgroundImageFix"/>
<feColorMatrix in="SourceAlpha" type="matrix" values="0 0 0 0 0 0 0 0 0 0 0 0 0 0 0 0 0 0 127 0" result="hardAlpha"/>
<feOffset dy="2"/>
<feGaussianBlur stdDeviation="5"/>
<feComposite in2="hardAlpha" operator="out"/>
<feColorMatrix type="matrix" values="0 0 0 0 0 0 0 0 0 0 0 0 0 0 0 0 0 0 0.45 0"/>
<feBlend mode="normal" in2="BackgroundImageFix" result="effect1_dropShadow_900_1618"/>
<feBlend mode="normal" in="SourceGraphic" in2="effect1_dropShadow_900_1618" result="shape"/>
</filter>
</defs>
</svg>
