<svg width="19" height="19" viewBox="0 0 19 19" fill="none" xmlns="http://www.w3.org/2000/svg">
<circle cx="9.5" cy="9.5" r="9" fill="white" stroke="black"/>
<path d="M16.2865 6.02933L14.8752 4.6567C14.6988 4.48255 14.4599 4.38477 14.2109 4.38477C13.9619 4.38477 13.7231 4.48255 13.5467 4.6567L8.09581 9.99047L5.93816 7.91639C5.76143 7.74281 5.52248 7.64565 5.27362 7.6462C5.02475 7.64675 4.78624 7.74495 4.61029 7.91931L3.19891 9.31756C3.02276 9.49234 2.92383 9.72922 2.92383 9.9762C2.92383 10.2232 3.02276 10.4601 3.19891 10.6348L7.41071 14.8296C7.49808 14.9162 7.60182 14.9849 7.71599 15.0317C7.83016 15.0786 7.95253 15.1027 8.07611 15.1027C8.1997 15.1027 8.32207 15.0786 8.43624 15.0317C8.55041 14.9849 8.65415 14.9162 8.74152 14.8296L16.2895 7.3501C16.377 7.2633 16.4464 7.16023 16.4937 7.0468C16.5409 6.93337 16.5651 6.81182 16.5648 6.68911C16.5646 6.5664 16.5399 6.44495 16.4921 6.33173C16.4443 6.21851 16.3745 6.11574 16.2865 6.02933ZM8.07347 14.1718L3.86167 9.97707L5.27305 8.57882C5.27476 8.58022 5.27634 8.58178 5.27775 8.58348L7.76826 10.9774C7.85617 11.0626 7.97428 11.1104 8.09728 11.1104C8.22029 11.1104 8.3384 11.0626 8.42631 10.9774L14.2153 5.31622L15.6232 6.69117L8.07347 14.1718Z" fill="black"/>
</svg>
