<svg width="36" height="36" viewBox="0 0 36 36" fill="none" xmlns="http://www.w3.org/2000/svg">
<circle cx="18" cy="18" r="17.5" stroke="#1976D2"/>
<path d="M15.5 12.1053L13.5 8.04425L12.5 7.029C8.9 6.6229 8 10.5824 8 12.6129C8 13.4251 13.9166 21.2666 16 23.7806C18.5 26.7974 21.8333 28.3493 24 28.8569C25.6 29.6691 27.3333 26.8264 28 25.3035C28 24.9651 27.9 24.1867 27.5 23.7806C27 23.273 24 19.7196 22.5 21.2425C21.3 22.4608 20.3333 22.427 20 22.2578C18.6667 20.7349 15.8 17.4861 15 16.6739C14 15.6586 14 14.1358 14.5 14.1358C14.9 14.1358 15.3333 12.7821 15.5 12.1053Z" fill="#1976D2"/>
</svg>
