<svg width="28" height="28" viewBox="0 0 28 28" fill="none" xmlns="http://www.w3.org/2000/svg">
<path fill-rule="evenodd" clip-rule="evenodd" d="M13.021 0.0122621C10.5396 0.208855 8.29386 0.974664 6.27427 2.31297C4.85867 3.25102 3.77086 4.27859 2.75561 5.63679C1.24504 7.65765 0.347163 9.9521 0.0479997 12.556C-0.0161431 13.1144 -0.0159475 14.8926 0.0482734 15.4488C0.376379 18.2891 1.43869 20.8163 3.18982 22.9226C5.4938 25.6938 8.62827 27.4222 12.2309 27.908C13.0852 28.0231 14.8104 28.0318 15.6415 27.9251C17.9015 27.6349 19.917 26.8963 21.7233 25.6964C25.1878 23.395 27.4297 19.7564 27.9287 15.6248C28.0134 14.9229 28.0253 13.1988 27.9499 12.556C27.8204 11.4525 27.6096 10.4855 27.2939 9.54598C26.2173 6.34224 24.007 3.62048 21.0948 1.91252C19.4159 0.927871 17.6731 0.337115 15.7001 0.0839565C15.2321 0.0238724 13.4695 -0.0232723 13.021 0.0122621ZM12.5517 1.8045C10.6006 2.02096 8.89399 2.57411 7.38894 3.47791C5.41718 4.66196 3.87443 6.37966 2.90446 8.47095C1.55723 11.3757 1.35745 15.0817 2.3808 18.1853C2.62564 18.9278 2.83962 19.4444 3.13362 20.003C3.72854 21.1334 4.41323 22.0539 5.3016 22.9178C7.14266 24.708 9.42012 25.7756 12.2192 26.1605C12.8486 26.2471 14.4576 26.2805 15.1578 26.2215C18.1666 25.9679 20.7451 24.8312 22.7343 22.8814C24.7572 20.8985 25.9406 18.2963 26.221 15.2143C26.2714 14.6611 26.2713 13.3434 26.221 12.7906C25.9052 9.32346 24.4108 6.40241 21.9188 4.38093C20.2656 3.03988 18.1227 2.15359 15.7783 1.84137C15.1217 1.75388 13.2051 1.73199 12.5517 1.8045ZM8.86704 5.73448C8.20915 5.90684 7.80391 6.13854 7.25909 6.65388C6.48656 7.38459 6.19831 8.00189 6.19671 8.92891C6.19362 10.7481 7.63026 13.4312 10.599 17.1507C11.875 18.7494 13.0589 19.9158 14.4681 20.9628C15.781 21.9383 17.2119 22.661 18.2505 22.8733C19.1151 23.05 19.6574 22.859 20.3954 22.1179C20.9698 21.5409 21.5158 20.7064 21.7205 20.0922C21.8173 19.8018 21.8284 19.3462 21.7444 19.1084C21.6101 18.7279 21.5212 18.6514 20.4462 17.9927C19.8902 17.6519 19.2589 17.2636 19.0433 17.1296C18.3286 16.6855 17.9942 16.5659 17.6232 16.6215C17.2822 16.6726 17.1604 16.7506 16.8064 17.1443C16.4139 17.5808 16.3276 17.6466 16.1043 17.6801C15.8247 17.722 15.577 17.6107 15.2393 17.2912C14.4865 16.5789 11.0726 12.6606 10.8853 12.2937C10.7844 12.0961 10.7892 11.8013 10.8971 11.5685C10.9522 11.4497 11.1258 11.2425 11.3811 10.9907C11.6 10.7747 11.8196 10.5196 11.869 10.4238C11.9787 10.2113 12.0184 9.70242 11.9474 9.41979C11.9055 9.25337 11.0355 7.53232 10.4697 6.49681C10.114 5.84582 9.8735 5.65696 9.40318 5.65935C9.26336 5.66005 9.02208 5.69387 8.86704 5.73448Z" fill="#2A3CDB"/>
</svg>
