<svg width="52" height="52" viewBox="0 0 52 52" fill="none" xmlns="http://www.w3.org/2000/svg">
<g filter="url(#filter0_d_37_4043)">
<path d="M25.75 37.75C33.482 37.75 39.75 31.482 39.75 23.75C39.75 16.018 33.482 9.75 25.75 9.75C18.018 9.75 11.75 16.018 11.75 23.75C11.75 31.482 18.018 37.75 25.75 37.75Z" fill="white"/>
<path d="M25.75 38.5C33.8962 38.5 40.5 31.8962 40.5 23.75C40.5 15.6038 33.8962 9 25.75 9C17.6038 9 11 15.6038 11 23.75C11 31.8962 17.6038 38.5 25.75 38.5Z" stroke="black" stroke-width="1.5"/>
</g>
<path d="M32.4167 19.1538H19.5833C19.4286 19.1538 19.2803 19.2106 19.1709 19.3116C19.0615 19.4125 19 19.5495 19 19.6923C19 19.8351 19.0615 19.9721 19.1709 20.0731C19.2803 20.174 19.4286 20.2308 19.5833 20.2308H20.1667V29.9231C20.1667 30.2087 20.2896 30.4826 20.5084 30.6846C20.7272 30.8865 21.0239 31 21.3333 31H30.6667C30.9761 31 31.2728 30.8865 31.4916 30.6846C31.7104 30.4826 31.8333 30.2087 31.8333 29.9231V20.2308H32.4167C32.5714 20.2308 32.7197 20.174 32.8291 20.0731C32.9385 19.9721 33 19.8351 33 19.6923C33 19.5495 32.9385 19.4125 32.8291 19.3116C32.7197 19.2106 32.5714 19.1538 32.4167 19.1538ZM30.6667 29.9231H21.3333V20.2308H30.6667V29.9231ZM22.5 17.5385C22.5 17.3957 22.5615 17.2587 22.6709 17.1577C22.7803 17.0567 22.9286 17 23.0833 17H28.9167C29.0714 17 29.2197 17.0567 29.3291 17.1577C29.4385 17.2587 29.5 17.3957 29.5 17.5385C29.5 17.6813 29.4385 17.8182 29.3291 17.9192C29.2197 18.0202 29.0714 18.0769 28.9167 18.0769H23.0833C22.9286 18.0769 22.7803 18.0202 22.6709 17.9192C22.5615 17.8182 22.5 17.6813 22.5 17.5385Z" fill="black"/>
<defs>
<filter id="filter0_d_37_4043" x="0.25" y="0.25" width="51" height="51" filterUnits="userSpaceOnUse" color-interpolation-filters="sRGB">
<feFlood flood-opacity="0" result="BackgroundImageFix"/>
<feColorMatrix in="SourceAlpha" type="matrix" values="0 0 0 0 0 0 0 0 0 0 0 0 0 0 0 0 0 0 127 0" result="hardAlpha"/>
<feOffset dy="2"/>
<feGaussianBlur stdDeviation="5"/>
<feComposite in2="hardAlpha" operator="out"/>
<feColorMatrix type="matrix" values="0 0 0 0 0 0 0 0 0 0 0 0 0 0 0 0 0 0 0.45 0"/>
<feBlend mode="normal" in2="BackgroundImageFix" result="effect1_dropShadow_37_4043"/>
<feBlend mode="normal" in="SourceGraphic" in2="effect1_dropShadow_37_4043" result="shape"/>
</filter>
</defs>
</svg>
