<svg width="25" height="29" viewBox="0 0 25 29" fill="none" xmlns="http://www.w3.org/2000/svg">
<path fill-rule="evenodd" clip-rule="evenodd" d="M0.591695 0.784125L0.305664 1.02479V14.4827V27.9406L0.550701 28.1857L0.79583 28.4308H10.7367H20.6777L20.9494 28.1591L21.2212 27.8873V22.1982V16.5092L22.9294 13.5051C23.869 11.8528 24.6625 10.4021 24.6929 10.2812C24.8173 9.78532 24.5171 9.50217 22.8479 8.54135L21.2676 7.63167L21.2212 6.92119L21.1747 6.21072L18.3363 3.37709L15.498 0.543457H8.18783H0.877633L0.591695 0.784125ZM2.07186 14.4865V26.6646H10.7634H19.455V23.1579C19.455 20.2119 19.4353 19.6807 19.3314 19.8347C19.2636 19.9356 18.713 20.8966 18.1081 21.9702C17.5032 23.0439 16.9281 24.0121 16.8301 24.1218C16.5929 24.3875 13.4029 26.0139 13.1191 26.0139C12.8552 26.0139 12.5243 25.7997 12.3844 25.5384C12.2808 25.3447 12.1282 23.671 12.0994 22.4118L12.0829 21.6913L15.7689 15.3089L19.455 8.92639V8.22084V7.51529H17.0972H14.7395L14.4959 7.27183L14.2525 7.02828L14.2277 4.69225L14.2028 2.35613L8.13735 2.33224L2.07186 2.30835V14.4865ZM16.0155 4.68008V5.74909H17.1063H18.197L17.131 4.68008C16.5447 4.09212 16.0539 3.61106 16.0402 3.61106C16.0267 3.61106 16.0155 4.09212 16.0155 4.68008ZM5.73951 9.5097C5.40189 9.84723 5.42141 10.4144 5.78301 10.776L6.05473 11.0477H10.6573C13.3629 11.0477 15.3562 11.0111 15.4938 10.9587C16.0435 10.7497 16.1529 9.84797 15.6742 9.4714C15.4382 9.28576 15.3254 9.28148 10.7002 9.28148H5.96763L5.73951 9.5097ZM20.9999 9.79712C20.9696 9.87632 19.3546 12.6942 17.4111 16.0592C14.9794 20.2696 13.8778 22.2611 13.8783 22.4456C13.8787 22.5931 13.9052 22.9311 13.9371 23.1967L13.9951 23.6796L14.7255 23.3123C15.2603 23.0434 15.5157 22.852 15.6794 22.5971C15.8024 22.4057 16.7583 20.7432 17.8036 18.9026C18.8489 17.062 20.3382 14.4417 21.1133 13.0796C21.8884 11.7174 22.5226 10.562 22.5226 10.512C22.5226 10.424 21.2689 9.65332 21.1259 9.65332C21.0869 9.65332 21.0303 9.71801 20.9999 9.79712ZM6.00927 12.8131C5.48704 13.0239 5.35597 13.7305 5.75197 14.2011L5.99263 14.4871H10.7555H15.5183L15.7136 14.278C15.982 13.9904 16.06 13.6104 15.92 13.2724C15.6898 12.7168 15.7233 12.7204 10.7448 12.7268C8.24983 12.73 6.11887 12.7689 6.00927 12.8131ZM8.37672 16.2317L5.99003 16.2564L5.75066 16.5408C5.4888 16.8521 5.45134 17.1355 5.62238 17.5108C5.83795 17.9839 6.04469 18.0195 8.5789 18.0195C11.0524 18.0195 11.3276 17.9769 11.5508 17.5598C11.8005 17.0933 11.4625 16.3208 10.9736 16.2411C10.8579 16.2223 9.68938 16.218 8.37672 16.2317Z" fill="#FF0000"/>
</svg>
