<svg width="30" height="20" viewBox="0 0 30 20" fill="none" xmlns="http://www.w3.org/2000/svg">
<path d="M13.8072 13.3595C15.0004 12.557 15.9063 11.388 16.391 10.0253C16.8756 8.66253 16.9132 7.17843 16.4982 5.79243C16.0833 4.40643 15.2378 3.19211 14.0868 2.32905C12.9358 1.46599 11.5404 1 10.1069 1C8.67344 1 7.27803 1.46599 6.12703 2.32905C4.97602 3.19211 4.13052 4.40643 3.71557 5.79243C3.30061 7.17843 3.33823 8.66253 3.82285 10.0253C4.30748 11.388 5.21339 12.557 6.40661 13.3595C4.24819 14.163 2.40484 15.6501 1.15163 17.5986C1.08577 17.6975 1.04002 17.8087 1.01704 17.9256C0.994067 18.0425 0.994324 18.1628 1.0178 18.2796C1.04127 18.3964 1.0875 18.5073 1.15378 18.6059C1.22007 18.7045 1.3051 18.7888 1.40392 18.8539C1.50275 18.919 1.6134 18.9637 1.72944 18.9852C1.84549 19.0067 1.96461 19.0048 2.0799 18.9794C2.19518 18.954 2.30431 18.9057 2.40096 18.8374C2.49761 18.769 2.57984 18.6819 2.64288 18.5812C3.45126 17.3252 4.55741 16.2932 5.8609 15.5787C7.16438 14.8643 8.6239 14.4901 10.1069 14.4901C11.5899 14.4901 13.0494 14.8643 14.3529 15.5787C15.6564 16.2932 16.7626 17.3252 17.5709 18.5812C17.7015 18.7772 17.9032 18.9135 18.1325 18.9605C18.3617 19.0075 18.6001 18.9615 18.796 18.8324C18.9919 18.7033 19.1297 18.5015 19.1795 18.2706C19.2293 18.0398 19.1872 17.7984 19.0622 17.5986C17.809 15.6501 15.9656 14.163 13.8072 13.3595ZM5.21027 7.74767C5.21027 6.76939 5.49746 5.81307 6.0355 4.99966C6.57355 4.18625 7.3383 3.55227 8.23305 3.1779C9.12779 2.80353 10.1123 2.70557 11.0622 2.89643C12.012 3.08728 12.8845 3.55837 13.5693 4.25012C14.2542 4.94187 14.7205 5.82321 14.9095 6.7827C15.0984 7.74218 15.0014 8.73671 14.6308 9.64053C14.2602 10.5443 13.6326 11.3168 12.8273 11.8604C12.0221 12.4039 11.0754 12.694 10.1069 12.694C8.80869 12.6925 7.56407 12.1709 6.64609 11.2436C5.72811 10.3163 5.21175 9.05905 5.21027 7.74767ZM28.5961 18.8431C28.3984 18.9733 28.1575 19.0189 27.9265 18.9698C27.6955 18.9207 27.4932 18.7809 27.3642 18.5812C26.5568 17.3245 25.4508 16.292 24.147 15.5778C22.8433 14.8637 21.3833 14.4906 19.9002 14.4926C19.6641 14.4926 19.4376 14.3979 19.2706 14.2292C19.1037 14.0605 19.0099 13.8318 19.0099 13.5933C19.0099 13.3548 19.1037 13.126 19.2706 12.9574C19.4376 12.7887 19.6641 12.694 19.9002 12.694C20.6213 12.6933 21.3333 12.5317 21.9855 12.2208C22.6376 11.9099 23.2137 11.4574 23.6726 10.8955C24.1315 10.3336 24.4619 9.67631 24.6402 8.9705C24.8185 8.26469 24.8402 7.52782 24.7039 6.81254C24.5676 6.09726 24.2765 5.42122 23.8515 4.83273C23.4266 4.24424 22.8782 3.75783 22.2456 3.40824C21.6129 3.05866 20.9117 2.85453 20.1919 2.81045C19.4721 2.76637 18.7516 2.88342 18.0817 3.15325C17.9725 3.20093 17.855 3.22603 17.736 3.22704C17.617 3.22806 17.4991 3.20498 17.3891 3.15916C17.2791 3.11334 17.1793 3.04572 17.0956 2.96028C17.0119 2.87485 16.946 2.77334 16.9019 2.66175C16.8577 2.55017 16.8361 2.43076 16.8383 2.3106C16.8406 2.19044 16.8667 2.07195 16.9151 1.96215C16.9634 1.85234 17.0331 1.75345 17.1199 1.6713C17.2068 1.58915 17.3091 1.52542 17.4207 1.48388C18.9536 0.866322 20.6587 0.844098 22.2069 1.42149C23.7551 1.99889 25.0367 3.13498 25.8046 4.61062C26.5725 6.08625 26.7722 7.79686 26.3652 9.41245C25.9581 11.028 24.9732 12.4341 23.6005 13.3595C25.7589 14.163 27.6022 15.6501 28.8554 17.5986C28.9844 17.7984 29.0295 18.0417 28.9809 18.2751C28.9323 18.5085 28.7939 18.7128 28.5961 18.8431Z" fill="black" stroke="black" stroke-width="0.5"/>
</svg>
