<?xml version="1.0" encoding="UTF-8"?>
<svg id="Layer_2" data-name="Layer 2" xmlns="http://www.w3.org/2000/svg" viewBox="0 0 397.69 1090.36">
  <defs>
    <style>
      .cls-1 {
        stroke-width: 0px;
      }
    </style>
  </defs>
  <g id="Layer_1-2" data-name="Layer 1">
    <g>
      <path class="cls-1" d="M101.86,553.67c.73,11.11,1.46,22.22,2.18,33.33.06.99.3,2.13-.07,2.97-1.07,2.4-2.03,6.28-3.71,6.67-3.57.83-6.61-1.61-7.97-5.32-.54-1.47-.87-3.02-1.55-5.45-2.98,7.24-2.79,12.88,2.5,17.74,1.46,1.34,2.53,3.1,3.9,4.55,4.72,4.98,7.51,10.41,4.28,17.35-18.66-.95-31.13-13.26-31.99-31.91-.4-8.66-.63-17.34-.52-26,.15-12.25.76-24.5.97-36.75.03-1.78-.53-4.2-1.75-5.25-6.54-5.67-6.19-10,1.88-14.92-.59-23.82-1.19-47.82-1.8-72.37-4.1-1.51-11.19-2.04-10.27-9.34.74-5.93,6.75-6.39,12.24-6.73.57-6.7,1.09-13.2,1.7-19.69.92-9.81,2.4-19.6,2.74-29.43.33-9.61-.61-19.25-.73-28.88-.1-7.3.31-14.6.24-21.89-.01-1.28-1.06-2.74-1.99-3.8-2.08-2.37-5.56-4.2-6.34-6.87-1.24-4.24,3.11-6.07,6.08-8.08,1.04-.7,2.43-.88,3.47-1.24-.43-18.39-1.9-36.69-1.03-54.88,1.07-22.41,8.09-43.4,20.38-62.41,2.66-4.12,5.18-8.35,7.58-12.63,3.7-6.61,8.61-8.03,15.36-4.52,1.79.93,4.06,1.83,5.93,1.55,7.72-1.13,15.51-2.22,22.99-4.32,4.72-1.33,8.95-4.42,13.4-6.72-.16-.59-.33-1.18-.49-1.77-4.17,0-8.39-.4-12.5.09-7.6.9-15.2,2.02-22.65,3.72-1.85.42-3.11,3.41-5.13,5.79-3.25-1.08-6.74-3.35-7.39-7.85-.66-4.54,2.88-6.24,6.47-7.46-.03.53-.05,1.07-.08,1.6,2.69.6,5.43,1.88,8.06,1.69,9.12-.64,18.24-1.62,27.29-2.89,2.02-.28,3.81-2.28,5.7-3.49-.1-.55-.21-1.1-.31-1.65,1.47.48,3.25.6,4.35,1.52,3.5,2.93,5.89,1.13,7.9-1.66,5.84-8.11,6.4-17.63,6.72-27.12.04-1.26-1.28-2.62-2.1-3.86-7.51-11.34-13.46-23.39-16.16-36.8-.78-3.86-1.03-7.96-.73-11.89.9-11.44,1.55-22.95,3.5-34.23,2.73-15.8,13.47-24.54,28.28-29.12,6.58-2.04,13.17-4.35,19.99-2.2,18.14,5.73,32.39,15.65,35.93,35.96,2.79,15.99,3.5,32.31-.89,47.85-2.97,10.5-9.72,19.9-14.49,29.92-1.29,2.7-2.14,5.9-2.15,8.87-.04,10.3,3.33,19.84,9.46,27.88,2.62,3.43,7.77,4.93,11.77,7.31,1.2.71,2.52,1.28,3.61,2.14,3.28,2.6,5.79,5.64,11.05,5.42,4.81-.2,9.73,2.22,14.6,3.49.27-.45.53-.91.8-1.36-1.86-1.64-3.58-3.48-5.6-4.88-2.6-1.79-2.23-3.64-.22-5.22,2.69-2.12,5.67-3.87,7.31-4.96,3.17,2.21,5.35,3.99,7.76,5.36,10.26,5.83,19.89,12.11,28,21.14,13.24,14.74,17.73,32.82,20.64,51.12,2.78,17.48,3.32,35.39,3.88,53.14,1.26,39.61.61,79.25,4.16,118.81,2.77,30.82,5.92,61.69,4.36,92.74-.21,4.16-.32,8.32-.28,12.48.08,8.34.14,8.34,8.9,11.22-3.87,5.38-7.49,10.43-11.39,15.86-3.97-3.79-7.25-6.93-11.58-11.07,1.17,4.65-1.58,8.65,3.45,11.12.86.42.04,4.81-.43,7.29-.77,4.09-2.58,8.1-2.69,12.17-.23,8.03.73,16.08.6,24.12-.16,9.57-.88,19.13-1.52,28.69-.07,1.11-.88,2.55-1.8,3.18-6.81,4.71-13.54,9.61-20.75,13.64-1.98,1.11-5.81,0-8.17-1.24-.81-.43-.45-4.8.6-6.69,2.81-5.07,6.22-9.82,9.51-14.62,2.43-3.53,3.01-7.13,1.63-10.49-3.2,1.65-6.02,3.45-9.08,4.59-2.64.98-4.6-.31-4.88-3.28-.2-2.14-.36-4.32-.14-6.44,1.33-12.74,2.8-25.47,4.15-38.22.21-1.95.03-3.94-.93-5.98-7.89,52.31-13.41,104.97-30.05,154.52,1.47,2.15,2.5,3.66,2.91,4.26-2.49,1.25-4.94,1.69-5.26,2.77-4.06,13.65-8.99,27.19-11.35,41.16-2.87,16.97.82,33.8,6.23,50.02,9.53,28.62,15.82,57.58,8.21,87.65-4.1,16.22-9.5,32.1-14.15,48.19-1.52,5.26-2.42,10.7-3.78,16.01-1.19,4.63-2.86,9.15-3.89,13.81-1.71,7.75-3.41,15.54-4.52,23.39-1.68,11.86-1.98,23.73-.22,35.72,1.6,10.94,5.25,20.74,12.16,29.33,3.74,4.65,7.84,9.06,11.18,13.98,6.35,9.36,2.1,21.39-9.03,23.12-12.44,1.93-25.18,2.18-37.8,2.49-5.63.14-10.36-4.86-11.02-11.14-.83-7.9-.73-15.89-1.23-23.83-.2-3.23-1.27-6.42-1.3-9.64-.11-11.31-.31-22.64.26-33.93.41-8.1,2.23-16.12,2.97-24.22.39-4.28-.25-8.65-.31-12.98-.47-29.95-3.78-59.69-6.15-89.52-1.73-21.74-2.65-43.68,1.38-65.68,2.29-12.5.07-25.82-.04-38.77-.09-10.49-2.11-20.71-3.55-31.05-1.43-10.27-.14-20.92.09-31.4.07-3.32.37-6.66.91-9.94.62-3.77-1.12-5.44-4.46-6.46-4.2-1.28-5.87-.33-6.22,4.05-.08.99-.08,2-.04,2.99.05,1.32.18,2.64.29,4.08,1.77.78,3.47,1.52,6.34,2.77-6.87,1.81-6.44,6.59-6.43,10.86.02,7.08.52,14.17.69,21.25.02.86-.75,1.71-1.06,2.6-.52,1.52-1.36,3.07-1.37,4.61-.09,14.35-.17,28.71.02,43.06.22,17.02.88,34.03,1.02,51.05.08,9.61-.37,19.23-.83,28.83-1.09,22.72-2.27,45.44-3.53,68.16-.61,10.96-1.74,21.9-2.1,32.86-.23,6.95.48,13.93.88,20.89.39,6.79,1.04,13.57,1.37,20.37.51,10.46.91,20.92,1.14,31.39.02,1.06-2.32,2.5-2.06,3.17,2.28,5.78-1.6,11.32-.4,17.1.58,2.8-.03,6-.7,8.88-1.99,8.52-5.68,11.17-14.38,11.51-13.31.52-26.1-.97-38.48-6.6-8.34-3.79-13.58-15.05-2.86-23.3,7.02-5.4,10.83-12.44,14.69-19.67,5.49-10.29,6.92-21.62,7.57-33.15.82-14.55.03-28.98-3.81-42.97-5.35-19.52-11.34-38.86-17.4-58.18-8.22-26.21-13.47-52.7-6.98-80.04,2.88-12.12,7.6-23.79,10.77-35.85,2.09-7.96,2.56-16.33,4.38-24.38,2.96-13.06-.24-25.18-3.96-37.55-7.95-26.42-15.24-53.03-22.9-79.54-5.13-17.77-8.97-35.77-10.7-54.22-1.22-13.03-2.65-26.04-4.05-39.05-.07-.7-.81-1.32-1.22-1.99,0-10.57,0-21.13,0-32.09-5.19,1.99-6.12,5.1-5.41,9.1,1.06,6.01,1.94,12.06,3.15,18.04.34,1.71,1.55,3.24,2.36,4.86ZM140.99,718.11c.69,1.82,1.4,3.32,1.84,4.9,2.39,8.64,6.13,17.19,6.78,25.96,1.59,21.56-3.3,42.44-10.86,62.47-7.63,20.2-9.95,40.99-6.1,61.79,3.61,19.52,10,38.54,15.28,57.75,3.66,13.3,8.2,26.41,11.07,39.87,2.23,10.43,3.11,21.27,3.4,31.96.21,7.57-1.2,15.25-2.54,22.77-2.34,13.18-5.25,26.23-16.79,35.08-2.11,1.62-4.11,3.4-6.28,4.94-2.8,1.98-3.63,4.96-1.99,7.42,2.1,3.16,4.8,6.77,8.1,8.15,12.03,5.03,24.97,4.55,37.71,4.25,1.64-.04,4.32-2.51,4.62-4.19,1.28-7.19,2.04-14.49,2.63-21.78.5-6.08.51-12.19.73-18.29.27-7.27.84-14.54.71-21.79-.11-5.81-1.56-11.6-1.59-17.4-.12-20.46-.41-40.94.36-61.37.82-21.71,3.42-43.36,4.07-65.07.56-18.6-.63-37.24-.85-55.87-.11-9.7-1.92-19.28-.28-29.15,1.16-7.05-.18-14.52-.4-21.8-.62-.05-1.24-.11-1.86-.16-4.37,9.67-6.5,20.75-17.14,27.75.43-2.34.41-3.87.99-5.11,3.1-6.61,6.18-13.24,9.6-19.69,7.28-13.75,11.52-28.27,11.62-43.88.06-8.75-.37-17.51-.07-26.25.48-13.77,1.58-27.52,2.06-41.29.32-9.28-.22-18.59.07-27.87.26-8.26,1.19-16.5,1.72-24.76,1.04-16.42,2.18-32.84,2.9-49.27.25-5.66.65-11.88-1.33-16.94-3.05-7.78-8.32-14.66-12.2-22.15-1.41-2.72-1.56-6.1-2.28-9.18l1.99-.65c1.21,1.86,2.64,3.62,3.58,5.61,2.86,6,5.43,12.15,8.31,18.14,2.5,5.18,6.03,5.59,8.81.76,3.64-6.32,6.62-13.01,9.98-19.49.9-1.73,2.13-3.28,3.22-4.92.46.21.92.41,1.38.62-.34,2.36-.1,5.03-1.13,7.04-4,7.83-7.7,15.98-12.91,22.97-3.55,4.76-3.74,8.65-1.76,13.49.12.3.11.66.13.99.49,8.93.97,17.86,1.46,26.79,1.67,29.84,3.61,59.67,4.9,89.52.62,14.38.03,28.82,0,43.23,0,2.3.11,4.61.16,6.91.13,6.63-.11,13.29.51,19.87.49,5.24.29,12.32,3.47,15.14,5.8,5.15,6.2,12.03,9.41,17.88,2.23,4.07,4.73,7.99,6.82,12.12,1.44,2.83,2.38,5.91,3.55,8.88-.47.27-.93.53-1.4.8-9.61-4.87-11.68-16.03-18.17-23.77-.83,7.14-.71,13.89-.86,20.63-.21,9.38-.56,18.77-.97,28.15-.45,10.45-.38,20.98-1.72,31.32-1.35,10.37,2.55,20.19,1.14,30.75-1.38,10.35.83,21.21,1.66,31.83.87,11.11,2.54,22.18,2.82,33.3.41,16.47-.06,32.96-.23,49.44-.03,2.96-.38,5.92-.58,8.88.38,2.69.59,5.39.34,8.05-.44,4.58-1.8,9.16-1.67,13.7.44,15.39,1.37,30.76,2.1,46.14.38,7.88,3.91,11.78,11.92,11.54,9.28-.27,18.55-1.35,27.81-2.29,2.28-.23,4.53-1.12,6.69-1.96,6.75-2.61,8.89-8.46,5.19-14.67-1.85-3.11-4.01-6.09-6.4-8.81-6.87-7.8-13.36-15.8-15.71-26.26-1.23-5.51-2.91-11.04-3.18-16.62-.49-10.36-1.32-20.95.25-31.1,1.99-12.88,6.15-25.43,9.49-38.09,4.75-17.97,9.15-36.05,14.56-53.82,4.76-15.63,5.89-31.39,5.87-47.59-.02-16.46-7.25-30.95-10.57-46.47-2.62-12.26-6.02-24.42-7.62-36.82-1.32-10.22.25-20.55,4.16-30.38,1.99-5,3.31-10.27,5.09-15.89h-8.2c-.1-.53-.2-1.07-.31-1.6,2.87-.8,5.73-1.61,9.64-2.7,3.34-11.39,7.66-23.66,10.48-36.28,6.16-27.58,11.98-55.26,17.09-83.05,2.64-14.37,3.89-29.04,4.98-43.64.74-9.92.77-20.01-.11-29.91-.78-8.67-2.93-17.27-5.1-25.74-4.63-18.03-10.56-35.56-18.72-52.43-6.24-12.89-12.8-25.96-13.33-40.86-.05-1.35-.76-2.67-1.25-4.27-9.11,11.6-10.67,7.05-17.68-2.04,6.41-.35,5.61-5.64,5.74-9.24.66-18.8.96-37.61.98-56.42,0-6.4-1.16-12.8-1.85-19.76-12.38,1.55-22.74-2.83-32.66-8.54-1.27-.73-1.86-2.65-2.76-4.01.43-.3.87-.59,1.3-.89.87.41,1.83.7,2.61,1.24,8.91,6.29,19.13,7.94,29.67,8.65,3.83.26,6.37-.86,6.37-4.96.01-12.41.27-24.85-.34-37.23-.86-17.27-2.58-34.49-3.63-51.75-.67-11.08-.74-22.2-1.25-33.29-.06-1.26-.88-2.82-1.86-3.62-1.8-1.48-3.99-2.49-6.74-4.14-.06.03-1.05.72-2.14.91-1.9.33-3.86.35-5.79.51,1.1-1.76,1.89-3.88,3.39-5.19,2.12-1.86,4.77-3.13,7.32-4.73-10.89-10.14-14.1-16.87-17.3-35.78-14.37,6.68-28.82,7.29-43.29-.05-2.61,14.49-5.77,28.19-18.65,36.74.97,3.04,8.15,2.58,4.59,7.18-4.27,5.51-8.28,1.63-11.9-2.43.1,1.98.61,3.27,1.14,4.55,1.11,2.71,1.47,5.48-1.74,6.8-3.45,1.42-3.32-2.2-4.6-3.84-1.12-1.42-2.59-4-3.58-3.86-7.31,1.09-14.54,2.73-20.75,3.99,3.05,16.06,6.14,31.34,8.75,46.69.8,4.69.6,9.62.33,14.42-.46,8.01-4.48,13.69-11.97,16.95-1.41.61-3.05,2.25-3.31,3.65-2,10.84-3.43,21.66,2.35,32.02,4.09,7.34,8.41,14.11,18.2,13.93.8-.01,1.59.42,2.4.54,6.16.89,12.43,2.94,18.45,2.35,9.39-.92,19.28-1.38,27.24-7.89.52-.43,1.82-.2,2.58.13.29.13.39,1.84.03,2.11-4.08,3.08-8.03,8.11-12.47,8.61-14.28,1.61-28.81,2.75-42.97-1.76-1.15-.37-2.44-.29-4.37-.5,1.76,5.42,3.81,10.01,4.7,14.81,3.22,17.38,6.18,34.82,8.97,52.28,2.31,14.47-.46,28.73-4.99,42.16-7.16,21.23-16.18,41.83-24.16,62.78-7.86,20.62-10.41,42.04-9.49,64.05,1.16,27.66,4.28,55.14,9.8,82.16,5.21,25.51,12.78,50.53,19.4,75.74,1.38,5.26,3.13,10.41,4.49,14.88,2.54.52,4.24.87,5.95,1.21,0,.42.02.84.03,1.26-1.56.71-3.12,1.43-5.26,2.41ZM306.88,620.2c9.53.64,22.52-7.57,24.97-14.53.22-.62.31-1.3.37-1.96.57-6.5,1.57-13.01,1.58-19.51,0-11.66-.63-23.32-.95-34.98-.34-12.26-.91-24.53-.84-36.79.08-13.59,1.32-27.18,1.08-40.75-.34-19.56-1.51-39.11-2.4-58.66-.77-16.88-1.75-33.74-2.42-50.62-.53-13.4-1.07-26.81-.96-40.21.17-20.29,1.03-40.58,1.32-60.87.1-6.79.25-13.79-1.21-20.34-2.92-13.09-6.36-26.14-10.7-38.82-3.17-9.27-7.84-18.42-17.38-22.89-5.57-2.61-11.83-3.83-17.87-5.29-6.04-1.46-6.34-.95-7.59,5-.52,2.49-1.84,4.82-2.79,7.22-.79-.17-1.58-.35-2.36-.52.21-3.08-.16-6.35.76-9.2,1.13-3.5-.08-4.54-3.03-5.91-3.86-1.8-6.52.03-9.85,1.3-2.69,1.03-3.91,2.14-3.8,4.83.3,7.64.48,15.3.97,22.93,1.24,19.27,2.8,38.51,3.9,57.79.77,13.58,1,27.19,1.45,40.79.05,1.61,0,3.23,0,5.73,9.12-3.38,17.61-4.75,23.2-13.97,7.9-13,6.07-25.97,3.49-39.36-.33-1.74-2-3.25-3.15-4.79-.92-1.22-2.21-2.21-2.97-3.51-3.52-6.06-1.13-12.28-.29-18.52,2.66,6.47,4.51,13.18,7.21,19.53,6.67,15.73,6.35,31.3.08,46.99-.78,1.94-1.45,4.11-1.42,6.16.24,19.23,1.21,38.47.87,57.68-.42,24.51.19,48.7,6.95,72.6,5.65,19.95,10.17,40.27,14.17,60.62,2.66,13.55,7.33,26.88,5.54,41.18-2.29,18.25-3.93,36.59-5.81,54.89-.24,2.32-.26,4.66-.41,7.55,9.67-4.26,8.55-13.32,11.94-20.37,1.82,7.15,2.54,14.34,3.94,21.39,2.01,10.1-2,16.95-10.39,22.11-1.88,1.15-3.04,3.47-5.22,6.08ZM244.73,61.72c-.87-7.34-2.08-18.52-3.6-29.66-.32-2.38-1.43-4.8-2.72-6.87-6.15-9.92-15-16.09-26.38-18.88-14.78-3.62-27.41.38-37.55,11.21-9.35,9.99-9.94,23.21-11.21,35.95-.56,5.59-1.7,11.47-.58,16.79,2.01,9.51,5.06,18.89,8.57,27.98,4.4,11.4,10.87,21.18,23.2,25.93,9.01,3.47,17.89,1.62,23.86-3.95,15.58-14.53,25.83-32.37,26.4-58.51ZM101.35,223.19c-.04.45-.08.9-.13,1.34-4.76,0-9.54-.2-14.29.11-1.65.11-4.44,1.24-4.63,2.28-1.71,9.43-3.93,18.91-4.14,28.43-.41,18.11.57,36.25.6,54.37,0,4.63,2.41,5.38,5.87,5.32,11.26-.21,22.53-.52,33.78-.93.82-.03,2.32-1.24,2.29-1.85-.32-7.64,2.09-15.25-1.09-22.95-6.24-15.1-6.09-30.35.27-45.57,2.53-6.05,4.31-12.4,6.72-19.44h-24.36c1.98-2.37,2.78-4.01,4.09-4.77,3-1.74,6.28-2.98,9.36-4.6.71-.37,1.07-1.42,1.59-2.15-.92-.46-2.07-1.52-2.72-1.27-1.97.76-3.65,2.25-5.61,3.02-1.58.62-3.4.69-5.12.81-.24.02-.94-1.36-.79-1.53,1.13-1.29,2.21-2.98,3.69-3.54,6.88-2.62,13.9-2.14,22,.14-2.83-11.33-5.45-22.06-8.32-32.72-.23-.86-2.5-2.04-3.31-1.73-4.64,1.77-10.07,2.95-13.49,6.18-8.27,7.81-13.46,17.8-16.53,29.05,3.24-1,6.17-1.9,9.66-2.98v13.11c1.67.68,3.13,1.28,4.58,1.87ZM79.73,320.49c.19,4.05.82,7.66.43,11.16-1.89,17.29,1.28,34.69-2.18,52.05-2.28,11.44-2.03,23.38-2.83,35.11-.28,4.13-.47,8.29-.32,12.43.04,1.11,1.42,3.07,2.25,3.11,10.37.49,20.75.81,31.13.81,1.21,0,3.04-1.94,3.53-3.34,5.31-15.15,8.15-30.83,8.7-46.83.62-17.93.67-35.88.82-53.82.03-3.87-.6-7.74-.85-10.67h-40.68ZM267.26,395.25c4.81-.67,7.39,1.98,6.39,6.1-.3,1.24-.95,2.64-1.89,3.43-3.37,2.87-3.51,6.2-1.84,9.88,5.54,12.25,11.15,24.47,16.66,36.73,7.05,15.66,12.14,31.95,14.71,48.93,1.69,11.17,2.86,22.43,4.46,35.19,1.48-2.47,3.32-4.15,3.33-5.83.04-5.1-.43-10.22-1.08-15.29-1.25-9.83-2.13-19.77-4.28-29.42-4.83-21.71-10.43-43.24-15.55-64.89-1.79-7.57-3.11-15.24-4.59-22.88-1.67-8.64-5.33-17.13-1.72-26.19.64-1.61.4-3.63.36-5.45-.28-12.29-.54-24.58-.95-36.87-.2-6.04-.73-12.07-1.11-18.11-.6-.05-1.2-.09-1.79-.14-9.11,27.36-18.59,54.68-11.12,84.81ZM336.52,518.06c6.68.45,8.04-.08,8.63-5.58.73-6.92.64-13.94.58-20.92-.13-16.61.13-33.25-.82-49.82-1.54-26.76-4.27-53.44-5.82-80.2-.95-16.25-.58-32.58-.9-48.88-.18-9.13-1.03-18.27-.76-27.38.87-29.53-.76-58.66-13.06-86.09-3.87-8.62-8.38-17.23-16.43-22.81-7.12-4.95-14.77-9.15-22.95-14.15-.77,3.05-1.29,5.12-1.9,7.55,3.27.7,5.85,1.28,8.43,1.81,9.1,1.88,16.36,6.15,21.89,14.06,5.37,7.68,8.55,16.06,11.34,24.8,5.39,16.91,9.13,34,8.57,51.95-.62,19.92-.59,39.86-.8,59.79-.03,2.98.35,5.97.22,8.93-.35,7.51-1.52,15.03-1.2,22.5.7,16.33,2.16,32.62,3.24,48.94.52,7.89.76,15.8,1.32,23.69.77,10.93,2.31,21.84,2.43,32.78.11,9.81-1.54,19.62-1.9,29.46-.36,9.77-.08,19.57-.08,29.58ZM73.71,440.37c-2.19,26.83,1.4,54.24,1.48,81.53,5.6,0,10.71.15,15.79-.16.81-.05,1.89-2.09,2.17-3.35,1.35-6.16,2.73-12.34,3.63-18.58,2.48-17.16,5.56-34.16,11.64-50.49,1.04-2.8,1.14-5.96,1.67-8.95h-36.38ZM103.09,514.54c-.91-12.36,2.95-23.42,6.94-34.31,5.12-14,10.37-28.01,16.63-41.52,4.78-10.31,10.17-20.25,11.13-31.78.14-1.68-.56-3.8-1.6-5.15-3.04-3.93-2.39-7.85,1.99-10.2.91-.49,2.18-1.36,2.26-2.15.81-7.73,2.79-15.67,1.76-23.17-2.06-14.93-5.77-29.63-8.92-44.4-.46-2.17-1.57-4.21-2.33-6.17-4.63.64-5.91,2.84-5.75,6.98.32,8.47.02,16.96-.05,25.44-.07,8.46-.29,16.92-.17,25.37.04,3.13,1.64,6.38,1.14,9.34-1.85,11.09-4.11,22.11-6.57,33.08-.76,3.37-1.35,5.77,2.37,7.87,1.25.7,2.17,4.29,1.48,5.66-1.73,3.4-4.44,6.32-6.84,9.36-.95,1.2-2.82,2.05-3.12,3.32-4.94,21.52-9.62,43.11-14.58,64.63-.85,3.71-.27,6.14,4.24,7.82ZM96.75,588.04c6.38-21.85-4.43-40.98-4.08-60.81h-18.21c0,1.49,0,2.45,0,3.41-.03,9.79.07,19.57-.15,29.36-.2,8.54-.87,17.06-1.09,25.59-.05,1.83,1.76,3.88,1.38,5.51-3.21,13.51,6.36,26.63,21.21,27.9-2.6-2.73-4.85-5.14-7.14-7.52-4.02-4.17-6.34-8.87-5.12-14.88.36-1.77.13-3.66.38-5.46,1.48-10.55,3.01-21.1,4.55-31.64,0-.04.31-.04,1.03-.13-.47,9.98,2.66,19,7.24,28.68ZM204.08,573.86c-.47-.07-.94-.15-1.41-.22-1.63,40.8-3.27,81.6-4.9,122.51,2.16,0,3.24-.28,4.1.05,5.23,1.99,6.28-.43,6.23-5.16-.12-11.66.53-23.34.11-34.98-.53-14.45-1.98-28.86-2.73-43.3-.68-12.95-.94-25.93-1.39-38.9ZM259.27,390.73c.49-.36.98-.72,1.47-1.08-.43-30.12,5-59.15,16.16-87.01-6.04,1.77-11.96,3.84-18.04,5.15-3.14.67-3.93,1.66-3.87,4.84.43,20.47.59,40.95.83,61.43.05,3.99-.23,8.02.27,11.95.22,1.68,2.06,3.16,3.17,4.72ZM123.68,244.77c6.77-8.67,5.9-18.67,5.51-28.95-6.36,1.74-12,3.28-17.63,4.81.14.63.27,1.26.41,1.89,5.05-.67,10.09-1.33,14.87-1.96,3.96,9.09-1.75,16.32-3.15,24.21ZM67.82,434.05c.91-2.65,1.82-4.04,1.68-5.32-.1-.95-1.56-1.75-2.42-2.61-.99,1.11-2.74,2.2-2.77,3.34-.03,1.13,1.66,2.31,3.51,4.59Z"/>
      <path class="cls-1" d="M384.17,253.76c3.3.91,6.74,1.48,9.85,2.83,4.24,1.84,4.72,5.17,1.83,8.7-4.69,5.73-10.94,5.32-17.32,4.49-.32-.04-.64-.17-.95-.27-4.1-1.25-9.7-2.24-9.12-7.35.56-4.82,5.77-6.79,10.56-7.57,1.62-.27,3.3-.18,4.95-.25l.19-.58ZM378.87,263.3c1.51,1.42,2.82,3.69,4.56,4.09,3.84.89,4.38-2.55,4.1-5.05-.2-1.8-1.77-4.53-3.21-4.89-3.27-.81-4.66,1.57-5.45,5.84Z"/>
      <path class="cls-1" d="M38.85,299.26c-1.73-.62-3.46-1.25-6.71-2.42,2.69-1.02,4.03-1.37,5.21-2.02.74-.41,1.24-1.26,1.85-1.92-.7-.6-1.56-1.81-2.07-1.68-2.17.56-4.25,1.49-6.34,2.35-1.41.58-2.78,1.73-4.17,1.73-.81,0-2.41-1.91-2.26-2.68.24-1.18,1.49-2.67,2.65-3.08,7.25-2.56,14.6-2.06,21.73.46.61.21.08,3.63.08,5.57l-1.43.15c.85,1.35,1.7,2.7,2.51,3.99-4.58,5.96-20.88,5.88-25.51-1.21l14.24,2.83c.07-.69.14-1.38.21-2.08Z"/>
      <path class="cls-1" d="M28.56,429.97c1.32-.75,2.65-1.51,3.97-2.26-.03-.45-.05-.9-.08-1.36-4.24-.36-8.48-.72-12.72-1.08,6.85-4.5,12.92-10.66,22.63-9.38-.62,4.77.77,8.13,6.12,8.98-1.98.53-3.96,1.07-7.15,1.93,2.6,1.55,4.15,2.46,5.69,3.38-.06.29-.12.58-.18.87h-18.43c.05-.36.09-.72.14-1.08Z"/>
      <path class="cls-1" d="M26.44,516.24c.29-2.68.54-4.96.81-7.43h23.68l.12,1.26c-6.53,1.76-13.94-.79-20.24,2.09.08.68.15,1.36.23,2.05,1.65,0,3.31-.12,4.95.02,4.42.38,8.97.36,13.22,1.46,3.81.99,3.89,3.6.7,5.91-5.35,3.87-17.99,3.52-23.65-.88,2.08-2.07,3.54-3.29,6.59-.76,1.85,1.54,5.14,1.36,7.83,1.96.58-4.98-1.87-5.88-14.24-5.68Z"/>
      <path class="cls-1" d="M.56,420.03c3.67-1.49,7.25-3.14,10.98-4.31.74-.23,2.65,1.15,2.97,2.13.55,1.67.28,3.62.31,5.45.06,2.99-.72,6.44,5.13,6.05-.39.5-.79,1-1.18,1.5H0c5.94-3.79,5.93-7.64.56-10.82Z"/>
      <path class="cls-1" d="M19.2,507.96c3.26,5-2.12,12.03,5.6,15.3H6.76c1.22-1.73,3.57-3.6,3.56-5.44-.02-1.95-2.28-3.89-3.51-5.74,3.95-1.31,8.28-2.75,12.4-4.12Z"/>
      <path class="cls-1" d="M19.96,303.46H2.14c1.47-2.01,3.69-3.73,3.79-5.55.09-1.8-1.96-3.72-3.19-5.81,3.02-1.2,6.72-2.82,10.55-4.03.61-.19,2.36,1.35,2.63,2.34.45,1.71.12,3.62.16,5.45.06,2.9-.79,6.37,5.13,5.73-.41.62-.82,1.24-1.24,1.86Z"/>
      <path class="cls-1" d="M362.64,254.14c2.48,5.3-1.86,11.88,5.09,15.38h-17.77c-.09-.24-.17-.49-.26-.73,1.3-.71,2.59-1.42,5.01-2.75-1.4-2.68-2.78-5.34-4.22-8.09,3.5-1.1,7.8-2.45,12.16-3.81Z"/>
      <path class="cls-1" d="M105.67,134.78c6.1-5.4,6.11-6.49,1.08-11.27,2.95-1.34,5.99-2.93,9.18-4.09,2.37-.86,4.37-.35,4.21,2.9-.04.83-.02,1.67.03,2.5.24,3.57-1.32,7.91,5.34,8.81-.47.38-.94.77-1.41,1.15h-18.42Z"/>
      <path class="cls-1" d="M128.46,134.62c1.6-2.19,3.61-3.7,3.53-5.11-.11-2.19-1.64-4.3-2.58-6.47,3.22-1.13,7.44-2.6,11.57-4.05,3.4,4.88-2.56,12.58,5.6,15.63h-18.13Z"/>
      <path class="cls-1" d="M131.62,715.93c-1.47-2.16-3.26-4.19-4.22-6.56-.34-.85,1.35-2.52,2.11-3.82.91.73,2.36,1.29,2.62,2.21.7,2.41.88,4.96,1.27,7.46-.59.24-1.19.48-1.78.72Z"/>
      <path class="cls-1" d="M273.17,710.01c2.17-1.84,4.33-3.68,6.5-5.52.39.12.77.25,1.16.37-.23,1.53.09,3.77-.79,4.44-1.68,1.29-4.05,1.69-6.13,2.46-.25-.58-.49-1.17-.74-1.75Z"/>
      <path class="cls-1" d="M154.25,598.58h-16.39c1.18-2.82,2.65-5.08,2.89-7.46.12-1.21-1.99-2.64-3.41-4.36.53-.18,1.4-.5,2.29-.77,1.78-.55,3.56-1.07,5.34-1.61,1.52-.47,3.3-1.64,4.49-1.2.94.35,1.4,2.63,1.61,4.12.41,2.92.49,5.89.7,8.84.7-.03,1.4-.07,2.09-.1v-170.7h-8.04c-.29-.41-.59-.82-.88-1.23,4.05-3.79,8.1-7.58,12.01-11.24,3.13,4.06,6.16,8,9.9,12.84-7.48-.69-7.29,3.8-7.28,8.36.02,14.14.05,28.29-.12,42.43-.29,24.28-.79,48.55-1.09,72.83-.14,11.46-.02,22.92-.02,33.6,7,0,12.9-.23,18.75.11,2.51.15,5,1.36,7.4,2.34.7.29,1.06,1.42,1.57,2.17-5.88,1.87,4.58,9.32-3.3,10.14-7.75.81-15.59.87-24.07,1.29.15-.63-.19.14-.2.9-.02,20.48-.09,40.96.04,61.44.05,7.97.43,15.95.98,23.91.08,1.13,1.99,3.02,3.09,3.05,4.31.1,4.06,2.62,2.58,4.94-2.56,4-5.7,7.62-9.05,12-4.26-5.74-7.9-10.65-11.84-15.95,9.36-2,9.29-2,9.38-11.19.13-12.3.47-24.6.56-36.9.1-13.93.02-27.86.02-42.61Z"/>
      <path class="cls-1" d="M204.99,269.24c-1.47.97-2.94,1.93-4.73,3.1-3.51-2.54-6.15-6.15-11.68-6.14-2.6,0-4.48-5.59-3.41-10.77,1.49,1.24,2.58,1.98,3.47,2.92,2.99,3.15,8.03,2.21,8.66-2.07.88-6.04.84-12.22,1.12-18.35q.54-11.68-11.17-11.74c-1.58,0-3.16-.2-4.68-.3,1.44-2.32,3.52-4.2,3.56-6.12.03-1.82-2.07-3.69-3.39-5.76,3.99-1.16,8.48-2.46,14.18-4.11v13.55c.47,0,.95,0,1.42,0,.27-.83.77-1.65.79-2.49.21-9.32.29-18.64.55-27.96.08-2.93-1.26-3.85-3.92-3.7-1.59.09-3.19.02-6.41.02,4.6-5.27,8.23-9.42,11.1-12.71.45-2.8.79-4.88,1.13-6.95,3.51.87,7.03,1.74,10.54,2.61-2.12,1.35-4.23,2.69-7.3,4.65,2.07,3.78,4.54,8.31,7.41,13.55h-7.49v22.87c9.07-3.55,18.49-4.65,28.29-.69-.74,3.3-3.99,5.96-.13,8.37-1.12,1.39-2.19,3.92-3.38,3.98-6.54.33-13.12.17-19.67-.09-1.7-.07-3.36-1.12-6.6-2.28,0,11.39-.16,21.79.16,32.18.05,1.71,1.85,3.88,3.44,4.94,6.38,4.24,6.45,15.04-.17,19.1-.62.38-2.34.21-2.53-.18-.58-1.24-1.14-2.83-.82-4.05.43-1.65,1.67-3.09,2.57-4.62-.3-.26-.59-.52-.89-.77ZM214.06,218.77c2.57-.54,4.48-.81,6.3-1.36,1.32-.4,2.52-1.17,3.78-1.77-1.39-.77-2.77-2.15-4.18-2.17-2.87-.05-5.45.99-5.91,5.3Z"/>
      <path class="cls-1" d="M163.58,407.31c3.79-3.65,8.78-2.32,13.59-.19,1.19.53,1.77,2.44,2.63,3.72-1.17.61-2.4,1.84-3.5,1.73-5-.5-9.95-1.41-14.93-2.09-1.44-.2-2.95.07-4.38-.17-3.53-.6-7.14-1.08-10.49-2.26-.95-.33-1.76-3.08-1.41-4.4.24-.92,2.81-2.11,3.91-1.77,4.77,1.46,9.38,3.44,14.58,5.43Z"/>
      <path class="cls-1" d="M247.71,338.18c-2.58,5.1-4.81,9.65-7.21,14.11-.39.74-1.48,1.5-2.28,1.55-3.23.18-6.48.07-10.02.07,2.82-4.48,5.33-8.46,7.84-12.44-.39-.43-.78-.86-1.18-1.29-1.68.69-3.34,1.43-5.04,2.05-1.33.49-2.74,1.23-4.06,1.12-.9-.07-2.5-1.61-2.37-2.16.27-1.12,1.46-2.85,2.31-2.88,7.03-.23,14.08-.13,21.99-.13Z"/>
      <path class="cls-1" d="M200.87,353.19c6.66-5.09,6.65-7.18-.08-11.1,4.32-1.48,8.23-2.98,12.25-4.04.59-.16,2.21,1.59,2.5,2.68.46,1.7-.13,3.67.3,5.38.57,2.27,1.7,4.39,2.79,7.08h-17.76Z"/>
      <path class="cls-1" d="M167.67,213.19c7.59,4.65,8.5,11.61,9.91,18.52-5.85.28-9.12-5.73-9.91-18.52Z"/>
      <path class="cls-1" d="M212.43,406.43c2.09.12,3.57-.15,4.69.37,1.01.46,2.16,1.73,2.26,2.74.09.93-1.15,2.87-1.78,2.86-4.54-.08-9.09-.46-13.61-.96-.64-.07-1.16-1.31-1.73-2,.7-.57,1.32-1.47,2.11-1.64,2.9-.63,5.85-1.01,8.06-1.37Z"/>
      <path class="cls-1" d="M249.26,411.29c-.9-.12-3.06-.22-5.11-.76-.85-.23-2.05-1.43-2.01-2.13.04-.79,1.21-2.02,2.04-2.18,3.4-.63,6.86-1.25,10.28-1.16,1.47.04,2.9,1.8,4.36,2.78-1.29,1.04-2.44,2.4-3.9,3.03-1.29.55-2.93.27-5.66.43Z"/>
      <path class="cls-1" d="M190.91,413.2c-2.87-1.52-7.57-3.11-7.45-4.12.53-4.41,4.81-3.54,7.88-3.45,2.9.08,7.14-.73,7.45,3.45.08,1.1-4.76,2.56-7.88,4.12Z"/>
      <path class="cls-1" d="M228.5,206.35c1.25-4.11,2.21-7.77,3.54-11.29.35-.93,1.81-1.43,2.77-2.13.62,1.18,1.95,2.51,1.74,3.51-.76,3.68-1.91,7.29-3.22,10.82-.32.86-2.02,1.94-2.76,1.74-.88-.24-1.42-1.75-2.05-2.64Z"/>
      <path class="cls-1" d="M192.58,270.76c3.32,3.2,6.1,5.67,8.57,8.42.69.77.44,2.37.63,3.59-1.21.13-2.55.66-3.61.32-4.47-1.42-7.06-6.3-5.59-12.33Z"/>
      <path class="cls-1" d="M184.47,250.76c-.88-.75-1.67-1.15-2.04-1.79-1.55-2.74-3.1-5.49-4.35-8.37-.34-.79.08-2.29.7-2.99.43-.49,2.46-.5,2.63-.16,1.78,3.58,3.39,7.24,4.83,10.97.17.43-1.01,1.38-1.77,2.34Z"/>
      <path class="cls-1" d="M242.67,178.75c-1.08,3.24-1.91,6.28-3.16,9.14-.35.81-2.22,1.74-2.85,1.45-.88-.4-1.92-2.07-1.72-2.92.74-3.04,1.8-6.04,3.1-8.89.43-.94,1.96-1.38,2.98-2.05.53,1.06,1.06,2.12,1.64,3.27Z"/>
      <path class="cls-1" d="M159.74,181.15c1.73,4.1,3.56,8.16,5.07,12.34.22.6-.95,2.04-1.8,2.56-.6.36-2.43.03-2.55-.35-1.39-4.49-2.56-9.06-3.79-13.6,1.02-.32,2.04-.63,3.06-.95Z"/>
      <path class="cls-1" d="M217.81,247.21c-.94,3.81-1.66,7.68-2.92,11.38-.43,1.27-2.21,2.07-3.38,3.08-.27-1.39-.9-2.82-.74-4.15.29-2.44.73-4.96,1.73-7.17.77-1.7,2.49-2.97,3.78-4.44.51.43,1.02.86,1.53,1.29Z"/>
      <path class="cls-1" d="M237.32,411.42c-4.13,0-7.68.11-11.22-.08-.9-.05-1.75-1.06-2.62-1.62.58-.87.97-2.07,1.78-2.57,4.29-2.68,9.9-.99,12.06,4.27Z"/>
      <path class="cls-1" d="M171.4,207.72c-1.58,1.24-2.55,2-3.53,2.76-1.43-3.12-2.98-6.19-4.15-9.4-.17-.47,1.5-1.6,2.31-2.43,1.68,2.84,3.36,5.67,5.37,9.07Z"/>
      <path class="cls-1" d="M159.84,791.02c-1.65-5.03-3.36-10.04-4.87-15.12-.18-.62.6-1.82,1.26-2.28.37-.26,1.85.21,2.08.7,1.11,2.36,2.44,4.78,2.77,7.3.38,2.88-.23,5.88-.4,8.83l-.84.57Z"/>
      <path class="cls-1" d="M249.03,774.41c2.24,5.76.49,11.12-1.39,16.47-.74-.08-1.48-.16-2.22-.24.68-5.47,1.36-10.93,2.05-16.4.52.06,1.04.11,1.56.17Z"/>
      <path class="cls-1" d="M190.67,167.44c2.19,1.59,4.01,2.92,5.83,4.24-1.39.77-2.97,2.38-4.13,2.12-2.23-.5-4.22-2.06-6.3-3.17,1.28-.89,2.56-1.78,4.6-3.19Z"/>
      <path class="cls-1" d="M175.82,165.26c2.25,2.49,3.96,4.39,5.67,6.29-.97.64-2.36,2.04-2.84,1.78-2.17-1.17-4.08-2.81-6.08-4.28.84-.98,1.69-1.97,3.25-3.79Z"/>
      <path class="cls-1" d="M216.56,237.78c1.86-2.64,3.4-4.83,4.93-7.01.7,1.07,2.22,2.48,1.94,3.14-1.01,2.41-2.62,4.58-4,6.84-.75-.78-1.5-1.55-2.87-2.97Z"/>
      <path class="cls-1" d="M221.52,175.58c-2.08-1.4-3.25-2.19-4.42-2.97,2.02-1.22,3.94-2.67,6.11-3.5.58-.22,1.89,1.45,2.86,2.25-1.4,1.3-2.8,2.6-4.55,4.22Z"/>
      <path class="cls-1" d="M155.12,715.66c3.05-.58,6.1-1.24,9.17-1.67.43-.06,1.41.98,1.43,1.53.02.61-.7,1.71-1.23,1.79-2.99.5-6.02.76-9.04,1.1-.11-.92-.22-1.84-.33-2.76Z"/>
      <path class="cls-1" d="M173.98,717.74c1.83-3.03,8.91-3.9,9.75-1.84.21.52-1.1,2.38-1.77,2.41-2.41.11-4.84-.3-7.97-.57Z"/>
      <path class="cls-1" d="M217.59,715.13c3.04-.54,6.07-1.09,9.85-1.76-2.21,4.36-4.49,4.9-9.57,3.24-.09-.49-.19-.98-.28-1.47Z"/>
      <path class="cls-1" d="M248.65,716.64h-8.93c2.86-1.22,5.78-1.8,8.93-.9,0,.3,0,.6,0,.9Z"/>
      <path class="cls-1" d="M268.63,208.73c-5.52-7.68-3.96-14.94,3.29-15.9.37,5.49,1.45,10.94-3.29,15.9Z"/>
      <path class="cls-1" d="M322.62,546.65c-2.25-1.54-3.72-2.54-5.19-3.55,1.82-1.39,3.51-3.6,5.49-3.91,1.5-.23,3.37,1.97,5.08,3.09-1.68,1.36-3.35,2.72-5.38,4.37Z"/>
      <path class="cls-1" d="M273.54,214.83c.82,4.19,1.63,8.39,2.45,12.58-8.7-2.43-4.09-7.86-4.61-12.11l2.17-.47Z"/>
    </g>
  </g>
</svg>