<svg width="110" height="110" viewBox="0 0 110 110" fill="none" xmlns="http://www.w3.org/2000/svg">
<g filter="url(#filter0_d_4053_3113)">
<rect x="15" y="15" width="80" height="80" rx="40" fill="#FFFDFD"/>
<rect x="17" y="17" width="76" height="76" rx="38" stroke="#FF0006" stroke-width="4"/>
</g>
<path d="M51.0909 43H44.2727C43.67 43 43.0919 43.2394 42.6657 43.6657C42.2394 44.0919 42 44.67 42 45.2727V52.0909C42 52.6937 42.2394 53.2718 42.6657 53.698C43.0919 54.1242 43.67 54.3636 44.2727 54.3636H51.0909C51.6937 54.3636 52.2718 54.1242 52.698 53.698C53.1242 53.2718 53.3636 52.6937 53.3636 52.0909V45.2727C53.3636 44.67 53.1242 44.0919 52.698 43.6657C52.2718 43.2394 51.6937 43 51.0909 43ZM51.0909 52.0909H44.2727V45.2727H51.0909V52.0909ZM64.7273 43H57.9091C57.3063 43 56.7282 43.2394 56.302 43.6657C55.8758 44.0919 55.6364 44.67 55.6364 45.2727V52.0909C55.6364 52.6937 55.8758 53.2718 56.302 53.698C56.7282 54.1242 57.3063 54.3636 57.9091 54.3636H64.7273C65.33 54.3636 65.9081 54.1242 66.3343 53.698C66.7606 53.2718 67 52.6937 67 52.0909V45.2727C67 44.67 66.7606 44.0919 66.3343 43.6657C65.9081 43.2394 65.33 43 64.7273 43ZM64.7273 52.0909H57.9091V45.2727H64.7273V52.0909ZM51.0909 56.6364H44.2727C43.67 56.6364 43.0919 56.8758 42.6657 57.302C42.2394 57.7282 42 58.3063 42 58.9091V65.7273C42 66.33 42.2394 66.9081 42.6657 67.3343C43.0919 67.7606 43.67 68 44.2727 68H51.0909C51.6937 68 52.2718 67.7606 52.698 67.3343C53.1242 66.9081 53.3636 66.33 53.3636 65.7273V58.9091C53.3636 58.3063 53.1242 57.7282 52.698 57.302C52.2718 56.8758 51.6937 56.6364 51.0909 56.6364ZM51.0909 65.7273H44.2727V58.9091H51.0909V65.7273ZM64.7273 56.6364H57.9091C57.3063 56.6364 56.7282 56.8758 56.302 57.302C55.8758 57.7282 55.6364 58.3063 55.6364 58.9091V65.7273C55.6364 66.33 55.8758 66.9081 56.302 67.3343C56.7282 67.7606 57.3063 68 57.9091 68H64.7273C65.33 68 65.9081 67.7606 66.3343 67.3343C66.7606 66.9081 67 66.33 67 65.7273V58.9091C67 58.3063 66.7606 57.7282 66.3343 57.302C65.9081 56.8758 65.33 56.6364 64.7273 56.6364ZM64.7273 65.7273H57.9091V58.9091H64.7273V65.7273Z" fill="#FF0006"/>
<defs>
<filter id="filter0_d_4053_3113" x="0" y="0" width="110" height="110" filterUnits="userSpaceOnUse" color-interpolation-filters="sRGB">
<feFlood flood-opacity="0" result="BackgroundImageFix"/>
<feColorMatrix in="SourceAlpha" type="matrix" values="0 0 0 0 0 0 0 0 0 0 0 0 0 0 0 0 0 0 127 0" result="hardAlpha"/>
<feOffset/>
<feGaussianBlur stdDeviation="7.5"/>
<feComposite in2="hardAlpha" operator="out"/>
<feColorMatrix type="matrix" values="0 0 0 0 0 0 0 0 0 0 0 0 0 0 0 0 0 0 0.57 0"/>
<feBlend mode="normal" in2="BackgroundImageFix" result="effect1_dropShadow_4053_3113"/>
<feBlend mode="normal" in="SourceGraphic" in2="effect1_dropShadow_4053_3113" result="shape"/>
</filter>
</defs>
</svg>
