<svg width="22" height="22" viewBox="0 0 22 22" fill="none" xmlns="http://www.w3.org/2000/svg">
<path d="M15.125 13.7501C14.6663 13.7499 14.2124 13.8418 13.7899 14.0203C13.3674 14.1987 12.9851 14.4602 12.6654 14.789L8.70371 12.2427C9.01534 11.4436 9.01534 10.5565 8.70371 9.75741L12.6654 7.21108C13.2605 7.82065 14.0607 8.18755 14.911 8.24064C15.7612 8.29373 16.6008 8.02922 17.2671 7.49841C17.9334 6.9676 18.3788 6.2083 18.5171 5.36771C18.6554 4.52713 18.4766 3.66515 18.0154 2.9489C17.5542 2.23265 16.8435 1.71315 16.0211 1.49112C15.1987 1.2691 14.3231 1.36036 13.5641 1.74722C12.8051 2.13408 12.2169 2.78898 11.9133 3.58494C11.6098 4.3809 11.6126 5.26122 11.9212 6.05522L7.95949 8.60155C7.48243 8.11177 6.87014 7.77539 6.2009 7.63539C5.53166 7.4954 4.83588 7.55816 4.2025 7.81565C3.56912 8.07314 3.02691 8.51367 2.64519 9.08091C2.26346 9.64815 2.05957 10.3163 2.05957 11.0001C2.05957 11.6838 2.26346 12.352 2.64519 12.9192C3.02691 13.4865 3.56912 13.927 4.2025 14.1845C4.83588 14.442 5.53166 14.5047 6.2009 14.3647C6.87014 14.2247 7.48243 13.8884 7.95949 13.3986L11.9212 15.9449C11.6558 16.6294 11.6165 17.3809 11.8091 18.0894C12.0018 18.7978 12.4161 19.426 12.9916 19.8819C13.567 20.3378 14.2733 20.5975 15.007 20.623C15.7408 20.6485 16.4634 20.4383 17.069 20.0234C17.6747 19.6085 18.1316 19.0105 18.3729 18.3171C18.6141 17.6237 18.627 16.8713 18.4097 16.17C18.1924 15.4688 17.7562 14.8555 17.1652 14.42C16.5741 13.9846 15.8591 13.7498 15.125 13.7501ZM15.125 2.75007C15.5329 2.75007 15.9316 2.87103 16.2708 3.09766C16.61 3.32429 16.8744 3.64641 17.0305 4.02328C17.1866 4.40015 17.2274 4.81485 17.1478 5.21494C17.0683 5.61503 16.8718 5.98253 16.5834 6.27097C16.2949 6.55942 15.9274 6.75585 15.5273 6.83544C15.1273 6.91502 14.7126 6.87417 14.3357 6.71807C13.9588 6.56196 13.6367 6.29761 13.4101 5.95843C13.1834 5.61925 13.0625 5.22049 13.0625 4.81257C13.0625 4.26556 13.2798 3.74095 13.6666 3.35416C14.0533 2.96737 14.578 2.75007 15.125 2.75007ZM5.49996 13.0626C5.09204 13.0626 4.69328 12.9416 4.3541 12.715C4.01492 12.4883 3.75057 12.1662 3.59446 11.7894C3.43836 11.4125 3.39751 10.9978 3.47709 10.5977C3.55668 10.1976 3.75311 9.8301 4.04155 9.54166C4.33 9.25321 4.6975 9.05678 5.09759 8.9772C5.49767 8.89762 5.91237 8.93846 6.28925 9.09457C6.66612 9.25067 6.98824 9.51503 7.21487 9.8542C7.4415 10.1934 7.56246 10.5921 7.56246 11.0001C7.56246 11.5471 7.34516 12.0717 6.95837 12.4585C6.57158 12.8453 6.04697 13.0626 5.49996 13.0626ZM15.125 19.2501C14.717 19.2501 14.3183 19.1291 13.9791 18.9025C13.6399 18.6758 13.3756 18.3537 13.2195 17.9769C13.0634 17.6 13.0225 17.1853 13.1021 16.7852C13.1817 16.3851 13.3781 16.0176 13.6666 15.7292C13.955 15.4407 14.3225 15.2443 14.7226 15.1647C15.1227 15.0851 15.5374 15.126 15.9142 15.2821C16.2911 15.4382 16.6132 15.7025 16.8399 16.0417C17.0665 16.3809 17.1875 16.7796 17.1875 17.1876C17.1875 17.7346 16.9702 18.2592 16.5834 18.646C16.1966 19.0328 15.672 19.2501 15.125 19.2501Z" fill="black"/>
</svg>
