<svg width="27" height="26" viewBox="0 0 27 26" fill="none" xmlns="http://www.w3.org/2000/svg">
<path d="M26.8469 24.4179C24.8719 20.9986 21.8282 18.5468 18.2762 17.3845C20.0332 16.3371 21.3983 14.7411 22.1618 12.8416C22.9253 10.9421 23.045 8.84415 22.5026 6.8699C21.9602 4.89565 20.7857 3.15428 19.1593 1.91321C17.533 0.672145 15.5447 0 13.5 0C11.4553 0 9.46704 0.672145 7.84069 1.91321C6.21433 3.15428 5.03976 4.89565 4.49736 6.8699C3.95496 8.84415 4.07471 10.9421 4.83823 12.8416C5.60174 14.7411 6.96681 16.3371 8.72379 17.3845C5.17179 18.5455 2.12814 20.9973 0.153073 24.4179C0.0806434 24.5362 0.0326017 24.6678 0.0117819 24.805C-0.0090379 24.9421 -0.00221403 25.0821 0.0318509 25.2165C0.0659158 25.351 0.126532 25.4773 0.210122 25.5879C0.293713 25.6986 0.398585 25.7913 0.51855 25.8607C0.638516 25.9301 0.771145 25.9747 0.908613 25.992C1.04608 26.0092 1.1856 25.9987 1.31895 25.961C1.45229 25.9234 1.57675 25.8594 1.685 25.7728C1.79324 25.6862 1.88306 25.5788 1.94918 25.4569C4.3924 21.2285 8.71082 18.7039 13.5 18.7039C18.2892 18.7039 22.6076 21.2285 25.0508 25.4569C25.1169 25.5788 25.2068 25.6862 25.315 25.7728C25.4232 25.8594 25.5477 25.9234 25.6811 25.961C25.8144 25.9987 25.9539 26.0092 26.0914 25.992C26.2289 25.9747 26.3615 25.9301 26.4814 25.8607C26.6014 25.7913 26.7063 25.6986 26.7899 25.5879C26.8735 25.4773 26.9341 25.351 26.9681 25.2165C27.0022 25.0821 27.009 24.9421 26.9882 24.805C26.9674 24.6678 26.9194 24.5362 26.8469 24.4179ZM6.23778 9.35373C6.23778 7.91539 6.6637 6.50935 7.46168 5.31342C8.25967 4.11748 9.39387 3.18536 10.7209 2.63493C12.0479 2.0845 13.5081 1.94049 14.9168 2.22109C16.3255 2.5017 17.6195 3.19432 18.6352 4.21139C19.6508 5.22845 20.3425 6.52426 20.6227 7.93496C20.9029 9.34567 20.7591 10.8079 20.2094 12.1368C19.6598 13.4656 18.7289 14.6014 17.5347 15.4005C16.3404 16.1996 14.9363 16.6261 13.5 16.6261C11.5746 16.6241 9.72859 15.8572 8.36711 14.4938C7.00562 13.1304 6.23984 11.2819 6.23778 9.35373Z" fill="white"/>
</svg>
