<svg width="23" height="23" viewBox="0 0 23 23" fill="none" xmlns="http://www.w3.org/2000/svg">
<path d="M8.53887 11.8392H4.64784C2.63284 11.8392 1 10.2064 1 8.19141H8.53887" stroke="black" stroke-width="1.1" stroke-linecap="round" stroke-linejoin="round"/>
<path d="M12.1867 8.19151H12.3952C13.3679 8.19151 14.3059 7.73988 14.966 7.04505C15.6956 6.28074 16.7031 5.8291 17.8148 5.8291C20.1425 5.8291 21.9838 7.8441 21.7406 10.2413C21.5321 12.0478 20.073 13.5069 18.2664 13.6806C17.0852 13.8196 15.9735 13.4027 15.1745 12.6731C14.5839 12.1173 13.7501 11.8394 12.9163 11.8394H12.1867" stroke="black" stroke-width="1.1" stroke-linecap="round" stroke-linejoin="round"/>
<path d="M17.8148 11.8394C18.9661 11.8394 19.8993 10.9061 19.8993 9.75489C19.8993 8.60366 18.9661 7.67041 17.8148 7.67041C16.6636 7.67041 15.7303 8.60366 15.7303 9.75489C15.7303 10.9061 16.6636 11.8394 17.8148 11.8394Z" stroke="black" stroke-width="1.1" stroke-linecap="round" stroke-linejoin="round"/>
<path d="M12.1867 12.951V4.64784C12.1867 2.63284 10.5539 1 8.53886 1V12.3952C8.53886 13.3679 8.08723 14.3059 7.3924 14.966C6.62809 15.6956 6.17645 16.7031 6.17645 17.8148C6.17645 20.1425 8.19145 21.9838 10.5886 21.7406C12.3952 21.5321 13.8543 20.073 14.028 18.2665C14.167 17.0852 13.7501 15.9735 13.0205 15.1745C12.4646 14.5839 12.1867 13.7501 12.1867 12.951Z" stroke="black" stroke-width="1.1" stroke-linecap="round" stroke-linejoin="round"/>
<path d="M10.1022 19.8994C11.2535 19.8994 12.1867 18.9662 12.1867 17.8149C12.1867 16.6637 11.2535 15.7305 10.1022 15.7305C8.95102 15.7305 8.01776 16.6637 8.01776 17.8149C8.01776 18.9662 8.95102 19.8994 10.1022 19.8994Z" stroke="black" stroke-width="1.1" stroke-linecap="round" stroke-linejoin="round"/>
<path d="M10.4149 10.7973C10.8562 10.7973 11.2139 10.4396 11.2139 9.99827C11.2139 9.55697 10.8562 9.19922 10.4149 9.19922C9.97359 9.19922 9.61584 9.55697 9.61584 9.99827C9.61584 10.4396 9.97359 10.7973 10.4149 10.7973Z" stroke="black" stroke-width="1.1" stroke-linecap="round" stroke-linejoin="round"/>
</svg>
