<?xml version="1.0" encoding="UTF-8"?>
<svg id="Layer_2" data-name="Layer 2" xmlns="http://www.w3.org/2000/svg" viewBox="0 0 226.36 1082.3">
  <defs>
    <style>
      .cls-1 {
        stroke-width: 0px;
      }

      .cls-2 {
        font-family: BernardMT-Condensed, 'Bernard MT Condensed';
        font-size: 34px;
      }
    </style>
  </defs>
  <g id="Layer_2-2" data-name="Layer 2">
    <g>
      <path class="cls-1" d="M169.62,156.33c.75,1.19,1.32,2.56,2.28,3.54,14.83,14.95,20.81,34.16,25.8,53.8,1.92,7.54,3.76,15.17,4.67,22.87.77,6.51-.44,13.25.25,19.79,1.22,11.53-6.5,20.66-7.58,31.55-1.72,17.31-3.84,34.59-6.01,51.86-1.18,9.37-3.2,18.65-4.12,28.04-1.29,13.24-1.15,26.65-3.05,39.79-1.63,11.24,4,19.42,9,27.98,7.33,12.55,13.8,25.38,18.37,39.24,4.31,13.06,3.96,25.92-.33,38.69-2.48,7.37-5.83,14.45-9.02,21.56-.78,1.73-2.17,3.7-3.79,4.44-3.62,1.65-4.01,4.25-3.89,7.69.65,18.29,2.58,36.67,1.36,54.84-1.84,27.37-5.94,54.59-9.06,81.88-1,8.73-3.06,17.52-2.61,26.18.57,11.02,2.48,22.1,5.1,32.85,3.84,15.79,9.22,31.2,13.21,46.97,4.47,17.7,8.65,35.5,12,53.44,4.29,23,3.34,46.02-1.73,68.93-6.22,28.1-12.41,56.22-17.84,84.48-2.71,14.11-2.98,28.41,2.94,42.22,3.6,8.4,3.95,17.55,4.19,26.57.19,7.23-6.9,14.09-15.49,15.75-7.57,1.47-14.97,1.15-22.68.31-9.29-1.01-18.83.39-28.27.44-12.94.06-25.89-.16-38.83-.27-11.63-.09-23.27-.18-34.9-.28-1.33-.01-2.9.28-3.94-.31-2.21-1.23-5.11-2.58-5.89-4.59-.67-1.7.73-4.81,2.11-6.6,4.06-5.25,10.13-6.62,16.36-7.36,18.51-2.18,34.69-9.81,49.43-20.94,3.97-3,8.01-6.3,12.55-8.09,9.9-3.91,13.38-12.46,16.66-21.17,6.47-17.18,5.96-35.2,5.99-53.17.01-8.15,1.43-16.34.89-24.43-.76-11.42-2.55-22.79-4.26-34.13-2.68-17.75-6.23-35.39-8.33-53.21-1.51-12.79-.49-25.87-2.04-38.65-1.02-8.43-3.32-17.23-7.25-24.7-10.73-20.35-13.65-41.81-12.13-64.3.12-1.78.13-3.82-.61-5.35-3.39-6.99-7.07-13.84-11.95-21-.13.44-.11,1.09-.4,1.3-5.68,4.07-2.73,8.43-1.45,13.61,3.76,15.13,6.79,30.48,9.35,45.87,2.26,13.58,5.37,26.77,12.07,38.88,5.89,10.65,6.35,21.92,4.75,33.65-2.7,19.8,2.41,38.59,7.65,57.39,2.08,7.47,3.73,15.18,4.44,22.89,1.3,14.07,2.41,28.21,2.39,42.33-.02,12.75-1.62,25.49-2.56,38.23-.32,4.27-.84,8.52-1.12,12.78-.06.86.47,1.84.93,2.64.71,1.23,2.39,3.31,2.29,3.39-2.75,2.3-5.57,4.57-8.67,6.33-.44.25-2.71-1.89-3.54-3.28-1.89-3.18-4.89-6.66,1.9-8.38,1.39-.35,2.63-3.85,2.82-6,1.56-17.55,4.53-35.2,3.8-52.68-.84-19.93-2.28-39.98-8.55-59.51-5.37-16.72-8.21-34.19-5.85-52.22,1.83-13.98-.17-27.66-6.94-40.59-7.52-14.36-9.57-30.26-11.77-46.16-1.84-13.35-2.49-27.25-10.67-38.95-.37-.52-.73-1.05-.98-1.39-2.05.75-3.86,1.4-5.68,2.06-.29-2.07-.78-4.14-.82-6.22-.04-1.98.14-4.04.67-5.94.85-3.01,2.37-4.98,6.19-3.57,2.23.82,4.8.7,7.6,1.05-3.42-7.64-7.02-14.54-9.65-21.78-11.5-31.72-20.79-64.05-21.82-98.02-.51-16.72-.34-33.42,3.94-50.05,4.28-16.67,1.9-33.99,1.24-51.05-.61-15.76-1.56-31.52-1.82-47.29-.2-12.24,1.22-24.54.47-36.72-.66-10.76-1.09-21.97-8.64-31.13-1.65-2-1.79-5.23-2.69-7.87-3.67-10.88-4.56-21.97-2-33.18.72-3.15.2-4.24-3.05-5.17-17.51-5.03-28.78-21.98-26.28-39.3,1.24-8.6,5.9-15.71,11.91-21.49,6.54-6.29,13.84-11.89,21.24-17.18,8.07-5.77,17.32-9.98,23.12-18.57,1.86-2.75,4.05-5.31,5.6-8.21,5.55-10.36,10.96-20.8,16.23-31.31.91-1.82.9-4.1.29-6.76-1.04,1.3-2.18,2.53-3.12,3.9-8.17,11.95-16.16,24.02-24.48,35.87-8.67,12.36-21.39,20.37-32.8,29.77-4.62,3.81-9.33,7.6-13.48,11.89-8.75,9.04-10.36,20.23-7.98,32.03,2.24,11.07,7.77,20.57,16.17,28.13,6.3,5.67,9.88,12.35,10.14,20.89.41,13.38,5.64,25.41,9.98,37.84,3.34,9.56,4.35,20.19,4.87,30.43.73,14.43.09,28.94-.03,43.41-.2,23.14-.2,46.28-.83,69.41-.24,8.77-2.45,17.48-2.89,26.26-.67,13.44-1.08,26.94-.72,40.39.66,24.19,4.07,48.09,10.19,71.51,2.22,8.49,5.6,16.67,8.52,25.17,1.24-.16,2.04-.22,2.81-.38,4.8-1,5.63-.3,5.14,4.65-.3,2.97-.82,5.92-1.41,10.02-4.2-.42-8.63-.4-12.81-1.41-3.38-.82-3.63-3.9-.51-6.36,2.61-2.06,2.95-4.14,1.72-6.93-9.55-21.69-14.47-44.61-15.98-68.04-1.49-23.17-1.71-46.45-1.47-69.68.13-12.25,3.06-24.45,3.57-36.72.77-18.41.68-36.86.66-55.3-.01-15.56.05-31.14-.83-46.66-.73-12.9-2.53-25.63-7.19-38.04-3.46-9.2-4.12-19.42-6.47-29.07-1.07-4.38-2.59-8.88-4.97-12.67-5.99-9.54-13.98-18.05-18.62-28.14-8.31-18.07-3.72-34.54,11.22-47.63,4.88-4.27,9.91-8.43,15.2-12.17,19.45-13.77,33.62-32.03,45.37-52.44,1.57-2.73,3.23-5.48,5.23-7.9,6.93-8.37,8.18-17.74,5.61-28-.52-2.06-.32-4.3-.52-6.45-.63-6.9-4.96-9.46-11.43-7.06-4.92,1.82-9.88,3.82-14.99,4.7-4.94.85-7.63-2.37-10.31-6.72-5.53-8.96-5.47-18.32-4.96-28.15.1-1.95-2.41-4.57-4.37-5.97-3.66-2.6-4.09-5.7-2.88-9.53.55-1.75.77-3.73,1.77-5.18,4.53-6.58,4.94-13.83,4.48-21.5-1.41-23.61,8.98-39.78,30.95-48.77C111.84.74,123.41-.13,135.21.01c3.17.04,6.33.15,9.49.26,9.87.36,18,3.68,25.02,11.31,5.6,6.09,10.81,12.08,13.98,19.74,3.37,8.13,5.61,16.59,3.22,25.21-2.65,9.54-5.62,19.13-9.76,28.1-8.19,17.76-15.14,35.54-11.64,55.68.73,4.22,1.79,7.65,5.86,10.23,13.53,8.58,19.95,22.47,25.63,36.6,4.28,10.65,7.34,21.81,11.72,32.42,6.78,16.43,5.34,32.92,1.66,49.55-4.53,20.46-9.9,40.77-13.65,61.37-3.48,19.11-5.74,38.48-7.69,57.83-1.36,13.44,1.29,26.37,7.79,38.57,8.19,15.39,17.82,30.33,20.81,47.88,2.87,16.88,2.52,33.42-4.99,49.7-5.81,12.61-6.75,26.6-6.64,40.57.13,16.3.67,32.7-.83,48.88-1.92,20.65-5.6,41.14-8.7,61.68-3.13,20.77-2.88,41.32,2.42,61.81,7.03,27.19,13.82,54.44,20.4,81.74,8.84,36.68,9.5,73.6,1.36,110.46-3.04,13.79-8.38,27.09-11.05,40.93-2.02,10.48-1.53,21.45-2.01,32.21-.04.93.82,2.57,1.54,2.74,4.78,1.15,3.17,4.24,2.28,7.03-.55,1.74-1.46,3.36-2.19,5.04-3.04,6.99-3.86,7.13-8.77,1.54-1.21-1.38-2.46-2.71-3.65-4.1-3.23-3.75-2.91-5.81,1.47-7.91,2.93-1.41,4.07-3.46,3.98-6.73-.53-19.22,3.85-37.43,9.73-55.71,4.55-14.15,6.72-29.2,8.61-44.03,3.92-30.71-1.19-60.7-8.84-90.41-5.85-22.73-10.69-45.72-16.95-68.33-3.46-12.47-6.17-24.93-5.7-37.76.36-9.97,2.26-19.89,3.55-29.83,2.07-16.01,4.55-31.97,6.19-48.02,1.55-15.2,3.4-30.53,2.88-45.73-.34-10.14-1.72-20.21.46-30.2,2.16-9.88,4.17-19.9,7.65-29.34,8.71-23.57,6.34-46.05-4.84-68.01-4.38-8.6-8.98-17.09-13.57-25.59-6.36-11.78-6.55-24.76-6.32-37.49.2-11.08,2.07-22.18,3.76-33.18,2.48-16.11,5.31-32.17,8.3-48.2,1.06-5.7,3.18-11.19,4.6-16.83,4.36-17.29,8.88-34.78,6.98-52.65-1.09-10.24-5.04-20.31-8.55-30.14-5.03-14.05-8.49-28.78-16.9-41.47-3.32-5.01-7.17-9.38-12.48-12.2-.4.36-.79.72-1.19,1.08ZM178.72,176.19c-1.64-2.58-3.32-4.52-4.23-6.77-2.56-6.37-7.97-8.35-13.91-8.89-5.76-.53-11.61-.05-17.41-.2-14.03-.38-23.1,7.1-29.28,18.72-4.05,7.62-7.51,15.55-11.15,23.39-5.58,12.01-14.84,20.58-25.83,27.39-11.77,7.28-23.09,15.11-32.26,25.57-7.91,9.03-7.79,26.35-.6,35.88,7.13,9.45,16.96,11.53,27.88,11.82,7.28.19,12.52-2.92,16.14-8.89,2.92-4.82,5.38-9.91,8.18-14.8.46-.8,1.63-1.19,2.47-1.77.14.97.75,2.25.35,2.87-4.76,7.39-9.47,14.84-14.68,21.91-1.4,1.9-4.34,3.24-6.78,3.71-9.08,1.76-9.28,1.75-10.51,10.83-.11.82-.1,1.66-.17,2.49-1.19,15.25,3.23,29.27,9.28,42.98,1.53,3.47,3.38,7.17,3.5,10.82.6,18.38.69,36.78.94,55.17.06,4.63-.09,9.26.16,13.87.45,8.08,1.33,16.14,1.66,24.22.29,7.11.06,14.25.06,21.38,4.33-15.9,12.81-29.39,21.05-43.04.09,1.39-.11,2.68-.63,3.82-3.48,7.53-7.41,14.88-10.44,22.58-2.91,7.4-5.84,15.01-7.11,22.79-3.49,21.24-8.5,42.14-8.38,64.07.13,23.54,3.41,46.38,8.82,69.04,2.05,8.59,5.51,16.87,8.62,25.18,4.59,12.27,8.69,24.79,14.39,36.54,5.35,11.02,12.59,21.1,18.8,31.71,1.69,2.89,2.65,6.2,3.95,9.32-.76.4-1.51.79-2.27,1.19-2.26-3.32-4.51-6.64-7.35-10.81,0,4.22-.07,7.34.01,10.46.45,16.65,3.02,32.93,10.81,47.81,7.1,13.55,10.11,27.9,11.2,42.96,1.12,15.42,2.17,30.89,4.48,46.15,2.24,14.78,6.2,29.29,9.12,43.98,1.09,5.5,1.8,11.16,1.9,16.76.08,4.59-1.33,9.18-1.54,13.79-.67,14.89-.46,29.86-1.8,44.68-1.17,12.98-2.59,26.28-9.95,37.62-2.6,4-6.51,7.36-10.37,10.29-4.74,3.59-10.38,6.01-15.06,9.67-15.29,11.98-32.32,19.47-51.68,21.76-3.88.46-7.8,1.78-11.35,3.44-1.75.82-2.7,3.34-4.01,5.09,2.18,1.1,4.33,3.07,6.54,3.14,8.79.28,17.6-.16,26.4-.1,12.54.07,25.08.41,37.62.48,2.96.02,5.93-.91,8.88-.83,11.27.3,22.53,1.11,33.79,1.14,5.49.01,10.96-1.5,16.47-1.92,9.41-.71,13.27-5.02,13.26-14.32,0-7.45-1.76-14.33-4.33-21.24-2.48-6.64-4.26-13.39-3.38-20.88.93-8.01-.77-16.38.55-24.28,2.99-17.87,7.2-35.54,10.8-53.32,2.14-10.57,3.69-21.26,6.16-31.75,4.54-19.32,6.21-38.81,3.41-58.43-4.66-32.67-12.97-64.54-22.11-96.22-6.06-21-13.14-41.72-7.8-64.46,3.71-15.82,5.57-32.15,7.12-48.37,1.58-16.52,2.16-33.16,2.44-49.76.27-15.98-.52-31.98-.59-47.97-.02-3.19,1.08-6.39,1.76-10.09,1.27,1.2,2.04,1.91,3.15,2.96,9.74-14.79,13.26-31.04,14.35-48.01.08-1.28-.42-2.63-.82-3.89-1.56-4.93-3.35-9.79-4.71-14.78-.85-3.13-1.08-6.42-1.59-9.64-.35.01-.7.03-1.04.04-.22,1.11-.43,2.22-.5,2.57-5.8-13.21-11.81-26.9-17.81-40.58-1.83,3.44-2.03,6.83-3.29,9.77-4.54,10.66-9.36,21.21-14.23,31.74-6,12.99-12.25,25.87-18.17,38.89-2.05,4.5-4.29,9.17-5.02,13.98-3.18,20.97-.09,41.64,3.88,62.22.78,4.05,1.81,6.44,7.09,5.46,2.42-.45,5.93,2.13,8.02,4.24.81.82-.27,4.82-1.66,6.25-5.28,5.46-10.82,10.73-16.77,15.44-1.45,1.15-4.82.06-7.27-.27-1.95-.26-3.84-.94-6.52-1.62-.08-.13-.62-1.18-1.32-2.09-14.89-19.24-14.56-42.02-14.64-64.55-.02-6.2,2.36-12.37,2.99-18.61,1.29-12.88,1.81-25.83,3.24-38.69,1.86-16.67,4.58-33.25,6.43-49.92,1.61-14.5,2.33-29.11,3.87-43.62.71-6.72,1.83-13.53,3.85-19.96,4.53-14.42,6.86-29.13,7.27-44.15.18-6.37-.72-12.77-.94-19.17-.29-8.53-.09-17.1-.71-25.6-.36-4.84-1.61-9.7-3.1-14.34-1.06-3.32-2.79-6.61-4.95-9.34-3.99-5.07-8.6-9.65-12.74-14.62-.93-1.12-1-2.95-1.47-4.46-.22.49-.44.98-.65,1.47,4.62,3.14,9.24,6.27,13.13,8.91-.98-3.67-2.27-8.51-3.57-13.35l1.39-.46c.97,2.54,1.75,5.17,2.97,7.58,1.23,2.43,2.91,4.63,4.4,6.93-3.63-11.1,4.11-20.17,5.3-30.31.68,4.04.34,7.99.14,11.96-.43,8.39-1.49,16.82-.99,25.16.46,7.69,3.42,15.24,3.86,22.93.91,16.1,1.56,32.29,1,48.39-.38,10.83-2.79,21.63-4.73,32.36-2.39,13.22-6.06,26.25-7.69,39.54-2.59,21.12-3.8,42.41-5.88,63.6-1.12,11.41-2.96,22.75-4.26,34.15-1.63,14.36-3.36,28.72-4.42,43.12-.54,7.31.21,14.72.54,22.08.73,16.38,3.78,31.78,17.95,42.54,4.48,3.4,7.16,2.73,9.74-2.41,1-1.98,2.78-3.56,4.13-5.37,2.49-3.33,4.93-6.7,7.39-10.05-.33-.36-.65-.71-.97-1.07-1.38.38-2.79,1.14-4.14,1.04-1.88-.14-4.81-.39-5.37-1.53-2.32-4.7-4.62-9.62-5.64-14.72-1.79-9-3.15-18.16-3.74-27.32-.77-11.81.2-23.7,4.41-34.84,4.17-11.02,9.39-21.63,14.18-32.41,5.12-11.55,10.65-22.94,15.31-34.67,5.43-13.65,9.13-27.71,9.47-42.65.3-13.13,1.43-26.27,2.7-39.35,1.67-17.16,8.29-33.67,6.81-51.27-.04-.48.17-.98.22-1.48,1.46-15.91,2.83-31.82,4.43-47.71.6-5.97,1.72-11.89,2.6-17.84.37.04.75.09,1.12.13.25,3.5.49,7,.74,10.5,1.05-7.28,2.45-14.84.77-21.64-3.94-15.94-9.37-31.5-14.15-47.23-1.82-6-6.21-8.38-12.05-8.55-5.13-.15-10.28-.03-15.04-.03,5.87-7.02,13.57-2.07,21.7-1.18ZM160.71,147.52c.41-.45.83-.9,1.24-1.35-.1-.79-.15-1.58-.29-2.36-2.4-13.29-2.2-26.6,2.26-39.33,3.34-9.54,7.91-18.68,12.39-27.77,7.46-15.11,10.36-30.28,2.82-46.31-5.8-12.33-18.29-28.34-36.17-26.23-6.74.8-13.67-.21-20.47.3-5.76.43-11.62,1.27-17.14,2.92-18.49,5.54-31.81,16.84-32,37.18-.12,12.49-.28,24.38-5.89,35.74-1.95,3.95-.25,6.55,3.57,8.36,1.43.68,3.42,2.28,3.44,3.5.15,7.41-.27,14.82-.32,22.23,0,1.19.69,2.52,1.41,3.54,5.75,8.12,13.59,10.04,22.45,5.37,9.42-4.97,17.36-2.29,18.14,10.02.42,6.65,1.39,13.27,2.27,21.44,5.3-6.13,13.66-5.85,15.95-14.33,3.55,2.82,6.57,5.21,9.56,7.59-2.39,3.02-4.33,5.47-6.8,8.59,6.57.37,11.77.67,18.18,1.03-2.95-3.59-5.1-6.21-7.83-9.53,2.18-2.04,4.38-4.11,6.1-5.72,2.75,1.98,4.93,3.54,7.11,5.11ZM119.61,163.75c3.33-1.66,6.49-4.03,10.01-4.8,5.77-1.26,6.18-1.31,4.8-7.62-8.84-.05-17.53,7.23-14.81,12.42ZM162.9,158.21c.65-.92,1.29-1.84,1.94-2.75-1.92-1.4-3.84-2.8-5.76-4.19-.71,1.08-1.41,2.16-2.12,3.25,1.98,1.23,3.96,2.47,5.94,3.7Z"/>
      <path class="cls-1" d="M140.49,180.99c-7.31,5.2-8.47,11.43-7.01,18.52-5.66-6.26-2.25-16.82,7.01-18.52Z"/>
      <text class="cls-2" transform="translate(200.65 167.74)"><tspan x="0" y="0">7</tspan></text>
      <text class="cls-2" transform="translate(0 381.73)"><tspan x="0" y="0">8</tspan></text>
      <text class="cls-2" transform="translate(71.07 880.91)"><tspan x="0" y="0">9</tspan></text>
    </g>
  </g>
</svg>